<svg width="1920" height="1080" xmlns="http://www.w3.org/2000/svg"><path d="M985 150 985 161 984 162 983 162 983 163 980 166 980 167 978 169 978 170 976 172 976 173 974 175 974 176 973 177 973 178 972 179 972 180 971 181 971 183 970 184 970 187 969 188 969 193 968 194 968 198 967 199 967 205 966 206 966 208 965 209 965 211 964 212 964 214 963 215 963 216 962 217 962 218 961 219 961 221 960 222 960 225 959 226 959 228 958 229 958 230 957 231 957 232 955 234 955 235 951 239 950 239 939 250 939 251 934 256 934 257 933 258 932 258 922 268 922 269 921 270 921 271 920 272 920 274 919 275 919 276 918 277 918 279 917 280 917 281 916 282 916 283 915 284 915 285 914 286 914 287 913 288 913 289 911 291 911 292 910 293 910 294 909 295 909 297 908 298 908 299 907 300 907 302 906 303 906 304 904 306 904 307 903 308 903 309 902 310 902 311 900 313 900 315 899 316 899 318 898 319 898 322 897 323 897 326 896 327 896 329 895 330 895 331 894 332 894 333 893 334 893 335 892 336 892 337 891 338 891 339 890 340 890 341 889 342 889 344 888 345 888 347 887 348 887 350 886 351 886 353 885 354 885 356 884 357 884 358 883 359 883 360 882 361 882 363 881 364 881 366 880 367 880 369 879 370 879 372 878 373 878 375 877 376 877 378 876 379 876 381 875 382 875 386 874 387 874 392 873 393 873 396 872 397 872 400 871 401 871 404 870 405 870 410 869 411 869 421 868 422 868 430 869 431 869 433 870 434 870 435 871 436 872 436 874 438 875 438 876 439 877 439 878 440 879 440 880 441 881 441 883 439 884 439 885 438 886 438 887 437 888 437 891 434 891 433 892 432 892 431 893 430 893 422 894 421 894 406 895 405 895 397 896 396 896 389 897 388 897 384 898 383 898 380 899 379 899 378 900 377 900 376 905 371 906 371 910 367 911 367 911 366 912 365 912 364 913 363 913 362 914 361 914 359 916 357 916 356 917 355 917 354 921 350 922 350 923 349 925 349 926 348 928 348 929 347 933 347 934 348 936 348 938 350 939 350 943 354 943 355 944 356 944 357 945 358 945 360 946 361 946 367 947 368 947 382 948 383 948 389 947 390 947 410 946 411 946 415 945 416 945 419 944 420 944 423 943 424 943 426 942 427 942 429 941 430 941 432 940 433 940 435 939 436 939 439 938 440 938 443 937 444 937 447 936 448 936 452 935 453 935 456 934 457 934 459 933 460 933 461 932 462 932 464 931 465 931 466 930 467 930 470 929 471 929 473 928 474 928 481 927 482 927 488 926 489 926 496 925 497 925 508 924 509 924 518 923 519 923 528 922 529 922 536 921 537 921 586 922 587 922 593 923 594 923 600 924 601 924 616 923 617 923 627 922 628 922 634 921 635 921 640 920 641 920 648 919 649 919 656 918 657 918 664 917 665 917 672 916 673 916 679 915 680 915 683 914 684 914 687 913 688 913 691 912 692 912 694 911 695 911 697 910 698 910 704 909 705 909 711 908 712 908 717 907 718 907 720 908 721 908 723 909 724 909 726 910 727 910 729 911 730 911 731 912 732 912 733 914 735 914 736 915 737 915 738 917 740 917 741 922 746 923 746 925 748 927 748 929 750 931 750 932 751 933 751 934 750 942 750 943 749 944 749 946 747 947 747 950 744 951 744 952 743 952 742 953 741 953 737 954 736 954 733 955 732 955 728 956 727 956 722 957 721 957 704 958 703 958 692 959 691 959 686 960 685 960 680 961 679 961 674 962 673 962 668 963 667 963 662 964 661 964 654 965 653 965 646 966 645 966 638 967 637 967 629 968 628 968 622 969 621 969 616 970 615 970 610 971 609 971 606 972 605 972 602 973 601 973 598 974 597 974 595 975 594 975 590 976 589 976 585 977 584 977 581 978 580 978 577 979 576 979 573 980 572 980 569 981 568 981 566 982 565 982 563 983 562 983 560 984 559 984 558 985 557 985 555 986 554 986 553 987 552 987 550 988 549 988 547 989 546 989 545 990 544 990 542 991 541 991 540 992 539 992 538 995 535 996 535 997 534 998 534 999 533 1001 533 1002 532 1004 532 1005 533 1006 533 1014 541 1014 542 1015 543 1015 545 1016 546 1016 548 1017 549 1017 551 1018 552 1018 555 1019 556 1019 559 1020 560 1020 564 1021 565 1021 568 1022 569 1022 572 1023 573 1023 576 1024 577 1024 579 1025 580 1025 582 1026 583 1026 591 1027 592 1027 613 1028 614 1028 641 1027 642 1027 686 1026 687 1026 705 1025 706 1025 712 1024 713 1024 733 1025 734 1025 741 1031 747 1032 747 1034 749 1038 749 1039 750 1052 750 1053 749 1056 749 1057 748 1058 748 1059 747 1060 747 1061 746 1062 746 1063 745 1064 745 1068 741 1068 738 1069 737 1069 733 1070 732 1070 724 1071 723 1071 719 1070 718 1070 715 1069 714 1069 711 1068 710 1068 707 1067 706 1067 703 1066 702 1066 698 1065 697 1065 689 1066 688 1066 670 1067 669 1067 661 1068 660 1068 651 1069 650 1069 645 1070 644 1070 638 1071 637 1071 632 1072 631 1072 627 1073 626 1073 623 1074 622 1074 620 1075 619 1075 617 1076 616 1076 614 1077 613 1077 610 1078 609 1078 602 1079 601 1079 591 1080 590 1080 537 1081 536 1081 503 1080 502 1080 493 1081 492 1081 483 1082 482 1082 477 1083 476 1083 470 1082 469 1082 465 1081 464 1081 460 1080 459 1080 457 1079 456 1079 453 1078 452 1078 449 1079 448 1079 443 1080 442 1080 439 1081 438 1081 436 1082 435 1082 433 1084 431 1084 430 1086 428 1087 429 1087 434 1088 435 1088 439 1089 440 1089 444 1090 445 1090 450 1091 451 1091 474 1094 477 1095 477 1097 479 1098 479 1099 480 1100 480 1101 481 1102 481 1103 482 1105 482 1106 483 1108 483 1109 482 1115 482 1116 481 1117 481 1121 477 1121 476 1123 474 1123 473 1124 472 1124 469 1125 468 1125 465 1126 464 1126 462 1127 461 1127 457 1128 456 1128 443 1127 442 1127 436 1126 435 1126 430 1125 429 1125 426 1124 425 1124 421 1123 420 1123 417 1122 416 1122 412 1121 411 1121 407 1120 406 1120 402 1119 401 1119 398 1118 397 1118 394 1117 393 1117 391 1116 390 1116 388 1115 387 1115 385 1114 384 1114 381 1113 380 1113 376 1112 375 1112 372 1111 371 1111 367 1110 366 1110 361 1109 360 1109 356 1108 355 1108 351 1107 350 1107 347 1106 346 1106 344 1105 343 1105 340 1104 339 1104 335 1103 334 1103 330 1102 329 1102 325 1101 324 1101 319 1100 318 1100 313 1099 312 1099 308 1098 307 1098 303 1097 302 1097 299 1096 298 1096 295 1095 294 1095 292 1094 291 1094 290 1093 289 1093 287 1092 286 1092 284 1091 283 1091 281 1090 280 1090 279 1089 278 1089 276 1088 275 1088 273 1087 272 1087 270 1086 269 1086 268 1085 267 1085 266 1084 265 1084 264 1083 263 1083 262 1082 261 1082 260 1081 259 1081 258 1080 257 1080 256 1078 254 1078 253 1077 252 1077 251 1076 250 1076 249 1074 247 1074 246 1066 238 1065 238 1059 232 1059 231 1057 229 1057 228 1056 227 1056 226 1055 225 1055 224 1054 223 1054 222 1053 221 1053 220 1052 219 1052 217 1051 216 1051 215 1050 214 1050 213 1049 212 1049 210 1048 209 1048 208 1047 207 1047 205 1046 204 1046 201 1045 200 1045 199 1044 198 1044 196 1043 195 1043 194 1042 193 1042 191 1041 190 1041 188 1040 187 1040 186 1039 185 1039 183 1038 182 1038 181 1037 180 1037 178 1036 177 1036 176 1035 175 1035 174 1033 172 1033 171 1031 169 1031 168 1029 166 1029 165 1027 163 1027 162 1026 161 1026 150 "/></svg>