<svg width="1920" height="1080" xmlns="http://www.w3.org/2000/svg"><path d="M985 146 985 156 981 160 981 161 978 164 978 165 977 166 977 167 975 169 975 170 974 171 974 172 973 173 973 174 972 175 972 176 971 177 971 179 970 180 970 183 969 184 969 188 968 189 968 193 967 194 967 200 966 201 966 204 965 205 965 208 964 209 964 211 963 212 963 214 962 215 962 216 961 217 961 219 960 220 960 221 959 222 959 224 958 225 958 226 957 227 957 228 954 231 954 232 948 238 947 238 942 243 942 244 939 247 939 248 932 255 931 255 920 266 920 267 918 269 918 270 917 271 917 272 916 273 916 274 915 275 915 276 914 277 914 278 913 279 913 280 912 281 912 282 911 283 911 284 910 285 910 286 909 287 909 288 908 289 908 290 907 291 907 292 906 293 906 294 905 295 905 296 904 297 904 298 903 299 903 300 902 301 902 302 900 304 900 305 898 307 898 308 896 310 896 311 895 312 895 314 894 315 894 318 893 319 893 321 892 322 892 324 891 325 891 327 890 328 890 329 889 330 889 331 887 333 887 334 886 335 886 336 885 337 885 339 884 340 884 342 883 343 883 345 882 346 882 348 881 349 881 351 880 352 880 354 879 355 879 357 878 358 878 360 877 361 877 362 876 363 876 364 875 365 875 366 874 367 874 369 873 370 873 371 872 372 872 373 871 374 871 376 870 377 870 378 869 379 869 381 868 382 868 386 867 387 867 391 866 392 866 395 865 396 865 398 864 399 864 403 863 404 863 405 864 406 864 410 865 411 865 413 866 414 866 416 867 417 867 418 868 419 868 420 869 421 869 422 870 423 870 424 871 425 871 426 872 427 873 427 875 429 876 428 879 428 880 427 883 427 884 426 885 426 885 425 886 424 886 422 887 421 887 418 888 417 888 415 889 414 889 411 890 410 890 407 891 406 891 400 892 399 892 394 893 393 893 389 894 388 894 384 895 383 895 381 896 380 896 379 898 377 898 376 900 374 900 373 907 366 907 365 908 364 908 362 909 361 909 359 910 358 910 357 911 356 911 354 912 353 912 352 913 351 913 350 919 344 921 344 922 343 923 343 924 342 925 342 926 341 927 341 928 340 929 340 930 341 931 341 932 342 934 342 935 343 936 343 937 344 938 344 940 346 940 348 941 349 941 350 942 351 942 352 943 353 943 355 944 356 944 358 945 359 945 395 944 396 944 408 943 409 943 413 942 414 942 418 941 419 941 422 940 423 940 426 939 427 939 429 938 430 938 433 937 434 937 437 936 438 936 441 935 442 935 447 934 448 934 453 933 454 933 458 932 459 932 463 931 464 931 467 930 468 930 471 929 472 929 476 928 477 928 479 927 480 927 484 926 485 926 489 925 490 925 497 924 498 924 507 923 508 923 518 922 519 922 534 921 535 921 591 922 592 922 624 921 625 921 635 920 636 920 643 919 644 919 649 918 650 918 654 917 655 917 658 916 659 916 663 915 664 915 669 914 670 914 675 913 676 913 681 912 682 912 685 911 686 911 690 910 691 910 694 909 695 909 699 908 700 908 705 907 706 907 710 906 711 906 716 905 717 905 720 906 721 906 723 907 724 907 726 908 727 908 728 909 729 909 730 910 731 910 732 911 733 911 734 912 735 912 736 913 737 913 738 914 739 914 740 916 742 916 743 918 745 919 745 921 747 922 747 923 748 924 748 925 749 926 749 927 750 939 750 940 749 941 749 942 748 943 748 944 747 945 747 947 745 948 745 949 744 949 743 950 742 950 741 951 740 951 738 952 737 952 734 953 733 953 729 954 728 954 724 955 723 955 717 956 716 956 698 957 697 957 693 958 692 958 688 959 687 959 684 960 683 960 679 961 678 961 673 962 672 962 665 963 664 963 656 964 655 964 646 965 645 965 637 966 636 966 628 967 627 967 623 968 622 968 619 969 618 969 616 970 615 970 613 971 612 971 609 972 608 972 605 973 604 973 599 974 598 974 593 975 592 975 586 976 585 976 580 977 579 977 576 978 575 978 572 979 571 979 568 980 567 980 565 981 564 981 562 982 561 982 559 983 558 983 556 984 555 984 553 985 552 985 550 986 549 986 547 987 546 987 544 988 543 988 542 989 541 989 539 990 538 990 537 992 535 993 535 995 533 996 533 998 531 999 531 1000 530 1003 530 1004 531 1005 531 1006 532 1007 532 1010 535 1011 535 1013 537 1013 538 1014 539 1014 541 1015 542 1015 545 1016 546 1016 548 1017 549 1017 552 1018 553 1018 557 1019 558 1019 561 1020 562 1020 566 1021 567 1021 569 1022 570 1022 573 1023 574 1023 576 1024 577 1024 579 1025 580 1025 584 1026 585 1026 614 1027 615 1027 639 1026 640 1026 702 1025 703 1025 711 1024 712 1024 718 1023 719 1023 721 1024 722 1024 732 1025 733 1025 739 1026 740 1026 742 1032 748 1033 748 1034 749 1037 749 1038 750 1043 750 1044 751 1045 750 1054 750 1055 749 1057 749 1058 748 1059 748 1060 747 1061 747 1062 746 1063 746 1064 745 1065 745 1069 741 1069 733 1070 732 1070 716 1069 715 1069 712 1068 711 1068 708 1067 707 1067 704 1066 703 1066 700 1065 699 1065 674 1066 673 1066 666 1067 665 1067 657 1068 656 1068 648 1069 647 1069 641 1070 640 1070 633 1071 632 1071 627 1072 626 1072 622 1073 621 1073 618 1074 617 1074 614 1075 613 1075 611 1076 610 1076 608 1077 607 1077 602 1078 601 1078 593 1079 592 1079 582 1080 581 1080 537 1081 536 1081 511 1080 510 1080 483 1079 482 1079 469 1078 468 1078 465 1077 464 1077 462 1076 461 1076 459 1075 458 1075 456 1074 455 1074 454 1073 453 1073 451 1072 450 1072 438 1071 437 1071 425 1072 424 1072 422 1073 421 1073 420 1074 419 1074 418 1075 417 1075 416 1080 411 1081 411 1084 408 1085 408 1086 407 1088 409 1088 411 1089 412 1089 413 1090 414 1090 417 1091 418 1091 420 1092 421 1092 425 1093 426 1093 430 1094 431 1094 435 1095 436 1095 439 1096 440 1096 443 1097 444 1097 447 1098 448 1098 452 1099 453 1099 458 1100 459 1100 462 1101 463 1101 465 1102 466 1102 468 1103 469 1103 471 1107 475 1113 475 1114 474 1118 474 1120 472 1120 471 1121 470 1121 469 1122 468 1122 467 1123 466 1123 465 1125 463 1125 462 1126 461 1126 460 1128 458 1128 457 1129 456 1129 454 1130 453 1130 451 1131 450 1131 443 1130 442 1130 426 1129 425 1129 422 1128 421 1128 419 1127 418 1127 415 1126 414 1126 411 1125 410 1125 407 1124 406 1124 401 1123 400 1123 395 1122 394 1122 390 1121 389 1121 384 1120 383 1120 380 1119 379 1119 377 1118 376 1118 374 1117 373 1117 372 1116 371 1116 369 1115 368 1115 366 1114 365 1114 362 1113 361 1113 357 1112 356 1112 352 1111 351 1111 347 1110 346 1110 343 1109 342 1109 339 1108 338 1108 335 1107 334 1107 331 1106 330 1106 328 1105 327 1105 324 1104 323 1104 319 1103 318 1103 312 1102 311 1102 306 1101 305 1101 300 1100 299 1100 294 1099 293 1099 290 1098 289 1098 287 1097 286 1097 285 1096 284 1096 283 1095 282 1095 281 1094 280 1094 278 1093 277 1093 276 1092 275 1092 273 1091 272 1091 270 1090 269 1090 267 1089 266 1089 264 1088 263 1088 262 1087 261 1087 260 1086 259 1086 258 1084 256 1084 255 1083 254 1083 253 1082 252 1082 251 1081 250 1081 249 1080 248 1080 247 1079 246 1079 245 1077 243 1077 242 1073 238 1072 238 1068 234 1067 234 1060 227 1060 226 1058 224 1058 222 1056 220 1056 219 1055 218 1055 217 1054 216 1054 215 1052 213 1052 212 1051 211 1051 210 1050 209 1050 208 1049 207 1049 206 1048 205 1048 204 1047 203 1047 201 1046 200 1046 198 1045 197 1045 195 1044 194 1044 193 1043 192 1043 191 1042 190 1042 188 1041 187 1041 186 1040 185 1040 183 1039 182 1039 181 1038 180 1038 178 1037 177 1037 175 1036 174 1036 173 1035 172 1035 171 1034 170 1034 169 1032 167 1032 166 1030 164 1030 163 1028 161 1028 160 1026 158 1026 146 "/></svg>