<svg width="1920" height="1080" xmlns="http://www.w3.org/2000/svg"><path d="M989 146 989 157 988 158 987 158 984 161 983 161 975 169 975 170 974 171 974 172 973 173 973 174 972 175 972 176 971 177 971 178 970 179 970 181 969 182 969 184 968 185 968 187 967 188 967 191 966 192 966 195 965 196 965 201 964 202 964 205 963 206 963 209 962 210 962 213 961 214 961 217 960 218 960 221 959 222 959 225 958 226 958 227 955 230 955 231 945 241 944 241 940 245 940 246 937 249 937 250 927 260 927 261 926 262 926 263 925 264 925 265 924 266 924 267 923 268 923 270 922 271 922 273 921 274 921 275 920 276 920 277 917 280 917 281 916 282 916 283 914 285 914 286 913 287 913 288 912 289 912 290 911 291 911 293 910 294 910 296 909 297 909 298 908 299 908 301 907 302 907 304 906 305 906 308 905 309 905 312 904 313 904 317 903 318 903 322 902 323 902 326 901 327 901 328 900 329 900 331 899 332 899 334 898 335 898 337 897 338 897 342 896 343 896 346 895 347 895 350 894 351 894 354 893 355 893 358 892 359 892 362 891 363 891 366 890 367 890 369 889 370 889 374 888 375 888 379 887 380 887 387 886 388 886 397 885 398 885 407 884 408 884 414 883 415 883 420 882 421 882 425 881 426 881 432 882 433 882 442 883 443 883 450 884 451 884 452 886 454 886 455 889 458 889 459 899 459 899 458 900 457 900 456 901 455 901 454 902 453 902 451 903 450 903 446 904 445 904 440 905 439 905 434 906 433 906 428 907 427 907 401 908 400 908 395 909 394 909 393 910 392 910 390 911 389 911 386 912 385 912 383 914 381 914 380 920 374 921 374 923 372 924 372 924 371 925 370 926 370 926 369 928 367 929 367 930 366 936 366 937 365 940 368 940 369 941 370 941 371 942 372 942 373 943 374 943 376 944 377 944 378 945 379 945 381 946 382 946 390 947 391 947 408 946 409 946 413 945 414 945 418 944 419 944 422 943 423 943 427 942 428 942 432 941 433 941 437 940 438 940 442 939 443 939 447 938 448 938 451 937 452 937 454 936 455 936 458 935 459 935 462 934 463 934 468 933 469 933 475 932 476 932 483 931 484 931 491 930 492 930 501 929 502 929 514 928 515 928 523 927 524 927 532 926 533 926 543 925 544 925 562 924 563 924 570 923 571 923 579 922 580 922 609 921 610 921 617 920 618 920 625 919 626 919 632 918 633 918 644 917 645 917 656 916 657 916 663 915 664 915 670 914 671 914 677 913 678 913 681 912 682 912 685 911 686 911 689 910 690 910 691 909 692 909 694 908 695 908 698 907 699 907 707 906 708 906 717 905 718 905 722 906 723 906 724 907 725 907 727 908 728 908 729 909 730 909 731 914 736 914 737 921 744 922 744 924 746 925 746 926 747 927 747 928 748 931 748 932 749 935 749 936 750 939 750 940 749 941 749 942 748 943 748 944 747 945 747 949 743 949 742 950 741 950 740 951 739 951 738 952 737 952 735 953 734 953 732 954 731 954 729 955 728 955 726 956 725 956 721 957 720 957 708 958 707 958 695 959 694 959 686 960 685 960 675 961 674 961 666 962 665 962 656 963 655 963 647 964 646 964 640 965 639 965 634 966 633 966 629 967 628 967 624 968 623 968 618 969 617 969 611 970 610 970 605 971 604 971 598 972 597 972 592 973 591 973 586 974 585 974 583 975 582 975 580 976 579 976 578 977 577 977 576 978 575 978 574 979 573 979 571 980 570 980 569 981 568 981 566 982 565 982 562 983 561 983 559 984 558 984 557 985 556 985 555 986 554 986 553 987 552 987 551 988 550 988 549 989 548 989 547 990 546 990 545 991 544 991 542 992 541 992 539 994 537 994 536 997 533 998 533 999 532 1000 532 1001 531 1002 531 1003 530 1007 530 1009 532 1010 532 1012 534 1013 534 1016 537 1016 538 1017 539 1017 542 1018 543 1018 546 1019 547 1019 550 1020 551 1020 555 1021 556 1021 560 1022 561 1022 565 1023 566 1023 569 1024 570 1024 573 1025 574 1025 577 1026 578 1026 581 1027 582 1027 605 1028 606 1028 630 1029 631 1028 632 1028 679 1027 680 1027 702 1026 703 1026 711 1025 712 1025 719 1024 720 1024 722 1025 723 1025 732 1026 733 1026 737 1027 738 1027 741 1028 742 1028 744 1029 745 1030 745 1034 749 1036 749 1037 750 1039 750 1040 751 1045 751 1046 752 1047 751 1056 751 1057 750 1059 750 1060 749 1062 749 1063 748 1064 748 1066 746 1067 746 1070 743 1070 739 1071 738 1071 727 1072 726 1072 721 1071 720 1071 718 1070 717 1070 714 1069 713 1069 710 1068 709 1068 705 1067 704 1067 699 1066 698 1066 695 1067 694 1067 662 1068 661 1068 650 1069 649 1069 643 1070 642 1070 638 1071 637 1071 633 1072 632 1072 629 1073 628 1073 626 1074 625 1074 621 1075 620 1075 616 1076 615 1076 611 1077 610 1077 596 1078 595 1078 575 1079 574 1079 538 1080 537 1080 532 1081 531 1081 527 1082 526 1082 524 1083 523 1083 522 1084 521 1084 519 1085 518 1085 515 1086 514 1086 512 1087 511 1087 509 1092 504 1096 504 1097 503 1102 503 1103 502 1104 502 1105 501 1107 501 1108 500 1109 500 1110 499 1111 499 1114 496 1114 495 1115 494 1115 493 1116 492 1116 491 1117 490 1117 489 1118 488 1118 487 1119 486 1119 485 1120 484 1120 483 1121 482 1121 479 1122 478 1122 475 1123 474 1123 471 1122 470 1122 463 1121 462 1121 456 1120 455 1120 450 1119 449 1119 446 1118 445 1118 441 1117 440 1117 436 1116 435 1116 432 1115 431 1115 427 1114 426 1114 423 1113 422 1113 420 1112 419 1112 417 1111 416 1111 415 1110 414 1110 412 1109 411 1109 409 1108 408 1108 405 1107 404 1107 400 1106 399 1106 394 1105 393 1105 388 1104 387 1104 379 1103 378 1103 367 1102 366 1102 356 1101 355 1101 348 1100 347 1100 340 1099 339 1099 334 1098 333 1098 329 1097 328 1097 323 1096 322 1096 317 1095 316 1095 311 1094 310 1094 305 1093 304 1093 300 1092 299 1092 296 1091 295 1091 292 1090 291 1090 289 1089 288 1089 286 1088 285 1088 283 1087 282 1087 280 1086 279 1086 277 1085 276 1085 274 1084 273 1084 271 1083 270 1083 269 1082 268 1082 266 1081 265 1081 263 1080 262 1080 261 1079 260 1079 259 1078 258 1078 256 1077 255 1077 254 1076 253 1076 252 1075 251 1075 250 1074 249 1074 248 1073 247 1073 246 1071 244 1071 243 1065 237 1064 237 1061 234 1060 234 1056 230 1056 229 1054 227 1054 226 1052 224 1052 223 1051 222 1051 221 1050 220 1050 219 1049 218 1049 217 1048 216 1048 215 1047 214 1047 213 1046 212 1046 211 1045 210 1045 209 1043 207 1043 205 1042 204 1042 201 1041 200 1041 197 1040 196 1040 194 1039 193 1039 191 1038 190 1038 188 1037 187 1037 186 1036 185 1036 184 1034 182 1034 181 1032 179 1032 178 1031 177 1031 175 1030 174 1030 173 1029 172 1029 171 1028 170 1028 169 1026 167 1026 166 1025 165 1025 164 1022 161 1021 161 1019 159 1018 159 1017 158 1016 158 1015 157 1015 146 "/></svg>