<svg width="1920" height="1080" xmlns="http://www.w3.org/2000/svg"><path d="M985 150 985 161 979 167 979 168 977 170 977 171 975 173 975 174 973 176 973 177 972 178 972 179 971 180 971 181 970 182 970 185 969 186 969 189 968 190 968 195 967 196 967 202 966 203 966 207 965 208 965 210 964 211 964 213 963 214 963 216 962 217 962 218 961 219 961 220 960 221 960 223 959 224 959 226 958 227 958 229 957 230 957 231 956 232 956 233 953 236 953 237 951 239 950 239 944 245 944 246 941 249 941 250 937 254 937 255 926 266 926 267 924 269 924 270 923 271 923 272 922 273 922 274 920 276 920 277 919 278 919 279 918 280 918 281 917 282 917 284 916 285 916 286 915 287 915 288 914 289 914 291 913 292 913 294 912 295 912 296 911 297 911 299 910 300 910 301 909 302 909 303 908 304 908 305 907 306 907 307 906 308 906 309 905 310 905 311 904 312 904 314 903 315 903 316 902 317 902 319 901 320 901 322 900 323 900 324 899 325 899 326 898 327 898 329 897 330 897 331 896 332 896 334 895 335 895 338 894 339 894 341 893 342 893 344 892 345 892 347 891 348 891 349 890 350 890 351 889 352 889 353 888 354 888 355 887 356 887 357 886 358 886 360 885 361 885 363 884 364 884 367 883 368 883 369 882 370 882 372 881 373 881 374 880 375 880 376 878 378 878 380 877 381 877 382 876 383 876 386 875 387 875 391 874 392 874 397 873 398 873 402 872 403 872 406 871 407 871 409 870 410 870 413 869 414 869 415 868 416 868 419 867 420 867 423 866 424 866 427 865 428 865 432 866 433 866 436 867 437 867 440 868 441 868 443 873 448 874 448 877 451 879 451 880 450 881 450 884 447 885 447 887 445 888 445 889 444 889 443 891 441 891 440 892 439 892 437 893 436 893 435 894 434 894 433 895 432 895 427 896 426 896 412 897 411 897 404 898 403 898 398 899 397 899 395 900 394 900 391 901 390 901 388 902 387 902 385 903 384 903 383 905 381 905 380 910 375 910 374 911 373 911 372 912 371 912 370 913 369 913 368 914 367 914 365 915 364 915 362 916 361 916 360 917 359 917 358 918 357 918 356 920 354 921 354 922 353 923 353 924 352 926 352 927 351 929 351 930 350 931 351 933 351 934 352 936 352 937 353 938 353 939 354 940 354 942 356 942 357 943 358 943 360 944 361 944 362 945 363 945 370 946 371 946 380 947 381 947 397 946 398 946 411 945 412 945 416 944 417 944 421 943 422 943 425 942 426 942 429 941 430 941 432 940 433 940 435 939 436 939 438 938 439 938 442 937 443 937 447 936 448 936 452 935 453 935 456 934 457 934 461 933 462 933 465 932 466 932 469 931 470 931 472 930 473 930 475 929 476 929 480 928 481 928 485 927 486 927 492 926 493 926 500 925 501 925 513 924 514 924 527 923 528 923 540 922 541 922 593 923 594 923 606 924 607 924 611 923 612 923 624 922 625 922 633 921 634 921 640 920 641 920 646 919 647 919 653 918 654 918 660 917 661 917 667 916 668 916 675 915 676 915 680 914 681 914 685 913 686 913 689 912 690 912 693 911 694 911 696 910 697 910 699 909 700 909 706 908 707 908 713 907 714 907 720 906 721 907 722 907 724 908 725 908 726 909 727 909 728 910 729 910 730 912 732 912 733 914 735 914 736 916 738 916 739 918 741 918 742 923 747 924 747 926 749 927 749 928 750 929 750 930 751 940 751 941 750 942 750 943 749 944 749 947 746 948 746 950 744 950 743 951 742 951 741 952 740 952 737 953 736 953 734 954 733 954 730 955 729 955 725 956 724 956 715 957 714 957 697 958 696 958 691 959 690 959 685 960 684 960 679 961 678 961 673 962 672 962 666 963 665 963 659 964 658 964 649 965 648 965 639 966 638 966 630 967 629 967 623 968 622 968 617 969 616 969 611 970 610 970 607 971 606 971 604 972 603 972 600 973 599 973 596 974 595 974 592 975 591 975 587 976 586 976 583 977 582 977 579 978 578 978 575 979 574 979 572 980 571 980 569 981 568 981 566 982 565 982 563 983 562 983 561 984 560 984 558 985 557 985 556 986 555 986 553 987 552 987 551 988 550 988 549 989 548 989 546 990 545 990 544 991 543 991 542 997 536 998 536 1000 534 1001 534 1002 533 1003 533 1004 534 1005 534 1006 535 1007 535 1009 537 1010 537 1012 539 1013 539 1014 540 1014 542 1015 543 1015 545 1016 546 1016 549 1017 550 1017 552 1018 553 1018 556 1019 557 1019 560 1020 561 1020 564 1021 565 1021 568 1022 569 1022 572 1023 573 1023 575 1024 576 1024 578 1025 579 1025 582 1026 583 1026 587 1027 588 1027 616 1028 617 1028 643 1027 644 1027 685 1026 686 1026 706 1025 707 1025 714 1024 715 1024 728 1025 729 1025 732 1026 733 1026 736 1027 737 1027 740 1028 741 1028 742 1029 743 1029 744 1032 747 1033 747 1035 749 1038 749 1039 750 1042 750 1043 751 1048 751 1049 750 1055 750 1056 749 1058 749 1059 748 1060 748 1061 747 1062 747 1063 746 1064 746 1067 743 1067 742 1068 741 1068 740 1069 739 1069 737 1070 736 1070 732 1071 731 1071 726 1072 725 1072 720 1071 719 1071 717 1070 716 1070 713 1069 712 1069 708 1068 707 1068 703 1067 702 1067 668 1068 667 1068 654 1069 653 1069 648 1070 647 1070 641 1071 640 1071 635 1072 634 1072 630 1073 629 1073 626 1074 625 1074 623 1075 622 1075 620 1076 619 1076 617 1077 616 1077 613 1078 612 1078 606 1079 605 1079 594 1080 593 1080 526 1081 525 1081 492 1082 491 1082 488 1083 487 1083 484 1084 483 1084 481 1086 479 1088 481 1089 481 1091 483 1093 483 1094 484 1096 484 1097 485 1100 485 1101 486 1112 486 1113 485 1117 485 1125 477 1125 476 1126 475 1126 473 1127 472 1127 462 1128 461 1128 448 1127 447 1127 443 1126 442 1126 438 1125 437 1125 432 1124 431 1124 428 1123 427 1123 423 1122 422 1122 419 1121 418 1121 415 1120 414 1120 411 1119 410 1119 407 1118 406 1118 404 1117 403 1117 401 1116 400 1116 398 1115 397 1115 396 1114 395 1114 393 1113 392 1113 389 1112 388 1112 385 1111 384 1111 379 1110 378 1110 373 1109 372 1109 368 1108 367 1108 362 1107 361 1107 358 1106 357 1106 353 1105 352 1105 350 1104 349 1104 345 1103 344 1103 339 1102 338 1102 334 1101 333 1101 328 1100 327 1100 322 1099 321 1099 316 1098 315 1098 311 1097 310 1097 307 1096 306 1096 303 1095 302 1095 299 1094 298 1094 295 1093 294 1093 292 1092 291 1092 289 1091 288 1091 286 1090 285 1090 283 1089 282 1089 280 1088 279 1088 277 1087 276 1087 275 1086 274 1086 272 1085 271 1085 270 1084 269 1084 268 1083 267 1083 265 1081 263 1081 262 1080 261 1080 259 1078 257 1078 256 1077 255 1077 254 1075 252 1075 251 1074 250 1074 249 1072 247 1072 246 1064 238 1063 238 1058 233 1058 232 1056 230 1056 229 1055 228 1055 227 1054 226 1054 225 1053 224 1053 223 1052 222 1052 220 1051 219 1051 218 1050 217 1050 216 1049 215 1049 213 1048 212 1048 211 1047 210 1047 208 1046 207 1046 205 1045 204 1045 202 1044 201 1044 199 1043 198 1043 197 1042 196 1042 194 1041 193 1041 191 1040 190 1040 188 1039 187 1039 186 1038 185 1038 183 1037 182 1037 181 1036 180 1036 178 1035 177 1035 176 1034 175 1034 174 1032 172 1032 171 1030 169 1030 168 1028 166 1028 165 1027 164 1027 163 1025 161 1025 150 "/></svg>