<svg width="1920" height="1080" xmlns="http://www.w3.org/2000/svg"><path d="M985 150 985 161 984 162 983 162 983 163 980 166 980 167 978 169 978 170 977 171 977 172 975 174 975 175 974 176 974 177 973 178 973 179 972 180 972 181 971 182 971 185 970 186 970 189 969 190 969 194 968 195 968 200 967 201 967 206 966 207 966 209 965 210 965 211 964 212 964 214 963 215 963 216 962 217 962 218 961 219 961 221 960 222 960 224 959 225 959 227 958 228 958 229 957 230 957 231 956 232 956 233 949 240 948 240 943 245 942 245 940 247 940 248 937 251 937 252 921 268 921 269 920 270 920 271 919 272 919 273 918 274 918 276 917 277 917 278 916 279 916 281 915 282 915 283 914 284 914 285 913 286 913 287 912 288 912 289 910 291 910 292 909 293 909 294 908 295 908 296 907 297 907 299 906 300 906 301 905 302 905 303 903 305 903 306 901 308 901 309 899 311 899 312 898 313 898 315 897 316 897 318 896 319 896 323 895 324 895 326 894 327 894 329 893 330 893 331 891 333 891 334 889 336 889 337 888 338 888 339 887 340 887 342 886 343 886 346 885 347 885 349 884 350 884 351 883 352 883 354 882 355 882 356 881 357 881 358 880 359 880 360 879 361 879 363 878 364 878 366 877 367 877 369 876 370 876 372 875 373 875 375 874 376 874 377 873 378 873 380 872 381 872 383 871 384 871 387 870 388 870 391 869 392 869 395 868 396 868 401 867 402 867 420 868 421 868 429 870 431 871 431 872 432 873 432 874 433 875 433 876 434 877 434 878 435 879 435 880 434 881 434 882 433 884 433 885 432 886 432 887 431 888 431 889 430 889 429 890 428 890 422 891 421 891 415 892 414 892 407 893 406 893 398 894 397 894 389 895 388 895 383 896 382 896 379 897 378 897 376 898 375 898 374 899 373 899 372 903 368 903 367 909 361 909 360 910 359 910 358 911 357 911 356 915 352 915 351 917 349 918 349 920 347 921 347 922 346 923 346 924 345 926 345 927 344 928 344 929 343 932 343 933 344 934 344 935 345 936 345 938 347 939 347 942 350 942 351 943 352 943 353 944 354 944 355 945 356 945 358 946 359 946 366 947 367 947 397 946 398 946 410 945 411 945 415 944 416 944 419 943 420 943 423 942 424 942 426 941 427 941 429 940 430 940 432 939 433 939 435 938 436 938 440 937 441 937 444 936 445 936 449 935 450 935 454 934 455 934 458 933 459 933 462 932 463 932 465 931 466 931 468 930 469 930 471 929 472 929 476 928 477 928 482 927 483 927 490 926 491 926 499 925 500 925 511 924 512 924 524 923 525 923 535 922 536 922 587 923 588 923 597 924 598 924 620 923 621 923 632 922 633 922 638 921 639 921 643 920 644 920 649 919 650 919 655 918 656 918 662 917 663 917 669 916 670 916 676 915 677 915 682 914 683 914 686 913 687 913 690 912 691 912 694 911 695 911 698 910 699 910 703 909 704 909 710 908 711 908 716 907 717 907 721 908 722 908 724 909 725 909 727 910 728 910 729 911 730 911 731 913 733 913 734 914 735 914 736 915 737 915 738 917 740 917 741 919 743 919 744 920 744 922 746 923 746 925 748 926 748 927 749 928 749 929 750 942 750 944 748 945 748 947 746 948 746 952 742 952 740 953 739 953 736 954 735 954 732 955 731 955 726 956 725 956 720 957 719 957 699 958 698 958 692 959 691 959 686 960 685 960 681 961 680 961 676 962 675 962 670 963 669 963 664 964 663 964 655 965 654 965 647 966 646 966 637 967 636 967 628 968 627 968 621 969 620 969 615 970 614 970 609 971 608 971 605 972 604 972 602 973 601 973 598 974 597 974 594 975 593 975 589 976 588 976 584 977 583 977 580 978 579 978 576 979 575 979 572 980 571 980 569 981 568 981 565 982 564 982 562 983 561 983 560 984 559 984 557 985 556 985 555 986 554 986 553 987 552 987 550 988 549 988 548 989 547 989 545 990 544 990 542 991 541 991 540 992 539 992 538 994 536 995 536 996 535 997 535 998 534 999 534 1000 533 1001 533 1002 532 1005 532 1014 541 1014 542 1015 543 1015 544 1016 545 1016 548 1017 549 1017 551 1018 552 1018 555 1019 556 1019 559 1020 560 1020 564 1021 565 1021 569 1022 570 1022 573 1023 574 1023 577 1024 578 1024 580 1025 581 1025 583 1026 584 1026 598 1027 599 1027 617 1028 618 1028 639 1027 640 1027 648 1026 649 1026 704 1025 705 1025 712 1024 713 1024 731 1025 732 1025 739 1026 740 1026 742 1030 746 1031 746 1033 748 1034 748 1035 749 1037 749 1038 750 1052 750 1053 749 1056 749 1057 748 1058 748 1059 747 1060 747 1061 746 1062 746 1066 742 1067 742 1067 739 1068 738 1068 735 1069 734 1069 728 1070 727 1070 717 1069 716 1069 713 1068 712 1068 710 1067 709 1067 706 1066 705 1066 702 1065 701 1065 698 1064 697 1064 696 1065 695 1065 671 1066 670 1066 666 1067 665 1067 659 1068 658 1068 652 1069 651 1069 645 1070 644 1070 639 1071 638 1071 632 1072 631 1072 626 1073 625 1073 622 1074 621 1074 618 1075 617 1075 615 1076 614 1076 612 1077 611 1077 608 1078 607 1078 601 1079 600 1079 593 1080 592 1080 577 1081 576 1081 520 1082 519 1082 517 1081 516 1081 472 1080 471 1080 469 1079 468 1079 466 1078 465 1078 463 1077 462 1077 461 1076 460 1076 459 1075 458 1075 456 1074 455 1074 454 1073 453 1073 452 1072 451 1072 445 1071 444 1071 438 1070 437 1070 432 1069 431 1069 429 1070 428 1070 427 1071 426 1071 425 1072 424 1072 423 1074 421 1074 419 1078 415 1079 415 1080 414 1081 414 1082 413 1084 413 1085 412 1086 412 1087 411 1088 412 1088 413 1089 414 1089 416 1090 417 1090 419 1091 420 1091 422 1092 423 1092 426 1093 427 1093 432 1094 433 1094 438 1095 439 1095 444 1096 445 1096 450 1097 451 1097 462 1098 463 1098 472 1099 473 1099 475 1102 478 1103 478 1104 479 1105 479 1107 481 1111 481 1112 480 1116 480 1117 479 1119 479 1121 477 1121 476 1123 474 1123 473 1124 472 1124 470 1125 469 1125 467 1126 466 1126 465 1127 464 1127 463 1128 462 1128 460 1129 459 1129 457 1130 456 1130 453 1131 452 1131 449 1130 448 1130 437 1129 436 1129 428 1128 427 1128 425 1127 424 1127 421 1126 420 1126 417 1125 416 1125 413 1124 412 1124 407 1123 406 1123 402 1122 401 1122 397 1121 396 1121 392 1120 391 1120 388 1119 387 1119 384 1118 383 1118 381 1117 380 1117 379 1116 378 1116 376 1115 375 1115 372 1114 371 1114 368 1113 367 1113 364 1112 363 1112 359 1111 358 1111 355 1110 354 1110 351 1109 350 1109 347 1108 346 1108 344 1107 343 1107 341 1106 340 1106 337 1105 336 1105 333 1104 332 1104 328 1103 327 1103 323 1102 322 1102 317 1101 316 1101 312 1100 311 1100 306 1099 305 1099 302 1098 301 1098 297 1097 296 1097 294 1096 293 1096 292 1095 291 1095 289 1094 288 1094 286 1093 285 1093 283 1092 282 1092 280 1091 279 1091 277 1090 276 1090 274 1089 273 1089 271 1088 270 1088 269 1087 268 1087 267 1086 266 1086 265 1085 264 1085 263 1084 262 1084 261 1083 260 1083 259 1082 258 1082 257 1081 256 1081 255 1080 254 1080 253 1079 252 1079 251 1078 250 1078 249 1075 246 1075 245 1070 240 1069 240 1059 230 1059 229 1058 228 1058 227 1057 226 1057 224 1056 223 1056 222 1054 220 1054 219 1053 218 1053 217 1052 216 1052 215 1051 214 1051 213 1050 212 1050 210 1049 209 1049 208 1048 207 1048 205 1047 204 1047 202 1046 201 1046 199 1045 198 1045 197 1044 196 1044 194 1043 193 1043 191 1042 190 1042 189 1041 188 1041 186 1040 185 1040 184 1039 183 1039 181 1038 180 1038 178 1037 177 1037 176 1036 175 1036 174 1035 173 1035 172 1032 169 1032 168 1030 166 1030 165 1028 163 1028 162 1027 161 1027 150 "/></svg>