<svg width="1920" height="1080" xmlns="http://www.w3.org/2000/svg"><path d="M995 144 995 155 994 156 993 156 992 157 991 157 990 158 989 158 988 159 987 159 986 160 985 160 981 164 980 164 976 168 976 169 974 171 974 172 973 173 973 175 972 176 972 177 971 178 971 180 970 181 970 183 969 184 969 187 968 188 968 191 967 192 967 195 966 196 966 200 965 201 965 203 964 204 964 206 963 207 963 210 962 211 962 214 961 215 961 218 960 219 960 223 959 224 959 225 958 226 958 227 957 228 957 229 943 243 943 244 939 248 939 249 932 256 931 256 926 261 926 262 925 263 925 264 924 265 924 266 923 267 923 269 922 270 922 272 921 273 921 274 920 275 920 276 919 277 919 278 917 280 917 281 915 283 915 284 914 285 914 286 913 287 913 288 912 289 912 291 911 292 911 294 910 295 910 297 909 298 909 299 908 300 908 301 907 302 907 304 906 305 906 306 905 307 905 309 904 310 904 312 903 313 903 318 902 319 902 323 901 324 901 328 900 329 900 331 899 332 899 334 898 335 898 337 897 338 897 339 896 340 896 342 895 343 895 345 894 346 894 348 893 349 893 351 892 352 892 355 891 356 891 359 890 360 890 363 889 364 889 367 888 368 888 370 887 371 887 372 886 373 886 376 885 377 885 380 884 381 884 388 883 389 883 397 882 398 882 405 881 406 881 411 880 412 880 416 879 417 879 420 878 421 878 424 877 425 877 430 878 431 878 437 879 438 879 443 880 444 880 449 882 451 882 452 886 456 888 456 889 455 891 455 892 454 894 454 895 453 896 453 897 452 897 450 898 449 898 446 899 445 899 441 900 440 900 436 901 435 901 430 902 429 902 403 903 402 903 396 904 395 904 391 905 390 905 386 906 385 906 383 907 382 907 381 909 379 909 378 916 371 917 371 923 365 923 364 925 362 925 361 926 360 936 360 938 362 938 363 939 364 939 365 940 366 940 367 942 369 942 371 943 372 943 373 944 374 944 375 945 376 945 378 946 379 946 381 947 382 947 400 948 401 948 404 947 405 947 410 946 411 946 413 945 414 945 418 944 419 944 423 943 424 943 428 942 429 942 433 941 434 941 439 940 440 940 445 939 446 939 450 938 451 938 455 937 456 937 458 936 459 936 461 935 462 935 464 934 465 934 468 933 469 933 474 932 475 932 481 931 482 931 489 930 490 930 499 929 500 929 512 928 513 928 522 927 523 927 531 926 532 926 539 925 540 925 563 924 564 924 570 923 571 923 578 922 579 922 613 921 614 921 623 920 624 920 633 919 634 919 646 918 647 918 655 917 656 917 660 916 661 916 665 915 666 915 670 914 671 914 676 913 677 913 681 912 682 912 685 911 686 911 689 910 690 910 693 909 694 909 696 908 697 908 702 907 703 907 708 906 709 906 714 905 715 905 723 906 724 906 725 907 726 907 727 908 728 908 729 910 731 910 732 913 735 913 736 922 745 923 745 924 746 925 746 927 748 929 748 930 749 932 749 933 750 939 750 940 749 942 749 943 748 945 748 949 744 949 743 950 742 950 741 951 740 951 739 952 738 952 736 953 735 953 734 954 733 954 731 955 730 955 727 956 726 956 723 957 722 957 713 958 712 958 698 959 697 959 688 960 687 960 676 961 675 961 666 962 665 962 656 963 655 963 649 964 648 964 643 965 642 965 638 966 637 966 633 967 632 967 627 968 626 968 621 969 620 969 613 970 612 970 606 971 605 971 600 972 599 972 595 973 594 973 589 974 588 974 585 975 584 975 582 976 581 976 580 977 579 977 578 978 577 978 576 979 575 979 573 980 572 980 570 981 569 981 567 982 566 982 564 983 563 983 561 984 560 984 558 985 557 985 556 986 555 986 554 987 553 987 552 989 550 989 549 990 548 990 547 991 546 991 544 992 543 992 542 993 541 993 540 994 539 994 538 996 536 997 536 998 535 999 535 1000 534 1001 534 1002 533 1003 533 1004 532 1006 532 1008 534 1009 534 1014 539 1014 540 1016 542 1016 543 1017 544 1017 546 1018 547 1018 550 1019 551 1019 553 1020 554 1020 557 1021 558 1021 562 1022 563 1022 567 1023 568 1023 572 1024 573 1024 575 1025 576 1025 579 1026 580 1026 582 1027 583 1027 601 1028 602 1028 621 1029 622 1029 638 1028 639 1028 679 1027 680 1027 700 1026 701 1026 709 1025 710 1025 718 1024 719 1024 723 1025 724 1025 731 1026 732 1026 736 1027 737 1027 739 1028 740 1028 742 1029 743 1029 744 1032 747 1033 747 1035 749 1037 749 1038 750 1041 750 1042 751 1055 751 1056 750 1057 750 1058 749 1060 749 1061 748 1062 748 1064 746 1065 746 1068 743 1068 742 1069 741 1069 740 1070 739 1070 735 1071 734 1071 726 1072 725 1072 720 1071 719 1071 716 1070 715 1070 712 1069 711 1069 708 1068 707 1068 702 1067 701 1067 670 1068 669 1068 657 1069 656 1069 647 1070 646 1070 640 1071 639 1071 634 1072 633 1072 628 1073 627 1073 624 1074 623 1074 621 1075 620 1075 618 1076 617 1076 614 1077 613 1077 609 1078 608 1078 596 1079 595 1079 574 1080 573 1080 532 1081 531 1081 525 1082 524 1082 520 1083 519 1083 510 1084 509 1084 500 1085 499 1093 499 1094 500 1106 500 1107 499 1108 499 1109 498 1110 498 1111 497 1112 497 1114 495 1115 495 1115 494 1116 493 1116 492 1117 491 1117 489 1118 488 1118 487 1119 486 1119 484 1120 483 1120 481 1121 480 1121 478 1122 477 1122 475 1123 474 1123 468 1122 467 1122 461 1121 460 1121 453 1120 452 1120 446 1119 445 1119 440 1118 439 1118 434 1117 433 1117 429 1116 428 1116 425 1115 424 1115 422 1114 421 1114 419 1113 418 1113 417 1112 416 1112 414 1111 413 1111 410 1110 409 1110 406 1109 405 1109 401 1108 400 1108 395 1107 394 1107 389 1106 388 1106 384 1105 383 1105 375 1104 374 1104 367 1103 366 1103 358 1102 357 1102 348 1101 347 1101 336 1100 335 1100 330 1099 329 1099 324 1098 323 1098 318 1097 317 1097 313 1096 312 1096 307 1095 306 1095 302 1094 301 1094 298 1093 297 1093 293 1092 292 1092 289 1091 288 1091 286 1090 285 1090 283 1089 282 1089 280 1088 279 1088 278 1087 277 1087 275 1086 274 1086 272 1085 271 1085 270 1084 269 1084 267 1083 266 1083 265 1082 264 1082 262 1081 261 1081 259 1080 258 1080 257 1079 256 1079 255 1078 254 1078 253 1077 252 1077 251 1076 250 1076 249 1075 248 1075 247 1074 246 1074 245 1072 243 1072 242 1065 235 1064 235 1055 226 1055 225 1053 223 1053 222 1051 220 1051 219 1050 218 1050 217 1049 216 1049 215 1048 214 1048 213 1047 212 1047 211 1046 210 1046 209 1045 208 1045 207 1044 206 1044 204 1043 203 1043 200 1042 199 1042 196 1041 195 1041 193 1040 192 1040 190 1039 189 1039 187 1038 186 1038 185 1037 184 1037 183 1035 181 1035 180 1033 178 1033 177 1031 175 1031 173 1030 172 1030 171 1029 170 1029 169 1027 167 1027 166 1026 165 1026 164 1023 161 1022 161 1021 160 1020 160 1018 158 1016 158 1015 157 1013 157 1012 156 1011 156 1009 154 1009 144 "/></svg>