<svg width="1920" height="1080" xmlns="http://www.w3.org/2000/svg"><path d="M993 144 993 155 992 156 991 156 989 158 988 158 987 159 986 159 984 161 983 161 975 169 975 170 973 172 973 173 972 174 972 176 971 177 971 179 970 180 970 183 969 184 969 187 968 188 968 193 967 194 967 199 966 200 966 203 965 204 965 206 964 207 964 208 963 209 963 211 962 212 962 214 961 215 961 218 960 219 960 222 959 223 959 225 958 226 958 227 957 228 957 229 955 231 955 232 947 240 947 241 945 243 945 244 942 247 942 248 937 253 936 253 926 263 926 264 923 267 923 269 922 270 922 271 921 272 921 273 920 274 920 275 919 276 919 277 918 278 918 279 917 280 917 281 916 282 916 283 914 285 914 286 913 287 913 288 912 289 912 290 911 291 911 293 910 294 910 296 909 297 909 298 908 299 908 301 907 302 907 303 906 304 906 305 905 306 905 307 904 308 904 309 903 310 903 311 902 312 902 315 901 316 901 319 900 320 900 323 899 324 899 327 898 328 898 331 897 332 897 334 896 335 896 337 895 338 895 340 894 341 894 342 893 343 893 344 892 345 892 347 891 348 891 349 890 350 890 352 889 353 889 355 888 356 888 360 887 361 887 363 886 364 886 367 885 368 885 369 884 370 884 372 883 373 883 374 882 375 882 378 881 379 881 383 880 384 880 391 879 392 879 400 878 401 878 407 877 408 877 414 876 415 876 420 875 421 875 424 874 425 874 426 875 427 875 432 876 433 876 438 877 439 877 443 878 444 878 448 881 451 881 452 882 453 885 453 886 452 888 452 889 451 891 451 894 448 894 445 895 444 895 441 896 440 896 437 897 436 897 432 898 431 898 427 899 426 899 403 900 402 900 397 901 396 901 391 902 390 902 387 903 386 903 384 904 383 904 381 905 380 905 379 908 376 908 375 911 372 912 372 917 367 917 366 919 364 919 363 921 361 921 360 922 359 922 358 924 356 925 356 926 355 929 355 930 354 932 354 933 353 939 359 939 360 941 362 941 363 943 365 943 366 944 367 944 369 945 370 945 373 946 374 946 377 947 378 947 408 946 409 946 413 945 414 945 418 944 419 944 423 943 424 943 426 942 427 942 430 941 431 941 434 940 435 940 439 939 440 939 445 938 446 938 450 937 451 937 454 936 455 936 458 935 459 935 462 934 463 934 465 933 466 933 468 932 469 932 472 931 473 931 477 930 478 930 483 929 484 929 489 928 490 928 498 927 499 927 509 926 510 926 521 925 522 925 530 924 531 924 542 923 543 923 563 922 564 922 573 921 574 921 597 922 598 922 610 921 611 921 617 920 618 920 626 919 627 919 639 918 640 918 653 917 654 917 661 916 662 916 668 915 669 915 674 914 675 914 678 913 679 913 681 912 682 912 685 911 686 911 689 910 690 910 693 909 694 909 699 908 700 908 707 907 708 907 715 906 716 906 720 907 721 907 723 908 724 908 726 909 727 909 728 910 729 910 730 911 731 911 732 913 734 913 735 915 737 915 738 922 745 923 745 924 746 925 746 926 747 927 747 928 748 929 748 930 749 932 749 933 750 937 750 938 749 943 749 945 747 946 747 951 742 951 741 952 740 952 738 953 737 953 735 954 734 954 730 955 729 955 725 956 724 956 719 957 718 957 702 958 701 958 690 959 689 959 681 960 680 960 672 961 671 961 664 962 663 962 658 963 657 963 652 964 651 964 646 965 645 965 640 966 639 966 632 967 631 967 624 968 623 968 616 969 615 969 609 970 608 970 603 971 602 971 599 972 598 972 595 973 594 973 592 974 591 974 588 975 587 975 584 976 583 976 581 977 580 977 577 978 576 978 574 979 573 979 571 980 570 980 568 981 567 981 565 982 564 982 561 983 560 983 559 984 558 984 557 985 556 985 555 986 554 986 553 987 552 987 550 988 549 988 548 989 547 989 546 990 545 990 544 991 543 991 542 992 541 992 540 993 539 993 538 994 537 995 537 998 534 999 534 1001 532 1002 532 1003 531 1004 531 1005 532 1006 532 1009 535 1010 535 1014 539 1014 540 1015 541 1015 543 1016 544 1016 546 1017 547 1017 549 1018 550 1018 553 1019 554 1019 557 1020 558 1020 561 1021 562 1021 565 1022 566 1022 568 1023 569 1023 572 1024 573 1024 574 1025 575 1025 578 1026 579 1026 582 1027 583 1027 605 1028 606 1028 648 1027 649 1027 700 1026 701 1026 709 1025 710 1025 716 1024 717 1024 725 1025 726 1025 736 1026 737 1026 741 1027 742 1027 743 1029 745 1030 745 1033 748 1034 748 1035 749 1038 749 1039 750 1043 750 1044 751 1050 751 1051 750 1052 751 1053 750 1056 750 1057 749 1059 749 1060 748 1062 748 1063 747 1064 747 1070 741 1070 733 1071 732 1071 718 1070 717 1070 714 1069 713 1069 709 1068 708 1068 704 1067 703 1067 698 1066 697 1066 691 1067 690 1067 667 1068 666 1068 654 1069 653 1069 646 1070 645 1070 640 1071 639 1071 635 1072 634 1072 631 1073 630 1073 627 1074 626 1074 624 1075 623 1075 620 1076 619 1076 615 1077 614 1077 610 1078 609 1078 595 1079 594 1079 534 1080 533 1080 525 1081 524 1081 518 1082 517 1082 505 1083 504 1083 494 1084 493 1085 493 1087 495 1090 495 1091 496 1095 496 1096 497 1099 497 1100 498 1106 498 1107 497 1108 497 1109 496 1110 496 1111 495 1113 495 1115 493 1115 492 1117 490 1117 489 1118 488 1118 487 1119 486 1119 485 1120 484 1120 483 1121 482 1121 480 1122 479 1122 478 1123 477 1123 475 1124 474 1124 472 1125 471 1125 470 1124 469 1124 464 1123 463 1123 457 1122 456 1122 450 1121 449 1121 444 1120 443 1120 438 1119 437 1119 432 1118 431 1118 426 1117 425 1117 422 1116 421 1116 418 1115 417 1115 416 1114 415 1114 413 1113 412 1113 411 1112 410 1112 408 1111 407 1111 405 1110 404 1110 400 1109 399 1109 394 1108 393 1108 388 1107 387 1107 381 1106 380 1106 372 1105 371 1105 363 1104 362 1104 355 1103 354 1103 349 1102 348 1102 340 1101 339 1101 333 1100 332 1100 327 1099 326 1099 322 1098 321 1098 315 1097 314 1097 309 1096 308 1096 304 1095 303 1095 299 1094 298 1094 295 1093 294 1093 291 1092 290 1092 288 1091 287 1091 285 1090 284 1090 282 1089 281 1089 280 1088 279 1088 277 1087 276 1087 274 1086 273 1086 272 1085 271 1085 269 1084 268 1084 267 1083 266 1083 264 1082 263 1082 262 1081 261 1081 259 1080 258 1080 257 1079 256 1079 255 1078 254 1078 253 1077 252 1077 251 1076 250 1076 249 1075 248 1075 247 1073 245 1073 244 1071 242 1071 241 1064 234 1063 234 1056 227 1056 226 1054 224 1054 223 1053 222 1053 221 1052 220 1052 219 1051 218 1051 217 1050 216 1050 215 1049 214 1049 213 1048 212 1048 211 1047 210 1047 209 1046 208 1046 207 1045 206 1045 205 1044 204 1044 203 1043 202 1043 199 1042 198 1042 196 1041 195 1041 192 1040 191 1040 189 1039 188 1039 187 1038 186 1038 184 1037 183 1037 182 1036 181 1036 180 1034 178 1034 176 1032 174 1032 173 1030 171 1030 170 1029 169 1029 168 1027 166 1027 165 1025 163 1025 162 1021 158 1020 158 1019 157 1018 157 1017 156 1016 156 1015 155 1015 144 "/></svg>