<svg width="1920" height="1080" xmlns="http://www.w3.org/2000/svg"><path d="M988 148 988 159 986 161 985 161 985 162 984 163 983 163 977 169 977 170 976 171 976 172 974 174 974 175 973 176 973 177 972 178 972 180 971 181 971 182 970 183 970 184 969 185 969 187 968 188 968 191 967 192 967 196 966 197 966 201 965 202 965 206 964 207 964 210 963 211 963 214 962 215 962 217 961 218 961 220 960 221 960 224 959 225 959 226 958 227 958 228 956 230 956 231 949 238 948 238 946 240 945 240 943 242 942 242 938 246 938 247 937 248 937 249 935 251 935 252 932 255 932 256 928 260 928 261 926 263 926 264 925 265 925 266 924 267 924 268 923 269 923 270 922 271 922 273 920 275 920 276 919 277 919 278 918 279 918 280 917 281 917 282 915 284 915 285 914 286 914 287 913 288 913 289 912 290 912 291 911 292 911 294 910 295 910 298 909 299 909 302 908 303 908 306 907 307 907 310 906 311 906 313 905 314 905 318 904 319 904 322 903 323 903 325 902 326 902 328 901 329 901 332 900 333 900 336 899 337 899 341 898 342 898 346 897 347 897 350 896 351 896 354 895 355 895 357 894 358 894 360 893 361 893 365 892 366 892 372 891 373 891 379 890 380 890 390 889 391 889 404 888 405 888 413 887 414 887 421 886 422 886 427 885 428 885 429 886 430 886 435 887 436 887 442 888 443 888 447 889 448 889 451 890 452 890 453 893 456 897 456 898 455 900 455 901 454 902 454 903 453 903 451 904 450 904 446 905 445 905 441 906 440 906 435 907 434 907 428 908 427 908 406 909 405 909 400 910 399 910 395 911 394 911 391 912 390 912 388 913 387 913 385 914 384 914 383 916 381 916 380 922 374 923 374 925 372 926 372 931 367 940 367 941 368 941 370 942 371 942 372 943 373 943 376 944 377 944 379 945 380 945 382 946 383 946 394 947 395 947 410 946 411 946 414 945 415 945 419 944 420 944 423 943 424 943 427 942 428 942 431 941 432 941 435 940 436 940 439 939 440 939 444 938 445 938 449 937 450 937 454 936 455 936 458 935 459 935 464 934 465 934 470 933 471 933 477 932 478 932 482 931 483 931 487 930 488 930 493 929 494 929 505 928 506 928 518 927 519 927 530 926 531 926 544 925 545 925 558 924 559 924 569 923 570 923 579 922 580 922 599 921 600 921 615 920 616 920 624 919 625 919 639 918 640 918 656 917 657 917 663 916 664 916 670 915 671 915 676 914 677 914 679 913 680 913 683 912 684 912 685 911 686 911 689 910 690 910 692 909 693 909 696 908 697 908 703 907 704 907 713 906 714 906 723 907 724 907 725 908 726 908 728 909 729 909 730 910 731 910 732 911 733 911 734 916 739 916 740 922 746 924 746 925 747 927 747 928 748 930 748 931 749 936 749 937 750 940 750 941 749 942 749 943 748 944 748 950 742 950 741 951 740 951 738 952 737 952 736 953 735 953 733 954 732 954 729 955 728 955 725 956 724 956 717 957 716 957 698 958 697 958 691 959 690 959 684 960 683 960 676 961 675 961 669 962 668 962 661 963 660 963 652 964 651 964 643 965 642 965 636 966 635 966 629 967 628 967 624 968 623 968 619 969 618 969 614 970 613 970 609 971 608 971 603 972 602 972 596 973 595 973 589 974 588 974 584 975 583 975 581 976 580 976 578 977 577 977 575 979 573 979 571 980 570 980 569 981 568 981 566 982 565 982 563 983 562 983 560 984 559 984 558 985 557 985 555 986 554 986 553 987 552 987 551 988 550 988 549 989 548 989 547 990 546 990 545 991 544 991 542 992 541 992 540 993 539 993 538 994 537 994 536 996 534 996 533 997 532 999 532 1000 531 1002 531 1003 530 1005 530 1006 529 1007 530 1008 530 1010 532 1011 532 1014 535 1015 535 1016 536 1016 537 1017 538 1017 539 1018 540 1018 543 1019 544 1019 549 1020 550 1020 554 1021 555 1021 559 1022 560 1022 565 1023 566 1023 571 1024 572 1024 575 1025 576 1025 579 1026 580 1026 584 1027 585 1027 613 1028 614 1028 630 1029 631 1029 632 1028 633 1028 679 1027 680 1027 701 1026 702 1026 710 1025 711 1025 719 1024 720 1024 724 1025 725 1025 737 1026 738 1026 743 1032 749 1033 749 1035 751 1038 751 1039 752 1043 752 1044 753 1054 753 1055 752 1057 752 1058 751 1060 751 1061 750 1062 750 1063 749 1064 749 1066 747 1067 747 1071 743 1071 719 1070 718 1070 716 1069 715 1069 712 1068 711 1068 707 1067 706 1067 702 1066 701 1066 674 1067 673 1067 656 1068 655 1068 647 1069 646 1069 641 1070 640 1070 636 1071 635 1071 632 1072 631 1072 628 1073 627 1073 624 1074 623 1074 619 1075 618 1075 613 1076 612 1076 602 1077 601 1077 584 1078 583 1078 540 1079 539 1079 534 1080 533 1080 529 1081 528 1081 526 1082 525 1082 523 1083 522 1083 521 1084 520 1084 517 1085 516 1085 514 1086 513 1086 512 1087 511 1087 510 1091 506 1092 506 1093 505 1095 505 1096 504 1100 504 1101 503 1102 503 1103 502 1104 502 1105 501 1106 501 1107 500 1108 500 1109 499 1110 499 1112 497 1112 496 1113 495 1113 494 1114 493 1114 492 1115 491 1115 490 1116 489 1116 488 1117 487 1117 486 1118 485 1118 484 1119 483 1119 481 1120 480 1120 477 1121 476 1121 469 1120 468 1120 460 1119 459 1119 453 1118 452 1118 448 1117 447 1117 444 1116 443 1116 439 1115 438 1115 434 1114 433 1114 429 1113 428 1113 424 1112 423 1112 421 1111 420 1111 418 1110 417 1110 415 1109 414 1109 412 1108 411 1108 409 1107 408 1107 405 1106 404 1106 400 1105 399 1105 394 1104 393 1104 387 1103 386 1103 374 1102 373 1102 360 1101 359 1101 350 1100 349 1100 342 1099 341 1099 337 1098 336 1098 332 1097 331 1097 326 1096 325 1096 321 1095 320 1095 314 1094 313 1094 308 1093 307 1093 303 1092 302 1092 298 1091 297 1091 294 1090 293 1090 291 1089 290 1089 289 1088 288 1088 286 1087 285 1087 283 1086 282 1086 280 1085 279 1085 277 1084 276 1084 274 1083 273 1083 271 1082 270 1082 269 1081 268 1081 267 1080 266 1080 264 1079 263 1079 262 1078 261 1078 260 1077 259 1077 258 1076 257 1076 256 1075 255 1075 254 1074 253 1074 252 1073 251 1073 250 1072 249 1072 248 1070 246 1070 245 1063 238 1062 238 1059 235 1058 235 1055 232 1055 231 1051 227 1051 226 1050 225 1050 223 1049 222 1049 221 1048 220 1048 219 1047 218 1047 217 1046 216 1046 215 1045 214 1045 213 1044 212 1044 210 1043 209 1043 207 1042 206 1042 204 1041 203 1041 200 1040 199 1040 196 1039 195 1039 193 1038 192 1038 190 1037 189 1037 188 1036 187 1036 186 1035 185 1035 184 1033 182 1033 181 1032 180 1032 179 1031 178 1031 177 1030 176 1030 175 1029 174 1029 173 1028 172 1028 171 1027 170 1027 169 1026 168 1026 167 1020 161 1019 161 1016 158 1016 148 "/></svg>