<svg width="1920" height="1080" xmlns="http://www.w3.org/2000/svg"><path d="M984 148 984 159 980 163 980 164 976 168 976 169 973 172 973 173 972 174 972 175 971 176 971 178 970 179 970 180 969 181 969 185 968 186 968 191 967 192 967 198 966 199 966 204 965 205 965 207 964 208 964 210 963 211 963 212 962 213 962 215 961 216 961 218 960 219 960 221 959 222 959 225 958 226 958 228 957 229 957 230 955 232 955 233 944 244 944 245 941 248 941 249 926 264 926 265 922 269 922 270 921 271 921 273 920 274 920 275 919 276 919 278 918 279 918 280 917 281 917 282 916 283 916 284 915 285 915 286 914 287 914 288 913 289 913 290 912 291 912 292 911 293 911 295 910 296 910 297 909 298 909 300 908 301 908 302 907 303 907 304 906 305 906 307 905 308 905 309 904 310 904 311 903 312 903 313 902 314 902 315 901 316 901 319 900 320 900 322 899 323 899 326 898 327 898 329 897 330 897 333 896 334 896 336 895 337 895 340 894 341 894 342 893 343 893 345 892 346 892 347 891 348 891 349 890 350 890 351 889 352 889 354 888 355 888 357 887 358 887 360 886 361 886 364 885 365 885 368 884 369 884 370 883 371 883 373 881 375 881 377 880 378 880 380 879 381 879 384 878 385 878 392 877 393 877 399 876 400 876 406 875 407 875 412 874 413 874 416 873 417 873 420 872 421 872 423 871 424 871 427 870 428 870 429 871 430 871 434 872 435 872 436 873 437 873 439 874 440 874 441 875 442 875 443 876 444 876 445 877 446 877 447 878 448 878 449 879 450 879 451 881 453 882 452 883 452 885 450 886 450 890 446 891 446 891 445 892 444 892 443 893 442 893 441 894 440 894 438 895 437 895 435 896 434 896 432 897 431 897 427 898 426 898 408 899 407 899 400 900 399 900 395 901 394 901 391 902 390 902 388 903 387 903 385 904 384 904 382 907 379 907 378 913 372 913 371 914 370 914 369 915 368 915 367 916 366 916 365 917 364 917 362 918 361 918 359 920 357 920 356 923 353 925 353 926 352 928 352 929 351 930 351 931 350 932 350 933 351 934 351 935 352 936 352 938 354 939 354 943 358 943 359 944 360 944 363 945 364 945 369 946 370 946 376 947 377 947 407 946 408 946 412 945 413 945 416 944 417 944 420 943 421 943 423 942 424 942 426 941 427 941 429 940 430 940 433 939 434 939 437 938 438 938 441 937 442 937 447 936 448 936 452 935 453 935 456 934 457 934 459 933 460 933 462 932 463 932 465 931 466 931 468 930 469 930 472 929 473 929 478 928 479 928 486 927 487 927 494 926 495 926 505 925 506 925 517 924 518 924 527 923 528 923 535 922 536 922 550 921 551 921 575 920 576 920 591 921 592 921 600 922 601 922 608 923 609 922 610 922 615 921 616 921 623 920 624 920 631 919 632 919 642 918 643 918 655 917 656 917 664 916 665 916 672 915 673 915 678 914 679 914 682 913 683 913 686 912 687 912 689 911 690 911 692 910 693 910 695 909 696 909 699 908 700 908 707 907 708 907 715 906 716 906 723 907 724 907 725 908 726 908 728 910 730 910 731 911 732 911 733 915 737 915 738 919 742 919 743 921 745 922 745 924 747 925 747 927 749 928 749 929 750 930 750 931 751 936 751 937 750 942 750 945 747 946 747 949 744 949 743 950 742 950 741 951 740 951 739 952 738 952 736 953 735 953 733 954 732 954 729 955 728 955 724 956 723 956 713 957 712 957 696 958 695 958 687 959 686 959 678 960 677 960 670 961 669 961 664 962 663 962 658 963 657 963 651 964 650 964 644 965 643 965 636 966 635 966 627 967 626 967 620 968 619 968 612 969 611 969 606 970 605 970 601 971 600 971 597 972 596 972 593 973 592 973 590 974 589 974 586 975 585 975 582 976 581 976 579 977 578 977 576 978 575 978 572 979 571 979 569 980 568 980 565 981 564 981 562 982 561 982 560 983 559 983 558 984 557 984 556 985 555 985 553 986 552 986 551 987 550 987 549 988 548 988 546 989 545 989 544 990 543 990 541 991 540 991 539 995 535 996 535 997 534 998 534 999 533 1000 533 1001 532 1002 532 1003 531 1004 532 1005 532 1006 533 1007 533 1009 535 1010 535 1012 537 1013 537 1014 538 1014 539 1015 540 1015 542 1016 543 1016 546 1017 547 1017 550 1018 551 1018 554 1019 555 1019 558 1020 559 1020 562 1021 563 1021 566 1022 567 1022 570 1023 571 1023 573 1024 574 1024 576 1025 577 1025 581 1026 582 1026 585 1027 586 1027 617 1028 618 1028 640 1027 641 1027 677 1026 678 1026 703 1025 704 1025 712 1024 713 1024 720 1023 721 1023 722 1024 723 1024 729 1025 730 1025 733 1026 734 1026 737 1027 738 1027 740 1028 741 1028 743 1033 748 1035 748 1036 749 1038 749 1039 750 1042 750 1043 751 1051 751 1052 750 1055 750 1056 749 1058 749 1059 748 1060 748 1061 747 1062 747 1063 746 1064 746 1067 743 1067 741 1068 740 1068 738 1069 737 1069 735 1070 734 1070 729 1071 728 1071 719 1070 718 1070 715 1069 714 1069 710 1068 709 1068 705 1067 704 1067 699 1066 698 1066 688 1067 687 1067 664 1068 663 1068 652 1069 651 1069 645 1070 644 1070 639 1071 638 1071 633 1072 632 1072 629 1073 628 1073 625 1074 624 1074 622 1075 621 1075 619 1076 618 1076 615 1077 614 1077 610 1078 609 1078 597 1079 596 1079 531 1080 530 1080 499 1081 498 1081 492 1082 491 1082 488 1083 487 1083 485 1085 483 1087 485 1088 485 1089 486 1090 486 1091 487 1092 487 1093 488 1094 488 1095 489 1099 489 1100 490 1108 490 1109 489 1111 489 1112 488 1115 488 1119 484 1119 483 1122 480 1122 479 1123 478 1123 477 1125 475 1125 449 1124 448 1124 444 1123 443 1123 439 1122 438 1122 433 1121 432 1121 427 1120 426 1120 423 1119 422 1119 419 1118 418 1118 416 1117 415 1117 413 1116 412 1116 410 1115 409 1115 407 1114 406 1114 404 1113 403 1113 401 1112 400 1112 397 1111 396 1111 393 1110 392 1110 388 1109 387 1109 383 1108 382 1108 375 1107 374 1107 368 1106 367 1106 361 1105 360 1105 356 1104 355 1104 352 1103 351 1103 346 1102 345 1102 340 1101 339 1101 334 1100 333 1100 328 1099 327 1099 321 1098 320 1098 315 1097 314 1097 309 1096 308 1096 304 1095 303 1095 300 1094 299 1094 296 1093 295 1093 293 1092 292 1092 290 1091 289 1091 287 1090 286 1090 284 1089 283 1089 281 1088 280 1088 278 1087 277 1087 275 1086 274 1086 272 1085 271 1085 270 1084 269 1084 267 1083 266 1083 265 1082 264 1082 263 1081 262 1081 261 1080 260 1080 259 1079 258 1079 257 1078 256 1078 255 1077 254 1077 253 1075 251 1075 250 1074 249 1074 248 1072 246 1072 245 1064 237 1063 237 1056 230 1056 229 1054 227 1054 226 1053 225 1053 224 1052 223 1052 222 1051 221 1051 220 1050 219 1050 217 1049 216 1049 215 1048 214 1048 213 1047 212 1047 210 1046 209 1046 208 1045 207 1045 205 1044 204 1044 202 1043 201 1043 199 1042 198 1042 196 1041 195 1041 193 1040 192 1040 190 1039 189 1039 187 1038 186 1038 185 1037 184 1037 182 1036 181 1036 180 1035 179 1035 177 1034 176 1034 175 1032 173 1032 172 1031 171 1031 170 1029 168 1029 167 1028 166 1028 165 1026 163 1026 162 1024 160 1024 148 "/></svg>