<svg width="1920" height="1080" xmlns="http://www.w3.org/2000/svg"><path d="M985 138 985 150 980 155 980 156 978 158 978 159 977 160 977 161 975 163 975 164 974 165 974 166 973 167 973 169 972 170 972 171 971 172 971 175 970 176 970 178 969 179 969 182 968 183 968 187 967 188 967 192 966 193 966 197 965 198 965 200 964 201 964 202 963 203 963 205 962 206 962 207 961 208 961 209 960 210 960 211 959 212 959 213 958 214 958 216 957 217 957 218 956 219 956 220 955 221 955 222 951 226 951 227 950 228 949 228 947 230 946 230 942 234 941 234 937 238 937 239 935 241 935 242 926 251 925 251 921 255 920 255 917 258 917 259 915 261 915 263 914 264 914 265 913 266 913 268 912 269 912 270 910 272 910 273 908 275 908 276 903 281 903 282 901 284 901 285 900 286 900 287 899 288 899 289 898 290 898 291 896 293 896 294 895 295 895 296 894 297 894 298 893 299 893 300 892 301 892 302 891 303 891 305 890 306 890 307 889 308 889 311 888 312 888 313 887 314 887 315 886 316 886 317 885 318 885 319 884 320 884 321 883 322 883 323 882 324 882 325 881 326 881 328 880 329 880 330 879 331 879 333 878 334 878 337 877 338 877 340 876 341 876 342 875 343 875 345 874 346 874 347 873 348 873 350 872 351 872 354 871 355 871 357 870 358 870 361 869 362 869 364 868 365 868 367 867 368 867 369 866 370 866 372 865 373 865 374 864 375 864 380 863 381 863 393 862 394 862 402 863 403 863 404 864 405 864 407 871 414 872 414 875 417 877 417 878 416 882 416 883 415 885 415 885 414 886 413 886 412 887 411 887 408 888 407 888 404 889 403 889 400 890 399 890 392 891 391 891 385 892 384 892 378 893 377 893 373 894 372 894 369 895 368 895 366 896 365 896 364 897 363 897 361 898 360 898 359 899 358 899 357 900 356 900 355 901 354 901 353 903 351 903 350 907 346 907 345 909 343 909 342 911 340 911 339 915 335 915 334 917 332 918 332 919 331 920 331 921 330 922 330 923 329 924 329 925 328 929 328 932 331 933 331 934 332 934 333 939 338 939 339 940 340 940 342 941 343 941 345 942 346 942 348 943 349 943 352 944 353 944 389 943 390 943 402 942 403 942 406 941 407 941 410 940 411 940 413 939 414 939 416 938 417 938 419 937 420 937 422 936 423 936 426 935 427 935 430 934 431 934 435 933 436 933 441 932 442 932 446 931 447 931 451 930 452 930 455 929 456 929 458 928 459 928 461 927 462 927 465 926 466 926 470 925 471 925 479 924 480 924 488 923 489 923 504 922 505 922 527 921 528 921 587 922 588 922 604 923 605 923 607 922 608 922 622 921 623 921 634 920 635 920 641 919 642 919 647 918 648 918 652 917 653 917 657 916 658 916 661 915 662 915 667 914 668 914 673 913 674 913 679 912 680 912 684 911 685 911 689 910 690 910 693 909 694 909 697 908 698 908 705 907 706 907 713 906 714 906 723 907 724 907 725 908 726 908 727 909 728 909 729 910 730 910 731 911 732 911 733 912 734 912 735 913 736 913 737 914 738 914 739 915 740 915 741 916 742 916 743 920 747 921 747 922 748 923 748 925 750 926 750 927 751 938 751 939 750 940 750 942 748 943 748 946 745 947 745 949 743 949 740 950 739 950 737 951 736 951 733 952 732 952 728 953 727 953 723 954 722 954 709 955 708 955 695 956 694 956 690 957 689 957 685 958 684 958 680 959 679 959 676 960 675 960 670 961 669 961 664 962 663 962 656 963 655 963 649 964 648 964 641 965 640 965 633 966 632 966 627 967 626 967 622 968 621 968 617 969 616 969 614 970 613 970 611 971 610 971 607 972 606 972 602 973 601 973 596 974 595 974 589 975 588 975 582 976 581 976 576 977 575 977 571 978 570 978 566 979 565 979 561 980 560 980 559 981 558 981 556 982 555 982 553 983 552 983 550 984 549 984 547 985 546 985 543 986 542 986 540 987 539 987 537 988 536 988 535 989 534 989 533 990 532 990 531 992 529 993 529 994 528 995 528 996 527 997 527 998 526 999 526 1000 525 1003 525 1004 526 1005 526 1006 527 1007 527 1008 528 1009 528 1010 529 1011 529 1013 531 1013 532 1014 533 1014 534 1015 535 1015 536 1016 537 1016 541 1017 542 1017 546 1018 547 1018 551 1019 552 1019 557 1020 558 1020 562 1021 563 1021 567 1022 568 1022 571 1023 572 1023 574 1024 575 1024 579 1025 580 1025 613 1026 614 1026 642 1025 643 1025 680 1026 681 1026 701 1025 702 1025 711 1024 712 1024 719 1023 720 1023 722 1024 723 1024 730 1025 731 1025 737 1026 738 1026 742 1027 743 1027 744 1032 749 1033 749 1034 750 1036 750 1037 751 1039 751 1040 752 1043 752 1044 753 1055 753 1056 752 1060 752 1061 751 1064 751 1065 750 1066 750 1067 749 1068 749 1074 743 1074 740 1073 739 1073 731 1072 730 1072 719 1071 718 1071 716 1070 715 1070 711 1069 710 1069 707 1068 706 1068 702 1067 701 1067 662 1068 661 1068 649 1069 648 1069 639 1070 638 1070 628 1071 627 1071 621 1072 620 1072 615 1073 614 1073 609 1074 608 1074 604 1075 603 1075 598 1076 597 1076 592 1077 591 1077 586 1078 585 1078 576 1079 575 1079 561 1080 560 1080 543 1081 542 1081 500 1080 499 1080 469 1079 468 1079 463 1078 462 1078 457 1077 456 1077 453 1076 452 1076 449 1075 448 1075 445 1074 444 1074 437 1073 436 1073 429 1072 428 1072 400 1073 399 1073 397 1074 396 1074 395 1075 394 1075 393 1076 392 1076 391 1078 389 1078 388 1081 385 1081 384 1084 381 1084 380 1086 378 1089 381 1089 382 1090 383 1090 384 1091 385 1091 386 1092 387 1092 388 1093 389 1093 390 1094 391 1094 392 1095 393 1095 394 1096 395 1096 396 1097 397 1097 399 1098 400 1098 425 1099 426 1099 429 1100 430 1100 432 1101 433 1101 436 1102 437 1102 439 1103 440 1103 442 1104 443 1104 444 1105 445 1105 446 1106 447 1106 448 1108 450 1111 450 1112 451 1117 451 1118 452 1124 446 1124 445 1125 444 1125 442 1126 441 1126 438 1127 437 1127 435 1128 434 1128 430 1129 429 1129 416 1128 415 1128 410 1127 409 1127 403 1126 402 1126 396 1125 395 1125 389 1124 388 1124 382 1123 381 1123 375 1122 374 1122 371 1121 370 1121 367 1120 366 1120 364 1119 363 1119 360 1118 359 1118 357 1117 356 1117 355 1116 354 1116 351 1115 350 1115 348 1114 347 1114 344 1113 343 1113 340 1112 339 1112 335 1111 334 1111 330 1110 329 1110 325 1109 324 1109 320 1108 319 1108 316 1107 315 1107 312 1106 311 1106 307 1105 306 1105 303 1104 302 1104 297 1103 296 1103 290 1102 289 1102 285 1101 284 1101 281 1100 280 1100 277 1099 276 1099 274 1098 273 1098 272 1097 271 1097 269 1096 268 1096 267 1095 266 1095 264 1094 263 1094 261 1093 260 1093 258 1092 257 1092 255 1091 254 1091 253 1090 252 1090 250 1089 249 1089 248 1088 247 1088 246 1087 245 1087 243 1086 242 1086 241 1085 240 1085 239 1083 237 1083 236 1080 233 1080 232 1077 229 1076 229 1074 227 1073 227 1063 217 1063 216 1061 214 1061 213 1059 211 1059 210 1056 207 1056 206 1052 202 1052 201 1050 199 1050 198 1049 197 1049 196 1048 195 1048 193 1047 192 1047 190 1046 189 1046 188 1045 187 1045 186 1044 185 1044 184 1043 183 1043 182 1042 181 1042 180 1041 179 1041 178 1040 177 1040 176 1039 175 1039 174 1038 173 1038 171 1037 170 1037 169 1036 168 1036 167 1035 166 1035 165 1034 164 1034 163 1032 161 1032 160 1030 158 1030 157 1029 156 1029 155 1027 153 1027 152 1026 151 1026 150 1025 149 1025 138 "/></svg>