<svg width="1920" height="1080" xmlns="http://www.w3.org/2000/svg"><path d="M990 138 990 149 989 150 989 151 986 154 986 155 981 160 981 161 980 162 980 163 978 165 978 167 977 168 977 169 976 170 976 172 975 173 975 175 974 176 974 178 973 179 973 181 972 182 972 183 971 184 971 186 970 187 970 189 969 190 969 192 968 193 968 195 967 196 967 197 965 199 965 200 964 201 964 202 959 207 959 208 957 210 957 211 955 213 955 214 954 215 954 216 953 217 953 218 952 219 952 220 948 224 947 224 946 225 945 225 944 226 943 226 942 227 941 227 940 228 939 228 937 230 936 230 935 231 934 231 932 233 931 233 927 237 927 238 926 239 926 240 925 241 925 242 921 246 921 247 919 249 918 249 918 250 914 254 914 255 913 256 913 257 912 258 912 259 911 260 911 261 910 262 910 263 909 264 909 265 908 266 908 267 901 274 901 275 897 279 897 280 895 282 895 284 894 285 894 287 893 288 893 289 892 290 892 292 891 293 891 294 890 295 890 296 889 297 889 298 888 299 888 300 887 301 887 302 886 303 886 304 885 305 885 308 884 309 884 311 883 312 883 315 882 316 882 318 881 319 881 321 880 322 880 323 879 324 879 326 878 327 878 328 877 329 877 332 876 333 876 337 875 338 875 342 874 343 874 347 873 348 873 354 872 355 872 360 871 361 871 366 870 367 870 371 869 372 869 382 868 383 868 393 867 394 867 397 868 398 868 399 869 400 869 402 870 403 870 404 871 405 871 406 872 407 872 408 873 409 873 410 874 411 874 413 875 414 875 415 876 416 876 417 878 419 881 419 882 420 885 420 886 421 887 421 887 420 888 419 888 417 889 416 889 414 890 413 890 410 891 409 891 405 892 404 892 400 893 399 893 394 894 393 894 387 895 386 895 380 896 379 896 375 897 374 897 369 898 368 898 365 899 364 899 361 900 360 900 357 901 356 901 353 902 352 902 351 903 350 903 349 904 348 904 347 905 346 905 345 907 343 907 342 908 341 908 340 909 339 909 338 910 337 910 336 911 335 911 333 912 332 912 331 913 330 913 329 916 326 916 325 917 324 918 324 919 323 922 323 923 322 930 322 931 323 932 323 934 325 935 325 940 330 940 331 941 332 941 334 942 335 942 337 943 338 943 340 944 341 944 344 945 345 945 348 946 349 946 363 945 364 945 376 944 377 944 383 943 384 943 389 942 390 942 395 941 396 941 399 940 400 940 401 939 402 939 403 938 404 938 405 937 406 937 408 936 409 936 410 935 411 935 413 934 414 934 416 933 417 933 420 932 421 932 424 931 425 931 429 930 430 930 432 929 433 929 435 928 436 928 439 927 440 927 442 926 443 926 448 925 449 925 455 924 456 924 464 923 465 923 492 922 493 922 523 921 524 921 574 920 575 920 578 921 579 921 590 922 591 922 605 921 606 921 613 920 614 920 620 919 621 919 625 918 626 918 630 917 631 917 637 916 638 916 646 915 647 915 653 914 654 914 661 913 662 913 668 912 669 912 674 911 675 911 678 910 679 910 682 909 683 909 685 908 686 908 688 907 689 907 694 906 695 906 701 905 702 905 708 904 709 904 715 905 716 905 720 906 721 906 723 907 724 907 726 908 727 908 729 909 730 909 731 910 732 910 733 911 734 911 735 918 742 920 742 921 743 923 743 924 744 927 744 928 745 929 745 930 744 936 744 937 743 939 743 940 742 941 742 948 735 948 733 949 732 949 730 950 729 950 726 951 725 951 722 952 721 952 717 953 716 953 705 954 704 954 689 955 688 955 682 956 681 956 676 957 675 957 670 958 669 958 664 959 663 959 659 960 658 960 654 961 653 961 648 962 647 962 641 963 640 963 634 964 633 964 626 965 625 965 617 966 616 966 609 967 608 967 602 968 601 968 593 969 592 969 585 970 584 970 579 971 578 971 574 972 573 972 570 973 569 973 565 974 564 974 558 975 557 975 549 976 548 976 539 977 538 977 531 978 530 978 528 979 527 979 526 980 525 980 523 982 521 982 519 983 518 983 517 984 516 984 515 985 514 985 512 986 511 986 510 987 509 987 507 988 506 988 505 989 504 989 503 992 500 993 500 994 499 995 499 996 498 997 498 998 497 999 497 1000 496 1002 496 1009 503 1009 504 1012 507 1012 508 1013 509 1013 511 1014 512 1014 514 1015 515 1015 517 1016 518 1016 520 1017 521 1017 524 1018 525 1018 528 1019 529 1019 535 1020 536 1020 545 1021 546 1021 554 1022 555 1022 560 1023 561 1023 565 1024 566 1024 572 1025 573 1025 603 1026 604 1026 617 1027 618 1027 660 1028 661 1028 706 1027 707 1027 717 1028 718 1028 724 1029 725 1029 728 1030 729 1030 732 1031 733 1031 735 1033 737 1033 738 1034 738 1036 740 1037 740 1038 741 1039 741 1040 742 1041 742 1042 743 1043 743 1044 744 1047 744 1048 745 1052 745 1053 746 1059 746 1060 747 1074 747 1075 746 1078 746 1079 745 1080 745 1081 744 1082 744 1083 743 1084 743 1087 740 1087 739 1089 737 1089 735 1087 733 1087 732 1084 729 1084 728 1083 727 1083 726 1082 725 1082 724 1081 723 1081 721 1080 720 1080 716 1079 715 1079 712 1078 711 1078 709 1077 708 1077 706 1076 705 1076 702 1075 701 1075 700 1074 699 1074 697 1073 696 1073 694 1072 693 1072 676 1071 675 1071 664 1072 663 1072 645 1073 644 1073 636 1074 635 1074 629 1075 628 1075 621 1076 620 1076 608 1077 607 1077 583 1078 582 1078 570 1077 569 1077 471 1076 470 1076 458 1075 457 1075 451 1074 450 1074 445 1073 444 1073 437 1072 436 1072 428 1071 427 1071 418 1070 417 1070 409 1069 408 1069 402 1068 401 1068 396 1069 395 1069 392 1070 391 1070 389 1071 388 1071 386 1072 385 1072 383 1073 382 1073 381 1074 380 1074 379 1076 377 1076 376 1080 372 1081 372 1083 370 1084 370 1085 369 1089 373 1089 374 1090 375 1090 376 1091 377 1091 378 1092 379 1092 380 1093 381 1093 383 1094 384 1094 385 1095 386 1095 387 1096 388 1096 391 1097 392 1097 396 1098 397 1098 413 1097 414 1097 419 1098 420 1098 423 1099 424 1099 427 1100 428 1100 431 1101 432 1101 434 1102 435 1102 438 1103 439 1103 440 1104 441 1104 443 1107 446 1110 446 1111 447 1117 447 1121 443 1121 442 1122 441 1122 438 1123 437 1123 433 1124 432 1124 427 1125 426 1125 421 1126 420 1125 419 1125 411 1124 410 1124 400 1123 399 1123 391 1122 390 1122 382 1121 381 1121 374 1120 373 1120 368 1119 367 1119 363 1118 362 1118 359 1117 358 1117 355 1116 354 1116 351 1115 350 1115 347 1114 346 1114 343 1113 342 1113 338 1112 337 1112 333 1111 332 1111 326 1110 325 1110 319 1109 318 1109 311 1108 310 1108 305 1107 304 1107 300 1106 299 1106 296 1105 295 1105 292 1104 291 1104 288 1103 287 1103 283 1102 282 1102 279 1101 278 1101 276 1100 275 1100 272 1099 271 1099 269 1098 268 1098 265 1097 264 1097 262 1096 261 1096 260 1095 259 1095 257 1094 256 1094 255 1093 254 1093 253 1092 252 1092 251 1091 250 1091 249 1090 248 1090 246 1089 245 1089 244 1088 243 1088 241 1087 240 1087 238 1086 237 1086 236 1082 232 1082 231 1075 224 1074 224 1070 220 1070 219 1068 217 1068 216 1066 214 1066 213 1060 207 1060 206 1053 199 1053 198 1051 196 1051 195 1050 194 1050 192 1049 191 1049 190 1048 189 1048 187 1047 186 1047 185 1046 184 1046 183 1045 182 1045 181 1043 179 1043 178 1042 177 1042 176 1041 175 1041 174 1040 173 1040 172 1039 171 1039 169 1038 168 1038 166 1037 165 1037 164 1036 163 1036 162 1034 160 1034 159 1031 156 1031 155 1029 153 1029 152 1027 150 1027 138 "/></svg>