<svg width="1920" height="1080" xmlns="http://www.w3.org/2000/svg"><path d="M987 140 987 151 986 152 986 153 982 157 982 158 979 161 979 162 978 163 978 164 977 165 977 166 976 167 976 168 975 169 975 171 974 172 974 173 973 174 973 176 972 177 972 179 971 180 971 181 970 182 970 183 969 184 969 186 968 187 968 189 967 190 967 193 966 194 966 196 965 197 965 198 964 199 964 200 962 202 962 203 958 207 958 208 955 211 955 212 954 213 954 214 953 215 953 216 951 218 951 219 943 227 942 227 940 229 939 229 938 230 937 230 936 231 935 231 934 232 933 232 932 233 931 233 930 234 929 234 928 235 928 236 926 238 926 239 925 240 925 241 923 243 923 244 922 245 922 246 916 252 916 253 913 256 913 257 912 258 912 259 911 260 911 261 910 262 910 263 909 264 909 265 908 266 908 267 905 270 905 271 897 279 897 280 896 281 896 282 895 283 895 284 894 285 894 286 893 287 893 289 892 290 892 292 891 293 891 294 890 295 890 296 889 297 889 299 887 301 887 302 886 303 886 305 885 306 885 307 884 308 884 311 883 312 883 315 882 316 882 319 881 320 881 322 880 323 880 325 879 326 879 327 878 328 878 330 877 331 877 334 876 335 876 339 875 340 875 345 874 346 874 351 873 352 873 358 872 359 872 365 871 366 871 372 870 373 870 385 869 386 869 399 870 400 870 402 871 403 871 404 872 405 872 407 873 408 873 409 874 410 874 411 875 412 875 414 876 415 876 416 878 418 879 418 881 420 882 420 883 421 885 421 886 422 887 422 888 421 888 419 889 418 889 415 890 414 890 411 891 410 891 407 892 406 892 402 893 401 893 396 894 395 894 389 895 388 895 382 896 381 896 377 897 376 897 371 898 370 898 366 899 365 899 361 900 360 900 356 901 355 901 353 902 352 902 350 903 349 903 348 904 347 904 346 906 344 906 343 908 341 908 340 909 339 909 337 910 336 910 335 911 334 911 333 912 332 912 331 913 330 913 329 918 324 923 324 924 323 929 323 930 324 931 324 932 325 933 325 936 328 937 328 940 331 940 333 941 334 941 336 942 337 942 339 943 340 943 343 944 344 944 347 945 348 945 351 946 352 946 355 945 356 945 363 944 364 944 372 943 373 943 378 942 379 942 383 941 384 941 386 940 387 940 390 939 391 939 393 938 394 938 396 937 397 937 400 936 401 936 402 935 403 935 405 934 406 934 408 933 409 933 411 932 412 932 413 931 414 931 416 930 417 930 418 929 419 929 421 928 422 928 424 927 425 927 428 926 429 926 432 925 433 925 437 924 438 924 445 923 446 923 462 922 463 922 515 921 516 921 566 920 567 920 584 921 585 921 595 922 596 922 603 921 604 921 611 920 612 920 616 919 617 919 622 918 623 918 627 917 628 917 634 916 635 916 642 915 643 915 650 914 651 914 658 913 659 913 665 912 666 912 670 911 671 911 675 910 676 910 678 909 679 909 681 908 682 908 684 907 685 907 687 906 688 906 691 905 692 905 699 904 700 904 708 903 709 903 715 904 716 904 718 905 719 905 721 906 722 906 724 907 725 907 726 908 727 908 728 910 730 910 731 913 734 913 735 918 740 920 740 921 741 923 741 924 742 926 742 927 743 931 743 932 742 936 742 937 741 939 741 940 740 941 740 945 736 945 735 946 734 946 733 947 732 947 730 948 729 948 728 949 727 949 724 950 723 950 721 951 720 951 716 952 715 952 708 953 707 953 696 954 695 954 687 955 686 955 681 956 680 956 675 957 674 957 668 958 667 958 664 959 663 959 659 960 658 960 654 961 653 961 648 962 647 962 641 963 640 963 634 964 633 964 626 965 625 965 618 966 617 966 610 967 609 967 603 968 602 968 594 969 593 969 586 970 585 970 579 971 578 971 574 972 573 972 570 973 569 973 564 974 563 974 557 975 556 975 544 976 543 976 532 977 531 977 529 978 528 978 526 979 525 979 523 980 522 980 521 981 520 981 519 982 518 982 517 983 516 983 515 984 514 984 512 985 511 985 509 986 508 986 507 987 506 987 505 988 504 988 503 989 502 989 501 992 498 993 498 994 497 995 497 996 496 998 496 999 495 1000 495 1001 494 1002 494 1005 497 1005 498 1009 502 1009 503 1012 506 1012 507 1013 508 1013 509 1014 510 1014 513 1015 514 1015 516 1016 517 1016 520 1017 521 1017 525 1018 526 1018 529 1019 530 1019 536 1020 537 1020 546 1021 547 1021 553 1022 554 1022 559 1023 560 1023 564 1024 565 1024 569 1025 570 1025 576 1026 577 1026 611 1027 612 1027 661 1028 662 1028 708 1027 709 1027 714 1028 715 1028 720 1029 721 1029 725 1030 726 1030 728 1031 729 1031 731 1032 732 1032 734 1033 735 1033 736 1034 736 1038 740 1039 740 1041 742 1042 742 1043 743 1045 743 1046 744 1049 744 1050 745 1052 745 1053 746 1059 746 1060 747 1076 747 1077 746 1079 746 1080 745 1081 745 1082 744 1083 744 1084 743 1085 743 1087 741 1087 740 1090 737 1090 735 1086 731 1086 730 1084 728 1084 727 1083 726 1083 725 1082 724 1082 722 1081 721 1081 719 1080 718 1080 714 1079 713 1079 710 1078 709 1078 707 1077 706 1077 704 1076 703 1076 701 1075 700 1075 698 1074 697 1074 695 1073 694 1073 692 1072 691 1072 673 1071 672 1071 663 1072 662 1072 642 1073 641 1073 634 1074 633 1074 627 1075 626 1075 617 1076 616 1076 605 1077 604 1077 580 1078 579 1078 576 1077 575 1077 466 1076 465 1076 456 1075 455 1075 447 1074 446 1074 438 1073 437 1073 429 1072 428 1072 421 1071 420 1071 413 1070 412 1070 406 1069 405 1069 399 1068 398 1069 397 1069 394 1070 393 1070 391 1071 390 1071 387 1072 386 1072 384 1073 383 1073 381 1074 380 1074 379 1077 376 1077 375 1078 374 1079 374 1080 373 1081 373 1083 371 1084 371 1085 370 1088 373 1088 374 1089 375 1089 376 1090 377 1090 378 1091 379 1091 381 1092 382 1092 383 1093 384 1093 386 1094 387 1094 389 1095 390 1095 392 1096 393 1096 396 1097 397 1097 407 1096 408 1096 422 1097 423 1097 426 1098 427 1098 429 1099 430 1099 432 1100 433 1100 435 1101 436 1101 438 1102 439 1102 441 1103 442 1103 443 1104 444 1104 445 1106 447 1109 447 1110 448 1117 448 1119 446 1119 445 1121 443 1121 440 1122 439 1122 435 1123 434 1123 430 1124 429 1124 424 1125 423 1125 417 1124 416 1124 404 1123 403 1123 393 1122 392 1122 384 1121 383 1121 374 1120 373 1120 368 1119 367 1119 363 1118 362 1118 358 1117 357 1117 353 1116 352 1116 349 1115 348 1115 345 1114 344 1114 339 1113 338 1113 334 1112 333 1112 327 1111 326 1111 320 1110 319 1110 311 1109 310 1109 304 1108 303 1108 299 1107 298 1107 295 1106 294 1106 291 1105 290 1105 286 1104 285 1104 283 1103 282 1103 280 1102 279 1102 276 1101 275 1101 273 1100 272 1100 269 1099 268 1099 265 1098 264 1098 261 1097 260 1097 259 1096 258 1096 257 1095 256 1095 255 1094 254 1094 253 1093 252 1093 251 1092 250 1092 249 1091 248 1091 247 1090 246 1090 244 1089 243 1089 241 1088 240 1088 239 1087 238 1087 237 1085 235 1085 234 1082 231 1081 231 1071 221 1071 220 1069 218 1069 217 1067 215 1067 214 1060 207 1060 206 1054 200 1054 199 1052 197 1052 195 1051 194 1051 193 1050 192 1050 190 1049 189 1049 188 1048 187 1048 186 1047 185 1047 184 1046 183 1046 182 1045 181 1045 180 1043 178 1043 177 1042 176 1042 175 1041 174 1041 172 1040 171 1040 170 1039 169 1039 167 1038 166 1038 165 1037 164 1037 163 1036 162 1036 161 1033 158 1033 157 1030 154 1030 153 1028 151 1028 140 "/></svg>