<svg width="1920" height="1080" xmlns="http://www.w3.org/2000/svg"><path d="M986 146 986 156 985 157 985 158 982 161 982 162 980 164 980 165 979 166 979 167 977 169 977 171 976 172 976 173 975 174 975 175 974 176 974 178 973 179 973 180 972 181 972 182 971 183 971 184 970 185 970 187 969 188 969 189 968 190 968 192 967 193 967 194 966 195 966 197 965 198 965 200 964 201 964 202 963 203 963 204 959 208 959 209 951 217 951 218 948 221 948 222 946 224 946 225 940 231 939 231 938 232 937 232 935 234 934 234 933 235 932 235 931 236 930 236 924 242 924 243 923 244 923 245 921 247 921 248 919 250 919 251 917 253 917 254 915 256 915 257 913 259 913 260 911 262 911 263 909 265 909 266 908 267 908 268 906 270 906 271 905 272 905 273 902 276 902 277 898 281 898 282 896 284 896 285 895 286 895 287 894 288 894 290 893 291 893 293 892 294 892 295 891 296 891 297 890 298 890 299 889 300 889 301 887 303 887 305 886 306 886 307 885 308 885 310 884 311 884 313 883 314 883 317 882 318 882 320 881 321 881 322 880 323 880 325 879 326 879 327 878 328 878 330 877 331 877 332 876 333 876 340 875 341 875 348 874 349 874 356 873 357 873 366 872 367 872 373 871 374 871 388 870 389 870 402 871 403 871 404 872 405 872 407 873 408 873 409 874 410 874 411 875 412 875 414 876 415 876 416 877 417 877 418 878 419 878 421 880 423 883 423 884 424 889 424 890 423 890 420 891 419 891 416 892 415 892 412 893 411 893 406 894 405 894 400 895 399 895 392 896 391 896 385 897 384 897 375 898 374 898 358 899 357 899 355 900 354 900 352 901 351 901 350 902 349 902 348 903 347 903 346 905 344 905 343 906 342 906 341 908 339 908 338 910 336 910 335 912 333 912 332 916 328 917 328 919 326 920 326 921 325 931 325 932 326 933 326 934 327 935 327 938 330 939 330 942 333 942 334 943 335 943 338 944 339 944 342 945 343 945 346 946 347 946 351 947 352 947 362 946 363 946 369 945 370 945 376 944 377 944 381 943 382 943 385 942 386 942 388 941 389 941 391 940 392 940 394 939 395 939 398 938 399 938 401 937 402 937 405 936 406 936 407 935 408 935 410 934 411 934 413 933 414 933 415 932 416 932 417 931 418 931 420 929 422 929 424 928 425 928 428 927 429 927 432 926 433 926 436 925 437 925 441 924 442 924 450 923 451 923 476 922 477 922 509 921 510 921 531 920 532 920 542 921 543 921 559 920 560 920 571 919 572 919 583 920 584 920 591 921 592 921 606 920 607 920 611 919 612 919 617 918 618 918 624 917 625 917 633 916 634 916 645 915 646 915 653 914 654 914 660 913 661 913 666 912 667 912 671 911 672 911 674 910 675 910 678 909 679 909 681 908 682 908 684 907 685 907 688 906 689 906 701 905 702 905 714 906 715 906 717 907 718 907 719 908 720 908 721 909 722 909 723 910 724 910 725 914 729 914 730 916 732 916 733 920 737 921 737 922 738 924 738 925 739 927 739 928 740 934 740 935 739 939 739 940 738 941 738 944 735 944 734 946 732 946 731 947 730 947 728 948 727 948 725 949 724 949 723 950 722 950 719 951 718 951 716 952 715 952 710 953 709 953 701 954 700 954 690 955 689 955 684 956 683 956 678 957 677 957 672 958 671 958 667 959 666 959 661 960 660 960 656 961 655 961 651 962 650 962 644 963 643 963 638 964 637 964 630 965 629 965 622 966 621 966 612 967 611 967 602 968 601 968 588 969 587 969 577 970 576 970 571 971 570 971 566 972 565 972 561 973 560 973 555 974 554 974 547 975 546 975 535 976 534 976 531 977 530 977 528 978 527 978 525 979 524 979 522 980 521 980 520 981 519 981 518 982 517 982 516 983 515 983 513 984 512 984 511 985 510 985 508 986 507 986 506 987 505 987 504 988 503 988 502 990 500 990 499 991 498 991 497 992 496 993 496 994 495 996 495 997 494 998 494 999 493 1001 493 1002 492 1003 492 1004 493 1004 494 1007 497 1007 498 1011 502 1011 503 1014 506 1014 508 1015 509 1015 511 1016 512 1016 515 1017 516 1017 519 1018 520 1018 523 1019 524 1019 527 1020 528 1020 532 1021 533 1021 539 1022 540 1022 546 1023 547 1023 553 1024 554 1024 559 1025 560 1025 566 1026 567 1026 576 1027 577 1027 594 1026 595 1026 602 1027 603 1027 622 1028 623 1028 626 1027 627 1027 652 1028 653 1028 715 1029 716 1029 720 1030 721 1030 724 1031 725 1031 728 1032 729 1032 730 1033 731 1033 732 1034 733 1034 734 1037 737 1038 737 1041 740 1042 740 1043 741 1044 741 1045 742 1047 742 1048 743 1051 743 1052 744 1056 744 1057 745 1077 745 1078 744 1079 744 1080 743 1081 743 1082 742 1083 742 1088 737 1088 736 1089 735 1089 734 1087 732 1087 731 1085 729 1085 728 1083 726 1083 724 1082 723 1082 721 1081 720 1081 718 1080 717 1080 712 1079 711 1079 709 1078 708 1078 706 1077 705 1077 703 1076 702 1076 699 1075 698 1075 696 1074 695 1074 693 1073 692 1073 686 1072 685 1072 651 1073 650 1073 639 1074 638 1074 633 1075 632 1075 626 1076 625 1076 618 1077 617 1077 606 1078 605 1078 475 1079 474 1079 465 1078 464 1078 459 1077 458 1077 453 1076 452 1076 448 1075 447 1075 443 1074 442 1074 437 1073 436 1073 431 1072 430 1072 426 1071 425 1071 419 1070 418 1070 412 1069 411 1069 406 1068 405 1068 399 1069 398 1069 396 1070 395 1070 393 1071 392 1071 390 1072 389 1072 388 1073 387 1073 385 1074 384 1074 383 1076 381 1077 381 1080 378 1081 378 1082 377 1084 377 1085 376 1088 379 1088 380 1089 381 1089 383 1090 384 1090 386 1091 387 1091 389 1092 390 1092 392 1093 393 1093 395 1094 396 1094 399 1095 400 1095 414 1094 415 1094 424 1095 425 1095 431 1096 432 1096 437 1097 438 1097 444 1098 445 1098 448 1099 449 1099 451 1100 452 1100 453 1101 454 1101 456 1103 458 1103 459 1105 461 1105 462 1106 463 1107 463 1108 462 1109 462 1110 461 1113 461 1114 460 1116 460 1118 458 1118 457 1121 454 1121 453 1123 451 1123 450 1124 449 1124 448 1125 447 1125 446 1126 445 1126 421 1125 420 1125 415 1124 414 1124 408 1123 407 1123 400 1122 399 1122 390 1121 389 1121 381 1120 380 1120 373 1119 372 1119 367 1118 366 1118 362 1117 361 1117 357 1116 356 1116 351 1115 350 1115 345 1114 344 1114 339 1113 338 1113 332 1112 331 1112 325 1111 324 1111 317 1110 316 1110 309 1109 308 1109 303 1108 302 1108 298 1107 297 1107 293 1106 292 1106 289 1105 288 1105 286 1104 285 1104 283 1103 282 1103 280 1102 279 1102 276 1101 275 1101 272 1100 271 1100 267 1099 266 1099 264 1098 263 1098 261 1097 260 1097 259 1096 258 1096 257 1095 256 1095 255 1094 254 1094 253 1093 252 1093 251 1092 250 1092 248 1091 247 1091 245 1090 244 1090 243 1089 242 1089 241 1088 240 1088 239 1080 231 1080 230 1077 227 1077 226 1075 224 1075 223 1074 222 1074 221 1060 207 1060 206 1058 204 1058 203 1056 201 1056 199 1055 198 1055 197 1053 195 1053 194 1052 193 1052 192 1051 191 1051 190 1050 189 1050 188 1048 186 1048 185 1047 184 1047 183 1046 182 1046 181 1045 180 1045 179 1044 178 1044 177 1043 176 1043 175 1042 174 1042 173 1041 172 1041 171 1040 170 1040 169 1039 168 1039 167 1037 165 1037 164 1032 159 1032 158 1031 157 1031 146 "/></svg>