<svg width="1920" height="1080" xmlns="http://www.w3.org/2000/svg"><path d="M987 142 987 153 981 159 981 160 979 162 979 163 978 164 978 165 977 166 977 167 976 168 976 169 975 170 975 171 974 172 974 173 973 174 973 177 972 178 972 180 971 181 971 185 970 186 970 190 969 191 969 196 968 197 968 200 967 201 967 203 966 204 966 207 965 208 965 209 964 210 964 212 963 213 963 215 962 216 962 217 961 218 961 219 960 220 960 222 958 224 958 225 956 227 956 228 949 235 948 235 940 243 940 244 932 252 931 252 928 255 927 255 918 264 918 265 917 266 917 267 916 268 916 269 915 270 915 271 914 272 914 274 913 275 913 276 911 278 911 279 910 280 910 281 908 283 908 284 906 286 906 287 905 288 905 289 904 290 904 292 903 293 903 294 902 295 902 296 900 298 900 299 899 300 899 301 896 304 896 305 895 306 895 307 894 308 894 310 893 311 893 314 892 315 892 317 891 318 891 320 890 321 890 323 889 324 889 325 887 327 887 328 885 330 885 331 884 332 884 334 883 335 883 337 882 338 882 341 881 342 881 344 880 345 880 347 879 348 879 350 878 351 878 352 877 353 877 355 876 356 876 357 875 358 875 360 874 361 874 362 873 363 873 365 872 366 872 367 871 368 871 370 870 371 870 372 869 373 869 375 868 376 868 377 867 378 867 379 866 380 866 383 865 384 865 388 864 389 864 394 863 395 863 401 862 402 862 403 863 404 863 407 864 408 864 411 865 412 865 413 867 415 867 416 869 418 869 419 872 422 872 423 875 426 878 426 879 425 883 425 884 424 885 424 886 423 886 421 887 420 887 418 888 417 888 414 889 413 889 410 890 409 890 407 891 406 891 401 892 400 892 395 893 394 893 389 894 388 894 384 895 383 895 380 896 379 896 377 897 376 897 375 899 373 899 372 901 370 901 369 904 366 904 365 907 362 907 361 908 360 908 359 909 358 909 356 910 355 910 353 911 352 911 351 912 350 912 349 914 347 914 346 918 342 919 342 920 341 921 341 922 340 923 340 924 339 925 339 926 338 927 338 928 337 929 337 930 338 931 338 933 340 934 340 938 344 939 344 940 345 940 347 941 348 941 349 942 350 942 353 943 354 943 356 944 357 944 404 943 405 943 409 942 410 942 413 941 414 941 417 940 418 940 420 939 421 939 423 938 424 938 426 937 427 937 431 936 432 936 436 935 437 935 441 934 442 934 448 933 449 933 453 932 454 932 458 931 459 931 462 930 463 930 466 929 467 929 469 928 470 928 474 927 475 927 479 926 480 926 486 925 487 925 494 924 495 924 506 923 507 923 521 922 522 922 538 921 539 921 584 922 585 922 598 923 599 923 615 922 616 922 630 921 631 921 637 920 638 920 643 919 644 919 649 918 650 918 653 917 654 917 658 916 659 916 663 915 664 915 669 914 670 914 676 913 677 913 681 912 682 912 686 911 687 911 690 910 691 910 694 909 695 909 697 908 698 908 703 907 704 907 710 906 711 906 717 905 718 905 722 906 723 906 724 907 725 907 727 909 729 909 730 910 731 910 732 912 734 912 735 913 736 913 737 915 739 915 740 917 742 917 743 920 746 921 746 923 748 924 748 926 750 927 750 928 751 931 751 932 750 939 750 940 749 941 749 943 747 944 747 946 745 947 745 949 743 949 742 950 741 950 739 951 738 951 735 952 734 952 731 953 730 953 727 954 726 954 722 955 721 955 706 956 705 956 694 957 693 957 688 958 687 958 683 959 682 959 678 960 677 960 672 961 671 961 666 962 665 962 660 963 659 963 652 964 651 964 643 965 642 965 634 966 633 966 627 967 626 967 621 968 620 968 616 969 615 969 612 970 611 970 609 971 608 971 605 972 604 972 601 973 600 973 597 974 596 974 592 975 591 975 586 976 585 976 580 977 579 977 575 978 574 978 571 979 570 979 566 980 565 980 562 981 561 981 560 982 559 982 557 983 556 983 555 984 554 984 552 985 551 985 549 986 548 986 546 987 545 987 543 988 542 988 540 989 539 989 538 990 537 990 536 991 535 991 534 992 533 993 533 994 532 995 532 996 531 997 531 998 530 999 530 1000 529 1002 529 1003 528 1005 530 1006 530 1008 532 1009 532 1014 537 1014 538 1015 539 1015 541 1016 542 1016 545 1017 546 1017 549 1018 550 1018 554 1019 555 1019 559 1020 560 1020 564 1021 565 1021 569 1022 570 1022 573 1023 574 1023 577 1024 578 1024 580 1025 581 1025 585 1026 586 1026 611 1027 612 1027 626 1028 627 1028 632 1027 633 1027 643 1026 644 1026 652 1025 653 1025 654 1026 655 1026 704 1025 705 1025 713 1024 714 1024 726 1025 727 1025 731 1026 732 1026 735 1027 736 1027 739 1028 740 1028 742 1030 744 1030 745 1032 747 1033 747 1035 749 1036 749 1037 750 1041 750 1042 751 1055 751 1056 750 1058 750 1059 749 1060 749 1061 748 1062 748 1063 747 1064 747 1066 745 1067 745 1068 744 1068 743 1069 742 1069 739 1070 738 1070 733 1071 732 1071 722 1072 721 1071 720 1071 718 1070 717 1070 714 1069 713 1069 710 1068 709 1068 707 1067 706 1067 703 1066 702 1066 699 1065 698 1065 670 1066 669 1066 662 1067 661 1067 653 1068 652 1068 647 1069 646 1069 641 1070 640 1070 634 1071 633 1071 627 1072 626 1072 621 1073 620 1073 616 1074 615 1074 611 1075 610 1075 606 1076 605 1076 600 1077 599 1077 595 1078 594 1078 589 1079 588 1079 580 1080 579 1080 554 1081 553 1081 506 1080 505 1080 488 1079 487 1079 475 1078 474 1078 469 1077 468 1077 465 1076 464 1076 461 1075 460 1075 458 1074 457 1074 454 1073 453 1073 451 1072 450 1072 439 1071 438 1071 423 1072 422 1072 419 1073 418 1073 417 1074 416 1074 414 1075 413 1075 411 1076 410 1076 409 1077 408 1077 407 1079 405 1080 405 1084 401 1085 401 1086 400 1087 400 1088 399 1089 400 1089 401 1090 402 1090 404 1091 405 1091 407 1092 408 1092 411 1093 412 1093 415 1094 416 1094 421 1095 422 1095 426 1096 427 1096 430 1097 431 1097 434 1098 435 1098 437 1099 438 1099 440 1100 441 1100 444 1101 445 1101 449 1102 450 1102 452 1103 453 1103 455 1104 456 1104 457 1105 458 1105 459 1106 460 1106 461 1107 462 1107 463 1109 465 1109 466 1110 466 1111 465 1114 465 1115 464 1119 464 1123 460 1123 459 1126 456 1126 455 1128 453 1128 452 1129 451 1129 450 1130 449 1130 425 1129 424 1129 421 1128 420 1128 416 1127 415 1127 410 1126 409 1126 403 1125 402 1125 396 1124 395 1124 389 1123 388 1123 383 1122 382 1122 378 1121 377 1121 375 1120 374 1120 372 1119 371 1119 369 1118 368 1118 367 1117 366 1117 363 1116 362 1116 360 1115 359 1115 355 1114 354 1114 350 1113 349 1113 346 1112 345 1112 342 1111 341 1111 337 1110 336 1110 334 1109 333 1109 331 1108 330 1108 328 1107 327 1107 324 1106 323 1106 319 1105 318 1105 314 1104 313 1104 308 1103 307 1103 302 1102 301 1102 297 1101 296 1101 292 1100 291 1100 288 1099 287 1099 286 1098 285 1098 283 1097 282 1097 281 1096 280 1096 279 1095 278 1095 276 1094 275 1094 274 1093 273 1093 271 1092 270 1092 268 1091 267 1091 265 1090 264 1090 262 1089 261 1089 260 1088 259 1088 258 1087 257 1087 256 1086 255 1086 254 1085 253 1085 252 1084 251 1084 250 1083 249 1083 248 1082 247 1082 246 1081 245 1081 244 1080 243 1080 242 1078 240 1078 239 1073 234 1072 234 1069 231 1068 231 1061 224 1061 223 1059 221 1059 219 1058 218 1058 217 1057 216 1057 215 1055 213 1055 212 1053 210 1053 209 1052 208 1052 207 1051 206 1051 205 1050 204 1050 203 1049 202 1049 201 1048 200 1048 199 1047 198 1047 195 1046 194 1046 193 1045 192 1045 190 1044 189 1044 188 1043 187 1043 185 1042 184 1042 183 1041 182 1041 180 1040 179 1040 178 1039 177 1039 175 1038 174 1038 172 1037 171 1037 170 1036 169 1036 168 1035 167 1035 166 1033 164 1033 163 1031 161 1031 160 1030 159 1030 158 1028 156 1028 155 1027 154 1027 142 "/></svg>