<svg width="1920" height="1080" xmlns="http://www.w3.org/2000/svg"><path d="M988 136 988 148 986 150 986 151 982 155 982 156 977 161 977 162 976 163 976 164 975 165 975 166 974 167 974 169 973 170 973 172 972 173 972 176 971 177 971 179 970 180 970 183 969 184 969 187 968 188 968 191 967 192 967 194 966 195 966 196 965 197 965 198 964 199 964 200 963 201 963 202 962 203 962 205 961 206 961 207 960 208 960 209 958 211 958 213 956 215 956 216 955 217 955 218 953 220 953 221 948 226 947 226 944 229 943 229 941 231 940 231 935 236 935 237 933 239 933 240 923 250 922 250 913 259 913 260 912 261 912 263 911 264 911 265 910 266 910 267 909 268 909 269 908 270 908 271 906 273 906 274 903 277 903 278 901 280 901 281 899 283 899 285 898 286 898 287 897 288 897 289 896 290 896 291 893 294 893 295 891 297 891 298 890 299 890 300 889 301 889 303 888 304 888 305 887 306 887 309 886 310 886 312 885 313 885 315 884 316 884 317 882 319 882 320 881 321 881 322 880 323 880 324 879 325 879 327 878 328 878 330 877 331 877 334 876 335 876 338 875 339 875 342 874 343 874 345 873 346 873 348 872 349 872 351 871 352 871 353 870 354 870 357 869 358 869 360 868 361 868 363 867 364 867 366 866 367 866 369 865 370 865 373 864 374 864 380 863 381 863 392 862 393 862 399 863 400 863 401 865 403 865 404 867 406 867 407 869 409 869 410 871 412 872 412 873 413 880 413 881 414 882 413 882 412 883 411 883 410 884 409 884 407 885 406 885 404 886 403 886 401 887 400 887 396 888 395 888 391 889 390 889 386 890 385 890 381 891 380 891 377 892 376 892 374 893 373 893 372 894 371 894 370 895 369 895 367 896 366 896 365 898 363 898 362 899 361 899 360 901 358 901 357 903 355 903 353 904 352 904 350 905 349 905 347 906 346 906 345 907 344 907 343 908 342 908 341 909 340 909 339 910 338 910 337 916 331 917 331 918 330 919 330 921 328 922 328 923 327 925 327 926 328 927 328 928 329 929 329 932 332 933 332 936 335 936 336 937 337 937 338 938 339 938 340 939 341 939 342 940 343 940 345 941 346 941 348 942 349 942 352 943 353 943 358 942 359 942 386 941 387 941 399 940 400 940 404 939 405 939 409 938 410 938 413 937 414 937 416 936 417 936 420 935 421 935 423 934 424 934 426 933 427 933 430 932 431 932 435 931 436 931 441 930 442 930 447 929 448 929 453 928 454 928 459 927 460 927 463 926 464 926 468 925 469 925 473 924 474 924 479 923 480 923 486 922 487 922 495 921 496 921 507 920 508 920 537 919 538 919 585 920 586 920 617 919 618 919 636 918 637 918 650 917 651 917 656 916 657 916 661 915 662 915 665 914 666 914 669 913 670 913 673 912 674 912 678 911 679 911 682 910 683 910 687 909 688 909 692 908 693 908 699 907 700 907 710 906 711 906 721 907 722 907 723 908 724 908 726 909 727 909 728 910 729 910 731 911 732 911 733 912 734 912 735 913 736 913 737 914 738 914 739 916 741 916 742 919 745 920 745 923 748 926 748 927 749 937 749 938 748 940 748 941 747 942 747 943 746 944 746 945 745 946 745 946 744 948 742 948 741 949 740 949 738 950 737 950 734 951 733 951 731 952 730 952 727 953 726 953 724 954 723 954 720 955 719 955 706 956 705 956 694 957 693 957 689 958 688 958 684 959 683 959 678 960 677 960 670 961 669 961 661 962 660 962 653 963 652 963 645 964 644 964 638 965 637 965 631 966 630 966 627 967 626 967 623 968 622 968 620 969 619 969 615 970 614 970 610 971 609 971 604 972 603 972 596 973 595 973 588 974 587 974 580 975 579 975 574 976 573 976 569 977 568 977 564 978 563 978 559 979 558 979 555 980 554 980 551 981 550 981 547 982 546 982 543 983 542 983 538 984 537 984 535 985 534 985 532 986 531 986 530 991 525 992 525 995 522 996 522 998 520 1000 520 1001 521 1003 521 1004 522 1006 522 1007 523 1009 523 1011 525 1011 526 1013 528 1013 530 1014 531 1014 532 1015 533 1015 535 1016 536 1016 542 1017 543 1017 547 1018 548 1018 552 1019 553 1019 557 1020 558 1020 561 1021 562 1021 565 1022 566 1022 570 1023 571 1023 577 1024 578 1024 622 1025 623 1025 636 1024 637 1024 678 1025 679 1025 702 1024 703 1024 714 1023 715 1023 722 1024 723 1024 730 1025 731 1025 736 1026 737 1026 740 1027 741 1027 742 1031 746 1032 746 1033 747 1035 747 1036 748 1038 748 1039 749 1040 749 1041 750 1049 750 1050 751 1054 751 1055 750 1061 750 1062 749 1064 749 1065 748 1066 748 1067 747 1068 747 1070 745 1071 745 1074 742 1074 734 1073 733 1073 724 1072 723 1072 717 1071 716 1071 714 1070 713 1070 710 1069 709 1069 706 1068 705 1068 701 1067 700 1067 658 1068 657 1068 642 1069 641 1069 632 1070 631 1070 624 1071 623 1071 618 1072 617 1072 613 1073 612 1073 609 1074 608 1074 603 1075 602 1075 594 1076 593 1076 583 1077 582 1077 568 1078 567 1078 551 1079 550 1079 535 1080 534 1080 475 1081 474 1081 463 1080 462 1080 455 1079 454 1079 448 1078 447 1078 440 1077 439 1077 431 1076 430 1076 426 1075 425 1075 421 1074 420 1074 410 1073 409 1073 401 1072 400 1072 398 1073 397 1073 395 1074 394 1074 393 1075 392 1075 390 1076 389 1076 388 1077 387 1077 386 1078 385 1078 384 1079 383 1079 382 1081 380 1081 379 1082 378 1082 377 1084 375 1085 376 1085 377 1086 378 1086 379 1087 380 1087 381 1088 382 1088 383 1089 384 1089 385 1090 386 1090 387 1091 388 1091 389 1092 390 1092 392 1093 393 1093 394 1094 395 1094 396 1095 397 1095 408 1094 409 1094 424 1095 425 1095 427 1096 428 1096 431 1097 432 1097 435 1098 436 1098 438 1099 439 1099 440 1100 441 1100 443 1102 445 1102 446 1104 448 1105 448 1106 449 1116 449 1117 448 1118 448 1122 444 1122 442 1123 441 1123 439 1124 438 1124 436 1125 435 1125 433 1126 432 1126 428 1127 427 1127 422 1128 421 1127 420 1127 412 1126 411 1126 404 1125 403 1125 397 1124 396 1124 391 1123 390 1123 384 1122 383 1122 376 1121 375 1121 371 1120 370 1120 366 1119 365 1119 362 1118 361 1118 358 1117 357 1117 355 1116 354 1116 351 1115 350 1115 348 1114 347 1114 345 1113 344 1113 341 1112 340 1112 336 1111 335 1111 330 1110 329 1110 324 1109 323 1109 317 1108 316 1108 311 1107 310 1107 305 1106 304 1106 300 1105 299 1105 296 1104 295 1104 292 1103 291 1103 287 1102 286 1102 283 1101 282 1101 279 1100 278 1100 275 1099 274 1099 271 1098 270 1098 268 1097 267 1097 264 1096 263 1096 261 1095 260 1095 258 1093 256 1093 255 1092 254 1092 252 1091 251 1091 250 1090 249 1090 248 1089 247 1089 246 1088 245 1088 243 1087 242 1087 241 1086 240 1086 238 1085 237 1085 236 1084 235 1084 234 1077 227 1076 227 1072 223 1071 223 1065 217 1065 216 1062 213 1062 212 1058 208 1058 207 1051 200 1051 199 1049 197 1049 196 1048 195 1048 194 1047 193 1047 192 1046 191 1046 189 1045 188 1045 186 1044 185 1044 184 1043 183 1043 182 1042 181 1042 180 1040 178 1040 177 1039 176 1039 175 1038 174 1038 173 1037 172 1037 171 1036 170 1036 168 1035 167 1035 165 1034 164 1034 163 1032 161 1032 160 1029 157 1029 156 1027 154 1027 153 1025 151 1025 150 1023 148 1023 136 "/></svg>