<svg width="1920" height="1080" xmlns="http://www.w3.org/2000/svg"><path d="M985 138 985 149 984 150 984 151 983 152 983 153 981 155 981 156 979 158 979 159 977 161 977 162 976 163 976 164 975 165 975 166 974 167 974 169 973 170 973 172 972 173 972 175 971 176 971 179 970 180 970 182 969 183 969 186 968 187 968 189 967 190 967 192 966 193 966 195 965 196 965 197 964 198 964 199 962 201 962 202 961 203 961 204 959 206 959 207 956 210 956 211 954 213 954 214 953 215 953 216 952 217 952 218 950 220 950 221 945 226 944 226 943 227 942 227 941 228 940 228 939 229 938 229 937 230 936 230 935 231 934 231 932 233 931 233 929 235 929 236 926 239 926 240 923 243 923 244 915 252 914 252 913 253 913 254 911 256 911 257 910 258 910 259 909 260 909 261 908 262 908 264 907 265 907 267 906 268 906 269 905 270 905 271 900 276 900 277 898 279 898 280 896 282 896 283 895 284 895 285 894 286 894 287 893 288 893 289 892 290 892 291 891 292 891 293 890 294 890 295 889 296 889 297 888 298 888 300 887 301 887 302 886 303 886 305 885 306 885 308 884 309 884 311 883 312 883 313 882 314 882 316 881 317 881 318 880 319 880 320 879 321 879 322 878 323 878 325 877 326 877 328 876 329 876 333 875 334 875 339 874 340 874 343 873 344 873 347 872 348 872 350 871 351 871 354 870 355 870 358 869 359 869 362 868 363 868 367 867 368 867 372 866 373 866 384 865 385 865 399 866 400 866 401 867 402 867 404 868 405 868 406 869 407 869 408 871 410 871 411 872 412 873 412 874 413 876 413 877 414 878 414 879 415 882 415 882 413 883 412 883 411 884 410 884 409 885 408 885 406 886 405 886 402 887 401 887 399 888 398 888 394 889 393 889 389 890 388 890 385 891 384 891 381 892 380 892 378 893 377 893 375 894 374 894 372 895 371 895 370 896 369 896 368 897 367 897 366 898 365 898 363 900 361 900 360 901 359 901 358 902 357 902 356 903 355 903 352 904 351 904 349 905 348 905 346 906 345 906 343 907 342 907 340 908 339 908 337 909 336 909 335 910 334 910 333 911 332 911 331 912 330 912 329 913 328 914 328 915 327 916 327 917 326 918 326 919 325 921 325 922 324 926 324 927 325 929 325 930 326 931 326 932 327 934 327 936 329 936 330 937 331 937 332 938 333 938 335 939 336 939 337 940 338 940 340 941 341 941 342 942 343 942 345 943 346 943 348 944 349 944 351 945 352 945 357 944 358 944 371 943 372 943 380 942 381 942 386 941 387 941 393 940 394 940 399 939 400 939 403 938 404 938 407 937 408 937 410 936 411 936 412 935 413 935 415 934 416 934 417 933 418 933 420 932 421 932 424 931 425 931 429 930 430 930 435 929 436 929 441 928 442 928 447 927 448 927 453 926 454 926 457 925 458 925 462 924 463 924 466 923 467 923 474 922 475 922 485 921 486 921 497 920 498 920 510 919 511 919 595 920 596 920 607 919 608 919 626 918 627 918 643 917 644 917 651 916 652 916 656 915 657 915 660 914 661 914 664 913 665 913 668 912 669 912 672 911 673 911 676 910 677 910 681 909 682 909 685 908 686 908 690 907 691 907 696 906 697 906 703 905 704 905 709 904 710 904 714 903 715 904 716 904 718 905 719 905 720 906 721 906 723 907 724 907 725 908 726 908 728 909 729 909 730 910 731 910 733 911 734 911 735 912 736 912 737 916 741 917 741 919 743 920 743 921 744 922 744 923 745 927 745 928 746 935 746 936 745 938 745 939 744 941 744 942 743 943 743 944 742 945 742 946 741 946 740 948 738 948 736 949 735 949 733 950 732 950 729 951 728 951 724 952 723 952 721 953 720 953 716 954 715 954 692 955 691 955 688 956 687 956 683 957 682 957 677 958 676 958 671 959 670 959 662 960 661 960 653 961 652 961 644 962 643 962 636 963 635 963 630 964 629 964 624 965 623 965 621 966 620 966 618 967 617 967 614 968 613 968 610 969 609 969 605 970 604 970 598 971 597 971 589 972 588 972 581 973 580 973 571 974 570 974 561 975 560 975 554 976 553 976 550 977 549 977 546 978 545 978 541 979 540 979 535 980 534 980 532 981 531 981 529 982 528 982 526 983 525 983 524 984 523 984 522 985 521 985 520 993 512 993 511 997 507 998 507 999 508 1000 508 1007 515 1008 515 1009 516 1009 517 1010 518 1010 519 1011 520 1011 521 1012 522 1012 523 1013 524 1013 525 1014 526 1014 528 1015 529 1015 531 1016 532 1016 538 1017 539 1017 547 1018 548 1018 555 1019 556 1019 561 1020 562 1020 568 1021 569 1021 576 1022 577 1022 599 1021 600 1021 602 1022 603 1022 614 1023 615 1023 655 1024 656 1024 683 1025 684 1025 699 1024 700 1024 714 1023 715 1024 716 1024 725 1025 726 1025 731 1026 732 1026 735 1027 736 1027 738 1030 741 1031 741 1032 742 1033 742 1034 743 1035 743 1036 744 1037 744 1038 745 1039 745 1040 746 1045 746 1046 747 1064 747 1065 746 1068 746 1069 745 1071 745 1072 744 1073 744 1079 738 1079 736 1078 735 1078 733 1077 732 1077 730 1076 729 1076 725 1075 724 1075 716 1074 715 1074 712 1073 711 1073 709 1072 708 1072 706 1071 705 1071 703 1070 702 1070 700 1069 699 1069 696 1068 695 1068 646 1069 645 1069 634 1070 633 1070 624 1071 623 1071 617 1072 616 1072 610 1073 609 1073 601 1074 600 1074 587 1075 586 1075 556 1076 555 1076 523 1077 522 1077 477 1078 476 1078 419 1077 418 1077 413 1076 412 1076 407 1075 406 1075 402 1074 401 1074 396 1075 395 1075 393 1076 392 1076 391 1077 390 1077 389 1078 388 1078 387 1079 386 1079 385 1081 383 1081 382 1082 381 1084 383 1084 385 1085 386 1085 387 1086 388 1086 390 1087 391 1087 393 1088 394 1088 396 1089 397 1089 402 1088 403 1088 412 1087 413 1087 424 1088 425 1088 427 1089 428 1089 430 1090 431 1090 432 1091 433 1091 434 1092 435 1092 436 1094 438 1094 439 1095 440 1095 441 1096 442 1096 443 1098 445 1099 445 1101 447 1102 447 1103 448 1109 448 1110 449 1114 449 1117 446 1118 446 1120 444 1120 443 1121 442 1121 440 1122 439 1122 438 1123 437 1123 435 1124 434 1124 431 1125 430 1125 426 1126 425 1126 410 1125 409 1125 398 1124 397 1124 392 1123 391 1123 386 1122 385 1122 380 1121 379 1121 373 1120 372 1120 368 1119 367 1119 363 1118 362 1118 358 1117 357 1117 354 1116 353 1116 350 1115 349 1115 346 1114 345 1114 342 1113 341 1113 338 1112 337 1112 333 1111 332 1111 328 1110 327 1110 322 1109 321 1109 315 1108 314 1108 308 1107 307 1107 301 1106 300 1106 296 1105 295 1105 291 1104 290 1104 286 1103 285 1103 283 1102 282 1102 280 1101 279 1101 277 1100 276 1100 274 1099 273 1099 270 1098 269 1098 266 1097 265 1097 262 1096 261 1096 259 1095 258 1095 256 1094 255 1094 254 1093 253 1093 252 1091 250 1091 249 1090 248 1090 247 1089 246 1089 245 1088 244 1088 243 1087 242 1087 240 1086 239 1086 238 1085 237 1085 236 1084 235 1084 234 1072 222 1071 222 1070 221 1070 220 1067 217 1067 216 1065 214 1065 213 1056 204 1056 203 1052 199 1052 198 1050 196 1050 195 1049 194 1049 193 1048 192 1048 190 1047 189 1047 188 1046 187 1046 186 1045 185 1045 184 1044 183 1044 182 1043 181 1043 180 1042 179 1042 178 1041 177 1041 176 1040 175 1040 174 1039 173 1039 172 1038 171 1038 169 1037 168 1037 166 1036 165 1036 164 1035 163 1035 161 1034 160 1034 159 1033 158 1033 157 1031 155 1031 154 1029 152 1029 151 1027 149 1027 138 "/></svg>