<svg width="1920" height="1080" xmlns="http://www.w3.org/2000/svg"><path d="M985 138 985 149 984 150 984 151 982 153 982 154 980 156 980 157 978 159 978 160 976 162 976 163 975 164 975 165 974 166 974 168 973 169 973 171 972 172 972 175 971 176 971 178 970 179 970 182 969 183 969 186 968 187 968 190 967 191 967 194 966 195 966 196 965 197 965 198 964 199 964 200 963 201 963 202 962 203 962 204 960 206 960 207 959 208 959 209 957 211 957 212 955 214 955 215 954 216 954 217 953 218 953 219 950 222 950 223 948 225 947 225 944 228 943 228 942 229 941 229 940 230 939 230 938 231 937 231 935 233 934 233 932 235 932 236 929 239 929 240 928 241 928 242 917 253 916 253 913 256 913 257 911 259 911 260 910 261 910 263 909 264 909 266 908 267 908 268 907 269 907 270 906 271 906 272 904 274 904 275 900 279 900 280 898 282 898 283 897 284 897 285 896 286 896 288 895 289 895 290 893 292 893 293 891 295 891 296 890 297 890 298 889 299 889 300 888 301 888 303 887 304 887 305 886 306 886 309 885 310 885 312 884 313 884 314 883 315 883 316 882 317 882 318 881 319 881 320 880 321 880 322 879 323 879 324 878 325 878 327 877 328 877 330 876 331 876 336 875 337 875 340 874 341 874 344 873 345 873 348 872 349 872 350 871 351 871 353 870 354 870 358 869 359 869 361 868 362 868 365 867 366 867 369 866 370 866 374 865 375 865 388 864 389 864 399 865 400 865 401 866 402 866 403 867 404 867 405 869 407 869 408 872 411 875 411 876 412 879 412 880 413 881 413 882 412 882 411 883 410 883 409 884 408 884 406 885 405 885 403 886 402 886 400 887 399 887 395 888 394 888 390 889 389 889 385 890 384 890 381 891 380 891 377 892 376 892 374 893 373 893 372 894 371 894 369 895 368 895 367 896 366 896 365 897 364 897 363 898 362 898 361 899 360 899 359 901 357 901 356 902 355 902 354 903 353 903 350 904 349 904 348 905 347 905 345 906 344 906 342 907 341 907 340 908 339 908 338 909 337 909 336 910 335 910 334 911 333 911 332 914 329 915 329 916 328 917 328 918 327 919 327 920 326 922 326 923 325 924 325 925 326 927 326 928 327 930 327 931 328 932 328 933 329 934 329 935 330 935 331 936 332 936 333 937 334 937 335 938 336 938 338 939 339 939 340 940 341 940 343 941 344 941 346 942 347 942 349 943 350 943 353 944 354 943 355 943 374 942 375 942 383 941 384 941 392 940 393 940 400 939 401 939 404 938 405 938 408 937 409 937 411 936 412 936 414 935 415 935 417 934 418 934 420 933 421 933 423 932 424 932 427 931 428 931 432 930 433 930 437 929 438 929 443 928 444 928 449 927 450 927 454 926 455 926 458 925 459 925 462 924 463 924 465 923 466 923 472 922 473 922 481 921 482 921 492 920 493 920 507 919 508 919 553 918 554 918 561 919 562 919 602 920 603 919 604 919 621 918 622 918 638 917 639 917 650 916 651 916 655 915 656 915 659 914 660 914 663 913 664 913 667 912 668 912 671 911 672 911 676 910 677 910 681 909 682 909 686 908 687 908 691 907 692 907 698 906 699 906 706 905 707 905 712 904 713 904 718 905 719 905 721 906 722 906 724 907 725 907 726 908 727 908 729 909 730 909 731 910 732 910 734 911 735 911 736 912 737 912 738 913 739 913 740 915 742 916 742 919 745 920 745 921 746 922 746 923 747 926 747 927 748 936 748 937 747 939 747 940 746 942 746 943 745 944 745 947 742 947 741 949 739 949 735 950 734 950 730 951 729 951 725 952 724 952 719 953 718 953 694 954 693 954 690 955 689 955 686 956 685 956 681 957 680 957 676 958 675 958 669 959 668 959 660 960 659 960 651 961 650 961 643 962 642 962 635 963 634 963 628 964 627 964 623 965 622 965 619 966 618 966 617 967 616 967 613 968 612 968 609 969 608 969 604 970 603 970 597 971 596 971 590 972 589 972 582 973 581 973 575 974 574 974 567 975 566 975 560 976 559 976 556 977 555 977 552 978 551 978 549 979 548 979 544 980 543 980 539 981 538 981 534 982 533 982 531 983 530 983 529 984 528 984 527 985 526 985 525 986 524 986 523 991 518 992 518 993 517 993 516 998 511 1000 513 1001 513 1003 515 1004 515 1006 517 1007 517 1011 521 1011 522 1012 523 1012 524 1013 525 1013 527 1014 528 1014 529 1015 530 1015 532 1016 533 1016 536 1017 537 1017 544 1018 545 1018 550 1019 551 1019 555 1020 556 1020 561 1021 562 1021 568 1022 569 1022 577 1023 578 1023 596 1022 597 1022 604 1023 605 1023 622 1024 623 1024 640 1023 641 1023 655 1024 656 1024 690 1025 691 1025 696 1024 697 1024 708 1023 709 1023 738 1024 739 1024 740 1026 742 1026 743 1029 746 1030 746 1031 747 1034 747 1035 748 1037 748 1038 749 1043 749 1044 750 1061 750 1062 749 1064 749 1065 748 1066 748 1067 747 1069 747 1070 746 1071 746 1076 741 1076 740 1077 739 1076 738 1076 736 1075 735 1075 730 1074 729 1074 723 1073 722 1073 716 1072 715 1072 713 1071 712 1071 711 1070 710 1070 708 1069 707 1069 705 1068 704 1068 700 1067 699 1067 695 1066 694 1066 683 1067 682 1067 649 1068 648 1068 639 1069 638 1069 631 1070 630 1070 624 1071 623 1071 619 1072 618 1072 613 1073 612 1073 607 1074 606 1074 597 1075 596 1075 582 1076 581 1076 556 1077 555 1077 532 1078 531 1078 480 1079 479 1079 469 1080 468 1080 463 1079 462 1079 445 1078 444 1078 423 1077 422 1077 416 1076 415 1076 409 1075 408 1075 404 1074 403 1074 396 1075 395 1075 393 1076 392 1076 390 1077 389 1077 388 1078 387 1078 386 1079 385 1079 383 1080 382 1080 381 1081 380 1081 379 1082 378 1084 380 1084 382 1085 383 1085 384 1086 385 1086 386 1087 387 1087 388 1088 389 1088 391 1089 392 1089 393 1090 394 1090 396 1091 397 1091 406 1090 407 1090 413 1089 414 1089 420 1088 421 1089 422 1089 425 1090 426 1090 428 1091 429 1091 430 1092 431 1092 432 1094 434 1094 436 1095 437 1095 438 1096 439 1096 440 1097 441 1097 442 1098 443 1098 444 1100 446 1101 446 1103 448 1111 448 1112 449 1114 449 1120 443 1120 442 1121 441 1121 440 1122 439 1122 438 1123 437 1123 435 1124 434 1124 432 1125 431 1125 427 1126 426 1126 403 1125 402 1125 394 1124 393 1124 388 1123 387 1123 382 1122 381 1122 376 1121 375 1121 371 1120 370 1120 367 1119 366 1119 362 1118 361 1118 358 1117 357 1117 354 1116 353 1116 350 1115 349 1115 346 1114 345 1114 342 1113 341 1113 338 1112 337 1112 333 1111 332 1111 328 1110 327 1110 322 1109 321 1109 316 1108 315 1108 308 1107 307 1107 302 1106 301 1106 296 1105 295 1105 291 1104 290 1104 286 1103 285 1103 283 1102 282 1102 281 1101 280 1101 278 1100 277 1100 274 1099 273 1099 270 1098 269 1098 266 1097 265 1097 262 1096 261 1096 259 1095 258 1095 257 1094 256 1094 255 1093 254 1093 253 1092 252 1092 251 1090 249 1090 248 1089 247 1089 246 1088 245 1088 244 1087 243 1087 241 1086 240 1086 238 1085 237 1085 236 1082 233 1082 232 1081 232 1076 227 1075 227 1065 217 1065 216 1063 214 1063 213 1054 204 1054 203 1049 198 1049 197 1048 196 1048 195 1047 194 1047 193 1046 192 1046 190 1045 189 1045 188 1044 187 1044 186 1043 185 1043 184 1042 183 1042 182 1041 181 1041 180 1040 179 1040 178 1038 176 1038 175 1037 174 1037 172 1036 171 1036 169 1035 168 1035 166 1034 165 1034 164 1033 163 1033 162 1032 161 1032 160 1030 158 1030 157 1028 155 1028 154 1026 152 1026 151 1025 150 1025 149 1024 148 1024 138 "/></svg>