<svg width="1920" height="1080" xmlns="http://www.w3.org/2000/svg"><path d="M986 138 986 149 985 150 985 151 984 152 984 153 982 155 982 156 979 159 979 160 977 162 977 163 976 164 976 165 975 166 975 168 974 169 974 170 973 171 973 174 972 175 972 177 971 178 971 181 970 182 970 184 969 185 969 187 968 188 968 190 967 191 967 193 966 194 966 195 965 196 965 197 964 198 964 199 963 200 963 201 961 203 961 204 959 206 959 207 956 210 956 211 955 212 955 213 954 214 954 215 953 216 953 217 951 219 951 220 945 226 944 226 943 227 942 227 941 228 940 228 939 229 938 229 937 230 936 230 935 231 934 231 927 238 927 239 925 241 925 242 913 254 913 255 911 257 911 258 910 259 910 261 909 262 909 264 908 265 908 266 907 267 907 268 905 270 905 271 899 277 899 278 896 281 896 282 895 283 895 284 894 285 894 286 893 287 893 288 892 289 892 290 891 291 891 293 890 294 890 295 889 296 889 297 888 298 888 300 887 301 887 302 886 303 886 305 885 306 885 308 884 309 884 310 883 311 883 312 882 313 882 315 881 316 881 317 880 318 880 320 879 321 879 323 878 324 878 326 877 327 877 330 876 331 876 335 875 336 875 339 874 340 874 343 873 344 873 346 872 347 872 350 871 351 871 355 870 356 870 360 869 361 869 365 868 366 868 370 867 371 867 383 866 384 866 398 867 399 867 400 868 401 868 402 869 403 869 404 871 406 871 407 873 409 873 410 875 410 876 411 878 411 879 412 881 412 882 413 883 413 884 412 884 410 885 409 885 408 886 407 886 405 887 404 887 402 888 401 888 398 889 397 889 393 890 392 890 387 891 386 891 382 892 381 892 377 893 376 893 373 894 372 894 371 895 370 895 368 896 367 896 366 897 365 897 364 898 363 898 361 899 360 899 359 900 358 900 357 901 356 901 355 902 354 902 353 903 352 903 351 904 350 904 348 905 347 905 345 906 344 906 343 907 342 907 340 908 339 908 338 909 337 909 335 910 334 910 333 911 332 911 330 913 328 913 327 915 325 917 325 918 324 920 324 921 323 923 323 924 322 926 322 927 323 929 323 930 324 932 324 933 325 934 325 935 326 936 326 937 327 937 328 939 330 939 332 940 333 940 334 941 335 941 337 942 338 942 340 943 341 943 342 944 343 944 346 945 347 945 349 946 350 946 361 945 362 945 373 944 374 944 379 943 380 943 386 942 387 942 392 941 393 941 398 940 399 940 401 939 402 939 404 938 405 938 407 937 408 937 409 936 410 936 411 935 412 935 414 934 415 934 416 933 417 933 420 932 421 932 425 931 426 931 430 930 431 930 435 929 436 929 441 928 442 928 446 927 447 927 450 926 451 926 454 925 455 925 457 924 458 924 462 923 463 923 472 922 473 922 487 921 488 921 507 920 508 920 594 921 595 921 603 920 604 920 621 919 622 919 634 918 635 918 644 917 645 917 650 916 651 916 654 915 655 915 657 914 658 914 662 913 663 913 666 912 667 912 672 911 673 911 677 910 678 910 682 909 683 909 686 908 687 908 691 907 692 907 697 906 698 906 703 905 704 905 707 904 708 904 712 903 713 904 714 904 717 905 718 905 720 906 721 906 723 907 724 907 726 908 727 908 729 909 730 909 732 910 733 910 735 911 736 911 737 916 742 917 742 918 743 920 743 921 744 922 744 923 745 928 745 929 746 936 746 937 745 938 745 939 744 940 744 941 743 943 743 944 742 945 742 948 739 948 738 950 736 950 733 951 732 951 728 952 727 952 723 953 722 953 718 954 717 954 690 955 689 955 686 956 685 956 682 957 681 957 677 958 676 958 671 959 670 959 664 960 663 960 655 961 654 961 646 962 645 962 637 963 636 963 629 964 628 964 622 965 621 965 617 966 616 966 613 967 612 967 610 968 609 968 607 969 606 969 603 970 602 970 597 971 596 971 589 972 588 972 581 973 580 973 572 974 571 974 561 975 560 975 552 976 551 976 546 977 545 977 541 978 540 978 536 979 535 979 532 980 531 980 529 981 528 981 526 982 525 982 523 983 522 983 521 984 520 984 518 985 517 985 516 986 515 986 514 987 513 987 511 998 500 999 500 1000 501 1001 501 1010 510 1010 511 1011 512 1011 513 1012 514 1012 516 1013 517 1013 519 1014 520 1014 522 1015 523 1015 525 1016 526 1016 529 1017 530 1017 535 1018 536 1018 546 1019 547 1019 554 1020 555 1020 560 1021 561 1021 567 1022 568 1022 576 1023 577 1023 588 1022 589 1022 601 1023 602 1023 613 1024 614 1024 643 1025 644 1025 677 1026 678 1026 699 1025 700 1025 727 1026 728 1026 735 1027 736 1027 737 1031 741 1032 741 1033 742 1034 742 1035 743 1036 743 1037 744 1039 744 1040 745 1043 745 1044 746 1049 746 1050 747 1068 747 1069 746 1073 746 1074 745 1075 745 1076 744 1077 744 1078 743 1079 743 1085 737 1085 735 1083 733 1083 732 1081 730 1081 729 1080 728 1080 727 1079 726 1079 725 1078 724 1078 721 1077 720 1077 717 1076 716 1076 712 1075 711 1075 709 1074 708 1074 706 1073 705 1073 703 1072 702 1072 700 1071 699 1071 697 1070 696 1070 693 1069 692 1069 648 1070 647 1070 638 1071 637 1071 631 1072 630 1072 624 1073 623 1073 615 1074 614 1074 604 1075 603 1075 585 1076 584 1076 529 1077 528 1077 496 1076 495 1076 484 1077 483 1077 451 1076 450 1076 433 1075 432 1075 421 1074 420 1074 414 1073 413 1073 408 1072 407 1072 402 1071 401 1071 395 1072 394 1072 393 1073 392 1073 391 1074 390 1074 389 1075 388 1075 387 1076 386 1076 385 1077 384 1077 383 1079 381 1079 380 1083 376 1084 377 1084 378 1085 379 1085 381 1086 382 1086 383 1087 384 1087 385 1088 386 1088 388 1089 389 1089 390 1090 391 1090 393 1091 394 1091 396 1092 397 1092 400 1091 401 1091 415 1090 416 1090 420 1091 421 1091 423 1092 424 1092 425 1093 426 1093 428 1094 429 1094 430 1095 431 1095 432 1096 433 1096 435 1097 436 1097 437 1098 438 1098 439 1099 440 1099 442 1103 446 1105 446 1106 447 1110 447 1111 448 1115 448 1118 445 1119 445 1122 442 1122 440 1123 439 1123 437 1124 436 1124 434 1125 433 1125 428 1126 427 1126 408 1125 407 1125 400 1124 399 1124 393 1123 392 1123 388 1122 387 1122 382 1121 381 1121 375 1120 374 1120 370 1119 369 1119 365 1118 364 1118 361 1117 360 1117 357 1116 356 1116 353 1115 352 1115 349 1114 348 1114 345 1113 344 1113 342 1112 341 1112 337 1111 336 1111 332 1110 331 1110 326 1109 325 1109 319 1108 318 1108 310 1107 309 1107 303 1106 302 1106 297 1105 296 1105 292 1104 291 1104 287 1103 286 1103 284 1102 283 1102 281 1101 280 1101 277 1100 276 1100 274 1099 273 1099 270 1098 269 1098 266 1097 265 1097 262 1096 261 1096 259 1095 258 1095 256 1094 255 1094 254 1093 253 1093 252 1091 250 1091 249 1090 248 1090 247 1089 246 1089 244 1088 243 1088 242 1087 241 1087 239 1086 238 1086 237 1085 236 1085 235 1084 234 1084 233 1078 227 1077 227 1071 221 1071 220 1068 217 1068 216 1066 214 1066 213 1057 204 1057 203 1052 198 1052 197 1050 195 1050 194 1049 193 1049 191 1048 190 1048 189 1047 188 1047 186 1046 185 1046 184 1045 183 1045 182 1044 181 1044 180 1042 178 1042 177 1041 176 1041 175 1040 174 1040 173 1039 172 1039 170 1038 169 1038 168 1037 167 1037 165 1036 164 1036 163 1035 162 1035 160 1033 158 1033 157 1032 156 1032 155 1029 152 1029 151 1027 149 1027 138 "/></svg>