<svg width="1920" height="1080" xmlns="http://www.w3.org/2000/svg"><path d="M978 142 978 154 977 155 977 156 976 157 976 158 974 160 974 161 973 162 973 163 972 164 972 165 971 166 971 167 970 168 970 169 969 170 969 172 968 173 968 175 967 176 967 180 966 181 966 187 965 188 965 196 964 197 964 200 963 201 963 204 962 205 962 206 961 207 961 209 960 210 960 211 959 212 959 214 958 215 958 217 957 218 957 220 956 221 956 223 954 225 954 226 952 228 952 229 949 232 948 232 937 243 937 244 934 247 934 248 930 252 929 252 926 255 925 255 920 260 919 260 918 261 918 262 916 264 916 266 915 267 915 268 914 269 914 271 913 272 913 273 912 274 912 275 910 277 910 278 907 281 907 282 905 284 905 285 903 287 903 289 902 290 902 291 901 292 901 293 900 294 900 295 897 298 897 299 895 301 895 302 894 303 894 304 893 305 893 306 892 307 892 309 891 310 891 312 890 313 890 316 889 317 889 318 888 319 888 320 887 321 887 322 886 323 886 324 884 326 884 327 883 328 883 329 882 330 882 332 881 333 881 335 880 336 880 339 879 340 879 341 878 342 878 344 877 345 877 347 876 348 876 349 875 350 875 351 874 352 874 354 873 355 873 357 872 358 872 360 871 361 871 363 870 364 870 366 869 367 869 369 868 370 868 371 867 372 867 373 866 374 866 375 865 376 865 378 864 379 864 383 863 384 863 392 862 393 862 406 863 407 863 409 864 410 864 412 869 417 869 418 874 423 874 424 875 425 879 425 880 424 885 424 886 423 886 421 887 420 887 418 888 417 888 415 889 414 889 411 890 410 890 407 891 406 891 401 892 400 892 394 893 393 893 387 894 386 894 382 895 381 895 377 896 376 896 374 897 373 897 372 898 371 898 370 899 369 899 368 900 367 900 366 901 365 901 364 902 363 902 362 904 360 904 359 906 357 906 356 907 355 907 354 908 353 908 352 909 351 909 350 910 349 910 348 912 346 912 345 915 342 915 341 918 338 919 338 920 337 921 337 922 336 923 336 924 335 925 335 927 333 929 333 931 335 932 335 940 343 940 344 941 345 941 346 942 347 942 349 943 350 943 353 944 354 944 357 945 358 945 390 944 391 944 405 943 406 943 410 942 411 942 414 941 415 941 418 940 419 940 421 939 422 939 424 938 425 938 427 937 428 937 430 936 431 936 434 935 435 935 439 934 440 934 444 933 445 933 450 932 451 932 454 931 455 931 458 930 459 930 462 929 463 929 465 928 466 928 468 927 469 927 473 926 474 926 480 925 481 925 489 924 490 924 502 923 503 923 520 922 521 922 596 923 597 923 617 922 618 922 631 921 632 921 639 920 640 920 646 919 647 919 651 918 652 918 655 917 656 917 660 916 661 916 665 915 666 915 670 914 671 914 677 913 678 913 682 912 683 912 687 911 688 911 691 910 692 910 694 909 695 909 698 908 699 908 705 907 706 907 711 906 712 906 718 905 719 905 721 906 722 906 724 907 725 907 726 908 727 908 728 909 729 909 730 911 732 911 733 912 734 912 735 913 736 913 737 914 738 914 739 916 741 916 742 917 743 917 744 918 745 919 745 922 748 923 748 924 749 925 749 926 750 927 750 928 751 939 751 940 750 941 750 943 748 944 748 946 746 947 746 950 743 950 741 951 740 951 737 952 736 952 733 953 732 953 728 954 727 954 723 955 722 955 708 956 707 956 695 957 694 957 690 958 689 958 685 959 684 959 681 960 680 960 676 961 675 961 671 962 670 962 664 963 663 963 656 964 655 964 648 965 647 965 639 966 638 966 631 967 630 967 625 968 624 968 620 969 619 969 616 970 615 970 613 971 612 971 610 972 609 972 606 973 605 973 601 974 600 974 595 975 594 975 588 976 587 976 582 977 581 977 577 978 576 978 572 979 571 979 568 980 567 980 564 981 563 981 561 982 560 982 559 983 558 983 556 984 555 984 553 985 552 985 550 986 549 986 548 987 547 987 545 988 544 988 542 989 541 989 539 990 538 990 537 991 536 991 535 993 533 994 533 996 531 997 531 998 530 999 530 1000 529 1001 529 1002 528 1003 528 1004 529 1005 529 1006 530 1007 530 1010 533 1011 533 1014 536 1014 537 1015 538 1015 539 1016 540 1016 543 1017 544 1017 547 1018 548 1018 552 1019 553 1019 556 1020 557 1020 561 1021 562 1021 566 1022 567 1022 571 1023 572 1023 574 1024 575 1024 578 1025 579 1025 581 1026 582 1026 612 1027 613 1027 629 1028 630 1027 631 1027 641 1026 642 1026 649 1025 650 1025 667 1026 668 1026 705 1025 706 1025 714 1024 715 1024 726 1025 727 1025 732 1026 733 1026 736 1027 737 1027 740 1028 741 1028 743 1034 749 1035 749 1036 750 1039 750 1040 751 1043 751 1044 752 1051 752 1052 751 1058 751 1059 750 1060 750 1061 749 1062 749 1063 748 1064 748 1065 747 1066 747 1070 743 1070 739 1071 738 1071 718 1070 717 1070 714 1069 713 1069 711 1068 710 1068 707 1067 706 1067 703 1066 702 1066 700 1065 699 1065 670 1066 669 1066 662 1067 661 1067 653 1068 652 1068 647 1069 646 1069 640 1070 639 1070 633 1071 632 1071 625 1072 624 1072 619 1073 618 1073 613 1074 612 1074 608 1075 607 1075 602 1076 601 1076 598 1077 597 1077 593 1078 592 1078 588 1079 587 1079 580 1080 579 1080 567 1081 566 1081 548 1082 547 1082 504 1081 503 1081 481 1080 480 1080 469 1079 468 1079 463 1078 462 1078 459 1077 458 1077 455 1076 454 1076 451 1075 450 1075 443 1074 442 1074 430 1073 429 1073 420 1074 419 1074 408 1075 407 1075 402 1076 401 1076 400 1081 395 1082 395 1086 391 1087 391 1088 390 1089 391 1089 392 1091 394 1091 395 1092 396 1092 397 1093 398 1093 400 1094 401 1094 402 1095 403 1095 410 1096 411 1096 421 1097 422 1097 427 1098 428 1098 429 1099 430 1099 432 1100 433 1100 435 1101 436 1101 439 1102 440 1102 442 1103 443 1103 445 1104 446 1104 448 1105 449 1105 450 1106 451 1106 452 1108 454 1108 455 1109 456 1120 456 1125 451 1125 450 1127 448 1127 444 1128 443 1128 438 1129 437 1129 432 1130 431 1130 422 1129 421 1129 416 1128 415 1128 410 1127 409 1127 402 1126 401 1126 395 1125 394 1125 387 1124 386 1124 380 1123 379 1123 376 1122 375 1122 372 1121 371 1121 369 1120 368 1120 366 1119 365 1119 364 1118 363 1118 361 1117 360 1117 358 1116 357 1116 354 1115 353 1115 350 1114 349 1114 346 1113 345 1113 342 1112 341 1112 338 1111 337 1111 334 1110 333 1110 330 1109 329 1109 327 1108 326 1108 323 1107 322 1107 319 1106 318 1106 314 1105 313 1105 308 1104 307 1104 301 1103 300 1103 294 1102 293 1102 288 1101 287 1101 285 1100 284 1100 282 1099 281 1099 279 1098 278 1098 277 1097 276 1097 275 1096 274 1096 272 1095 271 1095 269 1094 268 1094 265 1093 264 1093 262 1092 261 1092 259 1091 258 1091 256 1090 255 1090 254 1089 253 1089 251 1088 250 1088 249 1087 248 1087 247 1086 246 1086 245 1085 244 1085 243 1084 242 1084 241 1082 239 1082 238 1077 233 1076 233 1073 230 1072 230 1069 227 1068 227 1065 224 1065 223 1063 221 1063 220 1062 219 1062 218 1060 216 1060 215 1058 213 1058 212 1054 208 1054 207 1052 205 1052 204 1051 203 1051 202 1050 201 1050 200 1049 199 1049 198 1048 197 1048 195 1047 194 1047 192 1046 191 1046 190 1045 189 1045 188 1044 187 1044 186 1043 185 1043 184 1042 183 1042 182 1041 181 1041 179 1040 178 1040 177 1039 176 1039 174 1038 173 1038 172 1037 171 1037 169 1035 167 1035 166 1034 165 1034 164 1032 162 1032 161 1031 160 1031 159 1030 158 1030 157 1029 156 1029 154 1028 153 1028 142 "/></svg>