<svg width="1920" height="1080" xmlns="http://www.w3.org/2000/svg"><path d="M997 191 997 201 995 203 994 203 993 204 992 204 989 207 989 208 981 216 981 217 980 218 980 219 979 220 979 222 978 223 978 226 977 227 977 231 976 232 976 236 975 237 975 242 974 243 974 245 973 246 973 247 971 249 971 250 970 251 970 252 968 254 968 255 967 256 967 257 966 258 966 259 965 260 965 261 964 262 964 263 961 266 961 267 957 271 956 271 953 274 952 274 951 275 950 275 949 276 948 276 947 277 946 277 944 279 943 279 939 283 939 284 937 286 937 287 931 293 930 293 927 296 926 296 923 299 922 299 921 300 921 301 919 303 919 305 918 306 918 307 917 308 917 309 916 310 916 311 915 312 915 313 914 314 914 315 911 318 911 319 908 322 908 323 907 324 907 325 906 326 906 327 905 328 905 329 904 330 904 331 903 332 903 333 900 336 900 337 899 338 899 339 898 340 898 341 897 342 897 343 896 344 896 346 895 347 895 350 894 351 894 353 893 354 893 355 892 356 892 358 890 360 890 361 889 362 889 364 888 365 888 366 887 367 887 371 886 372 886 376 885 377 885 380 884 381 884 384 883 385 883 388 882 389 882 392 881 393 881 396 880 397 880 400 879 401 879 405 878 406 878 414 877 415 877 426 876 427 876 435 875 436 875 442 874 443 874 449 873 450 873 473 875 475 875 476 877 478 877 479 880 482 880 483 889 483 890 484 890 483 891 482 891 480 892 479 892 478 893 477 893 474 894 473 894 469 895 468 895 460 896 459 896 446 897 445 897 426 898 425 898 421 899 420 899 418 900 417 900 414 901 413 901 411 902 410 902 408 904 406 904 405 905 404 905 403 908 400 908 399 911 396 911 395 912 394 912 393 913 392 913 390 914 389 914 388 915 387 915 386 916 385 916 384 919 381 919 380 920 379 921 379 922 378 924 378 925 377 927 377 928 376 930 376 931 375 932 376 933 376 934 377 935 377 936 378 937 378 943 384 943 385 944 386 944 387 945 388 945 392 944 393 944 408 943 409 943 413 942 414 942 417 941 418 941 421 940 422 940 427 939 428 939 431 938 432 938 434 937 435 937 436 936 437 936 438 935 439 935 441 934 442 934 443 932 445 932 446 930 448 930 449 929 450 929 451 928 452 928 454 927 455 927 458 926 459 926 462 925 463 925 467 924 468 924 471 923 472 923 478 922 479 922 487 921 488 921 497 920 498 920 544 919 545 919 579 918 580 918 615 919 616 919 618 918 619 918 629 917 630 917 646 916 647 916 664 915 665 915 673 914 674 914 681 913 682 913 686 912 687 912 690 911 691 911 693 910 694 910 697 909 698 909 723 911 725 911 726 921 736 922 736 923 737 924 737 926 739 927 739 929 741 930 741 931 742 939 742 940 741 942 741 949 734 949 733 951 731 951 730 952 729 952 727 953 726 953 725 954 724 954 720 955 719 955 704 956 703 956 686 957 685 957 671 958 670 958 637 959 636 959 625 960 624 960 615 961 614 961 609 962 608 962 601 963 600 963 593 964 592 964 585 965 584 965 577 966 576 966 572 967 571 967 567 968 566 968 563 969 562 969 558 970 557 970 555 971 554 971 553 972 552 972 551 974 549 974 548 975 547 975 546 977 544 977 543 978 542 978 541 979 540 979 539 980 538 980 537 981 536 981 535 983 533 983 532 984 531 984 530 985 529 985 528 987 526 987 525 989 523 989 522 993 518 994 518 995 517 996 517 997 516 998 516 999 515 1000 515 1001 514 1003 514 1006 517 1007 517 1010 520 1011 520 1014 523 1014 524 1015 525 1015 526 1016 527 1016 528 1017 529 1017 530 1018 531 1018 532 1019 533 1019 534 1020 535 1020 536 1021 537 1021 538 1022 539 1022 540 1024 542 1024 543 1025 544 1025 545 1026 546 1026 548 1027 549 1027 551 1028 552 1028 554 1029 555 1029 561 1030 562 1030 568 1031 569 1031 574 1032 575 1032 630 1031 631 1031 654 1030 655 1030 723 1031 724 1031 725 1032 726 1032 727 1033 728 1033 729 1043 739 1045 739 1046 740 1047 740 1048 741 1050 741 1051 742 1053 742 1054 743 1059 743 1060 744 1072 744 1073 743 1075 743 1078 740 1078 739 1079 738 1079 736 1080 735 1080 732 1081 731 1081 726 1082 725 1082 721 1081 720 1081 718 1080 717 1080 715 1079 714 1079 711 1078 710 1078 706 1077 705 1077 669 1078 668 1078 655 1079 654 1079 642 1080 641 1080 632 1081 631 1081 623 1082 622 1082 595 1083 594 1083 584 1084 583 1084 571 1085 570 1085 560 1086 559 1086 555 1087 554 1087 552 1089 550 1089 549 1095 543 1096 543 1097 542 1099 542 1100 541 1102 541 1103 540 1105 540 1107 538 1108 538 1109 537 1110 537 1112 535 1113 535 1114 534 1114 533 1115 532 1115 531 1116 530 1116 529 1117 528 1117 527 1118 526 1118 525 1119 524 1119 523 1120 522 1120 521 1122 519 1122 518 1123 517 1123 516 1124 515 1124 514 1125 513 1125 503 1124 502 1124 490 1123 489 1123 486 1122 485 1122 481 1121 480 1121 475 1120 474 1120 470 1119 469 1119 463 1118 462 1118 456 1117 455 1117 450 1116 449 1116 445 1115 444 1115 441 1114 440 1114 438 1113 437 1113 435 1112 434 1112 431 1111 430 1111 424 1110 423 1110 416 1109 415 1109 407 1108 406 1108 398 1107 397 1107 388 1106 387 1106 369 1105 368 1105 362 1104 361 1104 356 1103 355 1103 351 1102 350 1102 345 1101 344 1101 338 1100 337 1100 331 1099 330 1099 324 1098 323 1098 319 1097 318 1097 314 1096 313 1096 309 1095 308 1095 305 1094 304 1094 301 1093 300 1093 299 1092 298 1092 296 1091 295 1091 293 1090 292 1090 289 1089 288 1089 285 1088 284 1088 283 1087 282 1087 280 1086 279 1086 278 1083 275 1083 274 1079 270 1079 269 1077 267 1077 266 1076 265 1076 264 1075 263 1075 262 1074 261 1074 260 1073 259 1073 258 1067 252 1067 251 1062 246 1062 245 1060 243 1060 242 1059 241 1059 240 1058 239 1058 238 1057 237 1057 236 1055 234 1055 233 1054 232 1054 231 1049 226 1049 225 1046 222 1046 221 1044 219 1044 218 1040 214 1040 213 1038 211 1037 211 1033 207 1032 207 1030 205 1029 205 1028 204 1027 204 1026 203 1025 203 1023 201 1023 191 "/></svg>