<svg width="1920" height="1080" xmlns="http://www.w3.org/2000/svg"><path d="M987 159 987 169 980 176 980 177 977 180 977 181 975 183 975 184 974 185 974 186 973 187 973 188 972 189 972 190 971 191 971 193 970 194 970 195 969 196 969 197 968 198 968 200 967 201 967 203 966 204 966 205 965 206 965 208 964 209 964 211 963 212 963 213 962 214 962 215 961 216 961 217 958 220 958 221 954 225 954 226 949 231 949 232 947 234 947 235 940 242 939 242 938 243 937 243 935 245 933 245 932 246 931 246 929 248 928 248 922 254 922 255 920 257 920 258 919 259 919 260 917 262 917 263 915 265 915 266 912 269 912 270 907 275 907 276 905 278 905 279 904 280 904 281 903 282 903 283 901 285 901 286 899 288 899 289 897 291 897 292 896 293 896 294 895 295 895 296 894 297 894 298 893 299 893 301 892 302 892 303 891 304 891 305 890 306 890 307 889 308 889 310 888 311 888 312 887 313 887 315 886 316 886 318 885 319 885 321 884 322 884 326 883 327 883 331 882 332 882 335 881 336 881 338 880 339 880 341 879 342 879 354 878 355 878 368 877 369 877 379 876 380 876 409 877 410 877 412 878 413 878 414 879 415 879 416 880 417 880 418 883 418 884 419 885 419 886 420 887 420 888 421 890 421 890 420 891 419 891 416 892 415 892 411 893 410 893 402 894 401 894 391 895 390 895 368 894 367 894 365 895 364 895 359 896 358 896 354 897 353 897 350 898 349 898 347 899 346 899 344 903 340 904 340 906 338 907 338 908 337 909 337 910 336 911 336 912 335 913 335 914 334 916 334 917 333 918 333 919 332 931 332 932 333 933 333 936 336 937 336 942 341 942 342 943 343 943 346 944 347 944 352 945 353 945 359 946 360 946 368 945 369 945 373 944 374 944 377 943 378 943 380 942 381 942 383 941 384 941 386 940 387 940 390 939 391 939 393 938 394 938 398 937 399 937 403 936 404 936 408 935 409 935 411 934 412 934 414 933 415 933 416 932 417 932 418 931 419 931 420 930 421 930 422 929 423 929 424 928 425 928 426 927 427 927 429 926 430 926 434 925 435 925 440 924 441 924 447 923 448 923 459 922 460 922 484 921 485 921 503 920 504 920 517 919 518 919 532 918 533 918 577 917 578 917 584 918 585 918 597 919 598 919 610 918 611 918 622 917 623 917 638 916 639 916 652 915 653 915 660 914 661 914 666 913 667 913 672 912 673 912 676 911 677 911 680 910 681 910 683 909 684 909 688 908 689 908 702 907 703 907 713 908 714 908 715 909 716 909 717 910 718 910 719 911 720 911 721 916 726 916 727 925 736 926 736 928 738 929 738 930 739 941 739 944 736 945 736 947 734 947 733 948 732 948 731 949 730 949 729 950 728 950 727 951 726 951 724 952 723 952 720 953 719 953 716 954 715 954 707 955 706 955 689 956 688 956 678 957 677 957 668 958 667 958 660 959 659 959 652 960 651 960 644 961 643 961 637 962 636 962 628 963 627 963 619 964 618 964 609 965 608 965 599 966 598 966 589 967 588 967 579 968 578 968 571 969 570 969 563 970 562 970 556 971 555 971 549 972 548 972 542 973 541 973 538 974 537 974 535 975 534 975 532 976 531 976 529 977 528 977 526 978 525 978 523 979 522 979 520 980 519 980 517 981 516 981 515 982 514 982 513 983 512 983 511 984 510 984 509 985 508 985 507 986 506 986 505 987 504 987 502 988 501 988 500 989 499 989 498 990 497 990 496 991 495 991 494 992 493 993 493 994 492 996 492 997 491 998 491 999 490 1001 490 1002 489 1005 492 1005 493 1007 495 1007 496 1008 497 1008 498 1010 500 1010 501 1012 503 1012 504 1013 505 1013 506 1014 507 1014 509 1015 510 1015 512 1016 513 1016 516 1017 517 1017 520 1018 521 1018 524 1019 525 1019 527 1020 528 1020 530 1021 531 1021 533 1022 534 1022 536 1023 537 1023 539 1024 540 1024 546 1025 547 1025 556 1026 557 1026 571 1027 572 1027 666 1028 667 1028 690 1029 691 1029 692 1028 693 1028 718 1029 719 1029 723 1030 724 1030 727 1031 728 1031 730 1032 731 1032 732 1033 733 1033 734 1036 737 1037 737 1039 739 1040 739 1042 741 1043 741 1044 742 1046 742 1047 743 1049 743 1050 744 1052 744 1053 745 1058 745 1059 746 1075 746 1076 745 1078 745 1079 744 1081 744 1082 743 1083 743 1087 739 1087 738 1089 736 1089 734 1088 733 1088 732 1087 731 1087 730 1086 729 1086 728 1085 727 1085 725 1084 724 1084 722 1083 721 1083 719 1082 718 1082 714 1081 713 1081 711 1080 710 1080 708 1079 707 1079 704 1078 703 1078 699 1077 698 1077 694 1076 693 1076 665 1077 664 1077 649 1078 648 1078 635 1079 634 1079 621 1080 620 1080 606 1081 605 1081 602 1080 601 1080 577 1079 576 1079 550 1078 549 1078 533 1079 532 1079 495 1078 494 1078 475 1077 474 1077 470 1076 469 1076 465 1075 464 1075 461 1074 460 1074 457 1073 456 1073 454 1072 453 1072 450 1071 449 1071 446 1070 445 1070 442 1069 441 1069 438 1068 437 1068 433 1067 432 1067 429 1066 428 1066 424 1065 423 1065 419 1064 418 1064 415 1063 414 1063 411 1062 410 1062 408 1063 407 1063 404 1064 403 1064 400 1065 399 1065 396 1066 395 1066 392 1067 391 1067 388 1068 387 1068 386 1069 385 1069 384 1071 382 1071 381 1072 380 1072 379 1073 378 1074 378 1075 377 1076 377 1077 376 1078 376 1079 375 1080 375 1081 374 1082 374 1083 373 1084 373 1088 377 1088 378 1090 380 1090 381 1092 383 1092 384 1093 385 1093 386 1094 387 1094 389 1095 390 1095 394 1096 395 1096 400 1097 401 1097 406 1098 407 1098 433 1099 434 1099 454 1100 455 1100 462 1101 463 1101 467 1102 468 1102 472 1103 473 1103 474 1104 475 1108 475 1109 476 1114 476 1116 474 1116 473 1117 472 1117 471 1118 470 1118 469 1119 468 1119 467 1122 464 1122 463 1124 461 1124 459 1125 458 1125 456 1126 455 1126 429 1125 428 1125 423 1124 422 1124 418 1123 417 1123 414 1122 413 1122 409 1121 408 1121 403 1120 402 1120 395 1119 394 1119 387 1118 386 1118 379 1117 378 1117 373 1116 372 1116 367 1115 366 1115 358 1114 357 1114 350 1113 349 1113 343 1112 342 1112 339 1111 338 1111 334 1110 333 1110 328 1109 327 1109 320 1108 319 1108 313 1107 312 1107 307 1106 306 1106 301 1105 300 1105 297 1104 296 1104 293 1103 292 1103 290 1102 289 1102 287 1101 286 1101 282 1100 281 1100 278 1099 277 1099 274 1098 273 1098 270 1097 269 1097 267 1096 266 1096 264 1095 263 1095 262 1094 261 1094 260 1093 259 1093 257 1092 256 1092 255 1091 254 1091 253 1090 252 1090 251 1089 250 1089 249 1088 248 1088 247 1086 245 1086 244 1083 241 1083 240 1081 238 1081 237 1080 236 1080 235 1079 234 1079 232 1077 230 1077 229 1075 227 1075 226 1066 217 1066 216 1064 214 1064 213 1063 212 1063 211 1061 209 1061 208 1058 205 1058 204 1055 201 1055 200 1049 194 1049 193 1048 192 1048 191 1046 189 1046 188 1044 186 1044 185 1034 175 1033 175 1027 169 1027 159 "/></svg>