<svg width="1920" height="1080" xmlns="http://www.w3.org/2000/svg"><path d="M984 178 984 189 979 194 979 195 977 197 977 198 976 199 976 200 975 201 975 202 974 203 974 204 973 205 973 206 972 207 972 209 971 210 971 212 970 213 970 216 969 217 969 220 968 221 968 225 967 226 967 230 966 231 966 233 965 234 965 235 964 236 964 237 962 239 962 240 960 242 960 243 959 244 959 245 958 246 958 247 957 248 957 249 956 250 956 252 954 254 954 255 950 259 949 259 948 260 947 260 945 262 944 262 943 263 941 263 940 264 939 264 937 266 936 266 935 267 934 267 929 272 929 273 928 274 928 275 924 279 924 280 923 281 922 281 919 284 919 285 917 287 917 288 916 289 916 290 915 291 915 292 914 293 914 294 913 295 913 297 911 299 911 300 904 307 904 308 900 312 900 313 899 314 899 316 898 317 898 318 897 319 897 321 896 322 896 323 895 324 895 325 893 327 893 328 891 330 891 331 890 332 890 333 889 334 889 335 888 336 888 340 887 341 887 345 886 346 886 349 885 350 885 352 884 353 884 355 883 356 883 358 882 359 882 363 881 364 881 369 880 370 880 376 879 377 879 384 878 385 878 391 877 392 877 399 876 400 876 413 875 414 875 443 876 444 876 446 877 447 877 449 878 450 878 452 879 453 879 455 880 456 880 457 881 458 881 459 882 459 883 458 887 458 888 457 890 457 891 456 891 455 892 454 892 452 893 451 893 449 894 448 894 446 895 445 895 421 896 420 896 409 897 408 897 395 898 394 898 376 899 375 899 374 900 373 900 372 908 364 909 364 912 361 913 361 918 356 919 356 921 354 924 354 925 353 927 353 928 352 932 352 939 359 939 360 940 361 940 362 942 364 942 365 943 366 943 368 944 369 944 371 945 372 945 374 946 375 946 383 945 384 945 388 944 389 944 393 943 394 943 398 942 399 942 402 941 403 941 405 940 406 940 409 939 410 939 414 938 415 938 420 937 421 937 423 936 424 936 426 935 427 935 428 934 429 934 430 933 431 933 432 932 433 932 434 930 436 930 437 929 438 929 439 928 440 928 441 927 442 927 444 926 445 926 448 925 449 925 453 924 454 924 457 923 458 923 462 922 463 922 473 921 474 921 487 920 488 920 525 919 526 919 539 918 540 918 567 917 568 917 608 918 609 918 612 917 613 917 629 916 630 916 654 915 655 915 664 914 665 914 672 913 673 913 678 912 679 912 683 911 684 911 687 910 688 910 692 909 693 909 699 908 700 908 712 907 713 907 717 908 718 908 720 909 721 909 722 910 723 910 724 911 725 911 726 913 728 913 729 915 731 915 732 918 735 918 736 922 740 923 740 924 741 925 741 926 742 927 742 928 743 929 743 930 744 933 744 934 743 939 743 940 742 941 742 944 739 945 739 945 738 946 737 946 736 947 735 947 734 948 733 948 732 949 731 949 730 950 729 950 728 951 727 951 725 952 724 952 720 953 719 953 714 954 713 954 697 955 696 955 681 956 680 956 668 957 667 957 657 958 656 958 644 959 643 959 631 960 630 960 623 961 622 961 616 962 615 962 609 963 608 963 603 964 602 964 595 965 594 965 587 966 586 966 578 967 577 967 571 968 570 968 565 969 564 969 560 970 559 970 556 971 555 971 553 972 552 972 549 973 548 973 546 974 545 974 544 975 543 975 541 976 540 976 539 977 538 977 537 978 536 978 535 979 534 979 533 980 532 980 531 981 530 981 529 982 528 982 527 983 526 983 525 984 524 984 523 985 522 985 521 986 520 986 519 987 518 987 517 989 515 989 514 993 510 995 510 996 509 997 509 998 508 999 508 1000 507 1002 507 1005 510 1005 511 1010 516 1010 517 1013 520 1013 522 1014 523 1014 524 1015 525 1015 528 1016 529 1016 530 1017 531 1017 533 1018 534 1018 536 1019 537 1019 538 1020 539 1020 540 1021 541 1021 542 1022 543 1022 544 1023 545 1023 547 1024 548 1024 553 1025 554 1025 559 1026 560 1026 567 1027 568 1027 583 1028 584 1028 628 1029 629 1029 638 1028 639 1028 684 1029 685 1029 706 1028 707 1028 718 1029 719 1029 721 1030 722 1030 724 1031 725 1031 726 1032 727 1032 728 1034 730 1034 731 1040 737 1040 738 1041 738 1043 740 1044 740 1045 741 1047 741 1048 742 1049 742 1050 743 1054 743 1055 744 1061 744 1062 745 1067 745 1068 744 1073 744 1074 743 1076 743 1077 742 1078 742 1080 740 1081 740 1083 738 1083 734 1082 733 1082 726 1081 725 1081 716 1080 715 1080 713 1079 712 1079 710 1078 709 1078 706 1077 705 1077 702 1076 701 1076 696 1075 695 1076 694 1076 669 1077 668 1077 658 1078 657 1078 648 1079 647 1079 640 1080 639 1080 633 1081 632 1081 626 1082 625 1082 619 1083 618 1083 612 1084 611 1084 610 1083 609 1083 581 1082 580 1082 563 1081 562 1081 538 1082 537 1082 530 1083 529 1083 525 1082 524 1082 521 1081 520 1081 516 1080 515 1080 510 1079 509 1079 503 1078 502 1078 496 1077 495 1077 489 1076 488 1076 483 1075 482 1075 477 1074 476 1074 472 1073 471 1073 469 1072 468 1072 465 1071 464 1071 461 1070 460 1070 453 1069 452 1069 445 1068 444 1068 440 1069 439 1069 431 1070 430 1070 425 1071 424 1071 420 1072 419 1074 419 1075 418 1077 418 1078 417 1080 417 1081 416 1082 416 1084 418 1084 419 1085 420 1085 421 1086 422 1086 424 1087 425 1087 426 1088 427 1088 430 1089 431 1089 433 1090 434 1090 437 1091 438 1091 441 1092 442 1092 446 1093 447 1093 453 1094 454 1094 479 1093 480 1093 487 1094 488 1094 494 1095 495 1095 500 1096 501 1096 504 1097 505 1097 506 1102 511 1104 511 1105 510 1113 510 1115 508 1116 508 1117 507 1118 507 1121 504 1121 503 1122 502 1122 499 1123 498 1123 492 1124 491 1124 485 1125 484 1124 483 1124 470 1123 469 1123 460 1122 459 1122 454 1121 453 1121 450 1120 449 1120 445 1119 444 1119 439 1118 438 1118 433 1117 432 1117 426 1116 425 1116 419 1115 418 1115 412 1114 411 1114 404 1113 403 1113 398 1112 397 1112 394 1111 393 1111 390 1110 389 1110 385 1109 384 1109 379 1108 378 1108 365 1107 364 1107 352 1106 351 1106 342 1105 341 1105 333 1104 332 1104 326 1103 325 1103 319 1102 318 1102 314 1101 313 1101 310 1100 309 1100 306 1099 305 1099 301 1098 300 1098 295 1097 294 1097 291 1096 290 1096 288 1095 287 1095 285 1094 284 1094 283 1093 282 1093 281 1092 280 1092 279 1091 278 1091 277 1090 276 1090 274 1089 273 1089 271 1088 270 1088 269 1087 268 1087 267 1085 265 1085 264 1079 258 1079 257 1076 254 1076 253 1075 252 1075 251 1074 250 1074 249 1067 242 1067 241 1059 233 1059 232 1058 231 1058 230 1057 229 1057 228 1056 227 1056 226 1055 225 1055 224 1053 222 1053 221 1051 219 1051 218 1048 215 1048 214 1046 212 1046 211 1045 210 1045 209 1044 208 1044 207 1043 206 1043 205 1041 203 1041 202 1038 199 1038 198 1033 193 1032 193 1027 188 1027 178 "/></svg>