<svg width="1920" height="1080" xmlns="http://www.w3.org/2000/svg"><path d="M1007 246 1006 247 1003 247 1002 248 1000 248 999 249 998 249 997 250 996 250 995 251 994 251 992 253 991 253 990 254 989 254 989 255 984 260 984 261 982 263 982 264 981 265 981 266 980 267 980 269 979 270 979 272 978 273 978 275 977 276 977 278 976 279 976 282 975 283 975 284 974 285 974 287 973 288 973 289 972 290 972 291 970 293 970 294 968 296 968 297 967 298 967 299 966 300 966 301 964 303 964 304 961 307 960 307 958 309 957 309 955 311 954 311 953 312 952 312 951 313 950 313 946 317 945 317 945 318 937 326 936 326 934 328 933 328 931 330 930 330 927 333 926 333 922 337 922 338 921 339 921 340 920 341 920 342 919 343 919 344 917 346 917 347 913 351 913 352 911 354 911 355 909 357 909 359 908 360 908 361 907 362 907 363 906 364 906 365 905 366 905 367 903 369 903 370 901 372 901 374 900 375 900 377 899 378 899 380 898 381 898 384 897 385 897 386 896 387 896 388 895 389 895 390 894 391 894 392 893 393 893 394 892 395 892 396 891 397 891 400 890 401 890 404 889 405 889 407 888 408 888 410 887 411 887 413 886 414 886 418 885 419 885 422 884 423 884 426 883 427 883 431 882 432 882 438 881 439 881 446 880 447 880 454 879 455 879 462 878 463 878 469 877 470 877 477 876 478 876 486 875 487 875 513 876 514 876 515 877 516 877 518 878 519 878 521 879 522 879 523 880 524 880 526 881 527 881 529 884 532 885 532 886 531 891 531 892 530 893 530 893 529 894 528 894 526 895 525 895 523 896 522 896 519 897 518 897 514 898 513 898 497 899 496 899 485 900 484 900 477 901 476 901 464 902 463 902 453 903 452 903 451 904 450 904 449 905 448 905 447 907 445 907 444 908 443 908 442 910 440 910 439 913 436 914 436 916 434 917 434 918 433 919 433 921 431 931 431 933 433 933 434 934 435 934 439 935 440 935 444 936 445 936 456 935 457 935 458 934 459 934 461 931 464 931 465 927 469 927 470 926 471 926 473 925 474 925 478 924 479 924 484 923 485 923 490 922 491 922 498 921 499 921 505 920 506 920 515 919 516 919 527 918 528 918 562 919 563 919 576 918 577 918 601 917 602 917 615 918 616 918 630 917 631 917 644 916 645 916 666 915 667 915 673 914 674 914 678 913 679 913 683 912 684 912 688 911 689 911 693 910 694 910 698 909 699 909 712 908 713 908 722 909 723 909 724 911 726 911 727 919 735 920 735 923 738 924 738 927 741 928 741 929 742 930 742 931 743 935 743 936 742 940 742 941 741 942 741 947 736 947 735 949 733 949 732 951 730 951 728 952 727 952 725 953 724 953 721 954 720 954 701 955 700 955 685 956 684 956 668 957 667 957 630 958 629 958 618 959 617 959 609 960 608 960 602 961 601 961 596 962 595 962 590 963 589 963 586 964 585 964 582 965 581 965 579 966 578 966 575 967 574 967 572 968 571 968 568 970 566 970 565 972 563 972 562 975 559 975 558 977 556 977 555 979 553 979 552 981 550 981 549 983 547 983 546 986 543 986 542 990 538 992 538 993 537 994 537 995 536 997 536 998 535 1001 535 1002 536 1005 536 1006 537 1008 537 1011 540 1012 540 1014 542 1014 543 1020 549 1020 550 1021 551 1021 552 1023 554 1023 555 1024 556 1024 557 1025 558 1025 559 1026 560 1026 561 1027 562 1027 563 1028 564 1028 565 1029 566 1029 568 1030 569 1030 572 1031 573 1031 576 1032 577 1032 580 1033 581 1033 584 1034 585 1034 588 1035 589 1035 602 1036 603 1036 620 1035 621 1035 645 1034 646 1034 659 1033 660 1033 692 1032 693 1032 712 1031 713 1031 723 1032 724 1032 725 1033 726 1033 727 1034 728 1034 729 1035 730 1035 731 1039 735 1040 735 1041 736 1043 736 1044 737 1045 737 1046 738 1047 738 1048 739 1052 739 1053 740 1055 740 1056 741 1070 741 1071 740 1072 740 1073 739 1074 739 1075 738 1076 738 1076 737 1078 735 1078 734 1079 733 1079 731 1080 730 1080 725 1081 724 1081 721 1080 720 1080 718 1079 717 1079 715 1078 714 1078 712 1077 711 1077 709 1076 708 1076 706 1075 705 1075 700 1074 699 1074 674 1075 673 1075 664 1076 663 1076 659 1077 658 1077 654 1078 653 1078 647 1079 646 1079 639 1080 638 1080 631 1081 630 1081 623 1082 622 1082 615 1083 614 1083 608 1084 607 1084 603 1085 602 1085 599 1086 598 1086 596 1087 595 1087 594 1088 593 1088 591 1089 590 1089 589 1090 588 1090 586 1091 585 1091 584 1092 583 1092 582 1094 580 1094 579 1097 576 1098 576 1100 574 1101 574 1102 573 1104 573 1106 571 1107 571 1112 566 1112 565 1115 562 1115 561 1116 560 1116 559 1117 558 1117 556 1118 555 1118 553 1119 552 1119 548 1120 547 1120 540 1121 539 1121 516 1120 515 1120 507 1119 506 1119 500 1118 499 1118 494 1117 493 1117 489 1116 488 1116 484 1115 483 1115 481 1114 480 1114 478 1113 477 1113 475 1112 474 1112 472 1111 471 1111 468 1110 467 1110 464 1109 463 1109 460 1108 459 1108 456 1107 455 1107 450 1106 449 1106 442 1105 441 1105 434 1104 433 1104 431 1103 430 1103 427 1102 426 1102 422 1101 421 1101 417 1100 416 1100 414 1101 413 1101 399 1102 398 1102 396 1101 395 1101 388 1100 387 1100 378 1099 377 1099 371 1098 370 1098 365 1097 364 1097 359 1096 358 1096 356 1095 355 1095 353 1094 352 1094 350 1093 349 1093 347 1092 346 1092 343 1091 342 1091 339 1090 338 1090 336 1089 335 1089 333 1088 332 1088 331 1087 330 1087 328 1085 326 1085 325 1084 324 1084 322 1083 321 1083 320 1082 319 1082 317 1081 316 1081 315 1080 314 1080 313 1078 311 1078 310 1076 308 1076 307 1075 306 1075 305 1073 303 1073 301 1072 300 1072 298 1071 297 1071 295 1070 294 1070 292 1069 291 1069 290 1068 289 1068 288 1067 287 1067 286 1066 285 1066 284 1065 283 1065 282 1064 281 1064 280 1063 279 1063 278 1062 277 1062 276 1061 275 1061 274 1059 272 1059 271 1054 266 1054 265 1051 262 1051 261 1047 257 1046 257 1044 255 1043 255 1041 253 1040 253 1038 251 1037 251 1036 250 1034 250 1033 249 1032 249 1031 248 1029 248 1028 247 1024 247 1023 246 "/></svg>