<svg width="1920" height="1080" xmlns="http://www.w3.org/2000/svg"><path d="M981 163 981 173 980 174 980 175 977 178 977 179 975 181 975 182 973 184 973 185 972 186 972 187 971 188 971 190 970 191 970 192 969 193 969 196 968 197 968 199 967 200 967 202 966 203 966 205 965 206 965 209 964 210 964 212 963 213 963 215 962 216 962 218 961 219 961 220 960 221 960 222 959 223 959 224 958 225 958 227 957 228 957 229 956 230 956 231 955 232 955 233 954 234 954 235 953 236 953 237 950 240 950 241 945 246 944 246 942 248 941 248 940 249 939 249 938 250 936 250 935 251 934 251 933 252 932 252 925 259 925 260 924 261 924 262 919 267 919 268 915 272 915 273 910 278 910 279 908 281 908 282 907 283 907 284 906 285 906 286 903 289 903 290 900 293 900 294 898 296 898 297 897 298 897 299 896 300 896 301 895 302 895 304 894 305 894 306 893 307 893 308 892 309 892 310 891 311 891 312 890 313 890 314 889 315 889 317 888 318 888 319 887 320 887 322 886 323 886 325 885 326 885 330 884 331 884 334 883 335 883 338 882 339 882 340 881 341 881 344 880 345 880 351 879 352 879 361 878 362 878 370 877 371 877 377 876 378 876 384 875 385 875 390 874 391 874 402 873 403 873 410 872 411 872 412 873 413 873 415 874 416 874 419 875 420 875 423 876 424 876 428 877 429 877 433 878 434 878 435 880 437 880 438 881 439 891 439 893 437 893 436 894 435 894 434 895 433 895 410 896 409 896 398 897 397 897 371 896 370 896 369 897 368 897 364 898 363 898 361 899 360 899 358 900 357 900 355 907 348 907 347 908 346 909 346 911 344 912 344 914 342 915 342 916 341 917 341 918 340 919 340 920 339 921 339 922 338 932 338 934 340 935 340 938 343 938 344 941 347 941 349 942 350 942 352 943 353 943 356 944 357 944 360 945 361 945 365 946 366 946 371 945 372 945 375 944 376 944 380 943 381 943 383 942 384 942 387 941 388 941 390 940 391 940 394 939 395 939 398 938 399 938 402 937 403 937 407 936 408 936 412 935 413 935 415 934 416 934 417 933 418 933 419 931 421 931 422 929 424 929 425 928 426 928 427 927 428 927 430 926 431 926 432 925 433 925 437 924 438 924 443 923 444 923 448 922 449 922 453 921 454 921 506 920 507 920 522 919 523 919 534 918 535 918 561 917 562 917 603 918 604 918 610 917 611 917 631 916 632 916 652 915 653 915 660 914 661 914 667 913 668 913 673 912 674 912 678 911 679 911 682 910 683 910 687 909 688 909 693 908 694 908 716 909 717 909 719 910 720 910 721 912 723 912 724 914 726 914 727 917 730 917 731 921 735 921 736 923 738 924 738 925 739 926 739 928 741 929 741 930 742 931 742 932 743 933 742 938 742 939 741 942 741 946 737 946 736 947 735 947 734 948 733 948 732 949 731 949 729 950 728 950 726 951 725 951 723 952 722 952 719 953 718 953 711 954 710 954 694 955 693 955 678 956 677 956 666 957 665 957 655 958 654 958 642 959 641 959 629 960 628 960 622 961 621 961 615 962 614 962 609 963 608 963 603 964 602 964 597 965 596 965 589 966 588 966 579 967 578 967 568 968 567 968 557 969 556 969 547 970 546 970 541 971 540 971 538 972 537 972 536 974 534 974 533 975 532 975 531 976 530 976 529 977 528 977 526 978 525 978 524 979 523 979 521 980 520 980 519 981 518 981 516 983 514 983 513 985 511 985 510 987 508 987 507 989 505 989 504 990 503 990 502 992 500 992 499 993 498 998 498 999 497 1003 497 1005 499 1005 500 1007 502 1007 503 1009 505 1009 506 1012 509 1012 510 1014 512 1014 513 1015 514 1015 516 1016 517 1016 519 1017 520 1017 524 1018 525 1018 528 1019 529 1019 532 1020 533 1020 537 1021 538 1021 541 1022 542 1022 549 1023 550 1023 556 1024 557 1024 563 1025 564 1025 572 1026 573 1026 584 1027 585 1027 596 1026 597 1026 607 1027 608 1027 623 1028 624 1028 714 1027 715 1028 716 1028 720 1029 721 1029 724 1030 725 1030 727 1031 728 1031 730 1032 731 1032 732 1033 733 1033 734 1039 740 1040 740 1042 742 1043 742 1044 743 1047 743 1048 744 1051 744 1052 745 1059 745 1060 746 1068 746 1069 745 1075 745 1076 744 1078 744 1079 743 1080 743 1081 742 1082 742 1084 740 1085 740 1086 739 1086 738 1087 737 1087 736 1086 735 1086 734 1085 733 1085 732 1084 731 1084 729 1083 728 1083 726 1082 725 1082 720 1081 719 1081 714 1080 713 1080 711 1079 710 1079 707 1078 706 1078 703 1077 702 1077 699 1076 698 1076 683 1075 682 1075 672 1076 671 1076 661 1077 660 1077 649 1078 648 1078 637 1079 636 1079 624 1080 623 1080 611 1081 610 1081 598 1080 597 1080 574 1079 573 1079 548 1078 547 1078 536 1079 535 1079 475 1078 474 1078 469 1077 468 1077 464 1076 463 1076 460 1075 459 1075 456 1074 455 1074 450 1073 449 1073 444 1072 443 1072 440 1071 439 1071 435 1070 434 1070 411 1071 410 1071 409 1072 408 1072 407 1075 404 1076 405 1084 405 1086 407 1086 408 1087 409 1087 411 1088 412 1088 415 1089 416 1089 420 1090 421 1090 426 1091 427 1091 434 1092 435 1092 442 1093 443 1093 450 1094 451 1094 477 1095 478 1095 479 1102 486 1103 486 1104 487 1115 487 1121 481 1121 480 1123 478 1123 476 1124 475 1124 472 1125 471 1125 466 1126 465 1126 459 1127 458 1127 451 1126 450 1126 440 1125 439 1125 432 1124 431 1124 427 1123 426 1123 421 1122 420 1122 415 1121 414 1121 407 1120 406 1120 399 1119 398 1119 392 1118 391 1118 385 1117 384 1117 379 1116 378 1116 374 1115 373 1115 370 1114 369 1114 364 1113 363 1113 356 1112 355 1112 348 1111 347 1111 341 1110 340 1110 334 1109 333 1109 326 1108 325 1108 319 1107 318 1107 314 1106 313 1106 309 1105 308 1105 304 1104 303 1104 301 1103 300 1103 297 1102 296 1102 294 1101 293 1101 289 1100 288 1100 285 1099 284 1099 280 1098 279 1098 276 1097 275 1097 274 1096 273 1096 271 1095 270 1095 269 1094 268 1094 267 1093 266 1093 265 1092 264 1092 262 1091 261 1091 259 1090 258 1090 257 1089 256 1089 255 1088 254 1088 253 1087 252 1087 251 1084 248 1084 247 1081 244 1081 243 1079 241 1079 240 1078 239 1078 238 1077 237 1077 236 1076 235 1076 234 1067 225 1067 224 1062 219 1062 218 1060 216 1060 215 1059 214 1059 213 1058 212 1058 211 1055 208 1055 207 1051 203 1051 202 1048 199 1048 198 1045 195 1045 194 1044 193 1044 192 1043 191 1043 190 1040 187 1040 186 1036 182 1035 182 1026 173 1026 163 "/></svg>