<svg width="1920" height="1080" xmlns="http://www.w3.org/2000/svg"><path d="M980 170 980 181 977 184 977 185 975 187 975 188 974 189 974 190 972 192 972 193 971 194 971 195 970 196 970 198 969 199 969 201 968 202 968 206 967 207 967 211 966 212 966 217 965 218 965 223 964 224 964 225 963 226 963 227 962 228 962 229 961 230 961 231 960 232 960 233 958 235 958 236 957 237 957 238 956 239 956 241 955 242 955 243 954 244 954 245 953 246 953 247 948 252 947 252 946 253 945 253 944 254 943 254 942 255 941 255 940 256 939 256 938 257 937 257 936 258 935 258 934 259 933 259 932 260 931 260 927 264 927 265 926 266 926 267 924 269 924 270 916 278 916 279 914 281 914 282 913 283 913 284 912 285 912 286 911 287 911 288 910 289 910 290 909 291 909 292 904 297 904 298 899 303 899 304 897 306 897 308 896 309 896 310 895 311 895 313 894 314 894 316 893 317 893 318 892 319 892 320 891 321 891 322 890 323 890 324 889 325 889 326 888 327 888 328 887 329 887 331 886 332 886 336 885 337 885 341 884 342 884 345 883 346 883 349 882 350 882 355 881 356 881 361 880 362 880 366 879 367 879 370 878 371 878 375 877 376 877 381 876 382 876 387 875 388 875 394 874 395 874 404 873 405 873 413 872 414 872 439 873 440 873 442 874 443 874 444 875 445 875 446 876 447 876 448 878 450 878 451 889 451 889 450 892 447 892 446 894 444 894 443 895 442 895 441 896 440 896 439 897 438 897 429 898 428 898 412 899 411 899 406 900 405 900 398 901 397 901 390 900 389 900 381 899 380 899 372 901 370 901 369 909 361 909 360 912 357 912 356 914 354 914 353 920 347 923 347 924 346 927 346 928 345 930 345 932 347 933 347 936 350 937 350 939 352 939 353 940 354 940 355 941 356 941 357 942 358 942 360 943 361 943 364 944 365 944 367 945 368 945 372 946 373 946 374 945 375 945 379 944 380 944 384 943 385 943 390 942 391 942 394 941 395 941 398 940 399 940 401 939 402 939 405 938 406 938 408 937 409 937 413 936 414 936 417 935 418 935 420 934 421 934 423 933 424 933 425 932 426 932 428 931 429 931 430 930 431 930 432 928 434 928 435 927 436 927 437 926 438 926 441 925 442 925 446 924 447 924 452 923 453 923 458 922 459 922 462 923 463 923 514 922 515 922 528 921 529 921 537 920 538 920 544 919 545 919 563 918 564 918 575 917 576 917 595 918 596 918 603 919 604 919 614 918 615 918 624 917 625 917 637 916 638 916 654 915 655 915 664 914 665 914 673 913 674 913 679 912 680 912 685 911 686 911 689 910 690 910 693 909 694 909 703 908 704 908 714 907 715 907 716 908 717 908 718 909 719 909 721 910 722 910 723 912 725 912 726 913 727 913 728 914 729 914 730 916 732 916 733 917 734 917 735 919 737 919 738 920 739 921 739 922 740 923 740 925 742 926 742 927 743 928 743 929 744 932 744 933 743 940 743 942 741 943 741 948 736 948 735 949 734 949 733 950 732 950 730 951 729 951 727 952 726 952 723 953 722 953 719 954 718 954 707 955 706 955 687 956 686 956 673 957 672 957 664 958 663 958 656 959 655 959 647 960 646 960 636 961 635 961 626 962 625 962 615 963 614 963 605 964 604 964 595 965 594 965 584 966 583 966 574 967 573 967 566 968 565 968 560 969 559 969 554 970 553 970 549 971 548 971 545 972 544 972 542 973 541 973 539 974 538 974 537 975 536 975 534 976 533 976 532 977 531 977 529 978 528 978 526 979 525 979 524 980 523 980 522 981 521 981 520 982 519 982 518 983 517 983 516 984 515 984 514 986 512 986 511 987 510 987 509 988 508 988 507 990 505 990 504 991 503 992 503 994 501 995 501 997 499 998 499 999 498 1000 498 1001 497 1005 501 1005 502 1008 505 1008 506 1012 510 1012 511 1013 512 1013 513 1014 514 1014 516 1015 517 1015 519 1016 520 1016 522 1017 523 1017 526 1018 527 1018 529 1019 530 1019 532 1020 533 1020 534 1021 535 1021 536 1022 537 1022 538 1023 539 1023 541 1024 542 1024 544 1025 545 1025 554 1026 555 1026 564 1027 565 1027 618 1028 619 1028 692 1029 693 1029 697 1028 698 1028 719 1029 720 1029 723 1030 724 1030 726 1031 727 1031 728 1032 729 1032 730 1035 733 1035 734 1042 741 1043 741 1044 742 1046 742 1047 743 1049 743 1050 744 1051 744 1052 745 1058 745 1059 746 1074 746 1075 745 1077 745 1078 744 1079 744 1080 743 1081 743 1082 742 1083 742 1087 738 1087 737 1086 736 1086 734 1085 733 1085 731 1084 730 1084 727 1083 726 1083 723 1082 722 1082 717 1081 716 1081 714 1080 713 1080 711 1079 710 1079 707 1078 706 1078 702 1077 701 1077 697 1076 696 1076 671 1077 670 1077 658 1078 657 1078 644 1079 643 1079 633 1080 632 1080 622 1081 621 1081 613 1082 612 1082 602 1081 601 1081 582 1080 581 1080 537 1081 536 1081 529 1082 528 1082 480 1081 479 1081 471 1080 470 1080 463 1079 462 1079 446 1078 445 1078 437 1079 436 1079 433 1081 431 1081 430 1082 429 1082 428 1083 427 1084 428 1084 430 1085 431 1085 433 1086 434 1086 438 1087 439 1087 450 1088 451 1088 463 1087 464 1087 470 1086 471 1086 478 1085 479 1085 488 1086 489 1086 497 1087 498 1087 500 1088 501 1089 501 1090 502 1094 502 1095 503 1096 503 1097 504 1099 504 1100 505 1106 505 1107 504 1109 504 1110 503 1113 503 1115 501 1115 500 1116 499 1116 498 1117 497 1117 496 1118 495 1118 494 1119 493 1119 492 1120 491 1120 490 1121 489 1121 488 1122 487 1122 486 1123 485 1123 483 1124 482 1124 451 1123 450 1123 443 1122 442 1122 435 1121 434 1121 428 1120 427 1120 420 1119 419 1119 412 1118 411 1118 404 1117 403 1117 396 1116 395 1116 390 1115 389 1115 385 1114 384 1114 380 1113 379 1113 376 1112 375 1112 370 1111 369 1111 359 1110 358 1110 349 1109 348 1109 341 1108 340 1108 332 1107 331 1107 324 1106 323 1106 318 1105 317 1105 312 1104 311 1104 307 1103 306 1103 304 1102 303 1102 301 1101 300 1101 297 1100 296 1100 292 1099 291 1099 287 1098 286 1098 284 1097 283 1097 281 1096 280 1096 278 1095 277 1095 275 1094 274 1094 273 1093 272 1093 271 1092 270 1092 269 1091 268 1091 266 1090 265 1090 264 1089 263 1089 262 1088 261 1088 260 1086 258 1086 257 1080 251 1080 250 1078 248 1078 247 1077 246 1077 245 1075 243 1075 242 1074 241 1074 240 1065 231 1065 230 1061 226 1061 225 1059 223 1059 222 1058 221 1058 220 1057 219 1057 218 1056 217 1056 216 1054 214 1054 213 1052 211 1052 210 1049 207 1049 206 1047 204 1047 203 1045 201 1045 200 1044 199 1044 198 1043 197 1043 196 1042 195 1042 194 1039 191 1039 190 1029 180 1029 170 "/></svg>