<svg width="1920" height="1080" xmlns="http://www.w3.org/2000/svg"><path d="M988 150 988 160 987 161 987 162 985 164 984 164 984 165 981 168 981 169 979 171 979 172 978 173 978 174 977 175 977 176 976 177 976 178 975 179 975 180 974 181 974 182 973 183 973 184 972 185 972 187 971 188 971 189 970 190 970 191 969 192 969 194 968 195 968 197 967 198 967 199 966 200 966 202 965 203 965 205 963 207 963 208 961 210 961 211 958 214 958 215 954 219 954 220 950 224 950 225 949 226 949 227 941 235 940 235 938 237 937 237 936 238 935 238 934 239 933 239 932 240 931 240 926 245 926 246 924 248 924 249 923 250 923 251 920 254 920 255 918 257 918 258 916 260 916 261 914 263 914 264 912 266 912 267 910 269 910 270 909 271 909 272 907 274 907 275 905 277 905 278 900 283 900 284 898 286 898 287 897 288 897 289 896 290 896 292 895 293 895 294 894 295 894 297 893 298 893 299 892 300 892 301 891 302 891 303 889 305 889 306 888 307 888 309 887 310 887 311 886 312 886 314 885 315 885 318 884 319 884 322 883 323 883 325 882 326 882 327 881 328 881 329 880 330 880 332 879 333 879 335 878 336 878 344 877 345 877 353 876 354 876 362 875 363 875 369 874 370 874 376 873 377 873 383 872 384 872 395 871 396 871 405 872 406 872 407 873 408 873 409 874 410 874 412 875 413 875 414 876 415 876 417 877 418 877 420 878 421 878 423 879 424 879 425 880 426 880 427 883 427 884 428 891 428 891 427 892 426 892 425 893 424 893 418 894 417 894 409 895 408 895 398 896 397 896 387 897 386 897 368 896 367 896 358 897 357 897 353 898 352 898 349 899 348 899 346 900 345 900 343 901 342 901 341 903 339 903 338 909 332 910 332 911 331 912 331 913 330 914 330 916 328 918 328 919 327 920 327 921 326 932 326 934 328 935 328 936 329 937 329 943 335 943 336 944 337 944 339 945 340 945 343 946 344 946 349 947 350 947 355 948 356 948 362 947 363 947 368 946 369 946 373 945 374 945 378 944 379 944 383 943 384 943 386 942 387 942 389 941 390 941 392 940 393 940 396 939 397 939 400 938 401 938 404 937 405 937 407 936 408 936 410 935 411 935 412 934 413 934 414 933 415 933 416 932 417 932 418 930 420 930 421 929 422 929 423 928 424 928 427 927 428 927 431 926 432 926 436 925 437 925 440 924 441 924 445 923 446 923 463 922 464 922 492 921 493 921 507 920 508 920 523 919 524 919 563 918 564 918 590 919 591 919 610 918 611 918 621 917 622 917 641 916 642 916 652 915 653 915 659 914 660 914 665 913 666 913 670 912 671 912 674 911 675 911 678 910 679 910 682 909 683 909 686 908 687 908 698 907 699 907 713 908 714 908 715 909 716 909 717 910 718 910 719 911 720 911 721 916 726 916 727 924 735 925 735 927 737 929 737 930 738 931 738 932 739 933 739 934 738 937 738 938 737 941 737 945 733 945 732 946 731 946 730 947 729 947 728 948 727 948 726 949 725 949 724 950 723 950 721 951 720 951 718 952 717 952 714 953 713 953 708 954 707 954 698 955 697 955 688 956 687 956 680 957 679 957 672 958 671 958 664 959 663 959 656 960 655 960 649 961 648 961 642 962 641 962 635 963 634 963 628 964 627 964 620 965 619 965 610 966 609 966 600 967 599 967 589 968 588 968 578 969 577 969 568 970 567 970 560 971 559 971 553 972 552 972 546 973 545 973 539 974 538 974 535 975 534 975 532 976 531 976 529 977 528 977 527 978 526 978 524 979 523 979 521 980 520 980 518 981 517 981 516 982 515 982 513 983 512 983 511 984 510 984 509 986 507 986 506 987 505 987 504 988 503 988 502 989 501 989 500 991 498 991 497 994 494 995 494 996 493 999 493 1000 492 1004 492 1005 493 1005 494 1007 496 1007 497 1009 499 1009 500 1011 502 1011 503 1013 505 1013 506 1015 508 1015 510 1016 511 1016 513 1017 514 1017 517 1018 518 1018 521 1019 522 1019 526 1020 527 1020 531 1021 532 1021 536 1022 537 1022 545 1023 546 1023 553 1024 554 1024 560 1025 561 1025 567 1026 568 1026 575 1027 576 1027 592 1026 593 1026 606 1027 607 1027 621 1028 622 1028 630 1027 631 1027 660 1028 661 1028 713 1029 714 1029 718 1030 719 1030 722 1031 723 1031 725 1032 726 1032 728 1033 729 1033 730 1034 731 1034 732 1040 738 1041 738 1043 740 1044 740 1045 741 1047 741 1048 742 1050 742 1051 743 1054 743 1055 744 1064 744 1065 745 1068 745 1069 744 1077 744 1078 743 1079 743 1081 741 1082 741 1083 740 1084 740 1087 737 1087 736 1088 735 1088 733 1086 731 1086 730 1085 729 1085 728 1084 727 1084 726 1083 725 1083 723 1082 722 1082 718 1081 717 1081 712 1080 711 1080 709 1079 708 1079 706 1078 705 1078 702 1077 701 1077 699 1076 698 1076 696 1075 695 1075 693 1074 692 1074 682 1073 681 1073 659 1074 658 1074 646 1075 645 1075 639 1076 638 1076 632 1077 631 1077 624 1078 623 1078 613 1079 612 1079 561 1078 560 1078 483 1077 482 1077 469 1076 468 1076 464 1075 463 1075 460 1074 459 1074 457 1073 456 1073 453 1072 452 1072 449 1071 448 1071 444 1070 443 1070 438 1069 437 1069 433 1068 432 1068 428 1067 427 1067 421 1066 420 1066 414 1065 413 1065 406 1064 405 1064 402 1065 401 1065 399 1066 398 1066 396 1067 395 1067 393 1068 392 1068 391 1069 390 1069 388 1070 387 1070 385 1071 384 1071 382 1073 380 1073 379 1077 375 1078 375 1079 374 1080 374 1081 373 1083 373 1084 372 1085 372 1086 371 1091 376 1091 377 1093 379 1093 380 1095 382 1095 384 1096 385 1096 386 1097 387 1097 390 1098 391 1098 395 1099 396 1099 401 1100 402 1100 431 1101 432 1101 446 1102 447 1102 451 1103 452 1103 455 1104 456 1104 458 1105 459 1105 461 1106 462 1106 463 1107 464 1113 464 1114 463 1117 463 1117 462 1119 460 1119 459 1120 458 1120 457 1121 456 1121 455 1122 454 1122 453 1123 452 1123 451 1124 450 1124 449 1125 448 1125 422 1124 421 1124 415 1123 414 1123 405 1122 404 1122 394 1121 393 1121 384 1120 383 1120 376 1119 375 1119 368 1118 367 1118 362 1117 361 1117 356 1116 355 1116 350 1115 349 1115 343 1114 342 1114 336 1113 335 1113 330 1112 329 1112 323 1111 322 1111 315 1110 314 1110 309 1109 308 1109 303 1108 302 1108 298 1107 297 1107 294 1106 293 1106 291 1105 290 1105 288 1104 287 1104 285 1103 284 1103 281 1102 280 1102 276 1101 275 1101 272 1100 271 1100 268 1099 267 1099 265 1098 264 1098 262 1097 261 1097 260 1096 259 1096 257 1095 256 1095 255 1094 254 1094 253 1093 252 1093 250 1092 249 1092 247 1091 246 1091 245 1090 244 1090 243 1089 242 1089 241 1087 239 1087 238 1083 234 1083 233 1081 231 1081 230 1079 228 1079 226 1078 225 1078 224 1076 222 1076 221 1074 219 1073 219 1066 212 1065 212 1064 211 1064 210 1060 206 1060 205 1059 204 1059 203 1058 202 1058 201 1057 200 1057 199 1054 196 1054 195 1051 192 1051 191 1049 189 1049 188 1046 185 1046 184 1045 183 1045 182 1044 181 1044 180 1043 179 1043 178 1041 176 1041 175 1038 172 1038 171 1028 161 1028 150 "/></svg>