<svg width="1920" height="1080" xmlns="http://www.w3.org/2000/svg"><path d="M993 211 993 220 987 226 987 227 981 233 981 234 978 237 978 238 977 239 977 241 976 242 976 244 975 245 975 247 974 248 974 250 973 251 973 253 972 254 972 256 971 257 971 259 970 260 970 261 969 262 969 263 967 265 967 266 964 269 964 270 959 275 959 276 957 278 957 279 956 280 956 281 954 283 954 284 950 288 949 288 948 289 947 289 945 291 944 291 943 292 942 292 940 294 939 294 934 299 934 300 931 303 931 304 923 312 922 312 920 314 920 315 918 317 918 318 917 319 917 321 916 322 916 323 915 324 915 325 914 326 914 327 913 328 913 329 911 331 911 332 908 335 908 336 907 337 907 338 906 339 906 340 905 341 905 343 903 345 903 346 902 347 902 348 899 351 899 352 898 353 898 354 897 355 897 357 896 358 896 359 895 360 895 363 894 364 894 366 893 367 893 369 892 370 892 371 890 373 890 375 889 376 889 377 888 378 888 380 887 381 887 384 886 385 886 388 885 389 885 392 884 393 884 396 883 397 883 399 882 400 882 404 881 405 881 408 880 409 880 414 879 415 879 420 878 421 878 433 877 434 877 445 876 446 876 456 875 457 875 471 874 472 874 481 875 482 875 484 876 485 876 487 877 488 877 490 878 491 878 492 879 493 879 495 880 496 880 498 882 500 884 500 885 501 887 501 888 502 891 502 891 501 892 500 892 499 893 498 893 493 894 492 894 486 895 485 895 476 896 475 896 464 897 463 897 443 898 442 898 437 899 436 899 434 900 433 900 432 901 431 901 429 902 428 902 426 903 425 903 423 904 422 904 421 905 420 905 419 907 417 907 416 911 412 911 411 913 409 913 408 914 407 914 406 915 405 915 403 916 402 916 400 917 399 917 398 919 396 919 395 920 394 921 394 922 393 923 393 924 392 926 392 927 391 929 391 930 390 931 391 932 391 934 393 935 393 940 398 940 399 941 400 941 412 940 413 940 423 939 424 939 427 938 428 938 434 937 435 937 440 936 441 936 443 935 444 935 445 934 446 934 448 932 450 932 451 931 452 931 453 927 457 927 458 925 460 925 463 924 464 924 467 923 468 923 471 922 472 922 475 921 476 921 478 920 479 920 483 919 484 919 488 918 489 918 494 917 495 917 499 916 500 916 502 917 503 917 532 918 533 918 558 919 559 919 561 918 562 918 586 917 587 917 627 916 628 916 642 915 643 915 663 914 664 914 672 913 673 913 679 912 680 912 684 911 685 911 689 910 690 910 693 909 694 909 698 908 699 908 721 909 722 909 723 910 724 910 725 913 728 913 729 924 740 925 740 927 742 928 742 929 743 940 743 942 741 943 741 947 737 947 736 949 734 949 733 950 732 950 731 951 730 951 727 952 726 952 724 953 723 953 720 954 719 954 703 955 702 955 687 956 686 956 674 957 673 957 662 958 661 958 638 959 637 959 628 960 627 960 619 961 618 961 612 962 611 962 604 963 603 963 595 964 594 964 588 965 587 965 581 966 580 966 577 967 576 967 573 968 572 968 570 969 569 969 567 970 566 970 564 971 563 971 561 972 560 972 558 973 557 973 556 974 555 974 554 975 553 975 552 976 551 976 550 977 549 977 548 978 547 978 546 980 544 980 543 981 542 981 541 982 540 982 538 983 537 983 536 984 535 984 534 986 532 986 531 987 530 987 529 992 524 993 524 996 521 997 521 999 519 1000 519 1001 520 1002 520 1004 522 1005 522 1007 524 1008 524 1011 527 1011 528 1013 530 1013 531 1014 532 1014 533 1016 535 1016 536 1017 537 1017 538 1018 539 1018 540 1019 541 1019 542 1020 543 1020 544 1021 545 1021 546 1022 547 1022 548 1023 549 1023 550 1024 551 1024 553 1025 554 1025 556 1026 557 1026 561 1027 562 1027 567 1028 568 1028 573 1029 574 1029 579 1030 580 1030 593 1031 594 1031 678 1030 679 1030 707 1029 708 1029 718 1028 719 1028 720 1029 721 1029 723 1030 724 1030 725 1031 726 1031 727 1032 728 1032 729 1034 731 1034 732 1036 734 1036 735 1040 739 1041 739 1042 740 1043 740 1044 741 1045 741 1046 742 1048 742 1049 743 1053 743 1054 744 1058 744 1059 745 1061 745 1062 744 1070 744 1071 743 1072 743 1073 742 1074 742 1075 741 1076 741 1079 738 1079 732 1080 731 1080 718 1079 717 1079 716 1078 715 1078 713 1077 712 1077 710 1076 709 1076 706 1075 705 1075 700 1074 699 1074 677 1075 676 1075 666 1076 665 1076 657 1077 656 1077 651 1078 650 1078 645 1079 644 1079 639 1080 638 1080 631 1081 630 1081 623 1082 622 1082 599 1083 598 1083 587 1084 586 1084 577 1085 576 1085 571 1086 570 1086 567 1087 566 1087 564 1088 563 1088 562 1089 561 1089 560 1090 559 1090 558 1092 556 1092 555 1094 553 1095 553 1097 551 1098 551 1099 550 1102 550 1103 549 1107 549 1108 548 1109 548 1110 547 1111 547 1116 542 1117 542 1118 541 1118 540 1119 539 1119 538 1120 537 1120 535 1121 534 1121 531 1122 530 1122 528 1123 527 1123 524 1124 523 1124 501 1123 500 1123 494 1122 493 1122 487 1121 486 1121 481 1120 480 1120 476 1119 475 1119 472 1118 471 1118 469 1117 468 1117 466 1116 465 1116 463 1115 462 1115 459 1114 458 1114 455 1113 454 1113 451 1112 450 1112 447 1111 446 1111 444 1110 443 1110 440 1109 439 1109 434 1108 433 1108 428 1107 427 1107 423 1106 422 1106 418 1105 417 1105 414 1104 413 1104 409 1103 408 1103 404 1102 403 1102 377 1101 376 1101 366 1100 365 1100 356 1099 355 1099 349 1098 348 1098 341 1097 340 1097 336 1096 335 1096 330 1095 329 1095 324 1094 323 1094 318 1093 317 1093 314 1092 313 1092 310 1091 309 1091 307 1090 306 1090 304 1089 303 1089 302 1088 301 1088 299 1087 298 1087 297 1086 296 1086 295 1085 294 1085 293 1084 292 1084 291 1083 290 1083 289 1082 288 1082 287 1080 285 1080 284 1079 283 1079 282 1078 281 1078 280 1077 279 1077 278 1076 277 1076 276 1075 275 1075 274 1074 273 1074 272 1073 271 1073 270 1072 269 1072 268 1071 267 1071 266 1070 265 1070 264 1068 262 1068 261 1067 260 1067 259 1066 258 1066 257 1064 255 1064 254 1061 251 1061 250 1054 243 1054 242 1052 240 1052 239 1049 236 1049 235 1048 235 1037 224 1036 224 1034 222 1034 221 1033 220 1033 211 "/></svg>