<svg width="1920" height="1080" xmlns="http://www.w3.org/2000/svg"><path d="M994 191 994 200 985 209 984 209 979 214 979 215 978 216 978 217 976 219 976 220 975 221 975 223 974 224 974 226 973 227 973 228 972 229 972 231 971 232 971 233 970 234 970 236 969 237 969 239 968 240 968 242 967 243 967 244 966 245 966 246 964 248 964 249 959 254 959 255 956 258 956 259 955 260 955 261 954 262 954 263 953 264 953 265 950 268 949 268 946 271 945 271 944 272 943 272 942 273 941 273 940 274 939 274 938 275 937 275 935 277 934 277 933 278 932 278 929 281 929 282 927 284 927 285 926 286 926 287 923 290 923 291 922 292 921 292 920 293 920 294 917 297 917 298 915 300 915 301 914 302 914 304 913 305 913 306 912 307 912 308 910 310 910 311 902 319 902 320 900 322 900 323 899 324 899 325 898 326 898 327 897 328 897 330 896 331 896 332 895 333 895 334 894 335 894 336 893 337 893 338 891 340 891 341 890 342 890 343 889 344 889 345 888 346 888 349 887 350 887 354 886 355 886 358 885 359 885 362 884 363 884 366 883 367 883 373 882 374 882 379 881 380 881 384 880 385 880 390 879 391 879 397 878 398 878 405 877 406 877 423 876 424 876 452 877 453 877 457 878 458 878 462 879 463 879 466 880 467 880 470 885 470 886 469 890 469 890 468 891 467 891 464 892 463 892 461 893 460 893 456 894 455 894 451 895 450 895 434 896 433 896 423 897 422 897 416 898 415 898 410 899 409 899 394 900 393 900 387 902 385 902 384 912 374 913 374 921 366 922 366 923 365 924 365 925 364 926 364 927 363 929 363 930 362 932 362 933 363 934 363 936 365 937 365 938 366 939 366 941 368 941 369 942 370 942 371 943 372 943 374 944 375 944 377 945 378 945 380 946 381 946 384 947 385 947 390 946 391 946 394 945 395 945 398 944 399 944 402 943 403 943 406 942 407 942 410 941 411 941 413 940 414 940 416 939 417 939 420 938 421 938 425 937 426 937 430 936 431 936 432 935 433 935 435 934 436 934 437 933 438 933 439 932 440 932 441 930 443 930 444 928 446 928 447 927 448 927 449 926 450 926 453 925 454 925 458 924 459 924 462 923 463 923 467 922 468 922 474 921 475 921 488 920 489 920 496 921 497 921 523 920 524 920 545 919 546 919 577 918 578 918 606 919 607 919 615 920 616 919 617 919 626 918 627 918 641 917 642 917 659 916 660 916 669 915 670 915 678 914 679 914 683 913 684 913 688 912 689 912 692 911 693 911 695 910 696 910 698 909 699 909 715 908 716 908 720 909 721 909 722 910 723 910 724 913 727 913 728 919 734 919 735 921 737 922 737 926 741 927 741 929 743 930 743 931 744 934 744 935 743 941 743 942 742 943 742 946 739 946 738 949 735 949 734 950 733 950 732 951 731 951 730 952 729 952 727 953 726 953 724 954 723 954 719 955 718 955 702 956 701 956 684 957 683 957 670 958 669 958 660 959 659 959 644 960 643 960 632 961 631 961 624 962 623 962 615 963 614 963 608 964 607 964 598 965 597 965 589 966 588 966 579 967 578 967 572 968 571 968 566 969 565 969 561 970 560 970 556 971 555 971 553 972 552 972 551 973 550 973 549 974 548 974 547 975 546 975 545 976 544 976 543 977 542 977 541 978 540 978 539 979 538 979 537 980 536 980 535 981 534 981 533 982 532 982 531 983 530 983 529 984 528 984 527 985 526 985 525 986 524 986 523 988 521 988 520 989 519 989 518 991 516 991 515 992 514 993 514 994 513 996 513 997 512 999 512 1000 511 1001 511 1002 510 1005 513 1005 514 1014 523 1014 525 1015 526 1015 527 1016 528 1016 529 1017 530 1017 532 1018 533 1018 535 1019 536 1019 537 1020 538 1020 539 1021 540 1021 541 1022 542 1022 543 1023 544 1023 545 1024 546 1024 547 1025 548 1025 550 1026 551 1026 553 1027 554 1027 561 1028 562 1028 569 1029 570 1029 587 1030 588 1030 613 1029 614 1029 626 1030 627 1030 637 1029 638 1029 720 1030 721 1030 723 1031 724 1031 725 1032 726 1032 727 1034 729 1034 730 1042 738 1043 738 1044 739 1045 739 1046 740 1047 740 1048 741 1049 741 1050 742 1051 742 1052 743 1058 743 1059 744 1073 744 1074 743 1075 743 1076 742 1077 742 1079 740 1079 739 1080 738 1080 732 1081 731 1081 718 1080 717 1080 715 1079 714 1079 711 1078 710 1078 707 1077 706 1077 701 1076 700 1076 677 1077 676 1077 664 1078 663 1078 651 1079 650 1079 640 1080 639 1080 630 1081 629 1081 622 1082 621 1082 580 1083 579 1083 552 1084 551 1084 549 1085 548 1085 546 1086 545 1086 543 1087 542 1087 540 1088 539 1088 538 1090 536 1090 535 1092 533 1092 531 1093 530 1093 529 1094 528 1096 528 1097 527 1103 527 1104 526 1105 526 1106 525 1107 525 1108 524 1109 524 1110 523 1111 523 1112 522 1113 522 1114 521 1115 521 1124 512 1124 509 1125 508 1125 501 1126 500 1126 481 1125 480 1125 472 1124 471 1124 466 1123 465 1123 462 1122 461 1122 456 1121 455 1121 450 1120 449 1120 444 1119 443 1119 438 1118 437 1118 433 1117 432 1117 427 1116 426 1116 422 1115 421 1115 417 1114 416 1114 412 1113 411 1113 408 1112 407 1112 404 1111 403 1111 400 1110 399 1110 395 1109 394 1109 389 1108 388 1108 378 1107 377 1107 367 1106 366 1106 360 1105 359 1105 353 1104 352 1104 346 1103 345 1103 341 1102 340 1102 335 1101 334 1101 327 1100 326 1100 321 1099 320 1099 314 1098 313 1098 307 1097 306 1097 302 1096 301 1096 298 1095 297 1095 295 1094 294 1094 292 1093 291 1093 290 1092 289 1092 286 1091 285 1091 283 1090 282 1090 281 1089 280 1089 278 1088 277 1088 276 1087 275 1087 274 1085 272 1085 271 1082 268 1082 267 1081 266 1081 265 1079 263 1079 261 1078 260 1078 259 1076 257 1076 256 1064 244 1064 243 1062 241 1062 240 1059 237 1059 236 1047 224 1047 223 1044 220 1044 219 1035 210 1034 210 1032 208 1031 208 1030 207 1029 207 1028 206 1027 206 1025 204 1024 204 1022 202 1021 202 1020 201 1020 191 "/></svg>