<svg width="1920" height="1080" xmlns="http://www.w3.org/2000/svg"><path d="M1008 231 1007 232 1002 232 1001 233 999 233 998 234 997 234 996 235 995 235 994 236 992 236 988 240 987 240 983 244 983 245 981 247 981 248 980 249 980 250 979 251 979 252 978 253 978 255 977 256 977 258 976 259 976 261 975 262 975 264 974 265 974 268 973 269 973 270 972 271 972 272 970 274 970 275 969 276 969 277 967 279 967 280 966 281 966 282 965 283 965 284 963 286 963 287 962 288 962 289 954 297 953 297 951 299 950 299 949 300 948 300 947 301 946 301 943 304 942 304 939 307 939 308 933 314 932 314 930 316 929 316 928 317 927 317 925 319 924 319 920 323 920 324 919 325 919 326 918 327 918 328 917 329 917 331 915 333 915 334 911 338 911 339 908 342 908 343 907 344 907 345 906 346 906 347 905 348 905 349 904 350 904 351 903 352 903 353 902 354 902 355 901 356 901 357 900 358 900 359 899 360 899 361 898 362 898 364 897 365 897 368 896 369 896 371 895 372 895 374 894 375 894 376 893 377 893 378 892 379 892 380 891 381 891 383 890 384 890 386 889 387 889 390 888 391 888 394 887 395 887 397 886 398 886 401 885 402 885 404 884 405 884 407 883 408 883 412 882 413 882 417 881 418 881 423 880 424 880 431 879 432 879 438 878 439 878 445 877 446 877 450 876 451 876 455 875 456 875 459 874 460 874 462 873 463 873 468 872 469 872 477 871 478 871 498 872 499 872 506 873 507 873 508 879 514 879 515 882 518 885 518 886 517 889 517 890 516 892 516 893 515 893 514 895 512 895 511 896 510 896 509 897 508 897 507 898 506 898 494 897 493 897 481 898 480 898 463 899 462 899 444 900 443 900 441 901 440 901 439 902 438 902 437 903 436 903 435 904 434 904 433 905 432 905 431 906 430 906 429 907 428 907 427 908 426 908 425 914 419 915 419 921 413 921 412 922 411 925 411 926 410 928 410 929 409 931 409 932 408 933 409 933 411 934 412 934 415 935 416 935 419 936 420 936 423 937 424 937 448 936 449 936 451 935 452 935 454 934 455 934 456 933 457 933 458 931 460 931 461 930 462 930 463 929 464 929 465 928 466 928 468 927 469 927 472 926 473 926 477 925 478 925 481 924 482 924 486 923 487 923 491 922 492 922 496 921 497 921 501 920 502 920 507 919 508 919 523 918 524 918 527 919 528 919 573 918 574 918 592 917 593 917 634 916 635 916 657 915 658 915 669 914 670 914 675 913 676 913 680 912 681 912 685 911 686 911 691 910 692 910 696 909 697 909 712 908 713 908 722 909 723 909 724 911 726 911 727 919 735 920 735 923 738 924 738 925 739 926 739 928 741 929 741 931 743 935 743 936 742 940 742 941 741 942 741 948 735 948 734 950 732 950 731 951 730 951 729 952 728 952 727 953 726 953 723 954 722 954 709 955 708 955 689 956 688 956 674 957 673 957 640 958 639 958 626 959 625 959 617 960 616 960 609 961 608 961 602 962 601 962 597 963 596 963 591 964 590 964 585 965 584 965 580 966 579 966 576 967 575 967 572 968 571 968 568 969 567 969 564 970 563 970 562 971 561 971 560 974 557 974 556 976 554 976 553 977 552 977 551 979 549 979 548 980 547 980 546 981 545 981 544 983 542 983 541 985 539 985 538 987 536 987 535 990 532 990 531 991 530 992 530 993 529 995 529 996 528 998 528 999 527 1000 527 1001 526 1002 527 1003 527 1004 528 1005 528 1006 529 1007 529 1008 530 1009 530 1010 531 1011 531 1013 533 1013 534 1016 537 1016 538 1017 539 1017 540 1019 542 1019 543 1020 544 1020 545 1021 546 1021 547 1023 549 1023 550 1024 551 1024 552 1025 553 1025 555 1026 556 1026 557 1027 558 1027 561 1028 562 1028 564 1029 565 1029 571 1030 572 1030 576 1031 577 1031 581 1032 582 1032 592 1033 593 1033 620 1034 621 1034 648 1033 649 1033 673 1032 674 1032 705 1031 706 1031 720 1030 721 1030 722 1031 723 1031 724 1032 725 1032 726 1033 727 1033 728 1036 731 1036 732 1041 737 1042 737 1043 738 1045 738 1046 739 1048 739 1049 740 1052 740 1053 741 1059 741 1060 742 1066 742 1067 741 1072 741 1074 739 1075 739 1077 737 1077 736 1079 734 1079 733 1080 732 1080 730 1081 729 1081 726 1082 725 1082 721 1081 720 1081 719 1080 718 1080 716 1079 715 1079 714 1078 713 1078 710 1077 709 1077 706 1076 705 1076 692 1075 691 1075 680 1076 679 1076 665 1077 664 1077 652 1078 651 1078 643 1079 642 1079 637 1080 636 1080 632 1081 631 1081 626 1082 625 1082 616 1083 615 1083 603 1084 602 1084 597 1085 596 1085 592 1086 591 1086 587 1087 586 1087 583 1088 582 1088 579 1089 578 1089 576 1090 575 1090 574 1096 568 1097 568 1098 567 1099 567 1101 565 1102 565 1103 564 1104 564 1106 562 1107 562 1108 561 1109 561 1117 553 1117 552 1121 548 1121 546 1122 545 1122 541 1123 540 1123 531 1124 530 1124 518 1123 517 1123 508 1122 507 1122 502 1121 501 1121 498 1120 497 1120 494 1119 493 1119 491 1118 490 1118 489 1117 488 1117 485 1116 484 1116 481 1115 480 1115 478 1114 477 1114 474 1113 473 1113 470 1112 469 1112 466 1111 465 1111 462 1110 461 1110 459 1109 458 1109 456 1108 455 1108 452 1107 451 1107 447 1106 446 1106 433 1105 432 1105 421 1104 420 1104 414 1103 413 1103 384 1102 383 1102 378 1101 377 1101 372 1100 371 1100 366 1099 365 1099 361 1098 360 1098 356 1097 355 1097 350 1096 349 1096 344 1095 343 1095 340 1094 339 1094 335 1093 334 1093 331 1092 330 1092 327 1091 326 1091 324 1090 323 1090 321 1089 320 1089 319 1088 318 1088 316 1087 315 1087 312 1086 311 1086 309 1085 308 1085 306 1084 305 1084 304 1083 303 1083 302 1082 301 1082 300 1080 298 1080 297 1078 295 1078 294 1077 293 1077 292 1076 291 1076 290 1075 289 1075 287 1074 286 1074 285 1073 284 1073 282 1072 281 1072 280 1071 279 1071 278 1069 276 1069 275 1067 273 1067 272 1066 271 1066 270 1065 269 1065 268 1064 267 1064 266 1061 263 1061 262 1054 255 1054 254 1040 240 1039 240 1038 239 1037 239 1036 238 1035 238 1034 237 1033 237 1032 236 1031 236 1030 235 1027 235 1026 234 1024 234 1023 233 1020 233 1019 232 1015 232 1014 231 "/></svg>