<svg width="1920" height="1080" xmlns="http://www.w3.org/2000/svg"><path d="M1009 321 1008 322 1006 322 1005 323 1002 323 1001 324 1000 324 999 325 997 325 996 326 995 326 993 328 992 328 990 330 990 331 988 333 988 335 987 336 987 338 986 339 986 340 985 341 985 343 984 344 984 346 983 347 983 350 981 352 981 353 980 354 980 355 978 357 978 358 976 360 976 361 974 363 974 364 972 366 972 367 967 372 966 372 964 374 963 374 962 375 961 375 960 376 959 376 958 377 957 377 956 378 955 378 954 379 953 379 946 386 945 386 943 388 942 388 941 389 940 389 939 390 937 390 936 391 935 391 934 392 933 392 932 393 931 393 929 395 928 395 925 398 925 399 924 400 924 401 922 403 922 404 921 405 921 406 918 409 918 410 915 413 915 414 914 415 914 417 913 418 913 420 912 421 912 422 911 423 911 425 910 426 910 427 909 428 909 429 908 430 908 431 907 432 907 434 906 435 906 438 905 439 905 442 904 443 904 445 903 446 903 449 902 450 902 452 901 453 901 455 900 456 900 457 899 458 899 459 898 460 898 462 897 463 897 465 896 466 896 468 895 469 895 472 894 473 894 475 893 476 893 478 892 479 892 481 891 482 891 484 890 485 890 487 889 488 889 490 888 491 888 493 887 494 887 497 886 498 886 503 885 504 885 509 884 510 884 515 883 516 883 520 882 521 882 524 881 525 881 528 880 529 880 532 879 533 879 539 878 540 878 547 877 548 877 556 876 557 876 565 875 566 875 576 874 577 874 583 875 584 875 589 876 590 876 595 877 596 877 597 878 598 878 599 880 601 882 601 883 602 887 602 888 603 892 603 893 602 898 602 899 601 903 601 904 600 908 600 911 603 911 604 912 605 912 607 913 608 913 613 914 614 914 616 915 617 915 620 916 621 916 624 917 625 917 628 918 629 918 643 919 644 919 647 918 648 918 658 917 659 917 675 916 676 916 683 915 684 915 688 914 689 914 694 913 695 913 698 912 699 912 702 911 703 911 704 910 705 910 707 909 708 909 709 908 710 908 712 907 713 907 722 906 723 906 729 907 730 907 731 910 734 911 734 914 737 915 737 917 739 918 739 919 740 920 740 921 741 923 741 924 742 925 742 926 743 928 743 929 744 930 744 931 745 934 745 935 746 936 746 938 744 939 744 941 742 942 742 944 740 945 740 946 739 946 738 948 736 948 735 950 733 950 732 951 731 951 729 952 728 952 721 953 720 953 707 954 706 954 693 955 692 955 685 956 684 956 674 957 673 957 660 958 659 958 650 959 649 959 642 960 641 960 635 961 634 961 628 962 627 962 621 963 620 963 615 964 614 964 610 965 609 965 605 966 604 966 600 967 599 967 596 968 595 968 594 970 592 970 591 972 589 972 588 973 587 974 587 976 585 976 584 984 576 985 576 987 574 988 574 990 572 992 572 993 571 996 571 997 570 1006 570 1007 571 1010 571 1011 572 1012 572 1014 574 1015 574 1017 576 1018 576 1022 580 1022 581 1024 583 1024 584 1025 585 1025 586 1027 588 1027 589 1028 590 1028 591 1029 592 1029 593 1030 594 1030 595 1031 596 1031 602 1032 603 1032 615 1033 616 1033 636 1032 637 1032 670 1033 671 1033 691 1032 692 1032 709 1031 710 1031 718 1030 719 1030 725 1029 726 1029 728 1030 729 1030 730 1038 738 1039 738 1040 739 1042 739 1043 740 1045 740 1046 741 1050 741 1051 742 1059 742 1060 743 1061 743 1062 742 1064 742 1065 743 1066 742 1068 742 1069 741 1071 741 1073 739 1074 739 1076 737 1076 736 1077 735 1077 734 1078 733 1078 732 1079 731 1079 727 1077 725 1077 724 1076 723 1076 722 1075 721 1075 720 1074 719 1074 717 1073 716 1073 714 1072 713 1072 708 1071 707 1071 699 1070 698 1070 684 1071 683 1071 671 1072 670 1072 663 1073 662 1073 659 1074 658 1074 656 1075 655 1075 653 1076 652 1076 650 1077 649 1077 647 1078 646 1078 644 1079 643 1079 641 1080 640 1080 638 1081 637 1081 636 1082 635 1082 634 1083 633 1083 632 1085 630 1085 629 1087 627 1087 626 1089 624 1089 623 1097 615 1097 614 1098 613 1098 612 1099 611 1099 609 1100 608 1100 607 1101 606 1101 604 1103 602 1103 601 1104 600 1104 597 1105 596 1105 589 1106 588 1106 577 1107 576 1107 510 1106 509 1106 496 1105 495 1105 481 1104 480 1104 474 1103 473 1103 468 1102 467 1102 450 1101 449 1101 443 1100 442 1100 435 1099 434 1099 427 1098 426 1098 419 1097 418 1097 413 1096 412 1096 408 1095 407 1095 403 1094 402 1094 399 1093 398 1093 397 1092 396 1092 394 1091 393 1091 391 1090 390 1090 389 1089 388 1089 387 1088 386 1088 385 1087 384 1087 383 1086 382 1086 381 1082 377 1082 376 1078 372 1078 371 1074 367 1074 366 1073 365 1073 364 1072 363 1072 362 1071 361 1071 360 1068 357 1068 356 1065 353 1065 352 1063 350 1063 349 1062 348 1062 347 1061 346 1061 345 1060 344 1060 343 1057 340 1057 339 1056 339 1047 330 1046 330 1045 329 1044 329 1042 327 1041 327 1040 326 1039 326 1038 325 1036 325 1035 324 1033 324 1032 323 1029 323 1028 322 1023 322 1022 321 "/></svg>