<svg width="1920" height="1080" xmlns="http://www.w3.org/2000/svg"><path d="M995 281 995 289 992 292 992 293 990 295 990 296 988 298 988 299 987 300 987 301 985 303 985 304 984 305 984 306 983 307 983 309 982 310 982 314 981 315 981 319 980 320 980 324 979 325 979 327 978 328 978 330 977 331 977 332 976 333 976 335 975 336 975 337 974 338 974 339 973 340 973 341 970 344 970 345 966 349 965 349 963 351 962 351 961 352 959 352 958 353 957 353 956 354 955 354 954 355 953 355 952 356 951 356 947 360 946 360 943 363 942 363 940 365 939 365 938 366 937 366 936 367 934 367 933 368 932 368 931 369 930 369 929 370 928 370 927 371 926 371 923 374 923 375 922 376 922 377 921 378 921 379 920 380 920 381 918 383 918 384 915 387 915 388 913 390 913 391 912 392 912 393 911 394 911 395 910 396 910 398 909 399 909 400 908 401 908 402 907 403 907 404 906 405 906 406 905 407 905 409 904 410 904 412 903 413 903 417 902 418 902 421 901 422 901 424 900 425 900 428 899 429 899 431 898 432 898 434 897 435 897 437 896 438 896 441 895 442 895 445 894 446 894 451 893 452 893 457 892 458 892 462 891 463 891 467 890 468 890 471 889 472 889 475 888 476 888 479 887 480 887 485 886 486 886 493 885 494 885 502 884 503 884 510 883 511 883 517 882 518 882 524 881 525 881 530 880 531 880 533 879 534 879 538 878 539 878 546 877 547 877 555 878 556 878 558 879 559 879 560 880 561 880 562 881 563 881 564 882 565 882 566 883 567 883 568 884 569 884 570 885 571 886 571 887 572 889 572 890 573 895 573 896 574 897 574 899 572 900 572 902 570 902 568 903 567 903 562 904 561 904 555 905 554 905 543 906 542 906 534 907 533 907 532 908 531 908 529 909 528 909 527 910 526 910 524 911 523 911 522 912 521 912 520 913 519 913 518 914 517 914 516 915 515 916 515 917 516 917 518 918 519 918 522 919 523 919 529 920 530 920 553 919 554 919 567 918 568 918 571 919 572 919 581 920 582 920 631 919 632 919 646 918 647 918 654 917 655 917 662 916 663 916 669 915 670 915 677 914 678 914 682 913 683 913 687 912 688 912 693 911 694 911 698 910 699 910 702 909 703 909 706 908 707 908 709 907 710 907 719 906 720 906 728 907 729 907 730 913 736 914 736 916 738 917 738 918 739 919 739 920 740 921 740 922 741 923 741 924 742 925 742 926 743 928 743 929 744 931 744 932 745 936 745 938 743 939 743 940 742 941 742 943 740 944 740 945 739 945 738 948 735 948 734 949 733 949 732 950 731 950 730 951 729 951 725 952 724 952 713 953 712 953 693 954 692 954 685 955 684 955 677 956 676 956 660 957 659 957 650 958 649 958 639 959 638 959 630 960 629 960 620 961 619 961 612 962 611 962 605 963 604 963 600 964 599 964 596 965 595 965 592 966 591 966 587 967 586 967 585 968 584 968 583 970 581 970 580 975 575 975 574 977 572 977 571 979 569 979 568 986 561 987 561 990 558 991 558 992 557 993 557 994 556 996 556 997 555 999 555 1000 554 1002 554 1003 555 1004 555 1005 556 1006 556 1007 557 1009 557 1010 558 1011 558 1016 563 1016 564 1020 568 1020 569 1022 571 1022 572 1023 573 1023 574 1024 575 1024 576 1025 577 1025 578 1026 579 1026 580 1027 581 1027 583 1028 584 1028 586 1029 587 1029 592 1030 593 1030 599 1031 600 1031 608 1032 609 1032 695 1031 696 1031 706 1030 707 1030 728 1037 735 1038 735 1039 736 1040 736 1041 737 1044 737 1045 738 1049 738 1050 739 1062 739 1063 740 1064 739 1065 740 1066 740 1067 739 1071 739 1072 738 1073 738 1074 737 1076 737 1080 733 1080 732 1081 731 1081 730 1082 729 1082 727 1081 726 1081 725 1080 724 1080 723 1079 722 1079 721 1078 720 1078 718 1077 717 1077 716 1076 715 1076 713 1075 712 1075 709 1074 708 1074 704 1073 703 1073 698 1072 697 1072 673 1073 672 1073 664 1074 663 1074 657 1075 656 1075 653 1076 652 1076 649 1077 648 1077 646 1078 645 1078 642 1079 641 1079 637 1080 636 1080 633 1081 632 1081 629 1082 628 1082 625 1083 624 1083 622 1084 621 1084 620 1085 619 1085 617 1087 615 1087 614 1089 612 1089 611 1095 605 1095 604 1096 603 1096 601 1097 600 1097 599 1098 598 1098 597 1099 596 1099 595 1100 594 1100 593 1102 591 1102 590 1104 588 1104 587 1105 586 1105 584 1106 583 1106 580 1107 579 1107 574 1108 573 1108 566 1109 565 1109 531 1108 530 1108 519 1107 518 1107 509 1106 508 1106 501 1105 500 1105 496 1104 495 1104 491 1103 490 1103 486 1102 485 1102 477 1101 476 1101 459 1100 458 1100 434 1101 433 1101 427 1100 426 1100 414 1099 413 1099 404 1098 403 1098 395 1097 394 1097 391 1096 390 1096 387 1095 386 1095 384 1094 383 1094 379 1093 378 1093 376 1092 375 1092 373 1091 372 1091 371 1090 370 1090 369 1088 367 1088 366 1086 364 1086 363 1084 361 1084 360 1083 359 1083 358 1082 357 1082 356 1075 349 1075 348 1073 346 1073 345 1071 343 1071 341 1070 340 1070 339 1069 338 1069 337 1068 336 1068 335 1066 333 1066 332 1065 331 1065 330 1064 329 1064 328 1063 327 1063 326 1062 325 1062 323 1061 322 1061 318 1060 317 1060 314 1059 313 1059 311 1058 310 1058 308 1057 307 1057 306 1056 305 1056 304 1054 302 1054 301 1052 299 1052 298 1046 292 1046 291 1044 289 1044 281 "/></svg>