<svg width="1920" height="1080" xmlns="http://www.w3.org/2000/svg"><path d="M1012 366 1011 367 1008 367 1007 368 1005 368 1004 369 1003 369 1002 370 1001 370 1000 371 999 371 998 372 997 372 990 379 990 380 986 384 986 385 985 386 985 387 984 388 984 389 983 390 983 391 982 392 982 393 981 394 981 395 979 397 979 398 977 400 977 401 976 402 976 403 975 404 975 405 968 412 967 412 963 416 962 416 957 421 956 421 954 423 953 423 952 424 951 424 949 426 947 426 946 427 945 427 944 428 943 428 941 430 940 430 937 433 937 434 933 438 932 438 921 449 921 450 919 452 919 453 916 456 916 457 913 460 913 461 912 462 912 463 911 464 911 466 910 467 910 469 909 470 909 472 908 473 908 474 907 475 907 476 906 477 906 478 905 479 905 481 904 482 904 483 903 484 903 486 902 487 902 489 901 490 901 492 900 493 900 495 899 496 899 498 898 499 898 501 897 502 897 503 896 504 896 505 895 506 895 507 894 508 894 511 893 512 893 515 892 516 892 519 891 520 891 523 890 524 890 527 889 528 889 529 888 530 888 532 887 533 887 534 886 535 886 538 885 539 885 543 884 544 884 548 883 549 883 555 882 556 882 563 881 564 881 569 880 570 880 574 879 575 879 577 878 578 878 580 877 581 877 585 876 586 876 591 875 592 875 598 874 599 874 607 873 608 873 627 874 628 874 629 875 630 875 631 878 634 880 634 881 635 883 635 884 636 888 636 889 635 891 635 892 634 894 634 895 633 896 633 902 627 902 608 903 607 903 600 904 599 904 595 905 594 905 593 906 592 906 590 907 589 907 587 908 586 908 585 909 584 909 582 910 581 910 580 911 579 911 578 913 576 913 575 914 574 915 575 915 576 916 577 916 578 917 579 917 581 918 582 918 587 919 588 919 663 918 664 918 677 917 678 917 687 916 688 916 691 915 692 915 695 914 696 914 698 913 699 913 702 912 703 912 704 911 705 911 707 910 708 910 710 909 711 909 712 908 713 908 714 907 715 907 718 906 719 906 722 905 723 905 726 904 727 904 732 913 741 914 741 915 742 916 742 917 743 918 743 919 744 921 744 922 745 926 745 927 746 933 746 935 744 936 744 939 741 940 741 944 737 944 736 946 734 946 733 948 731 948 726 949 725 949 720 950 719 950 715 951 714 951 710 952 709 952 704 953 703 953 698 954 697 954 691 955 690 955 684 956 683 956 674 957 673 957 666 958 665 958 660 959 659 959 655 960 654 960 652 961 651 961 648 962 647 962 644 963 643 963 639 964 638 964 634 965 633 965 630 966 629 966 626 967 625 967 623 968 622 968 619 969 618 969 616 970 615 970 613 971 612 971 610 972 609 972 608 974 606 974 605 976 603 976 602 982 596 982 595 984 593 985 593 988 590 990 590 991 589 993 589 994 588 1002 588 1003 589 1006 589 1007 590 1008 590 1009 591 1010 591 1012 593 1013 593 1021 601 1021 602 1025 606 1025 607 1026 608 1026 609 1027 610 1027 611 1028 612 1028 615 1029 616 1029 619 1030 620 1030 624 1031 625 1031 631 1032 632 1032 650 1033 651 1033 675 1032 676 1032 704 1031 705 1031 715 1030 716 1030 731 1032 733 1032 734 1034 736 1035 736 1036 737 1037 737 1038 738 1039 738 1040 739 1041 739 1042 740 1044 740 1045 741 1047 741 1048 742 1051 742 1052 743 1063 743 1064 742 1066 742 1067 741 1069 741 1070 740 1071 740 1073 738 1074 738 1075 737 1075 736 1077 734 1077 733 1078 732 1078 730 1077 729 1077 728 1076 727 1076 726 1075 725 1075 724 1074 723 1074 721 1073 720 1073 718 1072 717 1072 714 1071 713 1071 708 1070 707 1070 703 1069 702 1069 698 1070 697 1070 686 1071 685 1071 681 1072 680 1072 676 1073 675 1073 671 1074 670 1074 669 1075 668 1075 666 1076 665 1076 664 1077 663 1077 662 1078 661 1078 660 1080 658 1080 657 1081 656 1081 655 1082 654 1082 653 1093 642 1093 641 1094 640 1094 639 1095 638 1095 637 1097 635 1097 634 1098 633 1098 631 1099 630 1099 628 1100 627 1100 623 1101 622 1101 617 1102 616 1102 609 1103 608 1103 591 1104 590 1104 559 1105 558 1105 536 1104 535 1104 515 1103 514 1103 499 1102 498 1102 486 1101 485 1101 476 1100 475 1100 469 1099 468 1099 464 1098 463 1098 460 1097 459 1097 458 1096 457 1096 455 1095 454 1095 452 1094 451 1094 448 1093 447 1093 444 1092 443 1092 441 1091 440 1091 438 1090 437 1090 435 1089 434 1089 433 1088 432 1088 431 1087 430 1087 429 1086 428 1086 427 1085 426 1085 425 1084 424 1084 423 1083 422 1083 421 1082 420 1082 419 1081 418 1081 417 1079 415 1079 414 1076 411 1076 410 1074 408 1074 407 1073 406 1073 405 1072 404 1072 403 1071 402 1071 401 1070 400 1070 399 1069 398 1069 397 1067 395 1067 394 1066 393 1066 391 1065 390 1065 389 1064 388 1064 387 1062 385 1062 384 1059 381 1059 380 1051 372 1050 372 1049 371 1048 371 1047 370 1045 370 1044 369 1042 369 1041 368 1039 368 1038 367 1035 367 1034 366 "/></svg>