<svg width="1920" height="1080" xmlns="http://www.w3.org/2000/svg"><path d="M1007 369 1007 375 1004 378 1003 378 1001 380 1000 380 998 382 997 382 989 390 989 391 987 393 987 394 986 395 986 396 985 397 985 398 984 399 984 400 983 401 983 402 982 403 982 405 980 407 980 408 977 411 977 412 975 414 975 415 973 417 973 418 968 423 967 423 966 424 965 424 963 426 962 426 961 427 960 427 959 428 958 428 957 429 956 429 955 430 954 430 953 431 952 431 947 436 946 436 944 438 943 438 942 439 941 439 940 440 939 440 938 441 937 441 936 442 935 442 934 443 933 443 929 447 929 448 926 451 926 452 921 457 921 458 919 460 919 461 918 462 918 463 917 464 917 465 916 466 916 467 915 468 915 469 914 470 914 471 913 472 913 474 912 475 912 477 911 478 911 480 910 481 910 483 909 484 909 486 908 487 908 489 907 490 907 491 906 492 906 493 905 494 905 495 904 496 904 497 903 498 903 500 902 501 902 502 901 503 901 505 900 506 900 508 899 509 899 510 898 511 898 512 897 513 897 514 895 516 895 518 894 519 894 521 893 522 893 524 892 525 892 527 891 528 891 530 890 531 890 533 889 534 889 536 888 537 888 538 887 539 887 541 886 542 886 543 885 544 885 547 884 548 884 551 883 552 883 556 882 557 882 562 881 563 881 569 880 570 880 576 879 577 879 579 878 580 878 583 877 584 877 587 876 588 876 592 875 593 875 599 874 600 874 607 873 608 873 616 872 617 872 632 873 633 873 634 874 635 874 636 876 638 876 639 878 641 880 641 881 642 882 642 883 643 885 643 886 644 887 643 888 643 889 642 890 642 891 641 892 641 894 639 895 639 898 636 898 635 900 633 900 631 901 630 901 614 902 613 902 606 903 605 903 601 904 600 904 598 905 597 905 595 906 594 906 592 907 591 907 589 908 588 908 587 909 586 909 585 911 583 911 582 913 580 913 579 914 578 921 585 921 586 922 587 922 588 923 589 923 595 924 596 924 601 925 602 925 604 924 605 924 635 923 636 923 641 922 642 922 657 921 658 921 664 920 665 920 672 919 673 919 680 918 681 918 689 917 690 917 694 916 695 916 698 915 699 915 702 914 703 914 705 913 706 913 708 912 709 912 711 911 712 911 715 910 716 910 720 909 721 909 725 908 726 908 729 907 730 908 731 908 732 910 734 910 735 915 740 916 740 918 742 919 742 920 743 921 743 922 744 923 744 924 745 928 745 929 746 933 746 934 745 935 745 936 744 937 744 940 741 941 741 944 738 944 737 946 735 946 734 948 732 948 731 949 730 949 724 950 723 950 717 951 716 951 713 952 712 952 708 953 707 953 703 954 702 954 696 955 695 955 690 956 689 956 682 957 681 957 673 958 672 958 667 959 666 959 663 960 662 960 658 961 657 961 654 962 653 962 650 963 649 963 645 964 644 964 641 965 640 965 637 966 636 966 634 967 633 967 632 968 631 968 629 969 628 969 627 970 626 970 625 971 624 971 622 972 621 972 620 973 619 973 617 974 616 974 615 981 608 982 608 986 604 987 604 989 602 990 602 991 601 992 601 993 600 994 600 995 599 996 599 997 598 1000 598 1001 599 1007 599 1008 600 1009 600 1010 601 1011 601 1012 602 1013 602 1014 603 1015 603 1026 614 1026 615 1027 616 1027 618 1028 619 1028 622 1029 623 1029 626 1030 627 1030 632 1031 633 1031 643 1032 644 1032 679 1031 680 1031 709 1030 710 1030 731 1031 732 1031 733 1034 736 1035 736 1036 737 1037 737 1038 738 1039 738 1040 739 1041 739 1042 740 1045 740 1046 741 1049 741 1050 742 1063 742 1064 741 1066 741 1067 740 1069 740 1070 739 1071 739 1073 737 1074 737 1076 735 1076 734 1078 732 1078 729 1077 728 1077 727 1076 726 1076 725 1075 724 1075 723 1074 722 1074 720 1073 719 1073 717 1072 716 1072 712 1071 711 1071 706 1070 705 1070 695 1071 694 1071 685 1072 684 1072 680 1073 679 1073 675 1074 674 1074 671 1075 670 1075 669 1076 668 1076 667 1077 666 1077 665 1079 663 1079 662 1080 661 1080 660 1081 659 1081 658 1092 647 1092 646 1093 645 1093 644 1094 643 1094 642 1096 640 1096 639 1097 638 1097 637 1098 636 1098 635 1099 634 1099 632 1100 631 1100 626 1101 625 1101 621 1102 620 1102 609 1103 608 1103 522 1102 521 1102 500 1101 499 1101 485 1100 484 1100 475 1099 474 1099 470 1098 469 1098 466 1097 465 1097 463 1096 462 1096 460 1095 459 1095 457 1094 456 1094 454 1093 453 1093 451 1092 450 1092 448 1091 447 1091 446 1090 445 1090 444 1087 441 1087 440 1083 436 1083 435 1081 433 1081 432 1075 426 1075 425 1071 421 1071 420 1069 418 1069 416 1068 415 1068 414 1067 413 1067 411 1066 410 1066 409 1065 408 1065 406 1064 405 1064 402 1063 401 1063 399 1062 398 1062 397 1061 396 1061 394 1059 392 1059 391 1058 390 1058 389 1056 387 1056 386 1053 383 1053 382 1052 381 1051 381 1050 380 1049 380 1048 379 1047 379 1046 378 1044 378 1043 377 1042 377 1041 376 1041 369 "/></svg>