<svg width="1920" height="1080" xmlns="http://www.w3.org/2000/svg"><path d="M997 294 997 302 990 309 990 310 987 313 987 314 985 316 985 317 983 319 983 329 982 330 982 337 981 338 981 340 980 341 980 342 979 343 979 345 978 346 978 347 977 348 977 349 976 350 976 351 974 353 974 354 972 356 972 357 968 361 967 361 965 363 963 363 962 364 960 364 959 365 957 365 955 367 954 367 953 368 952 368 948 372 947 372 946 373 945 373 944 374 943 374 942 375 941 375 940 376 939 376 938 377 937 377 936 378 935 378 934 379 933 379 932 380 931 380 925 386 925 387 924 388 924 389 923 390 923 391 921 393 921 394 919 396 919 397 918 398 918 399 916 401 916 402 915 403 915 404 914 405 914 406 913 407 913 409 912 410 912 412 911 413 911 415 910 416 910 418 909 419 909 421 908 422 908 426 907 427 907 430 906 431 906 434 905 435 905 436 904 437 904 439 903 440 903 443 902 444 902 448 901 449 901 452 900 453 900 456 899 457 899 461 898 462 898 464 897 465 897 467 896 468 896 470 895 471 895 473 894 474 894 478 893 479 893 482 892 483 892 486 891 487 891 490 890 491 890 496 889 497 889 502 888 503 888 508 887 509 887 514 886 515 886 522 885 523 885 559 884 560 885 561 885 567 886 568 886 572 887 573 887 574 890 577 891 577 892 578 893 578 894 579 896 579 897 580 899 580 900 581 902 581 903 582 907 582 908 583 910 583 911 584 912 584 913 585 913 586 914 587 914 590 915 591 915 595 916 596 916 599 917 600 917 606 918 607 918 618 919 619 919 649 918 650 918 662 917 663 917 678 916 679 916 684 915 685 915 688 914 689 914 691 913 692 913 694 912 695 912 697 911 698 911 701 910 702 910 705 909 706 909 708 908 709 908 711 907 712 907 714 906 715 906 730 907 731 907 733 908 734 908 735 912 739 914 739 915 740 917 740 918 741 920 741 921 742 925 742 926 743 929 743 930 744 936 744 937 743 940 743 941 742 942 742 944 740 945 740 950 735 950 734 951 733 951 727 952 726 952 716 953 715 953 698 954 697 954 682 955 681 955 667 956 666 956 660 957 659 957 655 958 654 958 649 959 648 959 641 960 640 960 630 961 629 961 620 962 619 962 611 963 610 963 604 964 603 964 598 965 597 965 594 966 593 966 592 967 591 967 590 969 588 969 587 970 586 970 585 975 580 975 579 985 569 986 569 987 568 988 568 989 567 990 567 991 566 992 566 993 565 995 565 996 564 999 564 1000 563 1003 563 1004 564 1005 564 1006 565 1008 565 1009 566 1010 566 1011 567 1012 567 1018 573 1018 574 1022 578 1022 579 1023 580 1023 581 1024 582 1024 583 1025 584 1025 586 1026 587 1026 588 1027 589 1027 591 1028 592 1028 595 1029 596 1029 607 1030 608 1030 624 1031 625 1031 637 1030 638 1030 650 1031 651 1031 669 1032 670 1032 701 1031 702 1031 710 1030 711 1030 733 1036 739 1037 739 1038 740 1039 740 1040 741 1042 741 1043 742 1045 742 1046 743 1051 743 1052 744 1063 744 1064 745 1065 744 1068 744 1069 743 1072 743 1073 742 1075 742 1076 741 1077 741 1082 736 1082 735 1083 734 1083 731 1081 729 1081 728 1080 727 1080 726 1079 725 1079 724 1078 723 1078 721 1077 720 1077 718 1076 717 1076 715 1075 714 1075 711 1074 710 1074 708 1073 707 1073 705 1072 704 1072 701 1071 700 1071 687 1070 686 1070 679 1071 678 1071 669 1072 668 1072 663 1073 662 1073 659 1074 658 1074 656 1075 655 1075 651 1076 650 1076 647 1077 646 1077 642 1078 641 1078 638 1079 637 1079 635 1080 634 1080 632 1081 631 1081 630 1082 629 1082 628 1083 627 1083 626 1084 625 1084 624 1086 622 1086 621 1092 615 1092 614 1094 612 1094 611 1095 610 1095 609 1096 608 1096 607 1097 606 1097 605 1098 604 1098 603 1100 601 1100 600 1101 599 1101 597 1102 596 1102 594 1103 593 1103 589 1104 588 1104 585 1105 584 1105 580 1106 579 1106 573 1107 572 1107 565 1108 564 1108 528 1107 527 1107 518 1106 517 1106 506 1105 505 1105 496 1104 495 1104 481 1103 480 1103 463 1102 462 1102 435 1101 434 1101 429 1100 428 1100 424 1099 423 1099 417 1098 416 1098 409 1097 408 1097 403 1096 402 1096 398 1095 397 1095 393 1094 392 1094 388 1093 387 1093 385 1092 384 1092 383 1091 382 1091 381 1089 379 1089 378 1088 377 1088 376 1087 375 1087 374 1086 373 1086 372 1085 371 1085 370 1083 368 1083 367 1078 362 1077 362 1073 358 1073 357 1071 355 1071 354 1070 353 1070 352 1069 351 1069 350 1068 349 1068 348 1067 347 1067 346 1066 345 1066 344 1065 343 1065 342 1063 340 1063 339 1061 337 1061 335 1060 334 1060 332 1059 331 1059 329 1058 328 1058 326 1057 325 1057 324 1056 323 1056 322 1055 321 1055 320 1053 318 1053 317 1049 313 1048 313 1043 308 1042 308 1039 305 1039 304 1038 303 1037 303 1036 302 1036 294 "/></svg>