<svg width="1920" height="1080" xmlns="http://www.w3.org/2000/svg"><path d="M1018 355 1017 356 1013 356 1012 357 1009 357 1008 358 1006 358 1005 359 1003 359 1002 360 1001 360 1000 361 999 361 992 368 992 369 990 371 990 372 988 374 988 375 987 376 987 377 986 378 986 380 985 381 985 382 984 383 984 384 983 385 983 386 981 388 981 389 979 391 979 392 978 393 978 394 977 395 977 396 976 397 976 398 970 404 969 404 967 406 966 406 963 409 962 409 957 414 956 414 954 416 953 416 952 417 951 417 950 418 949 418 948 419 947 419 946 420 945 420 944 421 943 421 941 423 940 423 928 435 927 435 921 441 921 442 919 444 919 445 917 447 917 448 915 450 915 451 914 452 914 453 913 454 913 455 912 456 912 457 911 458 911 459 910 460 910 462 909 463 909 464 908 465 908 467 907 468 907 470 906 471 906 473 905 474 905 476 904 477 904 479 903 480 903 482 902 483 902 485 901 486 901 488 900 489 900 490 899 491 899 493 898 494 898 496 897 497 897 499 896 500 896 502 895 503 895 507 894 508 894 512 893 513 893 515 892 516 892 519 891 520 891 522 890 523 890 526 889 527 889 530 888 531 888 534 887 535 887 540 886 541 886 544 885 545 885 548 884 549 884 554 883 555 883 558 882 559 882 563 881 564 881 568 880 569 880 574 879 575 879 582 878 583 878 589 877 590 877 603 876 604 876 610 877 611 877 614 878 615 878 617 879 618 879 620 880 621 880 623 881 624 881 625 883 625 884 626 887 626 888 627 900 627 901 626 902 626 903 625 904 625 905 624 905 612 906 611 906 603 907 602 907 595 908 594 908 589 909 588 909 584 910 583 910 579 911 578 911 577 912 576 912 575 913 574 913 573 914 572 914 570 915 569 915 568 916 567 916 566 917 565 918 565 919 566 919 568 920 569 920 572 921 573 921 577 922 578 922 600 921 601 921 613 920 614 920 618 919 619 919 622 918 623 918 624 917 625 918 626 918 632 919 633 919 661 918 662 918 669 917 670 917 680 916 681 916 688 915 689 915 693 914 694 914 698 913 699 913 702 912 703 912 704 911 705 911 707 910 708 910 709 908 711 908 712 907 713 907 715 906 716 906 722 905 723 905 730 904 731 905 732 905 733 907 735 907 736 909 738 910 738 911 739 912 739 913 740 914 740 915 741 916 741 917 742 918 742 919 743 923 743 924 744 930 744 931 745 932 744 933 745 936 745 939 742 940 742 942 740 943 740 946 737 946 736 948 734 948 733 949 732 949 727 950 726 950 715 951 714 951 706 952 705 952 699 953 698 953 695 954 694 954 690 955 689 955 684 956 683 956 676 957 675 957 668 958 667 958 660 959 659 959 652 960 651 960 647 961 646 961 643 962 642 962 639 963 638 963 634 964 633 964 630 965 629 965 625 966 624 966 621 967 620 967 617 968 616 968 614 969 613 969 610 970 609 970 608 971 607 971 606 973 604 973 603 975 601 975 600 977 598 977 597 979 595 979 594 985 588 986 588 988 586 989 586 990 585 992 585 993 584 995 584 996 583 998 583 999 582 1005 582 1006 583 1010 583 1011 584 1013 584 1014 585 1017 585 1019 587 1020 587 1027 594 1027 595 1029 597 1029 598 1030 599 1030 600 1031 601 1031 603 1032 604 1032 606 1033 607 1033 612 1034 613 1034 623 1035 624 1035 626 1034 627 1034 645 1033 646 1033 706 1032 707 1032 717 1031 718 1031 732 1033 734 1033 735 1035 737 1036 737 1037 738 1038 738 1039 739 1041 739 1042 740 1044 740 1045 741 1050 741 1051 742 1064 742 1065 741 1066 741 1067 740 1069 740 1070 739 1071 739 1076 734 1076 733 1077 732 1077 731 1076 730 1076 729 1075 728 1075 727 1074 726 1074 725 1073 724 1073 722 1072 721 1072 720 1071 719 1071 717 1070 716 1070 712 1069 711 1069 705 1068 704 1068 685 1069 684 1069 680 1070 679 1070 675 1071 674 1071 671 1072 670 1072 668 1073 667 1073 666 1074 665 1074 663 1075 662 1075 660 1076 659 1076 658 1077 657 1077 655 1078 654 1078 653 1079 652 1079 651 1080 650 1080 649 1088 641 1088 640 1091 637 1091 636 1093 634 1093 633 1095 631 1095 630 1097 628 1097 627 1098 626 1098 625 1099 624 1099 623 1100 622 1100 620 1101 619 1101 616 1102 615 1102 613 1103 612 1103 605 1104 604 1104 593 1105 592 1105 557 1106 556 1106 547 1105 546 1105 517 1104 516 1104 491 1103 490 1103 472 1102 471 1102 465 1101 464 1101 459 1100 458 1100 454 1099 453 1099 451 1098 450 1098 448 1097 447 1097 444 1096 443 1096 440 1095 439 1095 436 1094 435 1094 432 1093 431 1093 429 1092 428 1092 426 1091 425 1091 424 1090 423 1090 422 1089 421 1089 420 1088 419 1088 418 1087 417 1087 416 1086 415 1086 413 1085 412 1085 411 1084 410 1084 409 1082 407 1082 406 1079 403 1079 402 1077 400 1077 399 1076 398 1076 397 1075 396 1075 395 1074 394 1074 393 1073 392 1073 391 1071 389 1071 388 1070 387 1070 385 1069 384 1069 383 1068 382 1068 380 1067 379 1067 378 1066 377 1066 376 1065 375 1065 374 1060 369 1060 368 1054 362 1053 362 1052 361 1051 361 1050 360 1048 360 1047 359 1044 359 1043 358 1041 358 1040 357 1037 357 1036 356 1028 356 1027 355 "/></svg>