<svg width="1920" height="1080" xmlns="http://www.w3.org/2000/svg"><path d="M999 266 999 275 987 287 987 288 985 290 985 291 984 292 984 293 983 294 983 296 982 297 982 299 981 300 981 302 980 303 980 306 979 307 979 310 978 311 978 313 977 314 977 315 976 316 976 317 975 318 975 319 973 321 973 322 971 324 971 325 970 326 970 327 969 328 969 329 963 335 962 335 960 337 959 337 958 338 957 338 956 339 955 339 954 340 953 340 951 342 950 342 946 346 945 346 940 351 939 351 938 352 937 352 935 354 934 354 933 355 932 355 931 356 930 356 929 357 928 357 924 361 924 362 922 364 922 365 921 366 921 367 920 368 920 369 915 374 915 375 913 377 913 378 911 380 911 381 910 382 910 383 909 384 909 385 908 386 908 387 907 388 907 390 906 391 906 392 905 393 905 395 904 396 904 398 903 399 903 401 902 402 902 404 901 405 901 407 900 408 900 409 899 410 899 412 898 413 898 415 897 416 897 419 896 420 896 423 895 424 895 428 894 429 894 431 893 432 893 435 892 436 892 439 891 440 891 443 890 444 890 449 889 450 889 454 888 455 888 461 887 462 887 468 886 469 886 475 885 476 885 485 884 486 884 492 883 493 883 496 882 497 882 500 881 501 881 507 880 508 880 516 879 517 879 530 878 531 878 545 879 546 879 548 880 549 880 551 881 552 881 553 882 554 884 554 885 555 888 555 889 556 899 556 901 554 901 553 903 551 903 550 904 549 904 548 905 547 905 546 906 545 906 539 907 538 907 531 908 530 908 524 909 523 909 518 910 517 910 512 911 511 911 508 912 507 912 505 913 504 913 502 914 501 914 499 915 498 915 496 916 495 916 492 917 491 917 482 918 481 919 482 919 492 920 493 920 500 921 501 921 515 922 516 922 530 921 531 921 547 920 548 920 557 919 558 919 566 920 567 920 573 921 574 921 591 920 592 920 636 919 637 919 643 918 644 918 650 917 651 917 663 916 664 916 674 915 675 915 680 914 681 914 686 913 687 913 691 912 692 912 695 911 696 911 699 910 700 910 701 909 702 909 704 908 705 908 711 907 712 907 722 906 723 906 724 907 725 907 727 909 729 909 730 916 737 917 737 919 739 920 739 921 740 922 740 923 741 924 741 926 743 929 743 930 744 934 744 935 745 937 745 939 743 940 743 947 736 947 735 948 734 948 733 950 731 950 729 951 728 951 727 952 726 952 719 953 718 953 702 954 701 954 686 955 685 955 678 956 677 956 665 957 664 957 648 958 647 958 638 959 637 959 626 960 625 960 615 961 614 961 605 962 604 962 597 963 596 963 592 964 591 964 589 965 588 965 585 966 584 966 582 967 581 967 579 968 578 968 577 969 576 969 575 970 574 970 573 972 571 972 570 976 566 976 565 978 563 978 562 981 559 981 558 985 554 986 554 992 548 994 548 995 547 998 547 999 546 1003 546 1004 547 1005 547 1006 548 1007 548 1008 549 1010 549 1015 554 1016 554 1021 559 1021 560 1023 562 1023 563 1024 564 1024 565 1025 566 1025 567 1026 568 1026 569 1027 570 1027 571 1028 572 1028 573 1029 574 1029 575 1030 576 1030 577 1031 578 1031 580 1032 581 1032 584 1033 585 1033 589 1034 590 1034 594 1035 595 1035 601 1036 602 1036 627 1035 628 1035 653 1034 654 1034 679 1033 680 1033 712 1032 713 1032 725 1033 726 1033 727 1034 728 1034 729 1039 734 1041 734 1042 735 1043 735 1044 736 1046 736 1047 737 1051 737 1052 738 1056 738 1057 739 1066 739 1067 738 1069 738 1070 737 1072 737 1073 736 1074 736 1078 732 1078 731 1079 730 1079 729 1080 728 1080 726 1081 725 1081 724 1080 723 1080 722 1079 721 1079 720 1078 719 1078 717 1077 716 1077 714 1076 713 1076 710 1075 709 1075 707 1074 706 1074 699 1073 698 1073 690 1072 689 1072 687 1073 686 1073 670 1074 669 1074 664 1075 663 1075 659 1076 658 1076 652 1077 651 1077 646 1078 645 1078 639 1079 638 1079 632 1080 631 1080 625 1081 624 1081 620 1082 619 1082 616 1083 615 1083 613 1084 612 1084 610 1085 609 1085 608 1086 607 1086 606 1087 605 1087 604 1089 602 1089 601 1092 598 1092 596 1093 595 1093 594 1094 593 1094 592 1095 591 1095 590 1100 585 1101 585 1104 582 1104 581 1105 580 1105 579 1106 578 1106 576 1107 575 1107 573 1108 572 1108 571 1109 570 1109 568 1110 567 1110 566 1111 565 1111 563 1112 562 1112 554 1113 553 1113 531 1112 530 1112 522 1111 521 1111 517 1110 516 1110 512 1109 511 1109 507 1108 506 1108 501 1107 500 1107 495 1106 494 1106 487 1105 486 1105 480 1104 479 1104 472 1103 471 1103 455 1102 454 1102 448 1101 447 1101 441 1100 440 1100 433 1101 432 1101 421 1102 420 1102 418 1101 417 1101 411 1100 410 1100 404 1099 403 1099 395 1098 394 1098 387 1097 386 1097 381 1096 380 1096 378 1095 377 1095 374 1094 373 1094 371 1093 370 1093 368 1092 367 1092 364 1091 363 1091 362 1090 361 1090 359 1089 358 1089 357 1088 356 1088 355 1087 354 1087 353 1086 352 1086 350 1084 348 1084 347 1083 346 1083 345 1082 344 1082 343 1080 341 1080 340 1079 339 1079 338 1077 336 1077 335 1075 333 1075 332 1074 331 1074 330 1073 329 1073 328 1072 327 1072 325 1071 324 1071 322 1070 321 1070 319 1069 318 1069 315 1068 314 1068 312 1067 311 1067 309 1066 308 1066 306 1065 305 1065 303 1064 302 1064 300 1063 299 1063 298 1062 297 1062 295 1061 294 1061 293 1060 292 1060 291 1059 290 1059 289 1057 287 1057 286 1056 285 1055 285 1053 283 1052 283 1051 282 1050 282 1049 281 1048 281 1046 279 1045 279 1041 275 1041 266 "/></svg>