<svg width="1920" height="1080" xmlns="http://www.w3.org/2000/svg"><path d="M1001 255 1001 263 997 267 996 267 993 270 992 270 987 275 986 275 983 278 983 279 982 280 982 281 981 282 981 283 980 284 980 286 979 287 979 288 978 289 978 291 977 292 977 293 976 294 976 296 975 297 975 298 974 299 974 300 973 301 973 302 972 303 972 304 970 306 970 307 968 309 968 310 964 314 964 315 962 317 962 318 961 319 961 320 954 327 953 327 952 328 951 328 949 330 948 330 947 331 946 331 945 332 944 332 943 333 942 333 941 334 940 334 939 335 938 335 927 346 926 346 921 351 921 352 918 355 918 356 917 357 917 358 915 360 915 361 913 363 913 364 911 366 911 367 908 370 908 371 907 372 907 373 906 374 906 376 905 377 905 379 904 380 904 382 903 383 903 385 902 386 902 388 901 389 901 390 900 391 900 392 899 393 899 395 898 396 898 399 897 400 897 402 896 403 896 406 895 407 895 409 894 410 894 414 893 415 893 418 892 419 892 421 891 422 891 425 890 426 890 428 889 429 889 431 888 432 888 439 887 440 887 448 886 449 886 456 885 457 885 462 884 463 884 468 883 469 883 475 882 476 882 481 881 482 881 485 880 486 880 492 879 493 879 501 878 502 878 529 879 530 879 533 880 534 880 537 883 540 883 541 884 542 885 542 886 543 887 543 888 544 894 544 895 543 897 543 898 542 899 542 902 539 902 538 903 537 903 536 904 535 904 534 905 533 905 531 906 530 906 527 907 526 907 500 908 499 908 492 909 491 909 486 910 485 910 475 911 474 911 467 912 466 912 465 913 464 913 463 914 462 914 461 916 459 916 458 918 456 920 458 920 459 922 461 922 462 923 463 923 465 924 466 924 470 923 471 923 475 922 476 922 483 921 484 921 512 920 513 920 528 919 529 919 546 918 547 918 563 919 564 919 570 920 571 920 586 919 587 919 594 918 595 918 605 917 606 917 626 918 627 918 637 917 638 917 647 916 648 916 670 915 671 915 677 914 678 914 684 913 685 913 690 912 691 912 694 911 695 911 698 910 699 910 701 909 702 909 703 908 704 908 706 907 707 907 727 908 728 908 729 911 732 912 732 914 734 915 734 917 736 919 736 920 737 921 737 922 738 923 738 924 739 926 739 927 740 930 740 931 741 935 741 936 742 937 742 938 741 939 741 940 740 941 740 942 739 943 739 944 738 945 738 948 735 948 734 950 732 950 731 951 730 951 729 952 728 952 719 953 718 953 704 954 703 954 691 955 690 955 680 956 679 956 651 957 650 957 643 958 642 958 633 959 632 959 615 960 614 960 604 961 603 961 595 962 594 962 589 963 588 963 583 964 582 964 579 965 578 965 577 967 575 967 574 968 573 968 572 971 569 971 568 987 552 988 552 991 549 992 549 994 547 999 547 1000 546 1004 546 1005 547 1007 547 1008 548 1011 548 1012 549 1013 549 1014 550 1015 550 1025 560 1025 561 1026 562 1026 563 1027 564 1027 565 1028 566 1028 567 1029 568 1029 569 1030 570 1030 571 1031 572 1031 573 1032 574 1032 575 1033 576 1033 578 1034 579 1034 583 1035 584 1035 588 1036 589 1036 594 1037 595 1037 630 1036 631 1036 660 1035 661 1035 686 1034 687 1034 702 1033 703 1033 725 1032 726 1032 727 1034 729 1034 730 1039 735 1040 735 1041 736 1042 736 1043 737 1047 737 1048 738 1055 738 1056 739 1070 739 1071 738 1073 738 1074 737 1075 737 1076 736 1077 736 1078 735 1079 735 1081 733 1081 732 1082 731 1082 730 1083 729 1083 728 1084 727 1083 726 1083 725 1082 724 1082 723 1081 722 1081 721 1080 720 1080 718 1079 717 1079 716 1078 715 1078 713 1077 712 1077 710 1076 709 1076 703 1075 702 1075 693 1074 692 1074 683 1075 682 1075 664 1076 663 1076 656 1077 655 1077 650 1078 649 1078 646 1079 645 1079 642 1080 641 1080 637 1081 636 1081 629 1082 628 1082 620 1083 619 1083 614 1084 613 1084 610 1085 609 1085 607 1086 606 1086 604 1087 603 1087 602 1088 601 1088 599 1089 598 1089 597 1090 596 1090 595 1091 594 1091 593 1093 591 1093 590 1108 575 1108 574 1109 573 1109 571 1110 570 1110 569 1111 568 1111 567 1112 566 1112 565 1113 564 1113 562 1114 561 1114 559 1115 558 1115 555 1116 554 1116 552 1117 551 1117 547 1118 546 1118 532 1117 531 1117 522 1116 521 1116 517 1115 516 1115 512 1114 511 1114 506 1113 505 1113 500 1112 499 1112 494 1111 493 1111 488 1110 487 1110 482 1109 481 1109 476 1108 475 1108 471 1107 470 1107 468 1106 467 1106 461 1105 460 1105 453 1104 452 1104 446 1103 445 1103 440 1102 439 1102 434 1101 433 1101 400 1100 399 1100 387 1099 386 1099 378 1098 377 1098 373 1097 372 1097 368 1096 367 1096 363 1095 362 1095 358 1094 357 1094 354 1093 353 1093 350 1092 349 1092 347 1091 346 1091 345 1090 344 1090 342 1089 341 1089 340 1088 339 1088 338 1087 337 1087 335 1086 334 1086 333 1085 332 1085 331 1084 330 1084 329 1083 328 1083 327 1082 326 1082 325 1081 324 1081 323 1080 322 1080 321 1079 320 1079 319 1078 318 1078 316 1077 315 1077 314 1076 313 1076 312 1075 311 1075 309 1074 308 1074 307 1073 306 1073 304 1072 303 1072 302 1071 301 1071 299 1070 298 1070 297 1068 295 1068 294 1066 292 1066 291 1064 289 1064 288 1061 285 1061 284 1053 276 1052 276 1051 275 1050 275 1048 273 1047 273 1045 271 1044 271 1042 269 1041 269 1039 267 1038 267 1036 265 1035 265 1034 264 1034 255 "/></svg>