<svg width="1920" height="1080" xmlns="http://www.w3.org/2000/svg"><path d="M1024 342 1023 343 1017 343 1016 344 1013 344 1012 345 1010 345 1009 346 1007 346 1006 347 1005 347 1004 348 1002 348 1001 349 1000 349 992 357 992 358 990 360 990 361 989 362 989 363 988 364 988 366 987 367 987 368 986 369 986 370 985 371 985 372 984 373 984 374 981 377 981 378 977 382 977 383 975 385 975 386 968 393 967 393 965 395 964 395 963 396 962 396 961 397 960 397 959 398 958 398 957 399 956 399 955 400 954 400 946 408 945 408 944 409 943 409 942 410 941 410 940 411 939 411 938 412 937 412 935 414 934 414 927 421 927 422 925 424 925 425 921 429 921 430 917 434 917 436 916 437 916 438 915 439 915 440 914 441 914 442 913 443 913 445 912 446 912 447 911 448 911 449 910 450 910 451 909 452 909 453 908 454 908 456 907 457 907 460 906 461 906 463 905 464 905 466 904 467 904 469 903 470 903 471 902 472 902 474 901 475 901 476 900 477 900 478 899 479 899 480 898 481 898 483 897 484 897 487 896 488 896 489 895 490 895 492 894 493 894 495 893 496 893 498 892 499 892 501 891 502 891 503 890 504 890 507 889 508 889 510 888 511 888 515 887 516 887 521 886 522 886 526 885 527 885 532 884 533 884 536 883 537 883 539 882 540 882 543 881 544 881 551 880 552 880 561 879 562 879 570 878 571 878 579 877 580 877 589 876 590 876 600 877 601 877 609 878 610 878 611 879 612 879 613 881 615 881 616 882 616 883 617 885 617 886 618 888 618 889 619 894 619 895 620 901 620 902 619 902 618 905 615 905 614 906 613 906 612 907 611 907 609 908 608 908 606 909 605 909 602 910 601 910 598 911 597 911 593 912 592 912 575 913 574 913 572 914 571 914 569 915 568 915 566 916 565 916 563 917 562 917 561 918 560 919 561 919 564 920 565 920 570 921 571 921 602 920 603 920 613 919 614 919 619 917 621 917 624 918 625 918 627 919 628 919 635 920 636 920 657 919 658 919 663 918 664 918 670 917 671 917 681 916 682 916 688 915 689 915 693 914 694 914 697 913 698 913 701 912 702 912 703 911 704 911 705 910 706 910 707 909 708 909 709 908 710 908 711 907 712 907 713 906 714 906 716 905 717 905 726 904 727 904 733 907 736 907 737 908 738 909 738 910 739 911 739 912 740 914 740 915 741 916 741 917 742 919 742 920 743 924 743 925 744 937 744 938 743 939 743 941 741 942 741 947 736 947 735 948 734 948 733 949 732 949 724 950 723 950 711 951 710 951 701 952 700 952 695 953 694 953 689 954 688 954 684 955 683 955 678 956 677 956 671 957 670 957 664 958 663 958 657 959 656 959 649 960 648 960 642 961 641 961 636 962 635 962 628 963 627 963 622 964 621 964 617 965 616 965 612 966 611 966 607 967 606 967 605 968 604 968 603 969 602 969 601 970 600 970 599 971 598 971 597 974 594 974 593 976 591 976 590 983 583 984 583 985 582 986 582 988 580 989 580 990 579 991 579 992 578 995 578 996 577 997 577 998 576 1005 576 1006 577 1009 577 1010 578 1011 578 1012 579 1013 579 1014 580 1015 580 1016 581 1017 581 1018 582 1019 582 1024 587 1024 588 1026 590 1026 591 1027 592 1027 594 1028 595 1028 596 1029 597 1029 598 1030 599 1030 600 1031 601 1031 603 1032 604 1032 609 1033 610 1033 622 1034 623 1033 624 1033 648 1032 649 1032 667 1033 668 1033 701 1032 702 1032 716 1031 717 1031 733 1037 739 1039 739 1040 740 1043 740 1044 741 1050 741 1051 742 1066 742 1067 741 1069 741 1070 740 1072 740 1073 739 1074 739 1076 737 1077 737 1078 736 1078 735 1080 733 1080 732 1079 731 1079 730 1078 729 1078 728 1077 727 1077 726 1076 725 1076 724 1075 723 1075 722 1074 721 1074 719 1073 718 1073 716 1072 715 1072 712 1071 711 1071 707 1070 706 1070 680 1071 679 1071 674 1072 673 1072 669 1073 668 1073 667 1074 666 1074 664 1075 663 1075 662 1076 661 1076 659 1077 658 1077 656 1078 655 1078 653 1079 652 1079 651 1080 650 1080 649 1081 648 1081 647 1087 641 1087 640 1090 637 1090 636 1096 630 1096 629 1099 626 1099 625 1101 623 1101 622 1102 621 1102 617 1103 616 1103 613 1104 612 1104 608 1105 607 1105 586 1106 585 1106 525 1105 524 1105 480 1104 479 1104 461 1103 460 1103 454 1102 453 1102 449 1101 448 1101 446 1100 445 1100 442 1099 441 1099 438 1098 437 1098 433 1097 432 1097 429 1096 428 1096 426 1095 425 1095 422 1094 421 1094 419 1093 418 1093 416 1092 415 1092 414 1091 413 1091 412 1090 411 1090 410 1089 409 1089 408 1088 407 1088 405 1087 404 1087 403 1086 402 1086 401 1085 400 1085 399 1082 396 1082 395 1080 393 1080 392 1079 391 1079 390 1077 388 1077 387 1076 386 1076 384 1074 382 1074 381 1073 380 1073 379 1072 378 1072 377 1071 376 1071 375 1070 374 1070 372 1069 371 1069 369 1068 368 1068 367 1067 366 1067 364 1066 363 1066 362 1065 361 1065 360 1062 357 1062 356 1059 353 1059 352 1056 349 1054 349 1053 348 1051 348 1050 347 1047 347 1046 346 1044 346 1043 345 1042 345 1041 344 1039 344 1038 343 1031 343 1030 342 "/></svg>