<svg width="1920" height="1080" xmlns="http://www.w3.org/2000/svg"><path d="M1014 333 1013 334 1008 334 1007 335 1004 335 1003 336 1001 336 1000 337 999 337 998 338 997 338 995 340 994 340 990 344 990 346 989 347 989 348 988 349 988 351 987 352 987 353 986 354 986 356 985 357 985 359 984 360 984 361 983 362 983 363 981 365 981 366 980 367 980 368 979 369 979 370 977 372 977 373 976 374 976 375 975 376 975 377 969 383 968 383 965 386 964 386 963 387 962 387 961 388 960 388 959 389 958 389 957 390 955 390 950 395 949 395 947 397 946 397 945 398 944 398 943 399 942 399 941 400 940 400 939 401 938 401 937 402 936 402 935 403 934 403 933 404 932 404 930 406 929 406 927 408 927 409 925 411 925 412 923 414 923 415 918 420 918 421 917 422 917 423 916 424 916 425 915 426 915 428 914 429 914 430 913 431 913 433 912 434 912 435 911 436 911 437 910 438 910 439 909 440 909 442 908 443 908 446 907 447 907 449 906 450 906 453 905 454 905 457 904 458 904 460 903 461 903 463 902 464 902 466 901 467 901 468 900 469 900 471 899 472 899 474 898 475 898 477 897 478 897 480 896 481 896 483 895 484 895 486 894 487 894 489 893 490 893 493 892 494 892 496 891 497 891 498 890 499 890 501 889 502 889 504 888 505 888 510 887 511 887 515 886 516 886 520 885 521 885 524 884 525 884 528 883 529 883 531 882 532 882 534 881 535 881 539 880 540 880 546 879 547 879 555 878 556 878 563 877 564 877 573 876 574 876 582 875 583 875 589 876 590 876 597 877 598 877 602 878 603 878 604 880 606 880 607 881 608 893 608 894 607 895 607 896 606 897 606 898 605 899 605 901 603 902 603 905 600 905 599 906 598 906 596 907 595 907 593 908 592 908 589 909 588 909 576 908 575 908 569 909 568 909 567 910 566 910 563 911 562 911 560 912 559 912 558 913 557 913 555 914 554 914 552 915 551 915 550 916 549 916 548 917 547 917 546 918 545 919 546 919 548 920 549 920 553 921 554 921 564 922 565 922 574 921 575 921 588 920 589 920 603 919 604 919 609 918 610 918 611 917 612 917 616 916 617 916 619 917 620 917 625 918 626 918 633 919 634 919 654 918 655 918 661 917 662 917 671 916 672 916 684 915 685 915 689 914 690 914 694 913 695 913 698 912 699 912 701 911 702 911 703 910 704 910 705 909 706 909 707 908 708 908 709 907 710 907 711 906 712 906 714 905 715 905 723 904 724 904 732 907 735 907 736 909 738 911 738 912 739 913 739 914 740 915 740 916 741 918 741 919 742 922 742 923 743 926 743 927 744 938 744 940 742 941 742 943 740 944 740 947 737 947 736 949 734 949 733 950 732 950 726 951 725 951 712 952 711 952 698 953 697 953 691 954 690 954 685 955 684 955 677 956 676 956 669 957 668 957 662 958 661 958 655 959 654 959 646 960 645 960 638 961 637 961 631 962 630 962 623 963 622 963 616 964 615 964 611 965 610 965 606 966 605 966 602 967 601 967 600 968 599 968 598 969 597 969 596 971 594 971 593 975 589 975 588 984 579 985 579 987 577 988 577 989 576 990 576 991 575 992 575 993 574 995 574 996 573 998 573 999 572 1007 572 1008 573 1011 573 1012 574 1013 574 1014 575 1015 575 1016 576 1018 576 1020 578 1021 578 1023 580 1023 581 1026 584 1026 585 1028 587 1028 588 1029 589 1029 590 1030 591 1030 592 1031 593 1031 595 1032 596 1032 598 1033 599 1033 601 1034 602 1034 627 1033 628 1033 646 1032 647 1032 672 1033 673 1033 696 1032 697 1032 708 1031 709 1031 716 1030 717 1030 722 1029 723 1029 728 1028 729 1028 731 1029 732 1029 733 1032 736 1033 736 1036 739 1037 739 1038 740 1039 740 1040 741 1044 741 1045 742 1052 742 1053 743 1065 743 1066 742 1069 742 1070 741 1072 741 1073 740 1074 740 1076 738 1077 738 1078 737 1078 736 1081 733 1081 730 1079 728 1079 727 1078 726 1078 725 1077 724 1077 723 1076 722 1076 721 1075 720 1075 718 1074 717 1074 716 1073 715 1073 711 1072 710 1072 706 1071 705 1071 678 1072 677 1072 672 1073 671 1073 668 1074 667 1074 665 1075 664 1075 662 1076 661 1076 659 1077 658 1077 656 1078 655 1078 653 1079 652 1079 650 1080 649 1080 648 1081 647 1081 646 1082 645 1082 644 1087 639 1087 638 1090 635 1090 634 1091 633 1091 632 1095 628 1095 627 1099 623 1099 622 1102 619 1102 617 1103 616 1103 614 1104 613 1104 609 1105 608 1105 604 1106 603 1106 594 1107 593 1107 576 1108 575 1108 518 1107 517 1107 502 1106 501 1106 484 1105 483 1105 473 1104 472 1104 457 1103 456 1103 453 1102 452 1102 448 1101 447 1101 444 1100 443 1100 439 1099 438 1099 433 1098 432 1098 427 1097 426 1097 422 1096 421 1096 417 1095 416 1095 413 1094 412 1094 410 1093 409 1093 407 1092 406 1092 404 1091 403 1091 401 1090 400 1090 399 1089 398 1089 396 1088 395 1088 393 1087 392 1087 391 1086 390 1086 389 1083 386 1083 385 1080 382 1080 381 1078 379 1078 378 1076 376 1076 375 1075 374 1075 373 1073 371 1073 370 1071 368 1071 367 1070 366 1070 365 1068 363 1068 362 1066 360 1066 359 1065 358 1065 357 1063 355 1063 354 1060 351 1060 350 1056 346 1055 346 1052 343 1051 343 1050 342 1049 342 1048 341 1047 341 1045 339 1044 339 1043 338 1042 338 1041 337 1040 337 1039 336 1036 336 1035 335 1031 335 1030 334 1024 334 1023 333 "/></svg>