<svg width="1920" height="1080" xmlns="http://www.w3.org/2000/svg"><path d="M996 393 996 399 995 400 995 401 992 404 992 405 989 408 989 409 987 411 987 413 986 414 986 415 985 416 985 418 984 419 984 420 983 421 983 423 982 424 982 425 981 426 981 427 980 428 980 429 979 430 979 431 977 433 977 434 976 435 976 436 974 438 974 439 967 446 966 446 964 448 963 448 961 450 960 450 958 452 957 452 955 454 954 454 952 456 951 456 950 457 949 457 947 459 946 459 945 460 944 460 942 462 941 462 927 476 927 477 925 479 925 480 923 482 923 483 918 488 918 489 917 490 917 491 916 492 916 493 915 494 915 495 914 496 914 497 913 498 913 499 911 501 911 502 910 503 910 504 909 505 909 506 908 507 908 509 907 510 907 512 906 513 906 514 905 515 905 517 904 518 904 519 903 520 903 521 902 522 902 523 901 524 901 525 900 526 900 528 899 529 899 531 898 532 898 533 897 534 897 536 896 537 896 538 895 539 895 540 894 541 894 542 893 543 893 544 892 545 892 546 891 547 891 549 890 550 890 551 889 552 889 554 888 555 888 557 887 558 887 560 886 561 886 562 885 563 885 565 884 566 884 567 883 568 883 569 881 571 881 573 880 574 880 577 879 578 879 580 878 581 878 584 877 585 877 587 876 588 876 590 875 591 875 592 874 593 874 594 873 595 873 596 872 597 872 599 871 600 871 603 870 604 870 608 869 609 869 613 868 614 868 617 867 618 867 621 866 622 866 625 865 626 865 628 864 629 864 630 862 632 858 632 858 659 862 659 868 665 869 665 870 666 871 666 872 667 873 666 874 666 883 657 883 656 885 654 885 653 886 652 886 649 887 648 887 644 888 643 888 640 889 639 889 636 890 635 890 632 891 631 891 628 892 627 892 625 893 624 893 623 894 622 894 620 895 619 895 618 896 617 896 616 897 615 897 613 898 612 898 611 899 610 899 609 900 608 900 607 901 606 901 605 903 603 903 602 905 600 905 599 906 598 906 597 907 596 907 595 910 592 910 591 911 590 913 590 914 589 916 589 917 588 918 588 919 587 920 587 921 586 922 586 923 585 924 585 926 583 926 582 927 581 927 579 928 578 928 572 931 569 933 571 933 583 932 584 932 585 933 586 933 589 934 590 934 596 935 597 935 603 934 604 934 623 935 624 935 631 934 632 934 645 933 646 933 651 932 652 932 662 931 663 931 667 930 668 930 670 929 671 929 674 928 675 928 679 927 680 927 683 926 684 926 688 925 689 925 692 924 693 924 695 923 696 923 698 922 699 922 701 921 702 921 703 920 704 920 705 919 706 919 708 918 709 918 710 917 711 917 713 916 714 916 715 915 716 915 718 914 719 914 723 913 724 913 727 912 728 912 733 914 735 914 736 916 738 916 739 918 741 918 742 921 745 923 745 924 746 926 746 927 747 930 747 931 748 932 747 933 747 934 746 935 746 936 745 937 745 940 742 941 742 942 741 942 740 945 737 945 736 946 735 946 734 947 733 947 732 948 731 948 728 949 727 949 724 950 723 950 719 951 718 951 716 952 715 952 714 953 713 953 711 954 710 954 708 955 707 955 704 956 703 956 700 957 699 957 697 958 696 958 694 959 693 959 690 960 689 960 687 961 686 961 682 962 681 962 678 963 677 963 674 964 673 964 671 965 670 965 668 966 667 966 666 967 665 967 664 968 663 968 662 969 661 969 660 970 659 970 658 972 656 972 655 973 654 973 653 974 652 974 651 975 650 975 649 985 639 986 639 990 635 991 635 992 634 995 634 996 633 998 633 999 632 1001 632 1002 633 1005 633 1006 634 1009 634 1014 639 1014 640 1022 648 1022 649 1023 650 1023 651 1024 652 1024 656 1025 657 1025 661 1026 662 1026 669 1027 670 1027 676 1028 677 1028 718 1029 719 1029 731 1035 737 1036 737 1038 739 1040 739 1041 740 1045 740 1046 741 1056 741 1057 742 1058 742 1059 741 1062 741 1063 740 1066 740 1067 739 1068 739 1071 736 1072 736 1072 735 1076 731 1075 730 1075 719 1074 718 1074 715 1073 714 1073 711 1072 710 1072 707 1071 706 1071 687 1070 686 1070 681 1069 680 1069 676 1070 675 1070 671 1071 670 1071 667 1072 666 1072 652 1073 651 1073 649 1075 647 1075 646 1077 644 1078 644 1079 645 1079 648 1080 649 1080 651 1081 652 1081 654 1082 655 1082 656 1083 657 1083 658 1084 659 1084 660 1085 661 1086 661 1095 670 1096 670 1097 671 1099 671 1100 670 1101 670 1103 668 1104 668 1105 667 1106 667 1107 666 1107 665 1110 662 1110 661 1113 658 1113 657 1117 653 1117 652 1118 651 1118 642 1119 641 1119 615 1118 614 1118 609 1117 608 1117 605 1116 604 1116 602 1115 601 1115 598 1114 597 1114 594 1113 593 1113 589 1112 588 1112 583 1111 582 1111 576 1110 575 1110 569 1109 568 1109 562 1108 561 1108 555 1107 554 1107 550 1106 549 1106 544 1105 543 1105 536 1104 535 1104 528 1103 527 1103 521 1102 520 1102 514 1101 513 1101 507 1100 506 1100 502 1099 501 1099 497 1098 496 1098 493 1097 492 1097 491 1096 490 1096 489 1095 488 1095 487 1094 486 1094 484 1093 483 1093 482 1092 481 1092 479 1091 478 1091 477 1090 476 1090 475 1089 474 1089 473 1088 472 1088 471 1085 468 1085 467 1084 466 1084 465 1082 463 1082 462 1076 456 1076 455 1074 453 1074 452 1073 451 1073 450 1072 449 1072 448 1071 447 1071 446 1066 441 1066 440 1065 439 1065 438 1064 437 1064 436 1063 435 1063 433 1062 432 1062 431 1061 430 1061 428 1060 427 1060 425 1059 424 1059 422 1058 421 1058 419 1057 418 1057 417 1056 416 1056 415 1055 414 1055 413 1054 412 1054 411 1052 409 1052 408 1043 399 1043 393 "/></svg>