<svg width="1920" height="1080" xmlns="http://www.w3.org/2000/svg"><path d="M1001 403 1001 408 992 417 992 418 988 422 988 423 987 424 987 425 986 426 986 427 985 428 985 429 984 430 984 431 983 432 983 433 982 434 982 435 980 437 980 438 976 442 976 443 967 452 966 452 964 454 963 454 962 455 961 455 960 456 959 456 958 457 957 457 956 458 955 458 954 459 953 459 950 462 949 462 945 466 944 466 943 467 942 467 940 469 939 469 930 478 930 479 925 484 925 485 922 488 922 489 918 493 918 494 915 497 915 498 914 499 914 500 913 501 913 502 912 503 912 504 911 505 911 506 910 507 910 509 909 510 909 511 908 512 908 514 907 515 907 516 906 517 906 518 905 519 905 520 904 521 904 522 903 523 903 524 902 525 902 528 901 529 901 531 900 532 900 534 899 535 899 537 898 538 898 540 897 541 897 542 896 543 896 544 895 545 895 547 894 548 894 549 893 550 893 552 892 553 892 555 891 556 891 558 890 559 890 561 889 562 889 564 888 565 888 567 887 568 887 569 886 570 886 571 885 572 885 573 884 574 884 576 883 577 883 579 882 580 882 583 881 584 881 587 880 588 880 590 879 591 879 593 878 594 878 595 877 596 877 597 876 598 876 599 875 600 875 603 874 604 874 608 873 609 873 614 872 615 872 620 871 621 871 626 870 627 870 632 869 633 869 638 868 639 868 645 867 646 867 650 866 651 862 651 862 653 866 653 867 654 867 657 868 658 868 662 869 663 869 665 875 671 877 671 878 670 879 670 880 669 881 669 882 668 883 668 887 664 887 662 888 661 888 659 889 658 889 654 890 653 890 648 891 647 891 642 892 641 892 637 893 636 893 633 894 632 894 630 895 629 895 626 896 625 896 624 897 623 897 622 898 621 898 619 899 618 899 617 900 616 900 614 901 613 901 612 902 611 902 610 903 609 903 608 904 607 904 606 906 604 906 603 907 602 907 601 908 600 908 599 910 597 910 596 913 593 914 593 915 592 919 592 920 591 922 591 923 590 926 590 927 589 931 589 932 588 933 589 933 590 934 591 934 592 935 593 935 594 936 595 936 598 937 599 937 608 936 609 936 629 935 630 935 636 934 637 934 642 933 643 933 647 932 648 932 651 931 652 931 661 930 662 930 667 929 668 929 671 928 672 928 676 927 677 927 679 926 680 926 683 925 684 925 685 924 686 924 688 923 689 923 690 922 691 922 693 921 694 921 695 920 696 920 697 919 698 919 700 918 701 918 702 917 703 917 705 916 706 916 707 915 708 915 709 914 710 914 711 913 712 913 714 912 715 912 720 911 721 911 730 912 731 912 732 913 733 913 734 921 742 922 742 923 743 925 743 926 744 929 744 930 745 933 745 934 744 936 744 937 743 938 743 939 742 940 742 943 739 943 738 945 736 945 735 946 734 946 733 947 732 947 731 948 730 948 729 949 728 949 724 950 723 950 719 951 718 951 715 952 714 952 713 953 712 953 710 954 709 954 707 955 706 955 703 956 702 956 700 957 699 957 696 958 695 958 693 959 692 959 690 960 689 960 686 961 685 961 682 962 681 962 677 963 676 963 674 964 673 964 671 965 670 965 668 966 667 966 666 967 665 967 664 968 663 968 662 969 661 969 660 970 659 970 658 971 657 971 656 972 655 972 654 973 653 973 652 974 651 974 650 976 648 976 647 982 641 983 641 989 635 990 635 991 634 993 634 994 633 996 633 997 632 1000 632 1001 633 1004 633 1005 634 1008 634 1013 639 1013 640 1021 648 1021 649 1023 651 1023 654 1024 655 1024 660 1025 661 1025 667 1026 668 1026 673 1027 674 1027 691 1028 692 1028 724 1027 725 1027 728 1028 729 1028 730 1030 732 1030 733 1036 739 1037 739 1038 740 1039 740 1040 741 1042 741 1043 742 1044 742 1045 743 1050 743 1051 744 1061 744 1062 743 1065 743 1066 742 1067 742 1068 741 1069 741 1071 739 1072 739 1074 737 1075 737 1082 730 1082 726 1081 725 1081 723 1080 722 1080 719 1079 718 1079 711 1078 710 1078 696 1079 695 1079 688 1080 687 1080 685 1081 684 1081 682 1082 681 1082 680 1086 676 1087 676 1088 675 1089 675 1090 674 1092 674 1093 673 1093 672 1094 671 1094 670 1096 668 1096 667 1097 666 1097 665 1100 662 1100 661 1104 657 1104 656 1105 655 1105 654 1106 653 1106 652 1107 651 1107 648 1108 647 1108 643 1109 642 1109 639 1110 638 1110 635 1111 634 1111 630 1112 629 1112 611 1111 610 1111 605 1110 604 1110 599 1109 598 1109 593 1108 592 1108 586 1107 585 1107 579 1106 578 1106 568 1105 567 1105 557 1104 556 1104 545 1103 544 1103 533 1102 532 1102 527 1101 526 1101 521 1100 520 1100 516 1099 515 1099 510 1098 509 1098 503 1097 502 1097 497 1096 496 1096 494 1095 493 1095 491 1094 490 1094 489 1093 488 1093 486 1092 485 1092 484 1091 483 1091 482 1090 481 1090 480 1089 479 1089 478 1088 477 1088 475 1087 474 1087 473 1086 472 1086 471 1084 469 1084 468 1079 463 1079 462 1077 460 1077 459 1075 457 1075 456 1071 452 1071 451 1069 449 1069 448 1068 447 1068 446 1067 445 1067 444 1066 443 1066 442 1065 441 1065 440 1063 438 1063 437 1062 436 1062 435 1061 434 1061 432 1060 431 1060 429 1059 428 1059 426 1058 425 1058 424 1057 423 1057 422 1056 421 1056 420 1055 419 1055 418 1052 415 1051 415 1048 412 1047 412 1045 410 1044 410 1043 409 1043 403 "/></svg>