<svg width="1920" height="1080" xmlns="http://www.w3.org/2000/svg"><path d="M1014 382 1014 388 1012 390 1010 390 1009 391 1007 391 1006 392 1005 392 1004 393 1003 393 1002 394 1001 394 1000 395 999 395 998 396 997 396 991 402 991 403 989 405 989 406 987 408 987 409 985 411 985 412 984 413 984 415 983 416 983 417 982 418 982 419 981 420 981 421 978 424 978 425 976 427 976 428 975 429 975 430 968 437 967 437 965 439 964 439 962 441 961 441 956 446 955 446 953 448 952 448 951 449 949 449 948 450 947 450 946 451 945 451 944 452 942 452 941 453 940 453 924 469 924 470 921 473 921 474 918 477 918 478 917 479 917 480 915 482 915 483 914 484 914 485 913 486 913 487 912 488 912 489 911 490 911 491 910 492 910 494 909 495 909 496 908 497 908 499 907 500 907 502 906 503 906 504 905 505 905 506 903 508 903 509 902 510 902 511 901 512 901 514 900 515 900 517 899 518 899 519 898 520 898 522 897 523 897 524 896 525 896 526 895 527 895 528 894 529 894 530 893 531 893 533 892 534 892 535 891 536 891 538 890 539 890 542 889 543 889 545 888 546 888 547 887 548 887 549 886 550 886 551 885 552 885 554 884 555 884 557 883 558 883 560 882 561 882 564 881 565 881 569 880 570 880 576 879 577 879 581 878 582 878 585 877 586 877 588 876 589 876 591 875 592 875 594 874 595 874 600 873 601 873 606 872 607 872 616 871 617 871 628 870 629 870 637 871 638 871 643 872 644 872 648 873 649 873 650 875 652 875 653 876 653 877 654 880 654 881 655 884 655 885 656 886 655 887 655 888 654 889 654 894 649 894 647 895 646 895 645 896 644 896 642 897 641 897 639 898 638 898 633 899 632 899 622 900 621 900 618 901 617 901 614 902 613 902 610 903 609 903 608 904 607 904 605 905 604 905 603 906 602 906 601 907 600 907 599 908 598 908 596 909 595 909 594 911 592 911 591 913 589 922 589 924 587 925 587 931 581 934 584 934 586 935 587 935 590 936 591 936 597 935 598 935 601 934 602 934 606 933 607 933 621 932 622 932 623 931 624 931 625 930 626 930 627 929 628 929 630 928 631 928 633 927 634 927 638 926 639 926 643 925 644 925 648 924 649 924 655 925 656 925 662 924 663 924 668 923 669 923 673 922 674 922 677 921 678 921 681 920 682 920 686 919 687 919 691 918 692 918 696 917 697 917 700 916 701 916 704 915 705 915 707 914 708 914 710 913 711 913 713 912 714 912 716 911 717 911 722 910 723 910 729 909 730 909 731 910 732 910 733 914 737 915 737 917 739 918 739 920 741 921 741 922 742 923 742 924 743 926 743 927 744 929 744 930 745 932 745 933 744 934 744 935 743 937 743 938 742 939 742 940 741 941 741 947 735 947 734 949 732 949 730 950 729 950 724 951 723 951 718 952 717 952 714 953 713 953 710 954 709 954 705 955 704 955 699 956 698 956 694 957 693 957 689 958 688 958 684 959 683 959 680 960 679 960 675 961 674 961 671 962 670 962 667 963 666 963 662 964 661 964 657 965 656 965 653 966 652 966 649 967 648 967 647 968 646 968 645 969 644 969 643 970 642 970 641 971 640 971 639 972 638 972 637 973 636 973 634 975 632 975 631 977 629 977 628 978 627 979 627 987 619 988 619 989 618 990 618 991 617 993 617 994 616 995 616 996 615 997 615 998 616 1003 616 1004 617 1006 617 1008 619 1009 619 1022 632 1022 633 1024 635 1024 636 1025 637 1025 638 1026 639 1026 640 1027 641 1027 643 1028 644 1028 646 1029 647 1029 653 1030 654 1030 716 1029 717 1029 718 1030 719 1030 730 1031 731 1031 732 1034 735 1035 735 1036 736 1037 736 1038 737 1039 737 1040 738 1042 738 1043 739 1047 739 1048 740 1051 740 1052 741 1059 741 1060 742 1063 742 1064 741 1070 741 1071 740 1074 740 1075 739 1076 739 1078 737 1079 737 1081 735 1081 734 1082 733 1082 730 1081 729 1081 728 1080 727 1080 726 1079 725 1079 724 1078 723 1078 722 1077 721 1077 719 1076 718 1076 715 1075 714 1075 709 1074 708 1074 688 1075 687 1075 682 1076 681 1076 677 1077 676 1077 675 1078 674 1078 673 1079 672 1079 671 1081 669 1081 668 1083 666 1083 665 1084 664 1084 663 1085 662 1085 661 1093 653 1093 652 1096 649 1096 647 1097 646 1097 645 1098 644 1098 643 1099 642 1099 641 1100 640 1100 638 1101 637 1101 634 1102 633 1102 628 1103 627 1103 619 1104 618 1104 582 1103 581 1103 521 1102 520 1102 505 1101 504 1101 496 1100 495 1100 490 1099 489 1099 486 1098 485 1098 483 1097 482 1097 480 1096 479 1096 477 1095 476 1095 473 1094 472 1094 470 1093 469 1093 467 1092 466 1092 465 1091 464 1091 463 1090 462 1090 461 1089 460 1089 459 1088 458 1088 457 1086 455 1086 454 1084 452 1084 451 1081 448 1081 447 1078 444 1078 443 1076 441 1076 440 1075 439 1075 438 1071 434 1071 433 1069 431 1069 430 1068 429 1068 427 1067 426 1067 425 1066 424 1066 423 1065 422 1065 421 1064 420 1064 418 1062 416 1062 414 1060 412 1060 411 1059 410 1059 409 1058 408 1058 407 1056 405 1056 404 1055 403 1055 402 1051 398 1050 398 1049 397 1048 397 1047 396 1045 396 1044 395 1043 395 1042 394 1041 394 1040 393 1038 393 1037 392 1036 392 1034 390 1030 390 1029 389 1028 389 1027 388 1027 382 "/></svg>