<svg width="1920" height="1080" xmlns="http://www.w3.org/2000/svg"><path d="M1002 399 1002 405 1001 406 1000 406 993 413 993 414 990 417 990 418 988 420 988 421 987 422 987 423 986 424 986 425 985 426 985 427 984 428 984 429 983 430 983 431 982 432 982 433 981 434 981 435 979 437 979 438 975 442 975 443 968 450 967 450 965 452 964 452 962 454 961 454 960 455 959 455 957 457 956 457 953 460 952 460 950 462 949 462 947 464 946 464 944 466 943 466 941 468 940 468 939 469 939 470 928 481 928 482 926 484 926 485 920 491 920 492 918 494 918 495 917 496 917 497 916 498 916 499 914 501 914 502 912 504 912 505 911 506 911 507 910 508 910 510 909 511 909 512 908 513 908 515 907 516 907 517 905 519 905 520 904 521 904 522 903 523 903 524 902 525 902 527 901 528 901 530 900 531 900 532 899 533 899 535 898 536 898 538 897 539 897 540 896 541 896 542 895 543 895 544 894 545 894 546 893 547 893 548 892 549 892 552 891 553 891 554 890 555 890 557 889 558 889 560 888 561 888 562 887 563 887 565 886 566 886 567 885 568 885 569 884 570 884 571 883 572 883 573 882 574 882 577 881 578 881 581 880 582 880 585 879 586 879 588 878 589 878 591 877 592 877 593 876 594 876 595 875 596 875 598 874 599 874 602 873 603 873 608 872 609 872 614 871 615 871 619 870 620 870 624 869 625 869 629 868 630 868 633 867 634 867 636 866 637 862 637 862 661 866 661 867 662 867 663 868 664 868 666 871 669 872 669 874 671 875 671 876 672 877 671 878 671 880 669 881 669 884 666 884 665 886 663 886 662 887 661 887 660 888 659 888 657 889 656 889 652 890 651 890 646 891 645 891 641 892 640 892 636 893 635 893 632 894 631 894 628 895 627 895 626 896 625 896 623 897 622 897 621 898 620 898 619 899 618 899 616 900 615 900 613 901 612 901 611 902 610 902 609 903 608 903 607 904 606 904 605 905 604 905 603 906 602 906 601 907 600 907 599 909 597 909 596 914 591 916 591 917 590 918 590 919 589 920 589 922 587 923 587 927 583 927 582 928 581 928 580 929 579 929 577 930 576 930 575 932 573 934 575 934 578 935 579 935 583 936 584 936 589 937 590 937 592 938 593 938 599 939 600 939 602 938 603 938 608 937 609 937 615 936 616 936 623 935 624 935 630 934 631 934 637 933 638 933 642 932 643 932 647 931 648 931 651 930 652 930 660 929 661 929 668 928 669 928 673 927 674 927 677 926 678 926 681 925 682 925 684 924 685 924 686 923 687 923 689 922 690 922 691 921 692 921 694 920 695 920 697 919 698 919 699 918 700 918 702 917 703 917 705 916 706 916 708 915 709 915 710 914 711 914 713 913 714 913 716 912 717 912 722 911 723 911 730 910 731 910 732 912 734 912 735 922 745 923 745 924 746 926 746 927 747 930 747 931 748 932 748 933 747 935 747 936 746 938 746 939 745 940 745 945 740 945 739 947 737 947 736 948 735 948 734 949 733 949 732 950 731 950 727 951 726 951 721 952 720 952 717 953 716 953 714 954 713 954 711 955 710 955 708 956 707 956 704 957 703 957 701 958 700 958 698 959 697 959 695 960 694 960 692 961 691 961 688 962 687 962 683 963 682 963 678 964 677 964 675 965 674 965 673 966 672 966 670 967 669 967 668 968 667 968 666 969 665 969 664 970 663 970 662 971 661 971 660 972 659 972 657 973 656 973 655 974 654 974 653 975 652 975 651 977 649 977 648 988 637 989 637 990 636 992 636 993 635 995 635 996 634 1001 634 1002 635 1005 635 1006 636 1007 636 1020 649 1020 650 1021 651 1021 652 1022 653 1022 654 1023 655 1023 659 1024 660 1024 664 1025 665 1025 669 1026 670 1026 673 1027 674 1027 677 1028 678 1028 695 1029 696 1029 726 1030 727 1030 732 1031 733 1031 734 1035 738 1037 738 1038 739 1040 739 1041 740 1043 740 1044 741 1048 741 1049 742 1063 742 1064 741 1066 741 1067 740 1068 740 1069 739 1070 739 1071 738 1072 738 1073 737 1074 737 1075 736 1076 736 1080 732 1080 728 1079 727 1079 722 1078 721 1078 716 1077 715 1077 712 1076 711 1076 709 1075 708 1075 694 1076 693 1076 680 1078 678 1078 677 1082 673 1092 673 1100 665 1101 665 1111 655 1111 654 1112 653 1112 648 1113 647 1113 640 1114 639 1114 629 1115 628 1115 623 1114 622 1114 605 1113 604 1113 597 1112 596 1112 591 1111 590 1111 586 1110 585 1110 582 1109 581 1109 578 1108 577 1108 573 1107 572 1107 567 1106 566 1106 557 1105 556 1105 544 1104 543 1104 531 1103 530 1103 523 1102 522 1102 517 1101 516 1101 512 1100 511 1100 507 1099 506 1099 503 1098 502 1098 497 1097 496 1097 494 1096 493 1096 491 1095 490 1095 488 1094 487 1094 485 1093 484 1093 483 1092 482 1092 481 1091 480 1091 479 1090 478 1090 477 1089 476 1089 475 1088 474 1088 473 1087 472 1087 471 1086 470 1086 469 1084 467 1084 466 1078 460 1078 459 1076 457 1076 456 1074 454 1074 453 1070 449 1070 448 1069 447 1069 446 1068 445 1068 444 1067 443 1067 442 1066 441 1066 440 1065 439 1065 438 1063 436 1063 435 1061 433 1061 432 1060 431 1060 429 1059 428 1059 426 1058 425 1058 423 1057 422 1057 421 1056 420 1056 418 1055 417 1055 416 1051 412 1050 412 1047 409 1046 409 1044 407 1043 407 1041 405 1041 399 "/></svg>