<svg width="1920" height="1080" xmlns="http://www.w3.org/2000/svg"><path d="M997 397 997 404 994 407 994 408 992 410 992 411 989 414 989 415 988 416 988 417 987 418 987 419 986 420 986 422 985 423 985 424 984 425 984 426 983 427 983 429 982 430 982 431 981 432 981 433 979 435 979 436 977 438 977 439 975 441 975 442 968 449 967 449 966 450 965 450 963 452 962 452 960 454 959 454 957 456 956 456 954 458 953 458 951 460 950 460 949 461 948 461 946 463 945 463 943 465 942 465 940 467 939 467 939 468 928 479 928 480 926 482 926 483 923 486 923 487 918 492 918 493 917 494 917 495 916 496 916 497 915 498 915 499 913 501 913 502 912 503 912 504 910 506 910 508 909 509 909 510 908 511 908 513 907 514 907 515 906 516 906 517 905 518 905 519 904 520 904 521 903 522 903 523 902 524 902 525 901 526 901 528 900 529 900 530 899 531 899 533 898 534 898 535 897 536 897 538 896 539 896 540 895 541 895 542 894 543 894 544 893 545 893 546 892 547 892 549 891 550 891 551 890 552 890 554 889 555 889 557 888 558 888 559 887 560 887 562 886 563 886 564 885 565 885 566 884 567 884 568 883 569 883 570 882 571 882 573 881 574 881 576 880 577 880 580 879 581 879 584 878 585 878 587 877 588 877 590 876 591 876 593 874 595 874 597 873 598 873 599 872 600 872 604 871 605 871 610 870 611 870 615 869 616 869 620 868 621 868 624 867 625 867 628 866 629 866 631 865 632 865 633 864 634 860 634 860 659 864 659 867 662 867 663 869 665 869 666 871 668 872 668 873 669 875 669 877 667 878 667 880 665 880 664 884 660 884 659 886 657 886 656 887 655 887 653 888 652 888 647 889 646 889 643 890 642 890 638 891 637 891 634 892 633 892 630 893 629 893 627 894 626 894 625 895 624 895 622 896 621 896 620 897 619 897 617 898 616 898 615 899 614 899 612 900 611 900 610 901 609 901 608 902 607 902 606 903 605 903 604 904 603 904 602 905 601 905 600 906 599 906 598 908 596 908 595 911 592 911 591 912 590 914 590 915 589 917 589 918 588 919 588 920 587 921 587 924 584 925 584 925 583 927 581 927 579 928 578 928 576 929 575 929 574 931 572 933 574 933 576 934 577 934 589 935 590 935 594 936 595 936 610 935 611 935 628 934 629 934 640 933 641 933 645 932 646 932 649 931 650 931 654 930 655 930 663 929 664 929 669 928 670 928 674 927 675 927 678 926 679 926 682 925 683 925 685 924 686 924 687 923 688 923 690 922 691 922 692 921 693 921 695 920 696 920 697 919 698 919 700 918 701 918 703 917 704 917 706 916 707 916 709 915 710 915 711 914 712 914 713 913 714 913 716 912 717 912 718 911 719 911 724 910 725 910 730 909 731 909 733 911 735 911 736 921 746 922 746 923 747 926 747 927 748 930 748 931 749 932 748 935 748 936 747 937 747 938 746 940 746 944 742 944 741 946 739 946 738 948 736 948 735 949 734 949 733 950 732 950 726 951 725 951 720 952 719 952 717 953 716 953 714 954 713 954 711 955 710 955 707 956 706 956 704 957 703 957 700 958 699 958 697 959 696 959 694 960 693 960 691 961 690 961 687 962 686 962 682 963 681 963 678 964 677 964 675 965 674 965 672 966 671 966 669 967 668 967 667 968 666 968 665 969 664 969 663 970 662 970 661 971 660 971 659 972 658 972 656 973 655 973 654 974 653 974 652 975 651 975 650 977 648 977 647 989 635 990 635 991 634 993 634 994 633 996 633 997 632 1000 632 1001 633 1005 633 1006 634 1008 634 1013 639 1013 640 1016 643 1016 644 1020 648 1020 649 1022 651 1022 652 1023 653 1023 658 1024 659 1024 665 1025 666 1025 671 1026 672 1026 677 1027 678 1027 685 1028 686 1028 699 1029 700 1029 722 1030 723 1030 732 1036 738 1038 738 1039 739 1042 739 1043 740 1047 740 1048 741 1059 741 1060 740 1065 740 1066 739 1067 739 1068 738 1069 738 1070 737 1072 737 1074 735 1075 735 1076 734 1077 734 1079 732 1079 718 1078 717 1078 715 1077 714 1077 713 1076 712 1076 710 1075 709 1075 708 1074 707 1074 687 1073 686 1073 678 1074 677 1074 675 1077 672 1078 672 1079 671 1081 671 1082 670 1085 670 1086 671 1087 671 1088 672 1090 672 1091 673 1092 673 1093 674 1094 674 1101 667 1102 667 1108 661 1108 660 1109 659 1110 659 1113 656 1113 655 1114 654 1114 651 1115 650 1115 643 1116 642 1116 633 1117 632 1117 615 1116 614 1116 608 1115 607 1115 601 1114 600 1114 597 1113 596 1113 593 1112 592 1112 590 1111 589 1111 586 1110 585 1110 581 1109 580 1109 576 1108 575 1108 568 1107 567 1107 560 1106 559 1106 552 1105 551 1105 543 1104 542 1104 534 1103 533 1103 528 1102 527 1102 522 1101 521 1101 517 1100 516 1100 510 1099 509 1099 503 1098 502 1098 496 1097 495 1097 493 1096 492 1096 490 1095 489 1095 488 1094 487 1094 486 1093 485 1093 484 1092 483 1092 482 1091 481 1091 480 1090 479 1090 477 1089 476 1089 475 1088 474 1088 473 1087 472 1087 471 1086 470 1086 469 1084 467 1084 466 1079 461 1079 460 1076 457 1076 456 1074 454 1074 453 1072 451 1072 450 1070 448 1070 447 1069 446 1069 445 1067 443 1067 442 1066 441 1066 440 1065 439 1065 438 1063 436 1063 435 1062 434 1062 433 1061 432 1061 430 1060 429 1060 427 1059 426 1059 424 1058 423 1058 421 1057 420 1057 418 1056 417 1056 416 1055 415 1055 414 1044 403 1044 397 "/></svg>