<svg width="1920" height="1080" xmlns="http://www.w3.org/2000/svg"><path d="M1023 373 1023 379 1022 380 1019 380 1018 381 1014 381 1013 382 1011 382 1010 383 1009 383 1008 384 1006 384 1005 385 1004 385 1003 386 1002 386 1000 388 999 388 998 389 997 389 993 393 993 394 992 395 992 396 991 397 991 398 989 400 989 401 988 402 988 403 987 404 987 405 986 406 986 407 985 408 985 409 984 410 984 412 983 413 983 414 982 415 982 416 981 417 981 418 980 419 980 420 978 422 978 423 973 428 972 428 969 431 968 431 967 432 966 432 965 433 964 433 963 434 962 434 961 435 960 435 956 439 955 439 954 440 953 440 952 441 951 441 950 442 949 442 948 443 946 443 945 444 942 444 941 445 940 445 938 447 937 447 934 450 934 451 929 456 928 456 928 457 921 464 921 465 920 466 920 467 919 468 919 469 918 470 918 471 917 472 917 473 916 474 916 475 915 476 915 477 914 478 914 479 913 480 913 482 912 483 912 485 911 486 911 488 910 489 910 491 909 492 909 494 908 495 908 497 907 498 907 499 906 500 906 501 904 503 904 505 903 506 903 507 902 508 902 510 901 511 901 513 900 514 900 515 899 516 899 517 898 518 898 519 897 520 897 521 896 522 896 523 895 524 895 526 894 527 894 528 893 529 893 531 892 532 892 534 891 535 891 538 890 539 890 540 889 541 889 543 888 544 888 545 887 546 887 547 886 548 886 550 885 551 885 554 884 555 884 557 883 558 883 562 882 563 882 568 881 569 881 573 880 574 880 578 879 579 879 582 878 583 878 585 877 586 877 588 876 589 876 593 875 594 875 600 874 601 874 608 873 609 873 617 872 618 872 636 873 637 873 639 874 640 874 642 875 643 875 644 876 645 876 646 877 647 877 648 878 648 879 649 881 649 882 650 884 650 885 651 887 651 888 650 889 650 890 649 891 649 894 646 894 645 897 642 897 640 898 639 898 638 899 637 899 635 900 634 900 619 901 618 901 613 902 612 902 606 903 605 903 603 904 602 904 601 905 600 905 598 906 597 906 596 907 595 907 593 908 592 908 591 909 590 909 589 910 588 910 587 912 585 912 584 914 582 915 582 916 583 918 583 919 584 920 584 923 587 928 587 929 586 932 586 933 587 933 589 934 590 934 592 933 593 933 596 931 598 931 599 930 600 930 601 929 602 929 610 928 611 928 622 927 623 927 633 926 634 926 638 925 639 925 644 924 645 924 661 923 662 923 665 922 666 922 669 921 670 921 674 920 675 920 679 919 680 919 686 918 687 918 692 917 693 917 697 916 698 916 701 915 702 915 705 914 706 914 707 913 708 913 711 912 712 912 714 911 715 911 717 910 718 910 724 909 725 909 729 908 730 908 733 912 737 912 738 913 738 915 740 916 740 918 742 919 742 920 743 921 743 922 744 923 744 924 745 927 745 928 746 930 746 931 747 933 747 935 745 936 745 937 744 938 744 940 742 941 742 944 739 944 738 946 736 946 735 947 734 947 733 948 732 948 727 949 726 949 720 950 719 950 716 951 715 951 713 952 712 952 709 953 708 953 704 954 703 954 698 955 697 955 692 956 691 956 686 957 685 957 680 958 679 958 674 959 673 959 670 960 669 960 667 961 666 961 662 962 661 962 658 963 657 963 653 964 652 964 648 965 647 965 645 966 644 966 642 967 641 967 640 968 639 968 638 969 637 969 636 970 635 970 634 971 633 971 632 972 631 972 630 973 629 973 628 974 627 974 626 976 624 976 623 984 615 985 615 987 613 988 613 989 612 992 612 993 611 995 611 996 610 1007 610 1008 611 1011 611 1012 612 1014 612 1015 613 1016 613 1023 620 1023 621 1025 623 1025 624 1026 625 1026 626 1027 627 1027 629 1028 630 1028 632 1029 633 1029 637 1030 638 1030 643 1031 644 1031 658 1032 659 1032 683 1031 684 1031 716 1030 717 1030 719 1031 720 1031 730 1032 731 1032 733 1034 735 1035 735 1036 736 1037 736 1038 737 1039 737 1040 738 1041 738 1042 739 1045 739 1046 740 1050 740 1051 741 1067 741 1068 740 1072 740 1073 739 1074 739 1075 738 1076 738 1077 737 1078 737 1080 735 1080 734 1081 733 1081 732 1080 731 1080 730 1079 729 1079 727 1077 725 1077 723 1076 722 1076 720 1075 719 1075 716 1074 715 1074 712 1073 711 1073 707 1072 706 1072 695 1073 694 1073 685 1074 684 1074 680 1075 679 1075 676 1076 675 1076 674 1077 673 1077 672 1078 671 1078 670 1080 668 1080 667 1082 665 1082 664 1083 663 1083 662 1085 660 1085 659 1093 651 1093 650 1095 648 1095 647 1096 646 1096 645 1097 644 1097 643 1098 642 1098 640 1099 639 1099 637 1100 636 1100 632 1101 631 1101 625 1102 624 1102 612 1103 611 1103 570 1102 569 1102 510 1101 509 1101 488 1100 487 1100 479 1099 478 1099 475 1098 474 1098 471 1097 470 1097 469 1096 468 1096 465 1095 464 1095 463 1094 462 1094 460 1093 459 1093 458 1092 457 1092 455 1091 454 1091 453 1090 452 1090 450 1087 447 1087 446 1080 439 1080 438 1077 435 1077 434 1073 430 1073 429 1069 425 1069 424 1068 423 1068 422 1067 421 1067 419 1066 418 1066 416 1065 415 1065 413 1064 412 1064 411 1063 410 1063 408 1062 407 1062 405 1061 404 1061 403 1060 402 1060 401 1059 400 1059 399 1058 398 1058 397 1056 395 1056 394 1055 393 1055 392 1051 388 1050 388 1049 387 1047 387 1046 386 1044 386 1043 385 1041 385 1040 384 1039 384 1038 383 1036 383 1035 382 1034 382 1033 381 1028 381 1027 380 1026 380 1025 379 1025 373 "/></svg>