<svg width="1920" height="1080" xmlns="http://www.w3.org/2000/svg"><path d="M999 403 999 409 998 410 998 411 994 415 994 416 990 420 990 421 989 422 989 423 987 425 987 426 986 427 986 428 985 429 985 430 983 432 983 433 982 434 982 435 967 450 966 450 964 452 963 452 961 454 960 454 959 455 957 455 956 456 955 456 954 457 953 457 946 464 945 464 943 466 942 466 941 467 940 467 938 469 937 469 932 474 932 475 929 478 929 479 925 483 925 484 922 487 922 488 918 492 918 493 915 496 915 497 914 498 914 500 913 501 913 502 912 503 912 505 911 506 911 507 910 508 910 510 909 511 909 512 907 514 907 515 906 516 906 518 905 519 905 520 904 521 904 522 903 523 903 525 902 526 902 528 901 529 901 531 900 532 900 533 899 534 899 535 898 536 898 538 897 539 897 541 896 542 896 544 895 545 895 547 894 548 894 551 893 552 893 554 892 555 892 557 891 558 891 559 890 560 890 561 889 562 889 563 888 564 888 566 887 567 887 569 886 570 886 572 885 573 885 574 884 575 884 578 883 579 883 582 882 583 882 585 881 586 881 588 880 589 880 590 879 591 879 593 878 594 878 597 877 598 877 602 876 603 876 609 875 610 875 616 874 617 874 622 873 623 873 627 872 628 872 633 871 634 871 637 870 638 866 638 866 655 870 655 871 656 871 657 872 658 872 660 873 661 873 662 874 663 874 664 875 665 875 666 877 668 878 668 879 669 882 669 883 668 884 668 885 667 886 667 887 666 888 666 891 663 891 662 892 661 892 659 893 658 893 655 894 654 894 650 895 649 895 645 896 644 896 639 897 638 897 634 898 633 898 629 899 628 899 625 900 624 900 623 901 622 901 620 902 619 902 618 903 617 903 615 904 614 904 612 905 611 905 610 906 609 906 607 908 605 908 604 909 603 909 602 910 601 910 600 911 599 911 598 914 595 914 594 916 592 919 592 920 593 921 593 922 594 924 594 926 596 928 596 929 597 931 597 932 598 934 598 936 600 936 602 935 603 935 605 934 606 934 607 933 608 933 612 932 613 932 615 933 616 933 631 932 632 932 642 931 643 931 649 930 650 930 661 929 662 929 667 928 668 928 671 927 672 927 675 926 676 926 678 925 679 925 680 924 681 924 683 923 684 923 687 922 688 922 690 921 691 921 693 920 694 920 696 919 697 919 699 918 700 918 701 917 702 917 704 916 705 916 707 915 708 915 710 914 711 914 714 913 715 913 719 912 720 912 725 911 726 911 729 912 730 912 731 913 732 913 733 914 734 914 735 915 736 915 737 916 738 916 739 919 742 920 742 921 743 922 743 923 744 925 744 926 745 931 745 932 746 935 746 936 745 938 745 940 743 941 743 945 739 945 738 946 737 946 736 948 734 948 733 949 732 949 731 950 730 950 727 951 726 951 721 952 720 952 716 953 715 953 714 954 713 954 712 955 711 955 709 956 708 956 706 957 705 957 702 958 701 958 698 959 697 959 693 960 692 960 689 961 688 961 684 962 683 962 678 963 677 963 675 964 674 964 672 965 671 965 668 966 667 966 665 967 664 967 662 968 661 968 659 969 658 969 657 970 656 970 655 971 654 971 653 972 652 972 651 975 648 975 647 986 636 987 636 990 633 992 633 993 632 995 632 996 631 997 631 998 630 1003 630 1004 631 1008 631 1009 632 1010 632 1021 643 1021 644 1024 647 1024 648 1025 649 1025 650 1026 651 1026 654 1027 655 1027 662 1028 663 1028 668 1029 669 1029 675 1030 676 1030 725 1029 726 1029 728 1030 729 1030 730 1037 737 1038 737 1039 738 1040 738 1041 739 1043 739 1044 740 1045 740 1046 741 1049 741 1050 742 1054 742 1055 743 1065 743 1066 742 1067 742 1068 741 1069 741 1070 740 1071 740 1072 739 1073 739 1074 738 1075 738 1077 736 1078 736 1079 735 1079 734 1082 731 1082 730 1083 729 1083 728 1082 727 1082 726 1081 725 1081 723 1080 722 1080 720 1079 719 1079 716 1078 715 1078 708 1077 707 1077 693 1078 692 1078 687 1079 686 1079 683 1080 682 1080 681 1081 680 1081 678 1084 675 1084 674 1092 666 1092 665 1094 663 1094 662 1095 661 1095 660 1097 658 1097 657 1100 654 1100 653 1101 652 1101 651 1102 650 1102 648 1103 647 1103 644 1104 643 1104 640 1105 639 1105 634 1106 633 1106 628 1107 627 1107 591 1106 590 1106 575 1105 574 1105 553 1104 552 1104 532 1103 531 1103 523 1102 522 1102 516 1101 515 1101 511 1100 510 1100 506 1099 505 1099 501 1098 500 1098 496 1097 495 1097 493 1096 492 1096 489 1095 488 1095 485 1094 484 1094 482 1093 481 1093 480 1092 479 1092 478 1091 477 1091 475 1090 474 1090 473 1089 472 1089 471 1087 469 1087 468 1085 466 1085 465 1082 462 1082 461 1079 458 1079 457 1072 450 1072 449 1070 447 1070 446 1069 445 1069 444 1068 443 1068 442 1067 441 1067 440 1065 438 1065 437 1064 436 1064 435 1063 434 1063 433 1062 432 1062 431 1061 430 1061 429 1060 428 1060 426 1059 425 1059 424 1058 423 1058 422 1057 421 1057 420 1056 419 1056 418 1050 412 1049 412 1046 409 1046 403 "/></svg>