<svg width="1920" height="1080" xmlns="http://www.w3.org/2000/svg"><path d="M1000 397 1000 403 996 407 996 408 993 411 993 412 991 414 991 415 989 417 989 418 988 419 988 420 987 421 987 423 986 424 986 425 985 426 985 427 984 428 984 430 982 432 982 433 980 435 980 436 977 439 977 440 969 448 968 448 966 450 965 450 964 451 963 451 962 452 961 452 960 453 959 453 957 455 956 455 955 456 954 456 950 460 949 460 947 462 946 462 945 463 944 463 942 465 941 465 929 477 929 478 926 481 926 482 922 486 922 487 917 492 917 493 916 494 916 495 915 496 915 497 914 498 914 500 913 501 913 502 912 503 912 504 911 505 911 507 910 508 910 509 908 511 908 512 907 513 907 514 906 515 906 517 905 518 905 519 904 520 904 522 903 523 903 524 902 525 902 527 901 528 901 529 900 530 900 531 899 532 899 533 898 534 898 536 897 537 897 539 896 540 896 542 895 543 895 545 894 546 894 548 893 549 893 551 892 552 892 553 891 554 891 555 890 556 890 557 889 558 889 560 888 561 888 563 887 564 887 566 886 567 886 569 885 570 885 572 884 573 884 575 883 576 883 578 882 579 882 581 881 582 881 584 880 585 880 588 879 589 879 593 878 594 878 598 877 599 877 604 876 605 876 610 875 611 875 617 874 618 874 622 873 623 873 626 872 627 868 627 868 653 872 653 873 654 873 655 875 657 875 658 877 660 877 661 879 663 879 664 881 666 882 665 883 665 893 655 893 654 894 653 894 650 895 649 895 646 896 645 896 641 897 640 897 635 898 634 898 629 899 628 899 625 900 624 900 623 901 622 901 620 902 619 902 618 903 617 903 614 904 613 904 611 905 610 905 608 906 607 906 605 907 604 907 603 908 602 908 601 909 600 909 599 910 598 910 597 912 595 912 594 915 591 915 590 917 588 928 588 929 587 930 587 931 586 932 586 933 585 933 584 934 583 934 581 935 580 936 581 936 585 937 586 937 589 938 590 938 596 939 597 939 601 938 602 938 605 937 606 937 608 936 609 936 611 935 612 935 614 934 615 934 619 933 620 933 626 932 627 932 633 931 634 931 642 930 643 930 648 929 649 929 656 928 657 928 666 927 667 927 670 926 671 926 673 925 674 925 676 924 677 924 679 923 680 923 683 922 684 922 688 921 689 921 693 920 694 920 697 919 698 919 700 918 701 918 703 917 704 917 707 916 708 916 710 915 711 915 714 914 715 914 719 913 720 913 726 912 727 912 733 914 735 914 736 916 738 916 739 918 741 919 741 922 744 923 744 924 745 925 745 926 746 930 746 931 747 936 747 937 746 938 746 941 743 942 743 946 739 946 738 948 736 948 735 949 734 949 733 950 732 950 728 951 727 951 722 952 721 952 718 953 717 953 715 954 714 954 713 955 712 955 710 956 709 956 707 957 706 957 703 958 702 958 699 959 698 959 694 960 693 960 690 961 689 961 685 962 684 962 680 963 679 963 676 964 675 964 673 965 672 965 669 966 668 966 666 967 665 967 663 968 662 968 660 969 659 969 657 970 656 970 655 971 654 971 653 972 652 972 651 974 649 974 648 976 646 976 645 978 643 978 642 982 638 982 637 986 633 987 633 990 630 991 630 992 629 993 629 994 628 995 628 996 627 997 627 998 626 1001 626 1002 627 1005 627 1006 628 1008 628 1013 633 1014 633 1021 640 1021 641 1023 643 1023 644 1025 646 1025 647 1027 649 1027 650 1028 651 1028 653 1029 654 1029 662 1030 663 1030 671 1031 672 1031 697 1032 698 1032 707 1031 708 1031 732 1034 735 1035 735 1036 736 1037 736 1038 737 1040 737 1041 738 1043 738 1044 739 1048 739 1049 740 1059 740 1060 741 1062 741 1063 740 1069 740 1070 739 1073 739 1074 738 1076 738 1077 737 1079 737 1081 735 1082 735 1084 733 1084 729 1083 728 1083 726 1082 725 1082 722 1081 721 1081 717 1080 716 1080 712 1079 711 1079 708 1078 707 1078 694 1079 693 1079 690 1080 689 1080 687 1081 686 1081 685 1082 684 1082 682 1083 681 1083 680 1085 678 1085 677 1089 673 1089 672 1090 671 1090 670 1091 669 1091 667 1092 666 1092 665 1093 664 1093 663 1096 660 1096 659 1099 656 1099 655 1100 654 1100 652 1101 651 1101 647 1102 646 1102 642 1103 641 1103 637 1104 636 1104 633 1105 632 1105 629 1106 628 1106 621 1107 620 1107 605 1106 604 1106 593 1105 592 1105 583 1104 582 1104 573 1103 572 1103 551 1102 550 1102 523 1101 522 1101 508 1100 507 1100 502 1099 501 1099 497 1098 496 1098 493 1097 492 1097 491 1096 490 1096 488 1095 487 1095 484 1094 483 1094 480 1093 479 1093 477 1092 476 1092 473 1091 472 1091 470 1090 469 1090 468 1088 466 1088 465 1085 462 1085 461 1083 459 1083 458 1081 456 1081 455 1075 449 1075 448 1070 443 1070 442 1069 441 1069 440 1067 438 1067 437 1066 436 1066 435 1065 434 1065 433 1064 432 1064 430 1063 429 1063 428 1062 427 1062 426 1061 425 1061 424 1060 423 1060 422 1059 421 1059 420 1058 419 1058 418 1057 417 1057 416 1056 415 1056 414 1055 413 1055 412 1053 410 1053 409 1051 407 1050 407 1047 404 1046 404 1045 403 1045 397 "/></svg>