<svg width="1920" height="1080" xmlns="http://www.w3.org/2000/svg"><path d="M997 393 997 399 995 401 995 402 993 404 993 405 989 409 989 410 988 411 988 412 987 413 987 414 986 415 986 417 985 418 985 419 984 420 984 422 983 423 983 424 982 425 982 426 981 427 981 428 979 430 979 431 977 433 977 434 975 436 975 437 968 444 967 444 965 446 964 446 963 447 962 447 961 448 960 448 959 449 958 449 957 450 956 450 955 451 954 451 950 455 949 455 947 457 946 457 945 458 944 458 943 459 942 459 940 461 939 461 938 462 937 462 931 468 931 469 925 475 925 476 922 479 922 480 920 482 920 483 917 486 917 487 916 488 916 489 915 490 915 491 914 492 914 494 913 495 913 496 912 497 912 499 911 500 911 501 910 502 910 503 909 504 909 505 908 506 908 508 907 509 907 510 906 511 906 512 905 513 905 515 904 516 904 518 903 519 903 521 902 522 902 524 901 525 901 526 900 527 900 528 899 529 899 530 898 531 898 533 897 534 897 536 896 537 896 539 895 540 895 542 894 543 894 545 893 546 893 548 892 549 892 550 891 551 891 552 890 553 890 555 889 556 889 557 888 558 888 561 887 562 887 564 886 565 886 567 885 568 885 571 884 572 884 575 883 576 883 578 882 579 882 581 881 582 881 585 880 586 880 588 879 589 879 593 878 594 878 598 877 599 877 605 876 606 876 611 875 612 875 616 874 617 874 621 873 622 873 626 872 627 868 627 868 650 872 650 873 651 873 652 875 654 875 655 877 657 877 658 880 661 880 662 881 663 882 662 883 662 886 659 887 659 892 654 892 653 893 652 893 651 894 650 894 649 895 648 895 645 896 644 896 640 897 639 897 637 898 636 898 632 899 631 899 627 900 626 900 622 901 621 901 620 902 619 902 617 903 616 903 614 904 613 904 610 905 609 905 608 906 607 906 605 907 604 907 603 908 602 908 601 910 599 910 598 911 597 911 596 912 595 912 594 914 592 914 591 917 588 920 588 921 589 922 589 923 590 924 590 927 593 928 592 932 592 933 591 935 591 936 592 936 594 937 595 937 597 936 598 936 600 933 603 933 604 932 605 932 612 931 613 931 628 930 629 930 638 929 639 929 645 928 646 928 662 927 663 927 666 926 667 926 670 925 671 925 673 924 674 924 677 923 678 923 682 922 683 922 687 921 688 921 691 920 692 920 694 919 695 919 698 918 699 918 700 917 701 917 703 916 704 916 707 915 708 915 710 914 711 914 715 913 716 913 721 912 722 912 730 913 731 913 732 915 734 915 735 916 736 916 737 920 741 921 741 922 742 923 742 924 743 925 743 926 744 932 744 933 745 935 745 936 744 938 744 940 742 941 742 945 738 945 737 947 735 947 734 948 733 948 732 949 731 949 730 950 729 950 727 951 726 951 721 952 720 952 715 953 714 953 713 954 712 954 710 955 709 955 708 956 707 956 704 957 703 957 701 958 700 958 696 959 695 959 692 960 691 960 687 961 686 961 681 962 680 962 676 963 675 963 672 964 671 964 668 965 667 965 664 966 663 966 660 967 659 967 657 968 656 968 654 969 653 969 652 970 651 970 649 973 646 973 645 976 642 976 641 988 629 989 629 990 628 992 628 993 627 994 627 995 626 997 626 998 625 1002 625 1003 626 1007 626 1008 627 1009 627 1011 629 1012 629 1014 631 1015 631 1022 638 1022 639 1027 644 1027 645 1028 646 1028 647 1029 648 1029 653 1030 654 1030 663 1031 664 1031 729 1034 732 1034 733 1035 734 1036 734 1038 736 1039 736 1040 737 1041 737 1043 739 1044 739 1045 740 1047 740 1048 741 1050 741 1051 742 1053 742 1054 743 1059 743 1060 744 1063 744 1064 743 1067 743 1068 742 1071 742 1072 741 1074 741 1076 739 1077 739 1077 738 1080 735 1080 733 1081 732 1081 726 1080 725 1080 723 1079 722 1079 721 1078 720 1078 718 1077 717 1077 712 1076 711 1076 697 1077 696 1077 688 1078 687 1078 684 1079 683 1079 681 1080 680 1080 678 1081 677 1081 675 1082 674 1082 673 1083 672 1083 671 1085 669 1085 668 1088 665 1088 664 1089 663 1089 662 1091 660 1091 659 1093 657 1093 656 1098 651 1098 650 1099 649 1099 648 1100 647 1100 644 1101 643 1101 640 1102 639 1102 635 1103 634 1103 629 1104 628 1104 623 1105 622 1105 601 1104 600 1104 588 1103 587 1103 573 1102 572 1102 516 1101 515 1101 503 1100 502 1100 496 1099 495 1099 491 1098 490 1098 488 1097 487 1097 485 1096 484 1096 483 1095 482 1095 479 1094 478 1094 476 1093 475 1093 472 1092 471 1092 469 1091 468 1091 466 1090 465 1090 464 1088 462 1088 461 1085 458 1085 457 1083 455 1083 454 1082 453 1082 452 1076 446 1076 445 1071 440 1071 439 1069 437 1069 436 1068 435 1068 434 1067 433 1067 431 1066 430 1066 429 1065 428 1065 427 1064 426 1064 424 1063 423 1063 421 1062 420 1062 419 1061 418 1061 417 1060 416 1060 415 1059 414 1059 413 1058 412 1058 411 1056 409 1056 408 1055 407 1055 406 1050 401 1049 401 1047 399 1047 393 "/></svg>