<svg width="1920" height="1080" xmlns="http://www.w3.org/2000/svg"><path d="M1001 403 1001 409 991 419 991 420 989 422 989 423 987 425 987 426 986 427 986 428 985 429 985 430 984 431 984 432 983 433 983 434 981 436 981 437 976 442 976 443 968 451 967 451 965 453 964 453 962 455 960 455 959 456 958 456 957 457 956 457 955 458 954 458 953 459 952 459 946 465 945 465 943 467 942 467 941 468 940 468 929 479 929 480 925 484 925 485 922 488 922 489 919 492 919 493 915 497 915 498 914 499 914 500 913 501 913 503 912 504 912 505 911 506 911 508 910 509 910 510 909 511 909 513 908 514 908 515 907 516 907 517 905 519 905 520 904 521 904 523 903 524 903 526 902 527 902 529 901 530 901 532 900 533 900 535 899 536 899 538 898 539 898 540 897 541 897 542 896 543 896 544 895 545 895 547 894 548 894 550 893 551 893 554 892 555 892 556 891 557 891 559 890 560 890 562 889 563 889 564 888 565 888 567 887 568 887 569 886 570 886 571 885 572 885 574 884 575 884 578 883 579 883 581 882 582 882 585 881 586 881 589 880 590 880 591 879 592 879 594 878 595 878 596 877 597 877 599 876 600 876 603 875 604 875 610 874 611 874 617 873 618 873 623 872 624 872 629 871 630 871 634 870 635 870 640 869 641 869 646 868 647 864 647 864 655 868 655 869 656 869 659 870 660 870 663 871 664 871 665 877 671 879 671 880 670 882 670 883 669 884 669 885 668 886 668 889 665 889 664 890 663 890 661 891 660 891 656 892 655 892 649 893 648 893 642 894 641 894 636 895 635 895 632 896 631 896 628 897 627 897 625 898 624 898 623 899 622 899 620 900 619 900 617 901 616 901 615 902 614 902 612 903 611 903 610 904 609 904 608 905 607 905 606 906 605 906 604 907 603 907 602 908 601 908 600 909 599 909 598 911 596 911 595 915 591 917 591 918 590 921 590 922 589 924 589 925 588 928 588 930 586 930 585 931 584 931 583 932 582 932 577 933 576 934 577 934 583 935 584 935 589 936 590 936 593 937 594 937 598 938 599 938 605 937 606 937 618 936 619 936 629 935 630 935 635 934 636 934 640 933 641 933 645 932 646 932 650 931 651 931 659 930 660 930 666 929 667 929 671 928 672 928 675 927 676 927 679 926 680 926 682 925 683 925 684 924 685 924 686 923 687 923 689 922 690 922 692 921 693 921 695 920 696 920 697 919 698 919 700 918 701 918 703 917 704 917 705 916 706 916 707 915 708 915 709 914 710 914 712 913 713 913 715 912 716 912 721 911 722 911 727 910 728 910 729 911 730 911 731 912 732 912 733 914 735 914 736 915 737 915 738 918 741 919 741 921 743 922 743 923 744 925 744 926 745 930 745 931 746 934 746 935 745 936 745 937 744 938 744 939 743 940 743 944 739 944 738 946 736 946 735 947 734 947 733 948 732 948 730 949 729 949 727 950 726 950 720 951 719 951 716 952 715 952 714 953 713 953 711 954 710 954 709 955 708 955 706 956 705 956 702 957 701 957 698 958 697 958 695 959 694 959 691 960 690 960 687 961 686 961 682 962 681 962 677 963 676 963 674 964 673 964 671 965 670 965 668 966 667 966 665 967 664 967 663 968 662 968 661 969 660 969 659 970 658 970 657 972 655 972 654 973 653 973 652 974 651 974 650 976 648 976 647 982 641 983 641 989 635 990 635 991 634 993 634 994 633 996 633 997 632 1002 632 1003 633 1007 633 1008 634 1009 634 1015 640 1015 641 1017 643 1018 643 1020 645 1020 646 1022 648 1022 649 1024 651 1024 654 1025 655 1025 660 1026 661 1026 666 1027 667 1027 672 1028 673 1028 686 1029 687 1029 729 1030 730 1030 731 1032 733 1032 734 1036 738 1038 738 1039 739 1040 739 1041 740 1042 740 1043 741 1044 741 1045 742 1048 742 1049 743 1053 743 1054 744 1062 744 1063 743 1066 743 1067 742 1068 742 1069 741 1070 741 1072 739 1073 739 1074 738 1075 738 1081 732 1081 731 1083 729 1083 728 1082 727 1082 726 1081 725 1081 723 1080 722 1080 719 1079 718 1079 714 1078 713 1078 693 1079 692 1079 687 1080 686 1080 684 1081 683 1081 681 1082 680 1082 679 1083 678 1083 677 1085 675 1086 675 1089 672 1090 672 1092 670 1092 669 1094 667 1094 665 1096 663 1096 662 1102 656 1102 655 1103 654 1103 653 1104 652 1104 650 1105 649 1105 646 1106 645 1106 641 1107 640 1107 636 1108 635 1108 632 1109 631 1109 628 1110 627 1110 609 1109 608 1109 600 1108 599 1108 591 1107 590 1107 582 1106 581 1106 571 1105 570 1105 556 1104 555 1104 536 1103 535 1103 527 1102 526 1102 520 1101 519 1101 515 1100 514 1100 509 1099 508 1099 504 1098 503 1098 498 1097 497 1097 495 1096 494 1096 492 1095 491 1095 488 1094 487 1094 485 1093 484 1093 482 1092 481 1092 480 1091 479 1091 478 1090 477 1090 476 1089 475 1089 474 1088 473 1088 472 1087 471 1087 470 1085 468 1085 467 1081 463 1081 462 1079 460 1079 459 1076 456 1076 455 1071 450 1071 449 1069 447 1069 446 1068 445 1068 444 1067 443 1067 442 1066 441 1066 440 1065 439 1065 438 1064 437 1064 436 1062 434 1062 432 1061 431 1061 430 1060 429 1060 427 1059 426 1059 425 1058 424 1058 423 1057 422 1057 421 1056 420 1056 419 1055 418 1055 417 1054 416 1053 416 1050 413 1049 413 1047 411 1046 411 1044 409 1044 403 "/></svg>