<svg width="1920" height="1080" xmlns="http://www.w3.org/2000/svg"><path d="M1017 361 1016 362 1011 362 1010 363 1006 363 1005 364 1003 364 1002 365 1001 365 999 367 998 367 995 370 994 370 993 371 993 372 989 376 989 377 987 379 987 380 985 382 985 383 984 384 984 385 982 387 982 388 980 390 980 391 979 392 979 393 978 394 978 395 977 396 977 397 976 398 976 399 975 400 975 401 974 402 974 403 972 405 972 406 970 408 970 409 969 410 969 411 968 412 968 413 966 415 966 416 962 420 961 420 960 421 959 421 958 422 957 422 955 424 954 424 953 425 951 425 948 428 947 428 942 433 941 433 939 435 938 435 936 437 935 437 934 438 933 438 932 439 931 439 926 444 926 445 924 447 924 448 919 453 918 453 918 454 915 457 915 458 913 460 913 462 912 463 912 464 911 465 911 466 910 467 910 468 908 470 908 471 906 473 906 474 905 475 905 477 904 478 904 480 903 481 903 482 902 483 902 484 900 486 900 487 899 488 899 489 897 491 897 492 896 493 896 494 895 495 895 497 894 498 894 499 893 500 893 501 892 502 892 504 891 505 891 506 890 507 890 508 889 509 889 510 888 511 888 512 887 513 887 514 885 516 885 518 884 519 884 520 883 521 883 524 882 525 882 528 881 529 881 531 880 532 880 534 879 535 879 537 878 538 878 540 877 541 877 542 876 543 876 544 875 545 875 546 874 547 874 549 873 550 873 553 872 554 872 557 871 558 871 560 870 561 870 563 869 564 869 566 868 567 868 568 867 569 867 570 866 571 866 572 865 573 865 574 864 575 864 577 863 578 863 580 862 581 862 584 861 585 861 588 860 589 860 592 859 593 859 596 858 597 858 607 859 608 859 612 860 613 860 614 863 617 864 617 865 618 868 618 869 617 876 617 877 616 878 616 879 615 880 615 882 613 883 613 884 612 884 611 885 610 885 608 886 607 886 605 887 604 887 602 888 601 888 598 889 597 889 594 890 593 890 590 891 589 891 586 892 585 892 583 893 582 893 579 894 578 894 576 895 575 895 573 896 572 896 571 897 570 897 568 898 567 898 566 899 565 899 563 900 562 900 560 901 559 901 557 902 556 902 553 903 552 903 550 905 548 905 547 909 543 910 543 912 541 913 541 914 540 914 539 916 537 916 536 917 535 917 534 921 530 921 529 922 528 922 526 923 525 923 523 924 522 924 520 925 519 926 519 929 516 931 516 932 517 933 517 934 518 935 518 938 521 937 522 937 525 936 526 936 531 935 532 935 541 934 542 934 552 933 553 933 554 932 555 932 556 931 557 931 558 928 561 927 561 924 564 924 565 923 566 923 568 922 569 922 574 921 575 921 580 920 581 920 600 919 601 919 607 918 608 918 621 919 622 919 639 918 640 918 642 919 643 919 649 920 650 920 655 921 656 921 658 920 659 920 665 919 666 919 671 918 672 918 679 917 680 917 688 916 689 916 694 915 695 915 702 914 703 914 708 913 709 913 714 912 715 912 732 913 733 913 734 914 735 914 736 917 739 918 739 919 740 920 740 921 741 923 741 924 742 926 742 927 743 933 743 934 742 937 742 938 741 940 741 944 737 944 736 946 734 946 730 947 729 947 724 948 723 948 718 949 717 949 707 950 706 950 699 951 698 951 693 952 692 952 686 953 685 953 679 954 678 954 672 955 671 955 666 956 665 956 660 957 659 957 655 958 654 958 651 959 650 959 648 960 647 960 645 961 644 961 642 962 641 962 640 963 639 963 638 964 637 964 636 965 635 965 634 966 633 966 632 967 631 967 630 968 629 968 628 970 626 970 625 974 621 975 621 978 618 979 618 982 615 983 615 985 613 986 613 987 612 988 612 989 611 990 611 991 610 992 610 993 609 995 609 996 608 1006 608 1018 620 1018 621 1020 623 1020 624 1021 625 1021 627 1022 628 1022 630 1023 631 1023 633 1024 634 1024 636 1025 637 1025 638 1026 639 1026 640 1027 641 1027 642 1028 643 1028 648 1029 649 1029 654 1030 655 1030 661 1031 662 1031 668 1032 669 1032 716 1033 717 1033 725 1034 726 1034 731 1035 732 1035 734 1038 737 1039 737 1041 739 1042 739 1043 740 1044 740 1045 741 1046 741 1047 742 1053 742 1054 743 1063 743 1064 742 1070 742 1071 741 1072 741 1073 740 1075 740 1077 738 1078 738 1081 735 1081 732 1078 729 1078 728 1077 727 1077 726 1076 725 1076 723 1075 722 1075 720 1074 719 1074 717 1073 716 1073 715 1072 714 1072 713 1071 712 1071 711 1070 710 1070 709 1068 707 1068 705 1067 704 1067 702 1066 701 1066 695 1065 694 1065 676 1064 675 1064 671 1065 670 1065 600 1064 599 1064 593 1063 592 1063 588 1062 587 1062 583 1061 582 1061 579 1060 578 1060 575 1059 574 1059 572 1058 571 1058 569 1057 568 1057 565 1056 564 1056 560 1055 559 1055 556 1054 555 1054 553 1053 552 1053 550 1054 549 1054 546 1055 545 1055 542 1056 541 1056 539 1057 538 1057 536 1060 533 1062 533 1063 532 1064 532 1065 531 1067 531 1068 530 1070 530 1074 534 1074 535 1077 538 1077 539 1082 544 1082 545 1084 547 1084 548 1086 550 1086 553 1087 554 1087 556 1088 557 1088 559 1089 560 1089 563 1090 564 1090 565 1091 566 1091 567 1093 569 1093 570 1094 571 1094 572 1095 573 1095 575 1096 576 1096 577 1097 578 1097 580 1098 581 1098 590 1099 591 1099 597 1100 598 1100 600 1101 601 1101 603 1102 604 1102 605 1103 606 1103 607 1104 608 1104 610 1105 611 1105 615 1106 616 1106 623 1107 624 1107 629 1108 630 1108 633 1109 634 1109 637 1110 638 1110 640 1111 641 1111 642 1112 643 1112 644 1113 645 1113 646 1114 647 1115 647 1120 652 1121 652 1123 654 1124 654 1127 651 1128 651 1134 645 1134 644 1135 643 1135 639 1136 638 1136 624 1135 623 1135 617 1134 616 1134 612 1133 611 1133 607 1132 606 1132 602 1131 601 1131 595 1130 594 1130 588 1129 587 1129 579 1128 578 1128 568 1127 567 1127 559 1126 558 1126 553 1125 552 1125 548 1124 547 1124 545 1123 544 1123 541 1122 540 1122 538 1121 537 1121 534 1120 533 1120 530 1119 529 1119 524 1118 523 1118 519 1117 518 1117 514 1116 513 1116 509 1115 508 1115 505 1114 504 1114 502 1113 501 1113 499 1112 498 1112 497 1111 496 1111 494 1110 493 1110 491 1109 490 1109 487 1108 486 1108 483 1107 482 1107 479 1106 478 1106 475 1105 474 1105 472 1104 471 1104 470 1103 469 1103 467 1101 465 1101 464 1100 463 1100 462 1099 461 1099 460 1098 459 1098 458 1097 457 1097 456 1095 454 1095 453 1090 448 1090 447 1088 445 1088 444 1087 443 1087 442 1085 440 1085 439 1077 431 1077 430 1076 429 1076 428 1075 427 1075 426 1074 425 1074 423 1073 422 1073 421 1072 420 1072 419 1070 417 1070 416 1069 415 1069 414 1068 413 1068 411 1067 410 1067 408 1066 407 1066 405 1065 404 1065 402 1064 401 1064 399 1063 398 1063 397 1062 396 1062 394 1061 393 1061 392 1059 390 1059 389 1058 388 1058 387 1056 385 1056 383 1055 382 1055 381 1054 380 1054 379 1053 378 1053 377 1051 375 1051 374 1043 366 1042 366 1040 364 1039 364 1038 363 1035 363 1034 362 1029 362 1028 361 "/></svg>