<svg width="1920" height="1080" xmlns="http://www.w3.org/2000/svg"><path d="M1016 365 1016 371 1014 373 1010 373 1009 374 1008 374 1007 375 1006 375 1005 376 1004 376 1003 377 1001 377 1000 378 999 378 997 380 996 380 989 387 989 388 987 390 987 391 986 392 986 393 985 394 985 395 984 396 984 398 983 399 983 401 982 402 982 403 981 404 981 405 980 406 980 407 979 408 979 409 977 411 977 412 976 413 976 414 975 415 975 416 973 418 973 419 971 421 971 422 964 429 964 430 961 433 960 433 958 435 957 435 956 436 954 436 953 437 952 437 951 438 950 438 949 439 947 439 945 441 944 441 937 448 936 448 934 450 933 450 930 453 929 453 923 459 923 460 922 461 922 462 921 463 921 464 919 466 919 467 918 468 918 469 916 471 916 472 915 473 915 474 914 475 914 476 913 477 913 478 912 479 912 480 911 481 911 483 910 484 910 486 909 487 909 488 908 489 908 490 907 491 907 492 906 493 906 494 905 495 905 496 902 499 902 500 901 501 901 503 900 504 900 505 899 506 899 507 898 508 898 509 896 511 896 512 895 513 895 514 893 516 893 517 892 518 892 519 890 521 890 523 889 524 889 525 888 526 888 527 887 528 887 530 886 531 886 532 885 533 885 534 884 535 884 537 882 539 882 540 881 541 881 542 880 543 880 545 879 546 879 548 878 549 878 551 877 552 877 554 876 555 876 557 875 558 875 560 874 561 874 562 873 563 873 565 872 566 872 567 871 568 871 569 870 570 870 572 869 573 869 576 868 577 868 579 867 580 867 583 866 584 866 586 865 587 865 588 864 589 864 590 863 591 863 592 862 593 862 594 861 595 861 596 860 597 860 598 859 599 859 601 858 602 858 605 857 606 857 610 856 611 856 618 855 619 855 631 861 637 866 637 867 638 873 638 874 637 877 637 878 636 880 636 881 635 882 635 885 632 885 631 886 630 886 626 887 625 887 621 888 620 888 616 889 615 889 609 890 608 890 603 891 602 891 600 892 599 892 597 893 596 893 595 894 594 894 592 895 591 895 589 896 588 896 587 897 586 897 584 898 583 898 582 899 581 899 580 900 579 900 578 902 576 902 575 905 572 905 571 908 568 908 567 909 566 909 565 910 564 910 563 911 562 911 561 912 560 912 559 913 558 913 557 915 555 915 554 918 551 918 550 920 548 920 547 923 544 923 543 924 542 932 542 933 543 935 543 937 545 937 555 938 556 938 559 937 560 937 561 936 562 936 563 935 564 935 565 934 566 934 568 933 569 933 571 932 572 932 576 931 577 931 582 930 583 930 589 929 590 929 595 928 596 928 599 927 600 927 604 926 605 926 608 925 609 925 612 924 613 924 616 923 617 923 629 922 630 922 636 921 637 921 644 920 645 920 647 921 648 921 661 920 662 920 671 919 672 919 685 918 686 918 692 917 693 917 696 916 697 916 700 915 701 915 703 914 704 914 706 913 707 913 710 912 711 912 714 911 715 911 733 912 734 912 735 913 736 913 737 919 743 920 743 923 746 924 746 925 747 926 746 929 746 930 745 932 745 933 744 935 744 936 743 937 743 939 741 940 741 946 735 946 734 948 732 948 730 949 729 949 725 950 724 950 719 951 718 951 714 952 713 952 710 953 709 953 706 954 705 954 701 955 700 955 696 956 695 956 692 957 691 957 688 958 687 958 682 959 681 959 676 960 675 960 671 961 670 961 667 962 666 962 662 963 661 963 659 964 658 964 656 965 655 965 654 966 653 966 652 967 651 967 650 968 649 968 648 969 647 969 646 970 645 970 644 972 642 972 641 974 639 974 638 977 635 977 634 986 625 987 625 989 623 994 623 995 622 1002 622 1003 623 1006 623 1007 624 1009 624 1010 625 1011 625 1013 627 1013 628 1016 631 1016 632 1017 633 1017 634 1019 636 1019 637 1023 641 1023 642 1024 643 1024 644 1025 645 1025 648 1026 649 1026 654 1027 655 1027 662 1028 663 1028 694 1029 695 1029 718 1030 719 1030 727 1031 728 1031 732 1033 734 1034 734 1035 735 1036 735 1038 737 1039 737 1040 738 1041 738 1042 739 1048 739 1049 740 1064 740 1065 739 1067 739 1068 738 1069 738 1070 737 1071 737 1073 735 1074 735 1075 734 1075 733 1076 732 1076 730 1075 729 1075 727 1074 726 1074 724 1073 723 1073 721 1072 720 1072 717 1071 716 1071 715 1070 714 1070 711 1069 710 1069 708 1068 707 1068 704 1067 703 1067 695 1066 694 1066 683 1065 682 1065 664 1066 663 1066 642 1067 641 1067 633 1068 632 1068 627 1069 626 1069 623 1070 622 1070 621 1071 620 1071 618 1072 617 1072 616 1073 615 1073 613 1074 612 1074 610 1075 609 1075 608 1078 605 1079 605 1080 604 1084 604 1085 603 1087 605 1087 606 1089 608 1089 610 1090 611 1090 612 1091 613 1091 614 1092 615 1092 618 1093 619 1093 622 1094 623 1094 626 1095 627 1095 629 1096 630 1096 631 1097 632 1097 633 1098 634 1098 635 1099 636 1099 638 1100 639 1100 641 1101 642 1101 645 1102 646 1102 647 1103 648 1103 650 1104 651 1104 652 1105 653 1105 655 1107 657 1107 658 1109 660 1110 660 1111 661 1112 661 1114 663 1115 663 1116 664 1118 664 1119 663 1119 662 1120 661 1120 660 1121 659 1121 657 1122 656 1122 655 1123 654 1123 653 1124 652 1124 650 1125 649 1125 648 1126 647 1126 646 1127 645 1127 627 1126 626 1126 621 1125 620 1125 614 1124 613 1124 604 1123 603 1123 595 1122 594 1122 587 1121 586 1121 580 1120 579 1120 575 1119 574 1119 570 1118 569 1118 566 1117 565 1117 563 1116 562 1116 559 1115 558 1115 554 1114 553 1114 548 1113 547 1113 540 1112 539 1112 531 1111 530 1111 524 1110 523 1110 517 1109 516 1109 512 1108 511 1108 508 1107 507 1107 504 1106 503 1106 501 1105 500 1105 498 1104 497 1104 494 1103 493 1103 489 1102 488 1102 483 1101 482 1101 479 1100 478 1100 474 1099 473 1099 471 1098 470 1098 469 1095 466 1095 465 1092 462 1092 461 1091 460 1091 459 1090 458 1090 457 1089 456 1089 455 1088 454 1088 453 1082 447 1082 446 1080 444 1080 443 1078 441 1078 440 1071 433 1071 432 1069 430 1069 429 1068 428 1068 427 1067 426 1067 425 1066 424 1066 423 1064 421 1064 420 1062 418 1062 417 1061 416 1061 415 1060 414 1060 412 1059 411 1059 409 1058 408 1058 406 1057 405 1057 403 1056 402 1056 400 1055 399 1055 398 1054 397 1054 396 1053 395 1053 394 1052 393 1052 392 1051 391 1051 390 1050 389 1050 388 1049 387 1049 386 1042 379 1041 379 1040 378 1039 378 1038 377 1037 377 1036 376 1035 376 1034 375 1033 375 1032 374 1029 374 1028 373 1026 373 1025 372 1025 365 "/></svg>