<svg width="1920" height="1080" xmlns="http://www.w3.org/2000/svg"><path d="M987 301 987 309 981 315 981 316 980 317 980 318 979 319 979 320 978 321 978 322 977 323 977 325 976 326 976 335 975 336 975 344 974 345 974 346 973 347 973 349 972 350 972 351 970 353 970 354 969 355 969 356 968 357 968 359 966 361 966 362 961 367 960 367 958 369 957 369 956 370 955 370 953 372 952 372 948 376 947 376 944 379 943 379 941 381 940 381 939 382 937 382 936 383 935 383 934 384 933 384 932 385 931 385 930 386 929 386 928 387 926 387 921 392 921 393 919 395 919 396 914 401 913 401 903 411 903 412 899 416 899 417 891 425 891 426 890 427 890 428 889 429 889 430 888 431 888 432 887 433 887 434 886 435 886 436 884 438 884 439 881 442 881 443 880 444 880 446 879 447 879 449 878 450 878 452 877 453 877 455 876 456 876 459 875 460 875 465 874 466 874 470 873 471 873 474 872 475 872 477 871 478 871 483 870 484 870 490 869 491 869 497 868 498 868 503 867 504 867 515 866 516 866 528 867 529 867 532 868 533 868 536 869 537 869 538 870 539 870 540 871 541 871 542 872 543 872 544 875 547 876 547 879 550 880 550 881 551 883 551 884 550 892 550 893 549 894 549 895 548 896 548 899 545 899 539 898 538 898 530 897 529 897 514 896 513 896 508 895 507 895 505 894 504 894 501 893 500 893 498 892 497 892 495 891 494 892 493 892 490 893 489 893 486 894 485 894 482 895 481 895 477 896 476 896 475 897 474 897 472 898 471 898 470 899 469 899 468 900 467 900 466 901 465 901 464 902 463 902 462 904 460 904 459 905 458 906 458 909 455 910 455 911 454 912 454 914 452 917 452 918 451 921 451 922 450 927 450 928 449 937 449 938 450 939 450 941 452 942 452 949 459 949 477 948 478 948 480 947 481 947 484 946 485 946 488 945 489 945 493 944 494 944 495 943 496 943 497 934 506 933 506 932 507 932 508 929 511 929 513 928 514 928 515 927 516 927 517 926 518 926 519 925 520 925 521 924 522 924 523 923 524 923 526 922 527 922 529 921 530 921 532 920 533 920 535 919 536 919 537 918 538 918 539 917 540 917 542 916 543 916 544 915 545 916 546 916 553 917 554 917 566 918 567 918 580 919 581 919 590 920 591 920 599 919 600 919 610 918 611 918 653 917 654 917 669 916 670 916 681 915 682 915 685 914 686 914 690 913 691 913 695 912 696 912 703 911 704 911 711 910 712 910 714 911 715 911 725 912 726 912 730 914 732 914 733 915 734 916 734 918 736 919 736 921 738 922 738 923 739 924 739 925 740 927 740 928 741 934 741 935 742 937 742 938 741 939 741 941 739 942 739 945 736 946 736 948 734 948 733 949 732 949 731 950 730 950 725 951 724 951 710 952 709 952 700 953 699 953 680 954 679 954 669 955 668 955 660 956 659 956 655 957 654 957 651 958 650 958 648 959 647 959 645 960 644 960 640 961 639 961 636 962 635 962 631 963 630 963 626 964 625 964 621 965 620 965 617 966 616 966 612 967 611 967 609 968 608 968 607 969 606 969 605 971 603 971 602 972 601 972 600 973 599 973 598 974 597 974 596 975 595 975 594 977 592 977 591 983 585 984 585 986 583 987 583 990 580 991 580 993 578 1004 578 1009 583 1010 583 1014 587 1015 587 1017 589 1017 590 1019 592 1019 593 1020 594 1020 596 1021 597 1021 599 1022 600 1022 603 1023 604 1023 606 1024 607 1024 609 1025 610 1025 613 1026 614 1026 619 1027 620 1027 623 1028 624 1028 628 1029 629 1029 635 1030 636 1030 643 1031 644 1031 653 1032 654 1032 676 1033 677 1033 705 1034 706 1034 721 1035 722 1035 729 1036 730 1036 731 1043 738 1044 738 1045 739 1046 739 1048 741 1049 741 1050 742 1052 742 1053 743 1054 743 1055 744 1057 744 1059 746 1062 746 1063 747 1072 747 1073 746 1074 746 1076 744 1077 744 1083 738 1083 737 1085 735 1085 734 1086 733 1086 731 1087 730 1086 729 1086 728 1084 726 1084 725 1081 722 1081 721 1080 720 1080 719 1079 718 1079 716 1078 715 1078 712 1077 711 1077 709 1076 708 1076 706 1075 705 1075 702 1074 701 1074 699 1073 698 1073 695 1072 694 1072 688 1071 687 1071 682 1070 681 1070 675 1071 674 1071 662 1072 661 1072 657 1073 656 1073 650 1074 649 1074 642 1075 641 1075 632 1076 631 1076 617 1075 616 1075 595 1074 594 1074 589 1073 588 1073 585 1072 584 1072 581 1071 580 1071 576 1070 575 1070 570 1069 569 1069 563 1068 562 1068 558 1067 557 1067 552 1066 551 1066 546 1065 545 1065 543 1064 542 1064 540 1063 539 1063 538 1062 537 1062 536 1061 535 1061 534 1059 532 1059 531 1057 529 1057 528 1056 527 1056 519 1055 518 1055 503 1054 502 1054 494 1055 493 1055 492 1056 491 1056 490 1057 489 1057 488 1058 487 1058 486 1062 482 1063 482 1065 480 1066 480 1069 477 1070 477 1072 475 1074 475 1075 476 1083 476 1097 490 1097 491 1098 492 1098 493 1099 494 1099 497 1100 498 1100 500 1101 501 1101 504 1102 505 1102 508 1103 509 1103 511 1104 512 1104 513 1106 515 1106 516 1108 518 1108 519 1110 521 1110 522 1111 523 1111 525 1112 526 1112 529 1113 530 1113 535 1114 536 1114 541 1115 542 1115 546 1116 547 1116 550 1117 551 1117 553 1118 554 1118 556 1119 557 1119 560 1120 561 1120 566 1121 567 1121 571 1122 572 1122 576 1123 577 1123 583 1124 584 1124 589 1125 590 1125 595 1126 596 1126 598 1127 599 1127 600 1128 601 1128 602 1129 603 1129 604 1131 606 1131 607 1134 610 1134 611 1135 611 1137 613 1138 613 1139 614 1140 614 1142 612 1143 612 1149 606 1150 606 1150 605 1151 604 1151 603 1152 602 1152 601 1153 600 1153 599 1154 598 1154 596 1155 595 1154 594 1154 584 1153 583 1153 576 1152 575 1152 571 1151 570 1151 567 1150 566 1150 563 1149 562 1149 560 1148 559 1148 556 1147 555 1147 552 1146 551 1146 547 1145 546 1145 540 1144 539 1144 532 1143 531 1143 525 1142 524 1142 521 1141 520 1141 518 1140 517 1140 514 1139 513 1139 512 1138 511 1138 509 1137 508 1137 506 1136 505 1136 503 1135 502 1135 500 1134 499 1134 496 1133 495 1133 491 1132 490 1132 487 1131 486 1131 483 1130 482 1130 479 1129 478 1129 476 1128 475 1128 474 1127 473 1127 471 1126 470 1126 469 1125 468 1125 466 1124 465 1124 463 1123 462 1123 459 1122 458 1122 456 1121 455 1121 454 1120 453 1120 451 1119 450 1119 449 1118 448 1118 447 1117 446 1117 445 1116 444 1116 443 1115 442 1115 441 1114 440 1114 439 1113 438 1113 437 1112 436 1112 435 1111 434 1111 433 1110 432 1110 430 1109 429 1109 428 1108 427 1108 426 1107 425 1107 424 1106 423 1106 422 1105 421 1105 420 1104 419 1104 418 1103 417 1103 416 1102 415 1102 413 1101 412 1101 410 1100 409 1100 407 1099 406 1099 405 1098 404 1098 402 1097 401 1097 400 1095 398 1095 397 1093 395 1093 394 1091 392 1091 391 1089 389 1089 388 1078 377 1078 376 1071 369 1070 369 1066 365 1065 365 1060 360 1060 359 1059 358 1059 357 1058 356 1058 355 1057 354 1057 353 1056 352 1056 350 1055 349 1055 348 1054 347 1054 345 1053 344 1053 342 1052 341 1052 338 1051 337 1051 334 1050 333 1050 330 1049 329 1049 327 1048 326 1048 325 1046 323 1046 322 1043 319 1043 318 1040 315 1040 314 1035 309 1035 301 "/></svg>