<svg width="1920" height="1080" xmlns="http://www.w3.org/2000/svg"><path d="M1022 366 1021 367 1018 367 1017 368 1014 368 1013 369 1010 369 1009 370 1008 370 1007 371 1005 371 1004 372 1001 372 999 374 998 374 995 377 994 377 992 379 992 380 989 383 989 384 987 386 987 387 986 388 986 389 985 390 985 392 984 393 984 394 983 395 983 396 982 397 982 398 981 399 981 400 980 401 980 402 978 404 978 405 977 406 977 407 976 408 976 409 975 410 975 411 973 413 973 414 971 416 971 417 966 422 966 423 960 429 959 429 957 431 955 431 954 432 953 432 952 433 951 433 950 434 949 434 948 435 947 435 945 437 944 437 937 444 936 444 934 446 933 446 931 448 930 448 924 454 924 455 922 457 922 458 919 461 919 462 915 466 915 467 913 469 913 471 912 472 912 473 911 474 911 475 910 476 910 478 909 479 909 480 908 481 908 482 907 483 907 484 906 485 906 486 905 487 905 488 903 490 903 491 902 492 902 493 901 494 901 495 900 496 900 497 899 498 899 499 898 500 898 501 897 502 897 503 895 505 895 506 892 509 892 510 891 511 891 512 890 513 890 515 889 516 889 517 888 518 888 519 887 520 887 521 886 522 886 523 885 524 885 525 884 526 884 527 883 528 883 529 882 530 882 531 881 532 881 534 880 535 880 536 879 537 879 539 878 540 878 541 877 542 877 544 876 545 876 547 875 548 875 549 874 550 874 551 873 552 873 553 872 554 872 555 871 556 871 557 870 558 870 560 869 561 869 564 868 565 868 567 867 568 867 571 866 572 866 575 865 576 865 578 864 579 864 580 863 581 863 583 861 585 861 587 860 588 860 590 859 591 859 593 858 594 858 596 857 597 857 602 856 603 856 611 855 612 855 617 856 618 856 621 857 622 857 624 858 625 858 627 859 628 859 629 861 631 867 631 868 632 872 632 873 631 874 631 875 630 876 630 877 629 878 629 882 625 882 624 883 623 883 622 884 621 884 620 885 619 885 618 886 617 886 616 887 615 887 610 888 609 888 604 889 603 889 599 890 598 890 595 891 594 891 591 892 590 892 588 893 587 893 585 894 584 894 583 895 582 895 581 896 580 896 578 897 577 897 576 898 575 898 574 899 573 899 571 901 569 901 568 902 567 902 566 910 558 910 557 925 542 926 542 928 544 928 545 929 546 929 547 930 548 930 550 931 551 931 554 932 555 932 557 931 558 931 561 930 562 930 566 929 567 929 570 928 571 928 576 927 577 927 583 926 584 926 586 925 587 925 588 924 589 924 590 923 591 923 592 922 593 922 595 921 596 921 599 920 600 920 606 919 607 919 613 918 614 918 617 919 618 919 646 920 647 920 670 919 671 919 685 918 686 918 692 917 693 917 696 916 697 916 699 915 700 915 702 914 703 914 706 913 707 913 710 912 711 912 714 911 715 911 732 912 733 912 734 913 735 913 736 917 740 918 740 920 742 921 742 922 743 923 743 924 744 925 744 926 745 927 744 932 744 933 743 936 743 937 742 938 742 945 735 945 734 947 732 947 729 948 728 948 725 949 724 949 721 950 720 950 716 951 715 951 711 952 710 952 706 953 705 953 700 954 699 954 693 955 692 955 687 956 686 956 681 957 680 957 676 958 675 958 671 959 670 959 667 960 666 960 662 961 661 961 657 962 656 962 654 963 653 963 650 964 649 964 647 965 646 965 644 966 643 966 642 968 640 968 639 971 636 971 635 973 633 973 632 975 630 975 629 981 623 982 623 984 621 985 621 986 620 987 620 988 619 989 619 990 618 995 618 996 617 1001 617 1002 618 1003 618 1004 619 1005 619 1006 620 1007 620 1008 621 1009 621 1010 622 1011 622 1015 626 1015 627 1016 628 1016 629 1017 630 1017 631 1018 632 1018 633 1019 634 1019 635 1021 637 1021 638 1023 640 1023 641 1025 643 1025 645 1026 646 1026 650 1027 651 1027 656 1028 657 1028 665 1029 666 1029 693 1030 694 1030 715 1031 716 1031 722 1032 723 1032 727 1033 728 1033 732 1036 735 1037 735 1039 737 1040 737 1041 738 1042 738 1043 739 1044 739 1045 740 1050 740 1051 741 1065 741 1066 740 1069 740 1070 739 1071 739 1072 738 1073 738 1074 737 1075 737 1077 735 1077 734 1078 733 1078 732 1077 731 1077 729 1076 728 1076 727 1075 726 1075 725 1074 724 1074 723 1073 722 1073 719 1072 718 1072 717 1071 716 1071 714 1070 713 1070 711 1069 710 1069 708 1068 707 1068 705 1067 704 1067 700 1066 699 1066 695 1065 694 1065 691 1064 690 1064 656 1065 655 1065 631 1066 630 1066 601 1065 600 1065 599 1064 598 1064 597 1063 596 1063 594 1062 593 1062 592 1061 591 1061 589 1060 588 1060 585 1059 584 1059 579 1058 578 1058 575 1057 574 1057 572 1056 571 1056 568 1055 567 1055 565 1054 564 1054 561 1053 560 1053 554 1054 553 1054 552 1055 551 1055 550 1056 549 1056 548 1060 544 1060 543 1062 541 1063 541 1065 539 1066 539 1070 543 1070 544 1076 550 1076 551 1078 553 1078 554 1079 555 1079 556 1080 557 1080 565 1081 566 1081 571 1082 572 1082 573 1086 577 1087 577 1088 578 1088 579 1089 580 1089 581 1090 582 1090 583 1091 584 1091 587 1092 588 1092 595 1093 596 1093 601 1094 602 1094 603 1095 604 1095 606 1096 607 1096 608 1097 609 1097 610 1098 611 1098 612 1099 613 1099 614 1100 615 1100 617 1101 618 1101 622 1102 623 1102 628 1103 629 1103 633 1104 634 1104 636 1105 637 1105 640 1106 641 1106 643 1107 644 1107 645 1108 646 1108 647 1112 651 1113 651 1115 653 1116 653 1118 655 1120 655 1122 653 1123 653 1125 651 1125 650 1130 645 1130 641 1131 640 1131 623 1130 622 1130 617 1129 616 1129 612 1128 611 1128 606 1127 605 1127 599 1126 598 1126 592 1125 591 1125 583 1124 582 1124 572 1123 571 1123 566 1122 565 1122 561 1121 560 1121 556 1120 555 1120 553 1119 552 1119 550 1118 549 1118 547 1117 546 1117 542 1116 541 1116 537 1115 536 1115 531 1114 530 1114 524 1113 523 1113 518 1112 517 1112 512 1111 511 1111 508 1110 507 1110 504 1109 503 1109 501 1108 500 1108 498 1107 497 1107 495 1106 494 1106 491 1105 490 1105 487 1104 486 1104 483 1103 482 1103 478 1102 477 1102 474 1101 473 1101 470 1100 469 1100 467 1099 466 1099 465 1097 463 1097 462 1094 459 1094 458 1093 457 1093 456 1092 455 1092 454 1091 453 1091 452 1090 451 1090 450 1087 447 1087 446 1082 441 1082 440 1081 439 1081 438 1079 436 1079 435 1074 430 1074 429 1072 427 1072 426 1070 424 1070 423 1069 422 1069 421 1068 420 1068 419 1067 418 1067 417 1065 415 1065 414 1063 412 1063 411 1062 410 1062 408 1061 407 1061 405 1060 404 1060 403 1059 402 1059 400 1058 399 1058 398 1057 397 1057 396 1056 395 1056 393 1055 392 1055 391 1054 390 1054 389 1053 388 1053 386 1052 385 1052 384 1051 383 1051 382 1050 381 1050 380 1043 373 1042 373 1041 372 1040 372 1039 371 1038 371 1037 370 1035 370 1034 369 1032 369 1031 368 1028 368 1027 367 1024 367 1023 366 "/></svg>