<svg width="1920" height="1080" xmlns="http://www.w3.org/2000/svg"><path d="M1011 325 1010 326 1005 326 1004 327 1000 327 999 328 998 328 997 329 995 329 994 330 993 330 992 331 991 331 990 332 989 332 988 333 987 333 981 339 981 340 980 341 980 342 979 343 979 344 978 345 978 347 977 348 977 350 976 351 976 353 975 354 975 356 974 357 974 359 973 360 973 361 972 362 972 364 971 365 971 366 970 367 970 368 969 369 969 370 967 372 967 373 959 381 958 381 955 384 954 384 951 387 951 388 945 394 944 394 943 395 942 395 941 396 939 396 938 397 937 397 936 398 935 398 934 399 933 399 932 400 931 400 925 406 925 407 922 410 921 410 920 411 920 412 914 418 914 419 912 421 912 422 898 436 898 437 897 438 897 439 895 441 895 442 893 444 893 445 890 448 890 449 886 453 886 455 885 456 885 457 884 458 884 460 883 461 883 462 882 463 882 464 881 465 881 466 880 467 880 468 879 469 879 470 878 471 878 475 877 476 877 480 876 481 876 485 875 486 875 493 874 494 874 500 873 501 873 505 872 506 872 508 871 509 871 512 870 513 870 515 869 516 869 519 868 520 868 524 867 525 867 529 866 530 866 534 865 535 865 539 866 540 866 547 867 548 867 552 868 553 868 554 871 557 871 558 873 560 873 561 876 564 876 565 878 565 880 563 881 563 882 562 883 562 885 560 886 560 888 558 888 557 889 556 889 554 890 553 890 536 891 535 891 526 892 525 892 515 891 514 891 504 890 503 891 502 891 499 892 498 892 495 893 494 893 492 894 491 894 489 895 488 895 487 897 485 897 484 899 482 900 482 904 478 905 478 906 477 907 477 909 475 910 475 914 471 914 470 920 464 921 464 922 463 925 463 926 462 930 462 931 461 933 461 934 462 936 462 937 463 938 463 939 464 940 464 941 465 942 465 947 470 947 475 948 476 948 491 947 492 947 495 946 496 946 499 945 500 945 503 943 505 943 506 941 508 941 509 938 512 938 513 932 519 932 520 931 521 931 522 930 523 930 525 929 526 929 527 928 528 928 530 927 531 927 533 926 534 926 536 925 537 925 540 924 541 924 543 923 544 923 546 922 547 922 549 921 550 921 552 920 553 920 556 919 557 919 560 918 561 918 564 917 565 917 570 916 571 916 581 915 582 915 587 916 588 916 597 917 598 917 608 916 609 916 649 917 650 917 651 916 652 916 672 915 673 915 687 914 688 914 694 913 695 913 699 912 700 912 704 911 705 911 709 910 710 910 713 909 714 909 719 910 720 910 726 911 727 911 731 912 732 912 733 919 740 920 740 921 741 922 741 923 742 926 742 927 743 930 743 931 744 934 744 935 743 937 743 938 742 939 742 940 741 942 741 943 740 944 740 944 739 947 736 947 735 948 734 948 733 949 732 949 722 950 721 950 702 951 701 951 680 952 679 952 669 953 668 953 664 954 663 954 661 955 660 955 658 956 657 956 655 957 654 957 651 958 650 958 646 959 645 959 639 960 638 960 634 961 633 961 628 962 627 962 624 963 623 963 619 964 618 964 616 965 615 965 614 967 612 967 611 968 610 968 609 969 608 969 607 970 606 970 605 971 604 971 603 972 602 972 600 974 598 974 597 976 595 976 594 978 592 979 592 987 584 987 583 989 581 990 581 991 580 993 580 994 579 996 579 997 578 999 578 1000 577 1001 577 1002 578 1003 578 1005 580 1006 580 1007 581 1008 581 1009 582 1010 582 1014 586 1014 587 1015 588 1015 589 1016 590 1016 591 1018 593 1018 594 1019 595 1019 597 1020 598 1020 599 1021 600 1021 601 1022 602 1022 604 1023 605 1023 606 1024 607 1024 609 1025 610 1025 612 1026 613 1026 615 1027 616 1027 622 1028 623 1028 631 1029 632 1029 648 1030 649 1030 657 1031 658 1031 663 1032 664 1032 679 1031 680 1031 687 1032 688 1032 720 1033 721 1033 725 1034 726 1034 728 1035 729 1035 731 1036 732 1036 733 1043 740 1044 740 1045 741 1046 741 1047 742 1049 742 1050 743 1052 743 1053 744 1055 744 1056 745 1067 745 1068 746 1069 745 1070 745 1071 744 1073 744 1074 743 1075 743 1076 742 1077 742 1078 741 1079 741 1081 739 1082 739 1083 738 1083 737 1085 735 1085 734 1086 733 1085 732 1085 731 1083 729 1083 728 1081 726 1081 725 1079 723 1079 722 1078 721 1078 720 1077 719 1077 717 1076 716 1076 715 1075 714 1075 712 1074 711 1074 709 1073 708 1073 706 1072 705 1072 703 1071 702 1071 697 1070 696 1070 689 1069 688 1069 673 1070 672 1070 662 1071 661 1071 653 1072 652 1072 597 1071 596 1071 589 1070 588 1070 582 1069 581 1069 575 1068 574 1068 569 1067 568 1067 566 1066 565 1066 563 1065 562 1065 559 1064 558 1064 555 1063 554 1063 551 1062 550 1062 547 1061 546 1061 544 1060 543 1060 542 1059 541 1059 539 1058 538 1058 537 1057 536 1057 533 1056 532 1056 527 1055 526 1055 522 1054 521 1054 513 1053 512 1053 502 1054 501 1054 500 1055 499 1055 498 1056 497 1056 496 1058 494 1059 494 1066 487 1067 487 1068 486 1079 486 1088 495 1089 495 1092 498 1092 499 1093 500 1093 501 1095 503 1095 507 1096 508 1096 511 1097 512 1097 514 1098 515 1098 518 1099 519 1099 521 1101 523 1101 524 1104 527 1104 528 1105 529 1105 530 1107 532 1107 534 1108 535 1108 538 1109 539 1109 545 1110 546 1110 551 1111 552 1111 556 1112 557 1112 561 1113 562 1113 564 1114 565 1114 568 1115 569 1115 582 1116 583 1116 596 1117 597 1117 604 1118 605 1118 608 1119 609 1119 613 1120 614 1120 617 1121 618 1121 619 1124 622 1127 622 1128 623 1131 623 1132 624 1138 624 1139 623 1141 623 1142 622 1143 622 1144 621 1145 621 1149 617 1149 614 1150 613 1150 611 1151 610 1151 606 1152 605 1152 595 1151 594 1151 588 1150 587 1150 582 1149 581 1149 578 1148 577 1148 574 1147 573 1147 571 1146 570 1146 568 1145 567 1145 565 1144 564 1144 562 1143 561 1143 558 1142 557 1142 554 1141 553 1141 546 1140 545 1140 536 1139 535 1139 531 1138 530 1138 527 1137 526 1137 522 1136 521 1136 519 1135 518 1135 517 1134 516 1134 515 1133 514 1133 512 1132 511 1132 510 1131 509 1131 507 1130 506 1130 503 1129 502 1129 499 1128 498 1128 495 1127 494 1127 491 1126 490 1126 488 1125 487 1125 485 1124 484 1124 483 1123 482 1123 481 1122 480 1122 478 1121 477 1121 475 1120 474 1120 472 1119 471 1119 469 1118 468 1118 466 1117 465 1117 463 1116 462 1116 460 1115 459 1115 457 1114 456 1114 455 1113 454 1113 453 1111 451 1111 450 1110 449 1110 448 1109 447 1109 446 1108 445 1108 444 1107 443 1107 442 1106 441 1106 439 1105 438 1105 437 1104 436 1104 435 1103 434 1103 433 1102 432 1102 431 1100 429 1100 428 1099 427 1099 426 1098 425 1098 423 1097 422 1097 421 1096 420 1096 418 1095 417 1095 415 1094 414 1094 413 1093 412 1093 411 1092 410 1092 409 1090 407 1090 406 1088 404 1088 403 1087 402 1087 401 1085 399 1085 398 1084 397 1084 396 1082 394 1082 393 1080 391 1080 390 1078 388 1078 387 1075 384 1075 383 1065 373 1065 372 1064 371 1064 370 1062 368 1062 367 1061 366 1061 365 1059 363 1059 362 1057 360 1057 359 1055 357 1055 356 1054 355 1054 353 1053 352 1053 351 1052 350 1052 349 1051 348 1051 347 1049 345 1049 344 1047 342 1047 341 1040 334 1039 334 1037 332 1036 332 1035 331 1034 331 1033 330 1032 330 1031 329 1029 329 1028 328 1027 328 1026 327 1024 327 1023 326 1015 326 1014 325 "/></svg>