<svg width="1920" height="1080" xmlns="http://www.w3.org/2000/svg"><path d="M1013 354 1012 355 1006 355 1005 356 1003 356 1002 357 1000 357 999 358 997 358 996 359 995 359 994 360 993 360 989 364 989 365 987 367 987 368 984 371 984 372 982 374 982 375 981 376 981 377 980 378 980 379 979 380 979 381 978 382 978 384 977 385 977 386 976 387 976 388 975 389 975 390 974 391 974 392 973 393 973 394 971 396 971 397 970 398 970 399 968 401 968 402 966 404 966 405 964 407 964 408 957 415 956 415 954 417 953 417 952 418 951 418 950 419 949 419 948 420 947 420 946 421 945 421 944 422 943 422 940 425 939 425 939 426 936 429 935 429 932 432 931 432 929 434 928 434 923 439 923 440 921 442 921 443 913 451 913 452 911 454 911 455 910 456 910 457 909 458 909 459 907 461 907 462 905 464 905 465 904 466 904 467 903 468 903 469 902 470 902 471 901 472 901 473 900 474 900 475 899 476 899 477 895 481 895 482 893 484 893 485 892 486 892 487 891 488 891 490 890 491 890 492 889 493 889 494 888 495 888 496 885 499 885 500 884 501 884 502 883 503 883 504 882 505 882 507 881 508 881 510 880 511 880 513 879 514 879 515 878 516 878 518 877 519 877 521 876 522 876 524 875 525 875 527 874 528 874 529 873 530 873 532 872 533 872 537 871 538 871 541 870 542 870 545 869 546 869 548 868 549 868 551 867 552 867 553 866 554 866 555 865 556 865 557 864 558 864 559 863 560 863 562 862 563 862 565 861 566 861 571 860 572 860 577 859 578 859 590 858 591 858 596 859 597 859 599 860 600 860 602 861 603 861 604 862 605 862 606 864 608 865 608 866 609 867 609 869 611 871 611 872 612 877 612 878 611 880 611 882 609 883 609 884 608 885 608 888 605 888 604 890 602 890 601 891 600 891 599 892 598 892 596 893 595 893 568 894 567 894 559 895 558 895 552 896 551 896 548 897 547 897 546 898 545 898 544 899 543 899 541 900 540 900 539 901 538 901 537 902 536 902 535 903 534 903 533 909 527 909 526 911 524 911 523 912 522 912 521 913 520 913 518 915 516 915 515 918 512 919 512 921 510 922 510 924 508 925 508 926 507 927 507 928 506 933 506 934 507 937 507 938 508 939 508 942 511 942 512 944 514 944 515 945 516 945 517 946 518 946 519 945 520 945 521 944 522 944 524 943 525 943 527 942 528 942 530 941 531 941 533 940 534 940 535 939 536 939 537 938 538 938 539 937 540 937 542 936 543 936 546 935 547 935 549 934 550 934 552 933 553 933 554 932 555 932 556 931 557 931 558 929 560 929 561 928 562 927 562 926 563 926 564 924 566 924 567 923 568 923 570 922 571 922 572 921 573 921 574 920 575 920 577 919 578 919 579 918 580 918 583 917 584 917 587 916 588 916 592 915 593 915 596 914 597 914 603 913 604 913 618 914 619 914 628 915 629 915 643 916 644 916 652 917 653 917 662 916 663 916 671 915 672 915 688 914 689 914 698 913 699 913 708 912 709 912 716 911 717 911 723 912 724 912 733 913 734 913 736 918 741 919 741 920 742 921 742 922 743 924 743 925 744 926 744 927 745 932 745 933 744 938 744 939 743 940 743 945 738 945 737 947 735 947 731 948 730 948 726 949 725 949 721 950 720 950 706 951 705 951 696 952 695 952 688 953 687 953 678 954 677 954 670 955 669 955 662 956 661 956 655 957 654 957 650 958 649 958 645 959 644 959 641 960 640 960 638 961 637 961 636 962 635 962 633 963 632 963 630 964 629 964 627 965 626 965 625 966 624 966 623 968 621 968 620 976 612 976 611 979 608 980 608 983 605 985 605 986 604 988 604 989 603 992 603 993 602 1005 602 1006 603 1007 603 1009 605 1010 605 1017 612 1017 613 1018 614 1018 615 1019 616 1019 617 1020 618 1020 620 1021 621 1021 623 1022 624 1022 626 1023 627 1023 630 1024 631 1024 633 1025 634 1025 636 1026 637 1026 638 1027 639 1027 640 1028 641 1028 643 1029 644 1029 651 1030 652 1030 659 1031 660 1031 666 1032 667 1032 706 1033 707 1033 724 1034 725 1034 729 1035 730 1035 734 1037 736 1037 737 1038 738 1039 738 1040 739 1041 739 1043 741 1044 741 1045 742 1046 742 1047 743 1051 743 1052 744 1067 744 1068 743 1072 743 1073 742 1074 742 1075 741 1077 741 1082 736 1082 734 1080 732 1080 731 1078 729 1078 728 1077 727 1077 726 1076 725 1076 723 1075 722 1075 720 1074 719 1074 718 1073 717 1073 716 1072 715 1072 714 1071 713 1071 712 1069 710 1069 709 1068 708 1068 707 1067 706 1067 703 1066 702 1066 697 1065 696 1065 689 1064 688 1064 667 1065 666 1065 593 1064 592 1064 585 1063 584 1063 579 1062 578 1062 574 1061 573 1061 571 1060 570 1060 568 1059 567 1059 565 1058 564 1058 562 1057 561 1057 559 1056 558 1056 555 1055 554 1055 552 1054 551 1054 541 1055 540 1055 533 1057 531 1057 530 1060 527 1061 527 1062 526 1063 526 1064 525 1066 525 1067 524 1068 524 1069 523 1071 523 1073 525 1073 526 1076 529 1076 530 1078 532 1078 533 1079 534 1079 535 1082 538 1082 539 1084 541 1084 542 1085 543 1085 544 1087 546 1087 547 1088 548 1088 549 1089 550 1089 552 1090 553 1090 555 1091 556 1091 558 1092 559 1092 561 1093 562 1093 564 1094 565 1094 566 1095 567 1095 568 1096 569 1096 570 1097 571 1097 573 1098 574 1098 576 1099 577 1099 579 1100 580 1100 586 1101 587 1101 594 1102 595 1102 598 1103 599 1103 600 1104 601 1104 603 1105 604 1105 606 1106 607 1106 609 1107 610 1107 616 1108 617 1108 624 1109 625 1109 629 1110 630 1110 633 1111 634 1111 636 1112 637 1112 638 1113 639 1113 641 1114 642 1114 643 1118 647 1119 647 1123 651 1124 651 1125 652 1126 652 1127 651 1129 651 1130 650 1131 650 1132 649 1133 649 1134 648 1136 648 1136 647 1138 645 1138 644 1139 643 1139 634 1140 633 1140 624 1139 623 1139 613 1138 612 1138 607 1137 606 1137 602 1136 601 1136 597 1135 596 1135 594 1134 593 1134 591 1133 590 1133 587 1132 586 1132 581 1131 580 1131 572 1130 571 1130 561 1129 560 1129 552 1128 551 1128 545 1127 544 1127 540 1126 539 1126 535 1125 534 1125 533 1124 532 1124 530 1123 529 1123 527 1122 526 1122 523 1121 522 1121 519 1120 518 1120 513 1119 512 1119 508 1118 507 1118 502 1117 501 1117 498 1116 497 1116 494 1115 493 1115 492 1114 491 1114 489 1113 488 1113 486 1112 485 1112 483 1111 482 1111 480 1110 479 1110 476 1109 475 1109 472 1108 471 1108 468 1107 467 1107 465 1106 464 1106 463 1105 462 1105 460 1104 459 1104 458 1103 457 1103 456 1100 453 1100 452 1098 450 1098 449 1096 447 1096 446 1094 444 1094 443 1092 441 1092 440 1090 438 1090 437 1087 434 1087 433 1083 429 1083 428 1080 425 1080 424 1078 422 1078 421 1076 419 1076 418 1075 417 1075 416 1073 414 1073 413 1072 412 1072 411 1071 410 1071 409 1070 408 1070 407 1069 406 1069 405 1068 404 1068 403 1067 402 1067 400 1066 399 1066 398 1065 397 1065 395 1064 394 1064 392 1063 391 1063 390 1062 389 1062 388 1060 386 1060 385 1059 384 1059 383 1058 382 1058 381 1057 380 1057 379 1056 378 1056 376 1055 375 1055 374 1054 373 1054 372 1052 370 1052 369 1050 367 1050 366 1043 359 1042 359 1041 358 1040 358 1039 357 1037 357 1036 356 1033 356 1032 355 1029 355 1028 354 "/></svg>