<svg width="1920" height="1080" xmlns="http://www.w3.org/2000/svg"><path d="M1018 389 1017 390 1010 390 1009 391 1007 391 1006 392 1004 392 1003 393 1002 393 1001 394 999 394 992 401 992 402 988 406 988 407 987 408 987 409 986 410 986 411 985 412 985 414 984 415 984 416 983 417 983 418 982 419 982 420 980 422 980 423 978 425 978 426 976 428 976 429 974 431 974 432 966 440 965 440 965 441 963 443 962 443 959 446 958 446 957 447 956 447 955 448 954 448 953 449 952 449 951 450 950 450 949 451 948 451 947 452 946 452 943 455 942 455 936 461 935 461 933 463 932 463 928 467 927 467 926 468 926 469 924 471 924 472 922 474 922 475 920 477 920 478 917 481 917 482 916 483 916 484 915 485 915 486 914 487 914 488 913 489 913 490 912 491 912 492 911 493 911 495 910 496 910 497 909 498 909 500 907 502 907 503 906 504 906 505 905 506 905 507 904 508 904 509 903 510 903 512 902 513 902 515 901 516 901 518 900 519 900 520 899 521 899 523 898 524 898 525 897 526 897 527 895 529 895 530 894 531 894 532 893 533 893 534 892 535 892 536 891 537 891 539 890 540 890 543 889 544 889 545 888 546 888 548 887 549 887 550 886 551 886 552 885 553 885 554 884 555 884 557 883 558 883 560 882 561 882 563 881 564 881 567 880 568 880 571 879 572 879 575 878 576 878 578 877 579 877 581 876 582 876 583 875 584 875 585 874 586 874 587 873 588 873 589 872 590 872 592 871 593 871 595 870 596 870 598 869 599 869 601 868 602 868 603 867 604 867 605 866 606 866 607 865 608 865 609 864 610 864 612 863 613 863 614 862 615 862 617 861 618 861 620 860 621 860 623 859 624 859 626 858 627 858 629 857 630 857 631 856 632 856 634 855 635 855 645 854 646 854 648 855 649 855 650 856 651 856 652 858 654 858 655 861 658 861 659 864 662 865 662 866 661 868 661 869 660 871 660 872 659 874 659 875 658 876 658 881 653 881 652 883 650 883 648 884 647 884 646 885 645 885 643 886 642 886 640 887 639 887 636 888 635 888 631 889 630 889 626 890 625 890 621 891 620 891 618 892 617 892 616 893 615 893 613 894 612 894 611 895 610 895 609 896 608 896 607 897 606 897 605 898 604 898 603 899 602 899 601 901 599 901 598 902 597 902 596 903 595 903 594 908 589 909 589 912 586 913 586 920 579 920 578 921 577 921 576 922 575 922 573 923 572 923 567 924 566 924 565 926 563 928 563 929 564 930 564 931 565 932 565 933 566 932 567 932 577 931 578 931 579 932 580 932 592 933 593 932 594 932 624 931 625 931 640 930 641 930 646 929 647 929 659 928 660 928 665 927 666 927 667 926 668 926 670 925 671 925 674 924 675 924 678 923 679 923 683 922 684 922 689 921 690 921 694 920 695 920 699 919 700 919 703 918 704 918 706 917 707 917 708 916 709 916 710 915 711 915 712 914 713 914 715 913 716 913 721 912 722 912 729 911 730 911 731 912 732 912 734 913 735 913 736 914 737 914 738 915 739 915 740 916 741 916 742 917 742 920 745 921 745 922 746 923 746 924 747 925 747 926 748 927 748 928 747 930 747 931 746 933 746 934 745 936 745 939 742 940 742 947 735 947 734 949 732 949 729 950 728 950 724 951 723 951 719 952 718 952 715 953 714 953 711 954 710 954 708 955 707 955 705 956 704 956 702 957 701 957 699 958 698 958 696 959 695 959 692 960 691 960 687 961 686 961 681 962 680 962 675 963 674 963 672 964 671 964 669 965 668 965 667 966 666 966 665 967 664 967 663 968 662 968 661 969 660 969 659 970 658 970 657 971 656 971 655 972 654 972 652 973 651 973 650 974 649 974 648 975 647 975 646 977 644 977 643 978 642 979 642 983 638 984 638 990 632 992 632 993 631 995 631 996 630 998 630 999 629 1000 630 1005 630 1006 631 1009 631 1016 638 1016 639 1023 646 1023 647 1024 648 1024 649 1025 650 1025 654 1026 655 1026 659 1027 660 1027 667 1028 668 1028 694 1029 695 1029 721 1030 722 1030 728 1031 729 1031 731 1035 735 1036 735 1038 737 1039 737 1040 738 1042 738 1043 739 1048 739 1049 740 1062 740 1063 739 1065 739 1066 738 1067 738 1068 737 1069 737 1070 736 1071 736 1074 733 1074 732 1075 731 1075 728 1074 727 1074 718 1073 717 1073 715 1072 714 1072 713 1071 712 1071 710 1070 709 1070 707 1069 706 1069 704 1068 703 1068 692 1067 691 1067 684 1066 683 1066 638 1067 637 1067 629 1068 628 1068 625 1070 623 1070 622 1072 620 1072 619 1075 616 1076 616 1077 615 1082 615 1084 617 1084 619 1085 620 1085 626 1086 627 1086 636 1087 637 1087 638 1088 639 1088 641 1089 642 1089 643 1090 644 1090 646 1091 647 1091 648 1093 650 1093 651 1095 653 1095 654 1097 656 1097 657 1098 658 1098 659 1099 660 1099 661 1100 662 1100 663 1101 664 1101 665 1102 666 1102 667 1103 668 1106 668 1107 667 1109 667 1110 666 1112 666 1114 664 1114 662 1115 661 1115 660 1116 659 1116 657 1117 656 1117 655 1118 654 1118 652 1119 651 1119 648 1120 647 1120 635 1121 634 1120 633 1120 611 1119 610 1119 602 1118 601 1118 593 1117 592 1117 587 1116 586 1116 581 1115 580 1115 577 1114 576 1114 573 1113 572 1113 570 1112 569 1112 567 1111 566 1111 562 1110 561 1110 556 1109 555 1109 547 1108 546 1108 537 1107 536 1107 526 1106 525 1106 519 1105 518 1105 512 1104 511 1104 509 1103 508 1103 506 1102 505 1102 503 1101 502 1101 500 1100 499 1100 496 1099 495 1099 492 1098 491 1098 487 1097 486 1097 483 1096 482 1096 481 1095 480 1095 479 1093 477 1093 476 1089 472 1089 471 1088 470 1088 469 1087 468 1087 467 1086 466 1086 465 1084 463 1084 462 1079 457 1079 456 1078 455 1078 454 1077 453 1077 452 1075 450 1075 449 1072 446 1072 445 1070 443 1070 442 1069 441 1069 440 1068 439 1068 438 1067 437 1067 436 1066 435 1066 434 1065 433 1065 432 1064 431 1064 430 1063 429 1063 428 1062 427 1062 426 1061 425 1061 424 1060 423 1060 422 1059 421 1059 420 1058 419 1058 418 1057 417 1057 416 1056 415 1056 413 1055 412 1055 411 1053 409 1053 408 1052 407 1052 406 1047 401 1047 400 1044 397 1043 397 1041 395 1040 395 1039 394 1037 394 1036 393 1034 393 1033 392 1031 392 1030 391 1026 391 1025 390 1022 390 1021 389 "/></svg>