<svg width="1920" height="1080" xmlns="http://www.w3.org/2000/svg"><path d="M1014 385 1013 386 1009 386 1008 387 1005 387 1004 388 1001 388 1000 389 999 389 989 399 989 400 987 402 987 403 986 404 986 405 985 406 985 407 984 408 984 409 983 410 983 412 982 413 982 414 981 415 981 416 979 418 979 419 977 421 977 422 976 423 976 424 974 426 974 427 960 441 959 441 958 442 957 442 956 443 954 443 953 444 952 444 951 445 950 445 949 446 948 446 947 447 946 447 945 448 944 448 938 454 937 454 935 456 934 456 932 458 931 458 929 460 928 460 926 462 925 462 925 463 923 465 923 466 922 467 922 468 920 470 920 471 917 474 917 475 914 478 914 479 913 480 913 482 912 483 912 485 911 486 911 487 910 488 910 490 909 491 909 492 908 493 908 494 907 495 907 496 906 497 906 498 905 499 905 500 904 501 904 502 902 504 902 506 901 507 901 509 900 510 900 511 899 512 899 514 898 515 898 516 897 517 897 518 896 519 896 520 894 522 894 523 893 524 893 525 892 526 892 527 891 528 891 529 890 530 890 532 889 533 889 535 888 536 888 538 887 539 887 540 886 541 886 542 885 543 885 544 884 545 884 546 883 547 883 548 882 549 882 551 881 552 881 554 880 555 880 558 879 559 879 561 878 562 878 565 877 566 877 568 876 569 876 571 875 572 875 574 873 576 873 578 872 579 872 581 871 582 871 584 870 585 870 587 869 588 869 590 868 591 868 593 867 594 867 595 866 596 866 597 865 598 865 599 864 600 864 601 862 603 862 605 861 606 861 608 860 609 860 612 859 613 859 615 858 616 858 619 857 620 857 623 856 624 856 627 855 628 855 630 854 631 854 637 855 638 855 639 856 640 856 642 857 643 857 645 858 646 858 647 862 651 873 651 875 649 876 649 877 648 877 647 880 644 880 643 884 639 884 638 886 636 886 634 887 633 887 627 888 626 888 619 889 618 889 614 890 613 890 609 891 608 891 605 892 604 892 603 893 602 893 601 895 599 895 598 896 597 896 595 897 594 897 593 898 592 898 591 899 590 899 589 900 588 900 587 901 586 901 585 903 583 903 582 909 576 909 575 911 573 911 572 912 571 912 570 913 569 913 568 914 567 914 566 915 565 915 564 916 563 916 562 919 559 919 558 922 555 922 554 926 550 936 550 937 551 937 552 938 553 938 556 939 557 939 560 940 561 940 564 939 565 939 567 938 568 938 570 937 571 937 573 936 574 936 577 935 578 935 582 934 583 934 589 933 590 933 601 932 602 932 611 931 612 931 631 930 632 930 638 929 639 929 643 928 644 928 647 927 648 927 653 926 654 926 660 925 661 925 664 924 665 924 668 923 669 923 673 922 674 922 681 921 682 921 690 920 691 920 695 919 696 919 700 918 701 918 704 917 705 917 707 916 708 916 710 915 711 915 712 914 713 914 715 913 716 913 723 912 724 912 733 913 734 913 735 914 736 914 737 921 744 922 744 924 746 925 746 926 747 927 747 928 746 929 746 930 745 932 745 933 744 935 744 936 743 937 743 938 742 939 742 947 734 947 733 948 732 948 730 949 729 949 725 950 724 950 721 951 720 951 716 952 715 952 712 953 711 953 708 954 707 954 704 955 703 955 700 956 699 956 696 957 695 957 693 958 692 958 689 959 688 959 684 960 683 960 678 961 677 961 674 962 673 962 670 963 669 963 667 964 666 964 664 965 663 965 662 966 661 966 660 967 659 967 658 969 656 969 655 970 654 970 653 971 652 971 651 972 650 972 648 973 647 973 646 974 645 974 644 989 629 990 629 991 628 994 628 995 627 997 627 998 626 1001 626 1002 627 1006 627 1007 628 1010 628 1015 633 1015 634 1017 636 1017 637 1020 640 1020 641 1024 645 1024 646 1025 647 1025 650 1026 651 1026 657 1027 658 1027 666 1028 667 1028 708 1029 709 1029 722 1030 723 1030 728 1031 729 1031 732 1034 735 1035 735 1037 737 1038 737 1039 738 1040 738 1041 739 1045 739 1046 740 1063 740 1064 739 1066 739 1067 738 1069 738 1070 737 1071 737 1073 735 1074 735 1074 734 1075 733 1075 729 1074 728 1074 725 1073 724 1073 721 1072 720 1072 718 1071 717 1071 716 1070 715 1070 713 1069 712 1069 710 1068 709 1068 707 1067 706 1067 701 1066 700 1066 692 1065 691 1065 681 1064 680 1064 667 1065 666 1065 645 1066 644 1066 638 1067 637 1067 632 1068 631 1068 628 1069 627 1069 626 1070 625 1070 624 1075 619 1075 618 1077 616 1078 616 1080 614 1083 614 1084 613 1086 615 1086 616 1087 617 1087 618 1088 619 1088 622 1089 623 1089 627 1090 628 1090 631 1091 632 1091 634 1092 635 1092 636 1093 637 1093 638 1094 639 1094 640 1096 642 1096 643 1097 644 1097 645 1098 646 1098 647 1099 648 1099 650 1100 651 1100 652 1101 653 1101 654 1102 655 1102 656 1103 657 1103 658 1104 659 1104 660 1107 663 1112 663 1113 664 1116 664 1116 663 1117 662 1117 661 1118 660 1118 659 1119 658 1119 656 1120 655 1120 653 1121 652 1121 650 1122 649 1122 642 1123 641 1123 625 1122 624 1122 611 1121 610 1121 600 1120 599 1120 592 1119 591 1119 587 1118 586 1118 582 1117 581 1117 578 1116 577 1116 575 1115 574 1115 571 1114 570 1114 568 1113 567 1113 563 1112 562 1112 556 1111 555 1111 548 1110 547 1110 538 1109 537 1109 530 1108 529 1108 522 1107 521 1107 517 1106 516 1106 512 1105 511 1105 508 1104 507 1104 504 1103 503 1103 500 1102 499 1102 496 1101 495 1101 490 1100 489 1100 485 1099 484 1099 480 1098 479 1098 477 1097 476 1097 475 1095 473 1095 472 1091 468 1091 467 1090 466 1090 465 1089 464 1089 463 1088 462 1088 461 1085 458 1085 457 1079 451 1079 450 1078 449 1078 448 1072 442 1072 441 1070 439 1070 438 1069 437 1069 436 1068 435 1068 434 1067 433 1067 432 1066 431 1066 430 1065 429 1065 428 1063 426 1063 425 1061 423 1061 422 1060 421 1060 419 1059 418 1059 416 1058 415 1058 413 1057 412 1057 411 1056 410 1056 408 1055 407 1055 406 1053 404 1053 403 1050 400 1050 399 1046 395 1046 394 1043 391 1042 391 1041 390 1040 390 1039 389 1038 389 1037 388 1035 388 1034 387 1032 387 1031 386 1026 386 1025 385 "/></svg>