<svg width="1920" height="1080" xmlns="http://www.w3.org/2000/svg"><path d="M1017 336 1016 337 1008 337 1007 338 1004 338 1003 339 1000 339 999 340 998 340 997 341 996 341 995 342 994 342 993 343 992 343 990 345 989 345 986 348 986 349 985 350 985 351 984 352 984 353 983 354 983 355 982 356 982 357 981 358 981 360 980 361 980 363 979 364 979 365 978 366 978 367 975 370 975 371 974 372 974 373 972 375 972 376 971 377 971 378 970 379 970 380 968 382 968 383 965 386 964 386 962 388 961 388 959 390 958 390 956 392 955 392 950 397 950 398 949 399 948 399 945 402 944 402 943 403 942 403 941 404 940 404 939 405 938 405 937 406 936 406 935 407 934 407 932 409 931 409 930 410 930 411 927 414 927 415 921 421 920 421 919 422 919 423 916 426 916 427 915 428 915 429 914 430 914 431 906 439 906 440 904 442 904 443 902 445 902 446 901 447 901 448 897 452 897 453 895 455 895 456 893 458 893 459 892 460 892 461 891 462 891 463 890 464 890 465 887 468 887 469 885 471 885 472 884 473 884 474 883 475 883 478 882 479 882 481 881 482 881 485 880 486 880 487 879 488 879 489 878 490 878 491 877 492 877 493 876 494 876 497 875 498 875 501 874 502 874 505 873 506 873 509 872 510 872 514 871 515 871 518 870 519 870 523 869 524 869 527 868 528 868 531 867 532 867 534 866 535 866 537 865 538 865 542 864 543 864 551 863 552 863 562 864 563 864 572 865 573 865 574 866 574 867 575 868 575 869 576 870 576 871 577 872 577 873 578 875 578 876 579 878 579 879 578 882 578 883 577 885 577 886 576 887 576 888 575 888 574 889 573 889 572 890 571 890 563 891 562 891 550 892 549 892 537 893 536 893 531 894 530 894 522 895 521 895 510 896 509 896 507 897 506 897 505 898 504 898 503 899 502 899 501 901 499 901 498 902 497 902 496 904 494 904 493 910 487 911 487 915 483 916 483 919 480 919 479 921 477 922 477 923 476 924 476 925 475 926 475 927 474 928 474 929 473 931 473 932 472 934 474 935 474 936 475 937 475 938 476 938 477 941 480 941 481 944 484 944 486 945 487 945 488 946 489 946 491 947 492 947 494 946 495 946 507 945 508 945 510 943 512 943 513 941 515 941 516 939 518 939 519 937 521 937 522 936 523 936 524 935 525 935 528 934 529 934 531 933 532 933 534 932 535 932 536 931 537 931 538 930 539 930 540 929 541 929 542 928 543 928 544 927 545 927 546 926 547 926 548 925 549 925 551 924 552 924 554 923 555 923 557 922 558 922 560 921 561 921 562 920 563 920 565 919 566 919 568 918 569 918 571 917 572 917 575 916 576 916 580 915 581 915 585 914 586 914 592 915 593 915 601 916 602 916 664 915 665 915 688 914 689 914 695 913 696 913 701 912 702 912 706 911 707 911 710 910 711 910 714 909 715 909 723 910 724 910 730 911 731 911 734 916 739 917 739 920 742 922 742 923 743 926 743 927 744 930 744 931 745 933 745 934 744 935 744 936 743 938 743 939 742 940 742 941 741 942 741 945 738 945 737 947 735 947 732 948 731 948 721 949 720 949 691 950 690 950 675 951 674 951 667 952 666 952 663 953 662 953 660 954 659 954 657 955 656 955 653 956 652 956 648 957 647 957 643 958 642 958 637 959 636 959 632 960 631 960 628 961 627 961 624 962 623 962 620 963 619 963 618 965 616 965 615 967 613 967 612 968 611 968 610 970 608 970 607 971 606 971 605 972 604 972 603 977 598 978 598 980 596 981 596 982 595 983 595 984 594 985 594 987 592 990 592 991 591 994 591 995 590 997 590 998 589 999 589 1000 590 1002 590 1003 591 1005 591 1006 592 1008 592 1009 593 1010 593 1015 598 1015 599 1018 602 1018 603 1019 604 1019 605 1020 606 1020 607 1021 608 1021 609 1022 610 1022 611 1023 612 1023 614 1024 615 1024 617 1025 618 1025 621 1026 622 1026 627 1027 628 1027 634 1028 635 1028 646 1029 647 1029 656 1030 657 1030 660 1031 661 1031 663 1032 664 1032 666 1033 667 1033 676 1032 677 1032 698 1033 699 1033 706 1032 707 1032 718 1033 719 1033 722 1034 723 1034 726 1035 727 1035 730 1036 731 1036 733 1037 734 1037 735 1042 740 1043 740 1044 741 1045 741 1046 742 1047 742 1048 743 1050 743 1051 744 1052 744 1053 745 1056 745 1057 746 1064 746 1065 747 1066 747 1067 746 1069 746 1070 745 1073 745 1074 744 1076 744 1077 743 1078 743 1080 741 1081 741 1083 739 1083 738 1084 737 1084 736 1085 735 1085 733 1084 732 1084 731 1081 728 1081 727 1080 726 1080 725 1078 723 1078 722 1077 721 1077 720 1076 719 1076 717 1074 715 1074 714 1073 713 1073 712 1072 711 1072 709 1071 708 1071 706 1070 705 1070 703 1069 702 1069 696 1068 695 1068 687 1067 686 1067 669 1068 668 1068 659 1069 658 1069 600 1068 599 1068 591 1067 590 1067 583 1066 582 1066 577 1065 576 1065 572 1064 571 1064 570 1063 569 1063 566 1062 565 1062 562 1061 561 1061 558 1060 557 1060 554 1059 553 1059 551 1058 550 1058 548 1057 547 1057 545 1056 544 1056 543 1055 542 1055 540 1054 539 1054 528 1053 527 1053 511 1054 510 1054 508 1060 502 1061 502 1063 500 1064 500 1065 499 1068 499 1069 498 1077 498 1081 502 1082 502 1084 504 1084 505 1087 508 1087 509 1088 510 1088 511 1089 512 1089 514 1090 515 1090 517 1091 518 1091 520 1092 521 1092 524 1093 525 1093 526 1094 527 1094 528 1095 529 1095 530 1097 532 1097 533 1100 536 1100 537 1101 538 1101 539 1102 540 1102 542 1103 543 1103 550 1104 551 1104 557 1105 558 1105 561 1106 562 1106 565 1107 566 1107 570 1108 571 1108 582 1109 583 1109 594 1110 595 1110 602 1111 603 1111 608 1112 609 1112 614 1113 615 1113 621 1115 623 1115 624 1121 630 1122 630 1123 631 1124 631 1125 632 1126 632 1131 637 1133 637 1134 636 1136 636 1137 635 1138 635 1139 634 1140 634 1141 633 1142 633 1144 631 1144 630 1145 629 1145 628 1146 627 1146 626 1147 625 1147 624 1148 623 1148 601 1147 600 1147 594 1146 593 1146 588 1145 587 1145 584 1144 583 1144 581 1143 580 1143 579 1142 578 1142 577 1141 576 1141 574 1140 573 1140 570 1139 569 1139 565 1138 564 1138 560 1137 559 1137 550 1136 549 1136 539 1135 538 1135 534 1134 533 1134 529 1133 528 1133 525 1132 524 1132 522 1131 521 1131 520 1130 519 1130 517 1129 516 1129 515 1128 514 1128 512 1127 511 1127 508 1126 507 1126 504 1125 503 1125 500 1124 499 1124 496 1123 495 1123 492 1122 491 1122 489 1121 488 1121 487 1120 486 1120 485 1119 484 1119 483 1118 482 1118 480 1117 479 1117 477 1116 476 1116 473 1115 472 1115 470 1114 469 1114 466 1113 465 1113 463 1112 462 1112 460 1111 459 1111 458 1110 457 1110 456 1109 455 1109 454 1107 452 1107 451 1106 450 1106 449 1105 448 1105 446 1104 445 1104 444 1103 443 1103 442 1102 441 1102 440 1101 439 1101 438 1100 437 1100 436 1097 433 1097 432 1096 431 1096 430 1095 429 1095 428 1094 427 1094 425 1093 424 1093 423 1092 422 1092 421 1091 420 1091 419 1089 417 1089 416 1087 414 1087 413 1085 411 1085 410 1084 409 1084 408 1082 406 1082 405 1080 403 1080 402 1078 400 1078 399 1076 397 1076 396 1074 394 1074 393 1073 392 1073 391 1071 389 1071 388 1069 386 1069 385 1066 382 1066 381 1064 379 1064 378 1063 377 1063 376 1061 374 1061 373 1060 372 1060 371 1059 370 1059 368 1058 367 1058 366 1057 365 1057 364 1056 363 1056 361 1054 359 1054 358 1053 357 1053 356 1051 354 1051 353 1049 351 1049 350 1047 348 1047 347 1044 344 1043 344 1042 343 1041 343 1040 342 1039 342 1038 341 1037 341 1036 340 1035 340 1034 339 1033 339 1032 338 1028 338 1027 337 1023 337 1022 336 "/></svg>