<svg width="1920" height="1080" xmlns="http://www.w3.org/2000/svg"><path d="M1013 343 1012 344 1007 344 1006 345 1005 345 1004 346 1002 346 1001 347 999 347 998 348 997 348 996 349 995 349 994 350 993 350 991 352 990 352 985 357 985 358 984 359 984 360 983 361 983 362 982 363 982 364 981 365 981 366 980 367 980 369 979 370 979 372 978 373 978 374 977 375 977 376 976 377 976 378 974 380 974 381 972 383 972 384 971 385 971 387 970 388 970 389 968 391 968 392 964 396 963 396 952 407 951 407 949 409 948 409 947 410 946 410 945 411 944 411 943 412 941 412 939 414 938 414 936 416 935 416 932 419 932 420 918 434 918 435 917 436 917 437 916 438 916 439 914 441 914 442 913 443 913 444 911 446 911 447 908 450 908 452 907 453 907 454 906 455 906 456 905 457 905 458 904 459 904 460 903 461 903 462 902 463 902 464 901 465 901 466 899 468 899 469 896 472 896 473 895 474 895 475 893 477 893 478 892 479 892 480 891 481 891 482 890 483 890 484 889 485 889 486 887 488 887 489 886 490 886 491 885 492 885 493 884 494 884 495 883 496 883 497 882 498 882 500 881 501 881 502 880 503 880 504 879 505 879 506 878 507 878 508 876 510 876 511 875 512 875 514 874 515 874 519 873 520 873 523 872 524 872 528 871 529 871 534 870 535 870 538 869 539 869 541 868 542 868 544 867 545 867 547 866 548 866 549 865 550 865 554 864 555 864 559 863 560 863 569 862 570 862 577 863 578 863 579 864 580 864 581 865 582 865 583 866 583 867 584 870 584 871 585 873 585 874 586 877 586 879 584 880 584 881 583 881 582 883 580 883 579 884 578 884 576 885 575 885 566 886 565 886 560 887 559 887 557 888 556 888 553 889 552 889 550 890 549 890 546 891 545 891 543 892 542 892 539 893 538 893 536 894 535 894 534 895 533 895 532 896 531 896 529 897 528 897 527 899 525 899 524 900 523 900 522 901 521 901 520 903 518 903 516 904 515 904 514 906 512 906 511 910 507 911 507 912 506 913 506 915 504 916 504 918 502 919 502 920 501 922 501 923 500 924 500 925 499 926 499 927 498 928 498 929 497 932 497 938 503 938 504 940 506 940 507 941 508 941 510 942 511 942 514 941 515 941 516 939 518 939 519 937 521 937 522 935 524 935 525 933 527 933 528 932 529 932 531 931 532 931 534 930 535 930 537 929 538 929 539 928 540 928 542 927 543 927 544 926 545 926 546 925 547 925 548 924 549 924 550 923 551 923 552 922 553 922 555 921 556 921 557 920 558 920 560 919 561 919 565 918 566 918 569 917 570 917 574 916 575 916 580 915 581 915 586 914 587 914 606 915 607 915 640 916 641 916 665 915 666 915 693 914 694 914 702 913 703 913 709 912 710 912 715 911 716 911 719 912 720 912 729 913 730 913 733 920 740 923 740 924 741 926 741 927 742 929 742 930 743 932 743 933 742 936 742 937 741 939 741 940 740 942 740 944 738 944 737 946 735 946 734 947 733 947 730 948 729 948 719 949 718 949 687 950 686 950 678 951 677 951 671 952 670 952 667 953 666 953 664 954 663 954 660 955 659 955 655 956 654 956 649 957 648 957 644 958 643 958 638 959 637 959 634 960 633 960 630 961 629 961 627 962 626 962 624 963 623 963 622 964 621 964 620 966 618 966 617 968 615 968 614 969 613 969 612 971 610 971 609 973 607 973 606 975 604 976 604 978 602 979 602 980 601 981 601 983 599 984 599 985 598 988 598 989 597 992 597 993 596 1000 596 1001 597 1004 597 1005 598 1008 598 1014 604 1014 605 1016 607 1016 608 1017 609 1017 610 1019 612 1019 613 1020 614 1020 615 1021 616 1021 617 1022 618 1022 620 1023 621 1023 624 1024 625 1024 629 1025 630 1025 634 1026 635 1026 641 1027 642 1027 650 1028 651 1028 655 1029 656 1029 659 1030 660 1030 661 1031 662 1031 664 1032 665 1032 668 1033 669 1033 673 1032 674 1032 697 1033 698 1033 708 1032 709 1032 718 1033 719 1033 724 1034 725 1034 730 1035 731 1035 733 1037 735 1037 736 1038 737 1039 737 1041 739 1042 739 1043 740 1045 740 1046 741 1047 741 1048 742 1049 742 1050 743 1055 743 1056 744 1066 744 1067 743 1070 743 1071 742 1074 742 1076 740 1077 740 1080 737 1080 736 1081 735 1081 734 1082 733 1082 732 1080 730 1080 729 1078 727 1078 726 1076 724 1076 723 1075 722 1075 721 1074 720 1074 719 1073 718 1073 717 1072 716 1072 715 1071 714 1071 713 1070 712 1070 710 1069 709 1069 708 1068 707 1068 705 1067 704 1067 702 1066 701 1066 691 1065 690 1065 656 1066 655 1066 591 1065 590 1065 585 1064 584 1064 579 1063 578 1063 575 1062 574 1062 572 1061 571 1061 568 1060 567 1060 565 1059 564 1059 561 1058 560 1058 557 1057 556 1057 554 1056 553 1056 551 1055 550 1055 549 1054 548 1054 546 1053 545 1053 527 1054 526 1054 525 1055 524 1055 522 1056 521 1056 520 1057 519 1057 518 1058 517 1058 516 1063 511 1067 511 1068 510 1072 510 1073 509 1077 513 1077 515 1078 516 1078 517 1079 518 1079 519 1080 520 1080 521 1081 522 1081 523 1082 524 1082 525 1083 526 1083 528 1085 530 1085 531 1086 532 1086 533 1087 534 1087 535 1089 537 1089 538 1090 539 1090 540 1091 541 1091 542 1092 543 1092 545 1093 546 1093 549 1094 550 1094 553 1095 554 1095 556 1096 557 1096 559 1097 560 1097 562 1098 563 1098 564 1099 565 1099 566 1100 567 1100 569 1101 570 1101 572 1102 573 1102 580 1103 581 1103 593 1104 594 1104 598 1105 599 1105 602 1106 603 1106 606 1107 607 1107 612 1108 613 1108 618 1109 619 1109 623 1110 624 1110 626 1111 627 1111 628 1112 629 1112 630 1113 631 1113 632 1114 633 1114 634 1115 635 1115 636 1116 637 1116 638 1119 641 1120 641 1122 643 1123 643 1124 644 1125 644 1126 645 1127 645 1128 646 1129 646 1130 645 1132 645 1133 644 1135 644 1136 643 1138 643 1141 640 1141 639 1142 638 1142 631 1143 630 1143 614 1142 613 1142 604 1141 603 1141 598 1140 597 1140 593 1139 592 1139 590 1138 589 1138 587 1137 586 1137 584 1136 583 1136 580 1135 579 1135 575 1134 574 1134 567 1133 566 1133 558 1132 557 1132 548 1131 547 1131 542 1130 541 1130 538 1129 537 1129 534 1128 533 1128 531 1127 530 1127 528 1126 527 1126 525 1125 524 1125 522 1124 521 1124 518 1123 517 1123 514 1122 513 1122 509 1121 508 1121 504 1120 503 1120 500 1119 499 1119 496 1118 495 1118 494 1117 493 1117 491 1116 490 1116 489 1115 488 1115 486 1114 485 1114 482 1113 481 1113 478 1112 477 1112 473 1111 472 1111 468 1110 467 1110 464 1109 463 1109 461 1108 460 1108 458 1107 457 1107 456 1106 455 1106 454 1105 453 1105 452 1104 451 1104 450 1103 449 1103 448 1101 446 1101 445 1100 444 1100 443 1098 441 1098 440 1096 438 1096 437 1093 434 1093 433 1092 432 1092 431 1090 429 1090 428 1088 426 1088 425 1083 420 1083 419 1081 417 1081 416 1077 412 1077 411 1071 405 1071 404 1070 403 1070 402 1069 401 1069 400 1068 399 1068 398 1067 397 1067 396 1065 394 1065 393 1064 392 1064 391 1061 388 1061 387 1060 386 1060 384 1059 383 1059 381 1058 380 1058 377 1057 376 1057 374 1056 373 1056 370 1055 369 1055 367 1054 366 1054 365 1053 364 1053 363 1052 362 1052 361 1051 360 1051 359 1049 357 1049 356 1043 350 1042 350 1040 348 1038 348 1037 347 1035 347 1034 346 1033 346 1032 345 1031 345 1030 344 1026 344 1025 343 "/></svg>