<svg width="1920" height="1080" xmlns="http://www.w3.org/2000/svg"><path d="M990 260 990 269 989 270 988 270 985 273 984 273 982 275 981 275 974 282 974 283 972 285 972 286 971 287 971 290 970 291 970 295 969 296 969 299 968 300 968 303 967 304 967 307 966 308 966 309 965 310 965 312 964 313 964 314 963 315 963 317 962 318 962 320 961 321 961 323 959 325 959 326 954 331 953 331 951 333 950 333 948 335 947 335 945 337 944 337 935 346 934 346 931 349 930 349 929 350 928 350 926 352 925 352 924 353 923 353 921 355 920 355 918 357 918 358 916 360 916 361 915 362 915 363 907 371 906 371 905 372 904 372 901 375 900 375 897 378 896 378 896 379 887 388 886 388 883 391 882 391 877 396 877 397 876 398 876 399 874 401 874 402 866 410 866 411 862 415 862 418 861 419 861 422 860 423 860 428 859 429 859 455 860 456 860 459 861 460 861 461 862 462 862 463 863 464 863 465 864 466 864 467 865 468 865 469 867 471 867 472 868 473 868 474 869 475 869 476 870 477 870 478 871 479 871 480 872 481 872 482 873 483 878 483 880 485 881 485 884 488 884 481 885 480 885 468 886 467 886 464 887 463 887 459 888 458 888 454 889 453 889 447 890 446 890 439 891 438 891 433 892 432 892 430 893 429 893 428 894 427 894 426 895 425 895 424 897 422 898 422 903 417 904 417 908 413 915 413 916 412 926 412 927 411 932 411 936 415 936 416 937 417 937 418 938 419 938 420 939 421 939 422 940 423 940 424 941 425 941 427 942 428 942 429 943 430 943 431 944 432 944 438 943 439 943 445 942 446 942 452 941 453 941 456 940 457 940 460 939 461 939 465 938 466 938 470 937 471 937 472 935 474 935 475 926 484 926 485 924 487 924 488 923 489 923 491 922 492 922 493 921 494 921 495 920 496 920 497 919 498 919 499 918 500 918 501 917 502 917 504 916 505 916 513 915 514 915 554 916 555 916 580 917 581 917 591 918 592 918 604 919 605 919 617 920 618 920 622 921 623 921 628 922 629 922 674 921 675 921 681 920 682 920 688 919 689 919 695 918 696 918 703 917 704 917 717 918 718 918 726 919 727 919 729 920 730 920 731 923 734 923 735 925 737 925 738 927 740 927 741 930 744 930 745 931 745 932 746 936 746 937 747 944 747 945 746 946 746 947 745 948 745 949 744 950 744 956 738 956 737 957 736 957 735 958 734 958 732 959 731 959 729 960 728 960 697 961 696 961 644 962 643 962 623 963 622 963 611 964 610 964 605 965 604 965 599 966 598 966 596 967 595 967 593 968 592 968 591 969 590 969 588 970 587 970 585 971 584 971 581 972 580 972 578 973 577 973 575 974 574 974 573 975 572 975 571 977 569 977 568 978 567 978 566 980 564 981 564 992 553 995 553 996 554 1000 554 1001 555 1003 555 1006 558 1006 559 1007 560 1007 561 1010 564 1010 565 1017 572 1017 573 1018 574 1018 575 1019 576 1019 577 1020 578 1020 580 1021 581 1021 584 1022 585 1022 588 1023 589 1023 592 1024 593 1024 595 1025 596 1025 600 1026 601 1026 604 1027 605 1027 607 1028 608 1028 611 1029 612 1029 615 1030 616 1030 620 1031 621 1031 628 1032 629 1032 636 1033 637 1033 643 1034 644 1034 650 1035 651 1035 682 1036 683 1036 694 1037 695 1037 703 1038 704 1038 711 1039 712 1039 718 1040 719 1040 723 1041 724 1041 726 1042 727 1042 728 1049 735 1050 735 1051 736 1052 736 1053 737 1054 737 1055 738 1056 738 1057 739 1058 739 1059 740 1060 740 1061 741 1062 741 1063 742 1064 742 1065 743 1069 743 1070 744 1074 744 1075 745 1076 745 1077 744 1081 744 1082 743 1086 743 1087 742 1090 742 1091 741 1093 741 1095 739 1095 738 1096 737 1096 734 1097 733 1097 725 1095 723 1095 722 1093 720 1093 719 1092 718 1092 717 1091 716 1091 715 1090 714 1090 713 1089 712 1089 711 1088 710 1088 708 1087 707 1087 706 1086 705 1086 703 1085 702 1085 700 1084 699 1084 697 1083 696 1083 693 1082 692 1082 687 1081 686 1081 676 1080 675 1080 660 1081 659 1081 644 1082 643 1082 633 1083 632 1083 621 1084 620 1084 613 1083 612 1083 601 1082 600 1082 585 1081 584 1081 575 1080 574 1080 568 1079 567 1079 562 1078 561 1078 557 1077 556 1077 553 1076 552 1076 550 1075 549 1075 546 1074 545 1074 543 1073 542 1073 541 1072 540 1072 538 1071 537 1071 536 1070 535 1070 533 1069 532 1069 530 1068 529 1068 527 1067 526 1067 525 1066 524 1066 522 1065 521 1065 520 1064 519 1064 518 1061 515 1061 514 1059 512 1059 511 1057 509 1057 508 1056 507 1056 505 1055 504 1055 502 1054 501 1054 499 1053 498 1053 497 1052 496 1052 494 1051 493 1051 492 1050 491 1050 489 1049 488 1049 484 1048 483 1048 477 1047 476 1047 466 1048 465 1048 463 1049 462 1049 460 1050 459 1050 457 1051 456 1051 454 1052 453 1052 452 1053 451 1053 450 1054 449 1054 448 1055 447 1055 446 1056 445 1056 444 1057 443 1057 442 1059 440 1059 439 1061 437 1061 436 1070 427 1071 427 1073 425 1074 425 1075 424 1079 424 1080 423 1088 423 1089 424 1090 424 1091 425 1092 425 1093 426 1094 426 1096 428 1097 428 1101 432 1101 434 1102 435 1102 436 1103 437 1103 438 1104 439 1104 441 1105 442 1105 443 1106 444 1106 446 1107 447 1107 449 1108 450 1108 451 1109 452 1109 454 1111 456 1111 457 1114 460 1114 461 1116 463 1116 464 1117 465 1117 467 1118 468 1118 470 1119 471 1119 475 1120 476 1120 480 1121 481 1121 485 1122 486 1122 489 1123 490 1123 491 1124 492 1124 493 1125 494 1125 496 1126 497 1126 499 1127 500 1127 503 1128 504 1128 508 1129 509 1129 513 1130 514 1130 518 1131 519 1131 523 1132 524 1132 526 1133 527 1133 528 1134 529 1134 530 1136 532 1136 533 1138 535 1138 536 1140 538 1140 539 1141 540 1141 541 1142 542 1142 543 1147 548 1159 548 1162 545 1162 544 1163 543 1163 540 1164 539 1164 529 1165 528 1165 524 1164 523 1164 518 1163 517 1163 513 1162 512 1162 508 1161 507 1161 504 1160 503 1160 501 1159 500 1159 499 1158 498 1158 497 1157 496 1157 495 1156 494 1156 492 1155 491 1155 489 1154 488 1154 485 1153 484 1153 482 1152 481 1152 478 1151 477 1151 474 1150 473 1150 470 1149 469 1149 468 1148 467 1148 466 1146 464 1146 463 1144 461 1144 460 1143 459 1143 458 1142 457 1142 456 1141 455 1141 453 1140 452 1140 450 1139 449 1139 447 1138 446 1138 444 1137 443 1137 441 1136 440 1136 439 1135 438 1135 436 1134 435 1134 434 1133 433 1133 432 1132 431 1132 429 1131 428 1131 426 1130 425 1130 423 1129 422 1129 419 1128 418 1128 415 1127 414 1127 412 1126 411 1126 410 1125 409 1125 408 1123 406 1123 405 1119 401 1119 400 1118 399 1118 398 1117 397 1117 396 1116 395 1116 394 1115 393 1115 392 1113 390 1113 389 1111 387 1111 386 1109 384 1109 383 1108 382 1108 381 1107 380 1107 379 1106 378 1106 377 1104 375 1104 374 1101 371 1101 370 1100 370 1097 367 1096 367 1091 362 1090 362 1089 361 1089 360 1080 351 1080 350 1079 350 1074 345 1074 344 1072 342 1072 341 1070 339 1070 338 1067 335 1067 334 1060 327 1060 326 1059 325 1059 324 1058 323 1058 320 1057 319 1057 316 1056 315 1056 312 1055 311 1055 308 1054 307 1054 303 1053 302 1053 299 1052 298 1052 295 1051 294 1051 292 1050 291 1050 289 1049 288 1049 287 1048 286 1048 285 1045 282 1045 281 1041 277 1040 277 1038 275 1037 275 1035 273 1034 273 1032 271 1031 271 1029 269 1029 260 "/></svg>