<svg width="1920" height="1080" xmlns="http://www.w3.org/2000/svg"><path d="M1013 210 1013 219 1012 220 1008 220 1007 221 1003 221 1002 222 1001 222 1000 223 999 223 998 224 997 224 996 225 995 225 994 226 992 226 991 227 990 227 989 228 988 228 983 233 982 233 981 234 981 235 975 241 975 242 971 246 971 247 969 249 969 250 968 251 968 252 967 253 967 254 966 255 966 256 965 257 965 258 964 259 964 260 962 262 962 263 959 266 958 266 957 267 956 267 955 268 954 268 952 270 951 270 950 271 949 271 948 272 947 272 946 273 945 273 943 275 942 275 935 282 934 282 932 284 931 284 929 286 927 286 926 287 924 287 923 288 921 288 920 289 918 289 917 290 914 290 913 291 911 291 910 292 908 292 907 293 905 293 904 294 902 294 901 295 900 295 899 296 897 296 896 297 895 297 894 298 893 298 892 299 891 299 889 301 888 301 887 302 886 302 885 303 884 303 883 304 882 304 881 305 879 305 878 306 877 306 876 307 874 307 873 308 871 308 870 309 857 309 856 310 852 310 851 311 847 311 846 312 843 312 842 313 840 313 839 314 838 314 837 315 836 315 835 316 834 316 833 317 832 317 830 319 829 319 827 321 826 321 818 329 817 329 809 337 809 338 808 339 808 340 807 341 807 342 806 343 806 344 805 345 805 346 804 347 804 348 803 349 803 351 802 352 802 353 801 354 801 355 800 356 800 357 799 358 799 361 798 362 798 365 797 366 797 369 796 370 796 373 795 374 795 375 794 376 794 379 795 380 795 381 796 382 796 384 797 385 797 386 799 388 799 389 800 390 800 391 801 392 801 393 802 394 802 395 803 396 803 397 805 399 806 399 808 401 809 401 810 402 811 402 813 400 813 399 815 397 815 396 816 395 816 394 818 392 818 391 819 390 819 389 821 387 821 386 824 383 824 382 834 372 835 372 836 371 837 371 838 370 839 370 841 368 842 368 847 363 847 362 850 359 850 358 851 357 851 356 857 350 859 350 860 349 861 349 862 348 863 348 864 347 866 347 867 346 869 346 870 345 872 345 873 344 874 344 875 343 877 343 878 342 879 342 880 341 881 341 882 340 883 340 884 339 892 339 893 338 900 338 901 339 902 339 903 340 904 340 905 341 906 341 907 342 908 342 909 343 911 343 912 344 913 344 914 345 915 345 917 347 917 348 921 352 921 353 922 354 922 355 923 356 923 357 924 358 924 362 925 363 925 368 926 369 926 375 927 376 927 383 926 384 926 398 925 399 925 405 924 406 924 413 923 414 923 423 922 424 922 434 921 435 921 443 920 444 920 451 919 452 919 458 918 459 918 466 917 467 917 472 916 473 916 478 915 479 915 482 914 483 914 487 913 488 913 493 912 494 912 502 911 503 911 514 910 515 910 563 911 564 911 598 912 599 912 615 913 616 913 625 912 626 912 641 911 642 911 649 910 650 910 685 909 686 909 703 910 704 910 719 911 720 911 725 912 726 912 731 913 732 913 735 914 736 914 737 919 742 919 743 930 754 931 754 932 755 932 764 949 764 949 755 951 753 951 752 955 748 955 747 958 744 958 743 959 742 959 741 960 740 960 739 962 737 962 728 961 727 961 722 960 721 960 714 959 713 959 711 958 710 958 706 957 705 957 700 956 699 956 689 955 688 955 658 956 657 956 653 955 652 955 635 956 634 956 631 957 630 957 627 958 626 958 623 959 622 959 620 960 619 960 617 961 616 961 609 962 608 962 600 963 599 963 593 964 592 964 589 965 588 965 583 966 582 966 577 967 576 967 570 968 569 968 563 969 562 969 556 970 555 970 554 971 553 971 551 972 550 972 549 973 548 973 547 974 546 974 545 975 544 975 543 976 542 976 541 977 540 977 539 978 538 978 537 979 536 979 534 980 533 980 532 981 531 981 530 983 528 983 527 985 525 985 524 992 517 993 517 996 514 997 514 998 513 999 513 1000 512 1001 512 1002 511 1003 511 1004 510 1006 512 1007 512 1017 522 1018 522 1019 523 1019 524 1024 529 1024 530 1026 532 1026 533 1028 535 1028 536 1031 539 1031 540 1036 545 1036 546 1038 548 1038 549 1039 550 1039 552 1040 553 1040 554 1041 555 1041 569 1042 570 1042 585 1043 586 1043 621 1044 622 1044 630 1045 631 1045 638 1046 639 1046 642 1047 643 1047 647 1048 648 1048 650 1049 651 1049 653 1050 654 1050 677 1051 678 1051 682 1052 683 1052 688 1053 689 1053 694 1054 695 1054 696 1055 697 1055 698 1056 699 1056 700 1058 702 1058 703 1063 708 1065 708 1066 709 1069 709 1070 710 1072 710 1073 711 1076 711 1077 712 1083 712 1084 711 1093 711 1096 708 1097 708 1105 700 1105 699 1107 697 1107 696 1108 695 1100 687 1100 686 1098 684 1098 683 1097 682 1097 681 1096 680 1096 679 1095 678 1095 676 1094 675 1094 674 1093 673 1093 672 1091 670 1091 669 1090 668 1090 667 1089 666 1089 665 1088 664 1088 663 1087 662 1087 660 1086 659 1086 648 1087 647 1087 642 1088 641 1088 634 1089 633 1089 624 1090 623 1090 616 1091 615 1091 611 1092 610 1092 606 1093 605 1093 601 1094 600 1094 594 1095 593 1095 582 1096 581 1096 554 1095 553 1095 546 1094 545 1094 540 1093 539 1093 535 1092 534 1092 532 1091 531 1091 528 1090 527 1090 523 1089 522 1089 518 1088 517 1088 514 1087 513 1087 510 1086 509 1086 505 1085 504 1085 501 1084 500 1084 496 1083 495 1083 492 1082 491 1082 487 1081 486 1081 483 1080 482 1080 480 1079 479 1079 477 1078 476 1078 475 1077 474 1077 473 1075 471 1075 470 1074 469 1074 468 1073 467 1073 465 1072 464 1072 463 1071 462 1071 460 1070 459 1070 457 1069 456 1069 454 1068 453 1068 451 1067 450 1067 449 1066 448 1066 447 1065 446 1065 445 1064 444 1064 443 1062 441 1062 440 1060 438 1060 437 1059 436 1059 435 1058 434 1058 432 1057 431 1057 430 1056 429 1056 427 1055 426 1055 424 1054 423 1054 422 1053 421 1053 418 1052 417 1052 408 1051 407 1051 395 1052 394 1052 392 1053 391 1053 387 1054 386 1054 383 1055 382 1055 379 1056 378 1056 374 1057 373 1057 369 1058 368 1058 365 1059 364 1059 361 1060 360 1060 358 1062 356 1062 355 1063 354 1064 354 1067 351 1068 351 1070 349 1071 349 1073 347 1074 347 1075 346 1076 346 1078 344 1088 344 1089 343 1096 343 1097 344 1106 344 1107 345 1109 345 1111 347 1112 347 1114 349 1115 349 1120 354 1120 355 1127 362 1128 362 1132 366 1133 366 1137 370 1140 370 1141 371 1145 371 1146 372 1148 372 1149 373 1151 373 1152 374 1152 373 1153 372 1153 370 1154 369 1154 367 1155 366 1155 364 1156 363 1156 360 1157 359 1157 353 1156 352 1156 341 1155 340 1155 337 1154 336 1154 335 1152 333 1152 332 1148 328 1148 327 1146 325 1146 324 1145 323 1145 322 1144 321 1144 320 1142 318 1142 317 1140 315 1139 315 1137 313 1136 313 1134 311 1133 311 1132 310 1131 310 1130 309 1129 309 1128 308 1127 308 1126 307 1125 307 1124 306 1123 306 1121 304 1120 304 1119 303 1119 302 1118 302 1117 301 1117 300 1112 295 1111 295 1108 292 1106 292 1104 290 1102 290 1100 288 1099 288 1098 287 1097 287 1096 286 1095 286 1093 284 1092 284 1074 266 1074 265 1072 263 1072 262 1071 261 1071 260 1070 259 1070 258 1068 256 1068 255 1058 245 1058 244 1055 241 1055 240 1053 238 1053 237 1050 234 1049 234 1047 232 1046 232 1045 231 1044 231 1043 230 1042 230 1041 229 1040 229 1039 228 1038 228 1037 227 1036 227 1035 226 1034 226 1033 225 1031 225 1030 224 1029 224 1028 223 1026 223 1025 222 1024 222 1023 221 1022 221 1020 219 1020 210 "/></svg>