<svg width="1920" height="1080" xmlns="http://www.w3.org/2000/svg"><path d="M1009 191 1009 201 1008 202 1006 202 1005 203 1004 203 1003 204 1001 204 1000 205 998 205 997 206 995 206 994 207 993 207 992 208 991 208 990 209 989 209 988 210 987 210 985 212 984 212 981 215 980 215 975 220 975 221 974 222 974 223 972 225 972 226 969 229 969 230 966 233 966 234 962 238 962 239 953 248 952 248 950 250 949 250 948 251 947 251 946 252 945 252 944 253 940 253 939 254 936 254 935 255 932 255 931 256 928 256 927 257 924 257 923 258 921 258 920 259 917 259 916 260 914 260 913 261 911 261 910 262 908 262 907 263 905 263 904 264 902 264 901 265 898 265 897 266 896 266 895 267 891 267 890 268 885 268 884 269 879 269 878 270 868 270 867 271 858 271 857 272 851 272 850 273 841 273 840 274 828 274 827 275 825 275 824 276 821 276 820 277 819 277 818 278 816 278 815 279 814 279 813 280 812 280 811 281 806 281 805 282 802 282 801 283 797 283 796 284 794 284 793 285 792 285 791 286 789 286 788 287 787 287 786 288 783 288 782 289 780 289 779 290 776 290 775 291 770 291 769 292 763 292 762 293 760 293 758 295 757 295 756 296 755 296 752 299 751 299 748 302 748 303 747 304 747 306 745 308 745 309 744 310 744 312 743 313 743 315 742 316 742 318 741 319 741 322 740 323 741 324 741 326 742 327 742 329 743 330 743 331 744 332 744 333 745 334 745 333 748 330 749 330 751 328 752 328 754 326 755 326 756 325 757 325 758 324 759 324 760 323 761 323 762 322 764 322 765 321 766 321 767 320 769 320 770 319 773 319 774 318 778 318 779 317 780 317 781 316 782 316 783 315 785 315 786 314 789 314 790 313 794 313 795 312 817 312 818 311 838 311 839 310 848 310 849 309 854 309 855 308 858 308 859 307 866 307 867 306 875 306 876 305 881 305 882 306 892 306 893 307 896 307 897 308 899 308 900 309 902 309 903 310 905 310 906 311 908 311 909 312 911 312 915 316 915 317 917 319 917 320 919 322 919 325 920 326 920 331 921 332 921 338 922 339 922 366 923 367 923 389 922 390 922 400 921 401 921 416 920 417 920 430 919 431 919 442 918 443 918 460 919 461 919 471 918 472 918 513 917 514 917 525 916 526 916 536 915 537 915 544 914 545 914 550 913 551 913 554 912 555 912 557 911 558 911 560 910 561 910 563 909 564 909 567 908 568 908 575 907 576 907 586 906 587 906 596 905 597 905 608 904 609 904 623 903 624 903 634 902 635 902 641 901 642 901 647 900 648 900 663 899 664 899 674 898 675 898 680 897 681 897 684 896 685 896 688 895 689 895 694 896 695 896 699 897 700 897 706 898 707 898 712 899 713 899 719 900 720 900 725 901 726 901 731 902 732 902 735 903 736 903 738 904 739 904 741 905 742 905 744 906 745 906 747 907 748 907 750 908 751 908 762 951 762 951 746 952 745 952 738 953 737 953 730 952 729 952 726 951 725 951 721 950 720 950 716 949 715 949 709 948 708 948 702 947 701 947 693 946 692 946 675 945 674 945 670 946 669 946 663 947 662 947 656 948 655 948 644 949 643 949 629 950 628 950 622 951 621 951 616 952 615 952 609 953 608 953 603 954 602 954 598 955 597 955 593 956 592 956 590 957 589 957 586 958 585 958 583 959 582 959 581 960 580 960 578 961 577 961 576 962 575 962 573 963 572 963 571 964 570 964 567 965 566 965 563 966 562 966 558 967 557 967 553 968 552 968 547 969 546 969 542 970 541 970 536 971 535 971 532 972 531 972 528 973 527 973 526 974 525 974 524 975 523 975 522 977 520 977 519 979 517 979 516 981 514 981 513 982 512 982 510 983 509 983 508 984 507 984 506 985 505 985 504 986 503 986 502 988 500 988 499 994 493 996 493 997 492 1002 492 1003 491 1008 491 1009 490 1011 490 1012 491 1014 491 1015 492 1017 492 1018 493 1020 493 1021 494 1024 494 1025 495 1027 495 1033 501 1033 502 1035 504 1035 505 1036 506 1036 508 1037 509 1037 511 1038 512 1038 514 1039 515 1039 517 1040 518 1040 520 1041 521 1041 522 1042 523 1042 525 1043 526 1043 527 1044 528 1044 530 1045 531 1045 534 1046 535 1046 537 1047 538 1047 541 1048 542 1048 546 1049 547 1049 565 1048 566 1048 573 1049 574 1049 594 1050 595 1050 600 1051 601 1051 605 1052 606 1052 617 1051 618 1051 628 1050 629 1050 630 1051 631 1051 642 1052 643 1052 664 1053 665 1053 671 1056 674 1057 674 1060 677 1067 677 1068 676 1069 677 1070 676 1078 676 1079 675 1080 675 1081 674 1082 674 1083 673 1084 673 1086 671 1087 671 1088 670 1088 669 1102 655 1102 654 1105 651 1105 648 1104 647 1104 645 1103 644 1103 641 1102 640 1102 637 1101 636 1101 632 1100 631 1100 629 1099 628 1099 627 1096 624 1096 623 1092 619 1092 618 1089 615 1089 614 1088 613 1088 612 1087 611 1087 610 1086 609 1087 608 1087 602 1088 601 1088 594 1089 593 1089 568 1090 567 1090 566 1091 565 1091 564 1092 563 1092 562 1094 560 1094 559 1096 557 1096 556 1097 555 1097 554 1098 553 1098 551 1099 550 1099 547 1100 546 1100 536 1101 535 1101 510 1102 509 1102 507 1101 506 1101 497 1100 496 1100 488 1099 487 1099 485 1098 484 1098 482 1097 481 1097 479 1096 478 1096 477 1095 476 1095 475 1093 473 1093 472 1092 471 1092 470 1091 469 1091 468 1090 467 1090 466 1089 465 1089 463 1088 462 1088 461 1087 460 1087 458 1086 457 1086 455 1085 454 1085 453 1084 452 1084 450 1083 449 1083 447 1082 446 1082 445 1081 444 1081 443 1080 442 1080 441 1079 440 1079 439 1076 436 1076 435 1074 433 1074 432 1072 430 1072 429 1071 428 1071 427 1070 426 1070 424 1069 423 1069 420 1068 419 1068 417 1067 416 1067 414 1066 413 1066 410 1065 409 1065 407 1064 406 1064 395 1065 394 1065 383 1066 382 1066 377 1067 376 1067 372 1068 371 1068 367 1069 366 1069 357 1070 356 1070 344 1071 343 1071 341 1072 340 1072 339 1073 338 1073 337 1074 336 1074 335 1076 333 1076 332 1078 330 1079 330 1080 329 1081 329 1082 328 1083 328 1084 327 1085 327 1086 326 1088 326 1089 325 1090 325 1091 324 1092 324 1093 323 1096 323 1097 324 1101 324 1102 325 1106 325 1107 326 1111 326 1120 335 1121 335 1127 341 1128 341 1129 342 1135 342 1136 343 1142 343 1143 344 1144 344 1160 328 1160 327 1161 326 1161 325 1162 324 1162 322 1163 321 1163 318 1164 317 1164 314 1165 313 1165 309 1166 308 1166 305 1167 304 1167 299 1166 298 1166 284 1165 283 1165 281 1163 279 1163 278 1161 276 1161 275 1160 275 1159 274 1158 274 1157 273 1156 273 1155 272 1154 272 1153 271 1152 271 1151 270 1149 270 1148 269 1147 269 1146 268 1144 268 1143 267 1141 267 1140 266 1138 266 1137 265 1136 265 1135 264 1134 264 1133 263 1132 263 1131 262 1129 262 1128 261 1127 261 1126 260 1124 260 1123 259 1122 259 1121 258 1119 258 1118 257 1116 257 1115 256 1113 256 1112 255 1109 255 1108 254 1105 254 1104 253 1102 253 1101 252 1098 252 1097 251 1094 251 1092 249 1091 249 1079 237 1078 237 1077 236 1076 236 1074 234 1073 234 1072 233 1071 233 1069 231 1068 231 1067 230 1066 230 1064 228 1063 228 1061 226 1060 226 1057 223 1057 222 1052 217 1052 216 1051 216 1048 213 1047 213 1045 211 1043 211 1042 210 1040 210 1039 209 1037 209 1036 208 1035 208 1034 207 1032 207 1031 206 1030 206 1029 205 1028 205 1027 204 1023 204 1022 203 1019 203 1018 202 1015 202 1013 200 1013 191 "/></svg>