<svg width="1920" height="1080" xmlns="http://www.w3.org/2000/svg"><path d="M989 251 989 260 984 265 983 265 979 269 978 269 975 272 975 273 973 275 973 276 971 278 971 281 970 282 970 286 969 287 969 291 968 292 968 296 967 297 967 299 965 301 965 302 963 304 963 305 962 306 962 307 961 308 961 309 960 310 960 311 959 312 959 313 958 314 958 315 957 316 957 317 952 322 951 322 950 323 949 323 948 324 947 324 946 325 944 325 943 326 942 326 941 327 940 327 939 328 938 328 937 329 936 329 933 332 932 332 924 340 923 340 921 342 920 342 919 343 918 343 917 344 916 344 914 346 913 346 908 351 908 352 906 354 906 355 903 358 902 358 900 360 899 360 897 362 896 362 895 363 894 363 893 364 892 364 890 366 889 366 885 370 885 371 882 374 882 375 881 376 880 376 876 380 875 380 873 382 872 382 869 385 868 385 866 387 866 388 864 390 864 392 863 393 863 395 862 396 862 397 861 398 861 400 860 401 860 402 859 403 859 404 858 405 858 406 856 408 856 415 857 416 857 428 858 429 858 433 859 434 859 438 860 439 860 444 861 445 861 448 862 449 862 451 863 452 863 454 864 455 864 457 865 458 865 460 866 461 866 463 867 464 867 465 868 466 876 466 877 465 880 465 880 464 881 463 881 462 882 461 882 459 883 458 883 456 884 455 884 453 885 452 885 449 886 448 886 426 887 425 887 423 888 422 888 420 889 419 889 417 890 416 890 415 891 414 891 413 898 406 899 406 901 404 902 404 903 403 905 403 906 402 909 402 910 401 914 401 915 400 929 400 937 408 937 409 938 410 938 411 939 412 939 413 940 414 940 416 941 417 941 418 942 419 942 421 943 422 943 424 944 425 944 430 943 431 943 433 942 434 942 436 941 437 941 438 940 439 940 441 939 442 939 443 938 444 938 447 937 448 937 450 936 451 936 453 935 454 935 457 934 458 934 460 933 461 933 464 932 465 932 466 931 467 931 468 929 470 929 471 924 476 924 477 923 478 923 479 922 480 922 481 921 482 921 484 920 485 920 488 919 489 919 492 918 493 918 495 917 496 917 499 916 500 916 573 917 574 917 583 918 584 918 593 919 594 919 605 920 606 920 617 921 618 921 627 922 628 922 694 921 695 921 722 922 723 922 727 923 728 923 730 924 731 924 732 925 733 925 734 926 735 926 736 927 737 927 738 931 742 932 742 935 745 936 745 937 746 938 746 939 747 940 747 941 748 952 748 954 746 955 746 955 745 957 743 957 742 958 741 958 740 959 739 959 737 960 736 960 735 961 734 961 732 962 731 962 729 963 728 963 726 964 725 964 724 963 723 963 716 962 715 962 698 963 697 963 689 964 688 964 664 963 663 963 638 964 637 964 613 965 612 965 607 966 606 966 601 967 600 967 593 968 592 968 587 969 586 969 581 970 580 970 576 971 575 971 573 972 572 972 571 973 570 973 569 974 568 974 567 981 560 981 559 983 557 983 556 987 552 987 551 988 550 989 550 990 549 991 549 992 548 994 548 995 547 997 547 998 546 999 546 1000 545 1001 545 1015 559 1015 560 1017 562 1017 563 1018 564 1018 565 1019 566 1019 567 1020 568 1020 569 1021 570 1021 571 1022 572 1022 574 1023 575 1023 576 1024 577 1024 579 1025 580 1025 582 1026 583 1026 584 1027 585 1027 588 1028 589 1028 591 1029 592 1029 594 1030 595 1030 599 1031 600 1031 603 1032 604 1032 607 1033 608 1033 611 1034 612 1034 620 1035 621 1035 631 1036 632 1036 635 1037 636 1037 639 1038 640 1038 642 1039 643 1039 646 1040 647 1040 664 1039 665 1039 674 1040 675 1040 692 1041 693 1041 712 1042 713 1042 725 1044 727 1044 728 1050 734 1051 734 1052 735 1053 735 1055 737 1056 737 1057 738 1058 738 1059 739 1060 739 1061 740 1062 740 1063 741 1066 741 1067 742 1070 742 1071 743 1073 743 1074 744 1075 744 1076 743 1098 743 1098 740 1099 739 1099 724 1097 722 1097 721 1095 719 1095 718 1093 716 1093 715 1092 714 1092 712 1091 711 1091 710 1090 709 1090 706 1089 705 1089 702 1088 701 1088 698 1087 697 1087 695 1086 694 1086 691 1085 690 1085 688 1084 687 1084 681 1083 680 1083 671 1082 670 1082 668 1083 667 1083 654 1084 653 1084 645 1085 644 1085 639 1086 638 1086 621 1087 620 1087 613 1086 612 1086 606 1085 605 1085 599 1084 598 1084 588 1083 587 1083 576 1082 575 1082 571 1081 570 1081 566 1080 565 1080 560 1079 559 1079 553 1078 552 1078 548 1077 547 1077 542 1076 541 1076 538 1075 537 1075 535 1074 534 1074 533 1073 532 1073 531 1072 530 1072 529 1071 528 1071 527 1070 526 1070 525 1069 524 1069 522 1068 521 1068 519 1067 518 1067 515 1066 514 1066 513 1065 512 1065 510 1064 509 1064 508 1063 507 1063 506 1062 505 1062 504 1061 503 1061 502 1060 501 1060 500 1059 499 1059 498 1058 497 1058 496 1057 495 1057 493 1056 492 1056 491 1055 490 1055 488 1054 487 1054 486 1053 485 1053 483 1052 482 1052 479 1051 478 1051 475 1050 474 1050 472 1049 471 1049 470 1048 469 1048 466 1047 465 1047 464 1048 463 1048 460 1049 459 1049 457 1050 456 1050 453 1051 452 1051 449 1052 448 1052 446 1053 445 1053 443 1054 442 1054 440 1055 439 1055 437 1056 436 1056 435 1057 434 1057 433 1058 432 1058 431 1059 430 1059 429 1060 428 1060 427 1064 423 1064 422 1068 418 1069 418 1073 414 1074 414 1075 413 1076 413 1077 412 1078 412 1079 411 1080 411 1081 410 1082 410 1083 409 1084 409 1085 408 1086 408 1087 409 1089 409 1090 410 1091 410 1092 411 1094 411 1095 412 1097 412 1103 418 1103 419 1105 421 1105 422 1107 424 1107 425 1108 426 1108 427 1109 428 1109 429 1114 434 1114 435 1116 437 1116 438 1117 439 1117 440 1118 441 1118 442 1119 443 1119 444 1120 445 1120 446 1121 447 1121 448 1122 449 1122 450 1124 452 1124 453 1125 454 1125 456 1126 457 1126 459 1127 460 1127 462 1128 463 1128 469 1129 470 1129 476 1130 477 1130 483 1131 484 1131 488 1132 489 1132 492 1133 493 1133 495 1134 496 1134 498 1135 499 1135 501 1136 502 1136 503 1137 504 1137 505 1139 507 1139 508 1140 509 1140 510 1141 511 1141 512 1144 515 1144 516 1147 519 1154 519 1155 520 1158 520 1160 518 1160 517 1161 516 1161 515 1163 513 1163 512 1164 511 1164 509 1165 508 1165 507 1166 506 1166 505 1167 504 1167 497 1166 496 1166 491 1165 490 1165 483 1164 482 1164 479 1163 478 1163 476 1162 475 1162 472 1161 471 1161 469 1160 468 1160 467 1159 466 1159 464 1158 463 1158 462 1156 460 1156 459 1155 458 1155 457 1154 456 1154 454 1153 453 1153 451 1152 450 1152 448 1151 447 1151 445 1150 444 1150 442 1149 441 1149 440 1148 439 1148 438 1147 437 1147 436 1146 435 1146 434 1144 432 1144 431 1143 430 1143 429 1142 428 1142 426 1141 425 1141 424 1140 423 1140 421 1139 420 1139 418 1138 417 1138 415 1137 414 1137 413 1136 412 1136 410 1135 409 1135 408 1134 407 1134 406 1133 405 1133 404 1131 402 1131 401 1130 400 1130 398 1129 397 1129 396 1128 395 1128 393 1127 392 1127 390 1126 389 1126 388 1125 387 1125 386 1123 384 1123 383 1120 380 1119 380 1117 378 1117 377 1113 373 1113 372 1111 370 1111 369 1092 350 1092 349 1088 345 1087 345 1079 337 1079 336 1077 334 1077 333 1072 328 1072 327 1067 322 1067 321 1064 318 1064 317 1063 316 1063 314 1062 313 1062 311 1061 310 1061 308 1060 307 1060 304 1059 303 1059 300 1058 299 1058 295 1057 294 1057 290 1056 289 1056 285 1055 284 1055 280 1054 279 1054 278 1053 277 1053 276 1051 274 1051 273 1050 272 1049 272 1045 268 1044 268 1038 262 1037 262 1035 260 1035 251 "/></svg>