<svg width="1920" height="1080" xmlns="http://www.w3.org/2000/svg"><path d="M992 238 992 247 990 249 989 249 987 251 986 251 984 253 983 253 976 260 976 261 973 264 973 265 971 267 971 269 970 270 970 272 969 273 969 275 968 276 968 278 967 279 967 281 966 282 966 285 965 286 965 287 963 289 963 290 953 300 953 301 951 303 951 304 946 309 945 309 944 310 943 310 942 311 941 311 940 312 939 312 938 313 937 313 936 314 935 314 934 315 932 315 931 316 930 316 928 318 927 318 926 319 925 319 923 321 922 321 922 322 915 329 914 329 911 332 910 332 909 333 908 333 905 336 904 336 900 340 900 341 898 343 898 344 895 347 894 347 890 351 889 351 888 352 887 352 886 353 885 353 883 355 882 355 879 358 878 358 867 369 866 369 863 372 862 372 860 374 859 374 859 375 856 378 856 379 855 380 855 381 854 382 854 383 853 384 853 386 852 387 852 388 851 389 851 390 850 391 850 392 848 394 848 395 847 396 847 398 846 399 846 420 847 421 847 429 848 430 848 437 849 438 849 439 851 441 851 442 853 444 853 445 854 446 854 447 856 449 856 450 859 453 859 454 860 455 862 455 863 454 865 454 866 453 867 453 868 452 870 452 871 451 872 451 875 448 875 447 876 446 876 445 877 444 877 443 878 442 878 441 879 440 879 439 880 438 880 415 881 414 881 409 882 408 882 405 883 404 883 400 885 398 885 397 886 396 887 396 890 393 891 393 892 392 893 392 894 391 895 391 896 390 897 390 898 389 899 389 900 388 901 388 902 387 903 387 905 385 906 385 909 382 911 382 912 381 921 381 922 380 927 385 928 385 930 387 931 387 938 394 938 395 939 396 939 397 940 398 940 399 941 400 941 416 942 417 942 419 941 420 941 422 940 423 940 425 939 426 939 428 938 429 938 431 937 432 937 433 936 434 936 436 935 437 935 438 933 440 933 442 932 443 932 444 931 445 931 446 930 447 930 449 929 450 929 452 928 453 928 455 927 456 927 458 926 459 926 460 925 461 925 462 924 463 924 464 923 465 923 466 921 468 921 469 920 470 920 471 919 472 919 474 918 475 918 479 917 480 917 484 916 485 916 489 915 490 915 497 914 498 914 512 913 513 913 530 912 531 912 559 913 560 913 575 914 576 914 591 915 592 915 605 916 606 916 619 917 620 917 638 918 639 918 724 919 725 919 727 920 728 920 729 921 730 921 732 923 734 923 735 926 738 926 739 929 742 929 743 932 746 933 746 934 747 936 747 937 748 941 748 942 749 948 749 949 748 950 748 951 747 952 747 953 746 954 746 956 744 957 744 958 743 958 742 959 741 959 740 960 739 960 738 961 737 961 735 962 734 962 732 963 731 963 728 964 727 964 716 963 715 963 706 962 705 963 704 963 696 964 695 964 687 965 686 965 683 964 682 964 614 963 613 963 607 964 606 964 586 965 585 965 576 966 575 966 570 967 569 967 568 969 566 969 565 978 556 978 555 981 552 981 551 984 548 985 548 987 546 988 546 990 544 991 544 992 543 993 543 994 542 995 542 996 541 997 541 998 542 1000 542 1001 543 1003 543 1004 544 1007 544 1008 545 1009 545 1010 546 1010 547 1013 550 1013 551 1015 553 1015 554 1016 555 1016 556 1020 560 1020 561 1023 564 1023 565 1024 566 1024 567 1025 568 1025 569 1026 570 1026 571 1027 572 1027 576 1028 577 1028 581 1029 582 1029 586 1030 587 1030 591 1031 592 1031 593 1032 594 1032 596 1033 597 1033 598 1034 599 1034 601 1035 602 1035 604 1036 605 1036 607 1037 608 1037 616 1038 617 1038 630 1039 631 1039 641 1040 642 1040 667 1041 668 1041 688 1042 689 1042 695 1043 696 1043 701 1044 702 1044 707 1045 708 1045 717 1046 718 1046 724 1048 726 1048 727 1051 730 1051 731 1053 733 1054 733 1057 736 1058 736 1059 737 1061 737 1062 738 1064 738 1065 739 1067 739 1068 740 1075 740 1076 741 1087 741 1088 740 1091 740 1092 739 1094 739 1094 738 1095 737 1095 736 1096 735 1096 732 1097 731 1097 722 1096 721 1096 720 1095 719 1095 718 1094 717 1094 716 1093 715 1093 714 1092 713 1092 712 1091 711 1091 709 1090 708 1090 706 1089 705 1089 702 1088 701 1088 698 1087 697 1087 693 1086 692 1086 688 1085 687 1085 678 1084 677 1084 668 1083 667 1083 666 1084 665 1084 651 1085 650 1085 639 1086 638 1086 622 1087 621 1087 600 1086 599 1086 582 1085 581 1085 571 1084 570 1084 567 1083 566 1083 563 1082 562 1082 560 1081 559 1081 558 1080 557 1080 554 1079 553 1079 550 1078 549 1078 545 1077 544 1077 539 1076 538 1076 533 1075 532 1075 529 1074 528 1074 525 1073 524 1073 522 1072 521 1072 519 1071 518 1071 517 1070 516 1070 514 1069 513 1069 512 1068 511 1068 508 1067 507 1067 505 1066 504 1066 501 1065 500 1065 498 1064 497 1064 494 1063 493 1063 491 1062 490 1062 488 1061 487 1061 485 1060 484 1060 483 1059 482 1059 481 1058 480 1058 479 1057 478 1057 477 1056 476 1056 475 1055 474 1055 472 1054 471 1054 470 1053 469 1053 468 1052 467 1052 466 1051 465 1051 463 1050 462 1050 461 1049 460 1049 459 1048 458 1048 450 1049 449 1049 437 1050 436 1050 430 1051 429 1051 424 1052 423 1052 419 1053 418 1053 416 1054 415 1054 414 1055 413 1055 412 1057 410 1057 409 1059 407 1059 406 1061 404 1061 403 1063 401 1063 400 1070 393 1072 393 1073 392 1075 392 1076 391 1079 391 1080 390 1085 390 1086 391 1092 391 1093 392 1095 392 1097 394 1098 394 1103 399 1103 400 1106 403 1107 403 1109 405 1110 405 1121 416 1121 417 1122 418 1122 420 1123 421 1123 425 1124 426 1124 430 1125 431 1125 436 1126 437 1126 441 1127 442 1127 446 1128 447 1128 450 1129 451 1129 455 1130 456 1130 459 1131 460 1131 463 1132 464 1132 467 1133 468 1133 470 1134 471 1134 474 1135 475 1135 476 1136 477 1136 478 1138 480 1138 481 1144 487 1154 487 1155 488 1156 488 1156 487 1159 484 1159 483 1160 482 1160 481 1162 479 1162 477 1163 476 1163 461 1164 460 1164 457 1163 456 1163 451 1162 450 1162 446 1161 445 1161 441 1160 440 1160 436 1159 435 1159 433 1158 432 1158 430 1157 429 1157 427 1156 426 1156 425 1155 424 1155 423 1154 422 1154 421 1153 420 1153 418 1152 417 1152 416 1151 415 1151 413 1150 412 1150 410 1149 409 1149 407 1148 406 1148 403 1147 402 1147 399 1146 398 1146 397 1145 396 1145 395 1142 392 1142 391 1140 389 1140 388 1138 386 1138 384 1137 383 1137 382 1136 381 1136 380 1135 379 1135 378 1134 377 1134 376 1128 370 1128 369 1126 367 1126 366 1124 364 1124 363 1123 362 1123 361 1122 360 1122 359 1118 355 1117 355 1116 354 1115 354 1114 353 1113 353 1112 352 1111 352 1110 351 1109 351 1107 349 1106 349 1103 346 1103 345 1101 343 1101 342 1094 335 1093 335 1091 333 1090 333 1089 332 1088 332 1086 330 1085 330 1073 318 1072 318 1069 315 1068 315 1061 308 1061 307 1059 305 1059 304 1058 303 1058 301 1057 300 1057 299 1056 298 1056 296 1055 295 1055 292 1054 291 1054 289 1053 288 1053 284 1052 283 1052 278 1051 277 1051 272 1050 271 1050 267 1049 266 1049 265 1048 264 1048 263 1032 247 1032 238 "/></svg>