<svg width="1920" height="1080" xmlns="http://www.w3.org/2000/svg"><path d="M983 290 983 298 981 300 981 301 979 303 979 304 978 305 978 306 977 307 977 308 976 309 976 311 975 312 975 313 974 314 974 325 973 326 973 334 972 335 972 337 971 338 971 339 970 340 970 341 968 343 968 344 967 345 967 347 966 348 966 349 965 350 965 351 958 358 957 358 956 359 955 359 954 360 953 360 952 361 951 361 950 362 949 362 947 364 946 364 941 369 940 369 938 371 937 371 935 373 934 373 933 374 932 374 931 375 930 375 929 376 928 376 927 377 926 377 925 378 924 378 919 383 919 384 917 386 917 387 904 400 904 401 897 408 897 409 888 418 888 419 887 420 887 421 886 422 886 423 884 425 884 426 881 429 881 430 876 435 876 436 875 437 875 438 874 439 874 441 873 442 873 443 872 444 872 445 871 446 871 448 870 449 870 450 868 452 868 454 867 455 867 456 866 457 866 459 865 460 865 463 864 464 864 467 863 468 863 488 862 489 862 507 863 508 863 513 864 514 864 518 865 519 865 521 866 522 866 523 867 523 870 526 871 526 873 528 874 528 876 530 884 530 885 529 888 529 891 526 891 525 892 524 892 523 893 522 893 518 894 517 894 501 893 500 893 496 892 495 892 491 891 490 891 484 892 483 892 478 893 477 893 472 894 471 894 468 895 467 895 464 896 463 896 460 897 459 897 457 898 456 898 453 899 452 899 451 900 450 901 450 904 447 905 447 907 445 908 445 909 444 910 444 911 443 913 443 914 442 916 442 917 441 920 441 921 440 924 440 925 439 930 439 931 438 935 438 937 440 938 440 946 448 946 449 948 451 948 452 949 453 949 455 948 456 948 463 947 464 947 470 946 471 946 473 945 474 945 476 944 477 944 480 943 481 943 484 942 485 942 487 941 488 941 489 940 490 940 491 939 492 939 493 930 502 930 503 928 505 928 507 927 508 927 509 926 510 926 511 925 512 925 513 923 515 923 516 922 517 922 518 921 519 921 520 920 521 920 523 919 524 919 527 918 528 918 530 917 531 917 534 916 535 916 537 915 538 915 541 916 542 916 548 917 549 917 571 918 572 918 658 917 659 917 683 916 684 916 692 915 693 915 700 914 701 914 705 913 706 913 710 912 711 912 712 913 713 913 720 914 721 914 728 915 729 915 730 918 733 918 734 923 739 924 739 925 740 926 740 927 741 928 741 929 742 930 742 931 743 932 743 933 744 934 744 935 745 936 744 938 744 939 743 940 743 941 742 943 742 944 741 946 741 948 739 948 738 951 735 951 734 952 733 952 732 953 731 953 729 954 728 954 708 955 707 955 697 956 696 956 686 957 685 957 678 958 677 958 659 959 658 959 654 960 653 960 648 961 647 961 639 962 638 962 626 963 625 963 619 964 618 964 611 965 610 965 606 966 605 966 603 967 602 967 599 968 598 968 597 969 596 969 595 970 594 970 592 971 591 971 590 972 589 972 588 973 587 973 586 974 585 974 584 975 583 975 582 977 580 977 579 979 577 979 576 982 573 983 573 987 569 988 569 990 567 991 567 992 566 996 566 997 567 1000 567 1001 568 1003 568 1008 573 1008 574 1012 578 1012 579 1013 579 1014 580 1014 581 1015 581 1016 582 1016 583 1018 585 1018 586 1019 587 1019 588 1020 589 1020 591 1021 592 1021 595 1022 596 1022 599 1023 600 1023 603 1024 604 1024 607 1025 608 1025 613 1026 614 1026 618 1027 619 1027 623 1028 624 1028 628 1029 629 1029 634 1030 635 1030 642 1031 643 1031 651 1032 652 1032 668 1033 669 1033 699 1034 700 1034 721 1035 722 1035 729 1036 730 1036 731 1038 733 1038 734 1039 735 1040 735 1042 737 1043 737 1044 738 1045 738 1046 739 1047 739 1048 740 1049 740 1050 741 1052 741 1053 742 1054 742 1055 743 1057 743 1058 744 1059 744 1060 745 1062 745 1063 746 1074 746 1075 745 1076 745 1077 744 1078 744 1079 743 1080 743 1081 742 1082 742 1084 740 1085 740 1088 737 1088 736 1089 735 1089 734 1090 733 1090 730 1091 729 1090 728 1090 727 1088 725 1088 724 1085 721 1085 720 1083 718 1083 717 1082 716 1082 715 1081 714 1081 712 1080 711 1080 709 1079 708 1079 706 1078 705 1078 702 1077 701 1077 698 1076 697 1076 692 1075 691 1075 679 1074 678 1074 674 1075 673 1075 654 1076 653 1076 643 1077 642 1077 630 1078 629 1078 607 1077 606 1077 591 1076 590 1076 586 1075 585 1075 582 1074 581 1074 578 1073 577 1073 575 1072 574 1072 571 1071 570 1071 567 1070 566 1070 562 1069 561 1069 556 1068 555 1068 551 1067 550 1067 547 1066 546 1066 542 1065 541 1065 538 1064 537 1064 535 1063 534 1063 533 1062 532 1062 531 1061 530 1061 529 1058 526 1058 525 1057 524 1057 523 1056 522 1056 517 1055 516 1055 508 1054 507 1054 492 1053 491 1053 488 1054 487 1054 485 1055 484 1055 482 1056 481 1056 480 1057 479 1057 477 1058 476 1058 475 1059 474 1059 473 1061 471 1061 470 1066 465 1067 465 1069 463 1070 463 1071 462 1072 462 1073 461 1076 461 1077 462 1084 462 1085 463 1086 463 1090 467 1090 468 1093 471 1093 472 1098 477 1098 478 1099 479 1099 480 1100 481 1100 482 1101 483 1101 485 1102 486 1102 488 1103 489 1103 492 1104 493 1104 495 1105 496 1105 498 1106 499 1106 500 1107 501 1107 502 1108 503 1108 504 1109 505 1109 506 1110 507 1110 508 1111 509 1111 510 1112 511 1112 512 1113 513 1113 515 1114 516 1114 518 1115 519 1115 522 1116 523 1116 526 1117 527 1117 530 1118 531 1118 533 1119 534 1119 536 1120 537 1120 539 1121 540 1121 543 1122 544 1122 547 1123 548 1123 553 1124 554 1124 559 1125 560 1125 565 1126 566 1126 570 1127 571 1127 574 1128 575 1128 576 1129 577 1129 578 1130 579 1130 580 1133 583 1133 584 1135 586 1135 587 1136 588 1136 589 1138 591 1138 592 1141 595 1153 595 1155 593 1155 592 1156 591 1156 590 1157 589 1157 584 1158 583 1158 577 1159 576 1159 569 1158 568 1158 555 1157 554 1157 551 1156 550 1156 547 1155 546 1155 543 1154 542 1154 539 1153 538 1153 537 1152 536 1152 535 1151 534 1151 533 1150 532 1150 530 1149 529 1149 527 1148 526 1148 523 1147 522 1147 518 1146 517 1146 515 1145 514 1145 511 1144 510 1144 508 1143 507 1143 506 1142 505 1142 503 1141 502 1141 501 1140 500 1140 499 1139 498 1139 497 1138 496 1138 494 1137 493 1137 491 1136 490 1136 487 1135 486 1135 483 1134 482 1134 479 1133 478 1133 475 1132 474 1132 471 1131 470 1131 468 1130 467 1130 466 1129 465 1129 464 1128 463 1128 462 1127 461 1127 459 1126 458 1126 456 1125 455 1125 452 1124 451 1124 449 1123 448 1123 446 1122 445 1122 443 1121 442 1121 440 1120 439 1120 438 1119 437 1119 436 1118 435 1118 434 1116 432 1116 431 1115 430 1115 429 1114 428 1114 427 1113 426 1113 425 1112 424 1112 423 1111 422 1111 421 1110 420 1110 418 1109 417 1109 416 1107 414 1107 413 1106 412 1106 411 1104 409 1104 407 1103 406 1103 405 1102 404 1102 402 1101 401 1101 399 1100 398 1100 397 1099 396 1099 395 1098 394 1098 393 1095 390 1095 389 1092 386 1092 385 1090 383 1090 382 1088 380 1088 379 1084 375 1083 375 1078 370 1078 369 1075 366 1075 365 1072 362 1071 362 1066 357 1065 357 1059 351 1059 350 1058 349 1058 348 1057 347 1057 345 1056 344 1056 343 1055 342 1055 340 1054 339 1054 337 1053 336 1053 335 1052 334 1052 331 1051 330 1051 326 1050 325 1050 321 1049 320 1049 317 1048 316 1048 314 1046 312 1046 311 1044 309 1044 308 1042 306 1042 305 1039 302 1039 301 1036 298 1036 290 "/></svg>