<svg width="1920" height="1080" xmlns="http://www.w3.org/2000/svg"><path d="M987 271 987 280 977 290 977 291 975 293 975 294 974 295 974 296 973 297 973 303 972 304 972 311 971 312 971 317 970 318 970 320 969 321 969 322 968 323 968 324 967 325 967 326 966 327 966 329 965 330 965 331 964 332 964 334 962 336 962 337 955 344 954 344 942 356 941 356 940 357 939 357 938 358 937 358 936 359 935 359 934 360 933 360 932 361 931 361 930 362 929 362 928 363 927 363 924 366 923 366 920 369 920 370 907 383 906 383 904 385 904 386 896 394 895 394 892 397 891 397 883 405 883 406 882 407 882 408 878 412 878 413 875 416 874 416 869 421 869 422 868 423 868 425 867 426 867 428 866 429 866 431 865 432 865 434 864 435 864 436 863 437 863 439 862 440 862 442 861 443 861 448 860 449 860 456 859 457 859 459 860 460 860 465 861 466 861 468 862 469 862 471 863 472 863 474 864 475 864 477 865 478 865 481 866 482 866 486 867 487 867 492 868 493 868 496 869 497 869 498 870 499 870 501 871 502 871 503 872 504 872 506 875 506 876 507 879 507 880 508 883 508 884 509 884 508 886 506 886 505 887 504 887 502 888 501 888 499 889 498 889 496 890 495 890 494 889 493 889 490 888 489 888 485 887 484 887 480 886 479 886 473 887 472 887 466 888 465 888 459 889 458 889 452 890 451 890 445 891 444 891 440 892 439 892 437 894 435 894 434 897 431 898 431 900 429 901 429 903 427 904 427 905 426 906 426 907 425 909 425 910 424 913 424 914 423 917 423 918 422 922 422 923 421 928 421 929 420 931 420 935 424 935 425 937 427 937 428 938 429 938 430 940 432 940 433 941 434 941 435 942 436 942 437 943 438 943 439 944 440 944 459 943 460 943 464 942 465 942 469 941 470 941 474 940 475 940 477 939 478 939 479 938 480 938 481 936 483 936 484 927 493 927 494 926 495 926 496 925 497 925 498 923 500 923 501 922 502 922 503 920 505 920 506 917 509 917 510 916 511 916 512 915 513 915 522 914 523 914 537 915 538 915 552 916 553 916 568 917 569 917 581 918 582 918 593 919 594 919 607 920 608 920 623 921 624 921 630 922 631 922 646 921 647 921 670 920 671 920 677 919 678 919 682 918 683 918 688 917 689 917 695 916 696 916 704 915 705 915 715 916 716 916 726 917 727 917 729 919 731 919 732 930 743 930 744 931 745 943 745 945 743 946 743 949 740 950 740 955 735 955 734 956 733 956 731 957 730 957 729 958 728 958 721 959 720 959 698 960 697 960 671 961 670 961 644 962 643 962 628 963 627 963 617 964 616 964 612 965 611 965 608 966 607 966 604 967 603 967 601 968 600 968 598 969 597 969 595 970 594 970 592 971 591 971 588 972 587 972 584 973 583 973 581 974 580 974 579 975 578 975 577 977 575 977 574 979 572 980 572 982 570 983 570 991 562 992 562 993 563 995 563 996 564 998 564 999 565 1001 565 1002 566 1003 566 1004 567 1004 568 1011 575 1011 576 1016 581 1016 582 1017 583 1017 584 1018 585 1018 587 1019 588 1019 590 1020 591 1020 593 1021 594 1021 595 1022 596 1022 599 1023 600 1023 602 1024 603 1024 605 1025 606 1025 609 1026 610 1026 612 1027 613 1027 614 1028 615 1028 617 1029 618 1029 623 1030 624 1030 630 1031 631 1031 638 1032 639 1032 645 1033 646 1033 652 1034 653 1034 688 1035 689 1035 702 1036 703 1036 715 1037 716 1037 726 1038 727 1038 728 1040 730 1040 731 1043 734 1044 734 1047 737 1048 737 1050 739 1052 739 1053 740 1054 740 1055 741 1056 741 1057 742 1058 742 1059 743 1060 743 1062 745 1067 745 1068 746 1077 746 1078 745 1080 745 1081 744 1084 744 1085 743 1087 743 1088 742 1090 742 1091 741 1092 741 1093 740 1093 739 1094 738 1094 736 1095 735 1095 726 1093 724 1093 723 1091 721 1091 720 1089 718 1089 717 1088 716 1088 715 1087 714 1087 713 1086 712 1086 711 1085 710 1085 709 1084 708 1084 706 1083 705 1083 703 1082 702 1082 700 1081 699 1081 696 1080 695 1080 692 1079 691 1079 678 1078 677 1078 658 1079 657 1079 642 1080 641 1080 625 1081 624 1081 615 1080 614 1080 597 1079 596 1079 583 1078 582 1078 578 1077 577 1077 574 1076 573 1076 570 1075 569 1075 566 1074 565 1074 562 1073 561 1073 558 1072 557 1072 554 1071 553 1071 549 1070 548 1070 546 1069 545 1069 542 1068 541 1068 539 1067 538 1067 535 1066 534 1066 532 1065 531 1065 529 1064 528 1064 527 1063 526 1063 525 1062 524 1062 523 1058 519 1058 518 1056 516 1056 515 1055 514 1055 513 1054 512 1054 509 1053 508 1053 505 1052 504 1052 500 1051 499 1051 496 1050 495 1050 477 1051 476 1051 474 1052 473 1052 472 1053 471 1053 469 1054 468 1054 467 1055 466 1055 465 1056 464 1056 462 1057 461 1057 460 1058 459 1058 458 1059 457 1059 456 1060 455 1060 454 1064 450 1065 450 1067 448 1068 448 1069 447 1070 447 1071 446 1072 446 1073 445 1080 445 1081 446 1086 446 1088 448 1089 448 1091 450 1092 450 1098 456 1098 457 1099 458 1099 459 1100 460 1100 461 1101 462 1101 463 1102 464 1102 465 1103 466 1103 468 1104 469 1104 471 1105 472 1105 474 1106 475 1106 477 1107 478 1107 480 1108 481 1108 482 1110 484 1110 485 1111 486 1111 487 1113 489 1113 491 1114 492 1114 493 1115 494 1115 496 1116 497 1116 500 1117 501 1117 502 1118 503 1118 505 1119 506 1119 508 1120 509 1120 510 1121 511 1121 513 1122 514 1122 515 1123 516 1123 518 1124 519 1124 521 1125 522 1125 524 1126 525 1126 528 1127 529 1127 533 1128 534 1128 539 1129 540 1129 544 1130 545 1130 548 1131 549 1131 551 1133 553 1133 554 1138 559 1138 560 1141 563 1141 564 1145 568 1147 568 1148 567 1152 567 1153 566 1155 566 1156 565 1157 565 1157 563 1158 562 1158 561 1159 560 1159 558 1160 557 1160 555 1161 554 1161 551 1162 550 1162 544 1161 543 1161 537 1160 536 1160 530 1159 529 1159 527 1158 526 1158 525 1157 524 1157 523 1155 521 1155 520 1154 519 1154 518 1153 517 1153 515 1152 514 1152 511 1151 510 1151 506 1150 505 1150 502 1149 501 1149 497 1148 496 1148 493 1147 492 1147 491 1146 490 1146 488 1145 487 1145 486 1143 484 1143 483 1142 482 1142 481 1141 480 1141 478 1140 477 1140 475 1139 474 1139 471 1138 470 1138 468 1137 467 1137 464 1136 463 1136 460 1135 459 1135 458 1134 457 1134 455 1132 453 1132 452 1131 451 1131 450 1130 449 1130 448 1129 447 1129 445 1128 444 1128 442 1127 441 1127 439 1126 438 1126 436 1125 435 1125 433 1124 432 1124 431 1123 430 1123 429 1122 428 1122 427 1121 426 1121 425 1120 424 1120 423 1119 422 1119 421 1117 419 1117 418 1116 417 1116 416 1114 414 1114 413 1113 412 1113 411 1111 409 1111 408 1110 407 1110 406 1109 405 1109 404 1107 402 1107 401 1106 400 1106 399 1105 398 1105 397 1104 396 1104 395 1103 394 1103 392 1102 391 1102 390 1101 389 1101 388 1100 387 1100 386 1099 385 1099 384 1091 376 1090 376 1088 374 1088 373 1083 368 1083 367 1081 365 1081 364 1078 361 1078 360 1071 353 1071 352 1070 351 1070 350 1069 349 1069 348 1067 346 1067 345 1066 344 1066 343 1063 340 1063 339 1060 336 1060 335 1059 334 1059 333 1058 332 1058 329 1057 328 1057 324 1056 323 1056 319 1055 318 1055 314 1054 313 1054 307 1053 306 1053 301 1052 300 1052 297 1051 296 1051 295 1037 281 1036 281 1035 280 1035 271 "/></svg>