<svg width="1920" height="1080" xmlns="http://www.w3.org/2000/svg"><path d="M1009 212 1008 213 1002 213 1001 214 998 214 997 215 996 215 995 216 994 216 993 217 992 217 991 218 989 218 987 220 986 220 985 221 984 221 979 226 979 227 977 229 977 230 975 232 975 233 966 242 966 243 964 245 964 246 963 247 963 248 954 257 953 257 952 258 951 258 950 259 948 259 947 260 945 260 944 261 943 261 942 262 940 262 939 263 938 263 937 264 936 264 935 265 934 265 932 267 931 267 927 271 926 271 925 272 924 272 922 274 921 274 920 275 918 275 917 276 915 276 914 277 912 277 911 278 908 278 907 279 905 279 904 280 900 280 899 281 895 281 894 282 891 282 890 283 884 283 883 284 876 284 875 285 871 285 870 286 869 286 868 287 867 287 866 288 865 288 864 289 863 289 861 291 860 291 859 292 858 292 857 293 854 293 853 294 847 294 846 295 841 295 840 296 838 296 837 297 834 297 833 298 831 298 830 299 827 299 826 300 822 300 821 301 816 301 815 302 810 302 809 303 806 303 805 304 803 304 802 305 801 305 800 306 798 306 797 307 796 307 794 309 793 309 792 310 791 310 790 311 789 311 787 313 786 313 785 314 784 314 783 315 782 315 781 316 779 316 778 317 777 317 771 323 771 324 768 327 768 328 767 329 767 340 768 341 768 349 769 350 770 350 772 352 773 352 774 353 776 353 777 354 786 354 787 353 794 353 798 349 798 348 800 346 800 345 803 342 803 341 804 340 805 340 809 336 815 336 816 335 823 335 824 334 828 334 829 333 833 333 834 332 838 332 839 331 842 331 843 330 845 330 846 329 848 329 849 328 851 328 852 327 853 327 854 326 857 326 858 325 861 325 862 324 866 324 867 323 873 323 874 322 886 322 887 321 889 321 890 322 895 322 896 323 900 323 901 324 904 324 906 326 907 326 910 329 910 330 912 332 912 333 914 335 914 336 916 338 916 339 919 342 919 343 921 345 921 346 922 347 922 348 923 349 923 354 924 355 924 363 925 364 925 378 924 379 924 390 923 391 923 394 922 395 922 398 921 399 921 402 920 403 920 405 919 406 919 409 918 410 918 415 917 416 917 420 916 421 916 427 915 428 915 436 914 437 914 448 913 449 913 513 912 514 912 599 911 600 911 623 910 624 910 633 909 634 909 637 908 638 908 640 907 641 907 643 906 644 906 646 905 647 905 648 904 649 904 650 903 651 903 657 902 658 902 676 901 677 901 685 900 686 900 706 901 707 901 719 902 720 902 727 903 728 903 734 904 735 904 737 905 738 905 739 907 741 907 742 909 744 909 745 910 746 910 747 912 749 912 750 914 752 914 753 915 754 915 764 956 764 956 752 957 751 957 748 958 747 958 743 959 742 959 738 960 737 960 732 959 731 959 729 958 728 958 726 957 725 957 722 956 721 956 718 955 717 955 713 954 712 954 709 953 708 953 705 952 704 952 701 951 700 951 696 950 695 950 688 949 687 949 675 948 674 948 673 949 672 949 658 950 657 950 646 951 645 951 635 952 634 952 631 953 630 953 629 954 628 954 625 955 624 955 622 956 621 956 618 957 617 957 613 958 612 958 606 959 605 959 599 960 598 960 591 961 590 961 584 962 583 962 578 963 577 963 572 964 571 964 568 965 567 965 564 966 563 966 561 967 560 967 558 968 557 968 556 969 555 969 553 970 552 970 549 971 548 971 545 972 544 972 540 973 539 973 536 974 535 974 531 975 530 975 527 976 526 976 525 977 524 977 522 978 521 978 519 979 518 979 517 980 516 980 515 981 514 981 513 982 512 982 511 991 502 992 502 995 499 996 499 999 496 1001 496 1002 497 1005 497 1006 498 1008 498 1009 499 1012 499 1013 500 1015 500 1016 501 1017 501 1025 509 1025 510 1026 511 1026 512 1027 513 1027 514 1029 516 1029 517 1033 521 1033 522 1035 524 1035 525 1036 526 1036 528 1037 529 1037 530 1038 531 1038 534 1039 535 1039 539 1040 540 1040 544 1041 545 1041 550 1042 551 1042 574 1043 575 1043 587 1044 588 1044 617 1045 618 1045 625 1046 626 1046 632 1047 633 1047 635 1048 636 1048 637 1049 638 1049 640 1050 641 1050 643 1051 644 1051 645 1052 646 1052 649 1053 650 1053 652 1054 653 1054 655 1053 656 1053 670 1052 671 1052 673 1053 674 1053 676 1054 677 1054 679 1055 680 1055 681 1056 682 1056 683 1057 684 1057 685 1058 686 1058 687 1059 688 1059 689 1061 691 1061 692 1063 694 1079 694 1080 693 1081 693 1082 692 1083 692 1084 691 1086 691 1087 690 1088 690 1089 689 1091 689 1092 688 1093 688 1094 687 1095 687 1097 685 1098 685 1101 682 1101 681 1104 678 1104 677 1106 675 1106 672 1105 671 1105 670 1104 669 1104 668 1103 667 1103 666 1102 665 1102 664 1101 663 1101 662 1100 661 1100 660 1099 659 1099 657 1098 656 1098 655 1097 654 1097 652 1096 651 1096 650 1095 649 1095 648 1094 647 1094 646 1093 645 1093 643 1092 642 1092 641 1091 640 1091 637 1090 636 1090 634 1089 633 1089 627 1088 626 1088 620 1087 619 1087 609 1088 608 1088 603 1089 602 1089 599 1090 598 1090 594 1091 593 1091 589 1092 588 1092 585 1093 584 1093 581 1094 580 1094 577 1095 576 1095 573 1096 572 1096 569 1097 568 1097 564 1098 563 1098 558 1099 557 1099 528 1098 527 1098 524 1097 523 1097 520 1096 519 1096 517 1095 516 1095 513 1094 512 1094 511 1093 510 1093 508 1092 507 1092 505 1091 504 1091 502 1090 501 1090 499 1089 498 1089 495 1088 494 1088 491 1087 490 1087 486 1086 485 1086 481 1085 480 1085 476 1084 475 1084 472 1083 471 1083 469 1082 468 1082 467 1080 465 1080 464 1077 461 1077 460 1075 458 1075 457 1074 456 1074 455 1073 454 1073 453 1072 452 1072 451 1071 450 1071 448 1070 447 1070 445 1069 444 1069 443 1068 442 1068 441 1067 440 1067 438 1065 436 1065 435 1064 434 1064 433 1063 432 1063 431 1061 429 1061 427 1060 426 1060 424 1059 423 1059 420 1058 419 1058 416 1057 415 1057 412 1056 411 1056 407 1057 406 1057 390 1058 389 1058 387 1059 386 1059 384 1060 383 1060 381 1061 380 1061 379 1062 378 1062 376 1063 375 1063 374 1064 373 1064 372 1065 371 1065 370 1066 369 1066 365 1067 364 1067 361 1068 360 1068 357 1069 356 1069 353 1070 352 1070 350 1079 341 1082 341 1083 340 1092 340 1093 339 1095 339 1096 340 1099 340 1100 341 1102 341 1103 342 1105 342 1106 343 1108 343 1109 344 1110 344 1116 350 1116 351 1121 356 1121 357 1124 360 1125 360 1127 362 1142 362 1143 361 1144 361 1145 360 1146 360 1149 357 1150 357 1153 354 1154 354 1159 349 1159 345 1160 344 1160 340 1161 339 1161 334 1162 333 1162 324 1161 323 1161 317 1160 316 1160 311 1159 310 1159 308 1151 300 1150 300 1148 298 1147 298 1145 296 1144 296 1143 295 1142 295 1140 293 1139 293 1138 292 1137 292 1135 290 1134 290 1132 288 1131 288 1129 286 1128 286 1127 285 1126 285 1125 284 1124 284 1123 283 1122 283 1121 282 1119 282 1118 281 1117 281 1116 280 1114 280 1113 279 1112 279 1111 278 1109 278 1108 277 1107 277 1106 276 1105 276 1104 275 1103 275 1102 274 1101 274 1100 273 1099 273 1096 270 1095 270 1093 268 1092 268 1090 266 1089 266 1087 264 1086 264 1085 263 1084 263 1083 262 1082 262 1081 261 1080 261 1071 252 1071 251 1069 249 1069 248 1067 246 1067 245 1062 240 1061 240 1056 235 1056 234 1051 229 1051 228 1047 224 1046 224 1044 222 1043 222 1042 221 1041 221 1040 220 1039 220 1038 219 1037 219 1036 218 1035 218 1034 217 1033 217 1032 216 1031 216 1030 215 1027 215 1026 214 1023 214 1022 213 1020 213 1019 212 "/></svg>