<svg width="1920" height="1080" xmlns="http://www.w3.org/2000/svg"><path d="M997 221 997 230 994 233 993 233 992 234 991 234 990 235 989 235 988 236 987 236 985 238 984 238 981 241 980 241 972 249 972 250 971 251 971 252 970 253 970 254 969 255 969 256 968 257 968 258 967 259 967 260 965 262 965 263 964 264 964 265 963 266 963 267 962 268 962 269 955 276 954 276 951 279 950 279 948 281 947 281 946 282 945 282 944 283 943 283 940 286 939 286 933 292 932 292 931 293 930 293 929 294 928 294 927 295 926 295 925 296 924 296 923 297 921 297 920 298 918 298 917 299 914 299 913 300 911 300 910 301 908 301 907 302 906 302 905 303 904 303 901 306 900 306 898 308 898 309 895 312 894 312 892 314 891 314 890 315 888 315 887 316 885 316 884 317 882 317 881 318 879 318 878 319 877 319 876 320 875 320 874 321 873 321 872 322 871 322 869 324 868 324 865 327 864 327 862 329 861 329 859 331 858 331 857 332 856 332 855 333 854 333 853 334 852 334 851 335 850 335 849 336 848 336 847 337 846 337 844 339 843 339 842 340 841 340 839 342 838 342 837 343 837 344 835 346 835 347 834 348 834 350 833 351 833 352 832 353 832 354 831 355 831 357 830 358 830 359 829 360 829 361 828 362 828 363 827 364 827 365 826 366 826 367 824 369 824 371 823 372 823 373 822 374 822 376 821 377 821 379 820 380 820 382 819 383 819 388 818 389 818 399 817 400 817 408 818 409 818 411 819 412 819 414 820 415 820 417 821 418 821 419 822 420 822 421 823 422 823 423 824 424 824 425 828 425 829 424 838 424 838 423 841 420 841 419 843 417 843 416 845 414 845 413 846 412 846 411 847 410 847 409 848 408 848 407 849 406 849 404 850 403 850 401 851 400 851 398 852 397 852 396 853 395 853 393 854 392 854 391 855 390 855 388 856 387 856 386 857 385 857 384 859 382 859 381 863 377 864 377 868 373 868 372 870 370 870 369 872 367 872 366 873 365 873 364 874 363 874 362 876 360 876 359 879 356 882 356 883 355 886 355 887 354 891 354 892 353 902 353 903 352 906 352 907 353 909 353 910 354 911 354 912 355 914 355 915 356 917 356 918 357 919 357 921 359 921 360 923 362 923 363 924 364 924 365 925 366 925 370 926 371 926 377 927 378 927 383 928 384 928 407 927 408 927 411 926 412 926 415 925 416 925 419 924 420 924 423 923 424 923 426 922 427 922 430 921 431 921 434 920 435 920 437 919 438 919 440 918 441 918 444 917 445 917 449 916 450 916 454 915 455 915 460 914 461 914 470 913 471 913 492 912 493 912 569 913 570 913 597 914 598 914 615 915 616 915 670 914 671 914 699 913 700 913 720 914 721 914 730 915 731 915 737 917 739 917 740 918 741 918 742 921 745 922 745 924 747 925 747 928 750 929 750 932 753 937 753 938 752 944 752 945 751 947 751 948 750 949 750 951 748 952 748 961 739 961 738 962 737 962 734 963 733 963 711 962 710 962 703 961 702 961 682 962 681 962 653 961 652 961 641 960 640 960 638 961 637 961 627 962 626 962 614 963 613 963 600 964 599 964 587 965 586 965 576 966 575 966 568 967 567 967 561 968 560 968 557 969 556 969 554 970 553 970 552 971 551 971 549 972 548 972 547 974 545 974 544 976 542 976 541 978 539 978 538 979 537 979 536 982 533 982 532 984 530 984 529 988 525 1001 525 1002 526 1003 526 1005 528 1006 528 1008 530 1009 530 1011 532 1012 532 1013 533 1014 533 1017 536 1017 537 1019 539 1019 540 1020 541 1020 542 1021 543 1021 544 1022 545 1022 546 1023 547 1023 548 1024 549 1024 550 1026 552 1026 553 1028 555 1028 556 1030 558 1030 559 1031 560 1031 562 1032 563 1032 568 1033 569 1033 574 1034 575 1034 580 1035 581 1035 586 1036 587 1036 591 1037 592 1037 596 1038 597 1038 604 1039 605 1039 621 1040 622 1040 624 1041 625 1041 627 1042 628 1042 630 1043 631 1043 633 1044 634 1044 636 1045 637 1045 645 1046 646 1046 660 1047 661 1047 674 1048 675 1048 684 1049 685 1049 690 1050 691 1050 695 1051 696 1051 700 1052 701 1052 703 1053 704 1053 705 1054 706 1054 708 1055 709 1055 710 1056 711 1056 712 1057 713 1057 714 1058 715 1058 716 1062 720 1063 720 1066 723 1067 723 1068 724 1078 724 1079 725 1082 725 1083 724 1087 724 1088 723 1091 723 1092 722 1094 722 1095 721 1096 721 1100 717 1099 716 1099 714 1098 713 1098 711 1097 710 1097 707 1096 706 1096 704 1095 703 1095 700 1094 699 1094 697 1093 696 1093 694 1092 693 1092 692 1091 691 1091 689 1090 688 1090 685 1089 684 1089 681 1088 680 1088 675 1087 674 1087 667 1086 666 1086 650 1087 649 1087 637 1088 636 1088 615 1089 614 1089 595 1088 594 1088 559 1087 558 1087 547 1086 546 1086 539 1085 538 1085 532 1084 531 1084 527 1083 526 1083 522 1082 521 1082 520 1081 519 1081 517 1080 516 1080 514 1079 513 1079 511 1078 510 1078 508 1077 507 1077 503 1076 502 1076 497 1075 496 1075 492 1074 491 1074 486 1073 485 1073 482 1072 481 1072 479 1071 478 1071 476 1070 475 1070 474 1069 473 1069 472 1067 470 1067 469 1066 468 1066 467 1065 466 1065 464 1064 463 1064 461 1063 460 1063 458 1062 457 1062 456 1061 455 1061 453 1060 452 1060 450 1059 449 1059 448 1058 447 1058 445 1057 444 1057 441 1056 440 1056 438 1055 437 1055 434 1054 433 1054 431 1053 430 1053 427 1052 426 1052 420 1051 419 1051 409 1050 408 1050 404 1051 403 1051 400 1052 399 1052 396 1053 395 1053 392 1054 391 1054 389 1055 388 1055 387 1056 386 1056 384 1057 383 1057 382 1058 381 1058 379 1059 378 1059 376 1060 375 1060 373 1061 372 1061 371 1062 370 1062 368 1063 367 1063 366 1064 365 1064 364 1069 359 1070 359 1071 358 1072 358 1073 357 1074 357 1075 356 1077 356 1078 355 1079 355 1080 354 1082 354 1083 353 1105 353 1106 354 1110 354 1117 361 1117 362 1118 363 1118 364 1119 365 1119 366 1120 367 1120 368 1121 369 1121 370 1123 372 1123 373 1130 380 1130 381 1132 383 1132 384 1133 385 1133 388 1134 389 1134 398 1135 399 1135 406 1136 407 1136 410 1137 411 1137 413 1138 414 1138 415 1140 417 1140 418 1146 424 1147 424 1148 425 1149 425 1150 426 1155 421 1155 420 1164 411 1170 411 1170 384 1164 384 1162 382 1162 381 1161 380 1161 378 1160 377 1160 376 1159 375 1159 373 1158 372 1158 369 1157 368 1157 366 1156 365 1156 364 1154 362 1154 361 1153 360 1153 359 1151 357 1151 356 1147 352 1147 351 1145 349 1145 347 1142 344 1142 343 1136 337 1135 337 1130 332 1130 331 1128 329 1128 328 1126 326 1126 325 1123 322 1122 322 1119 319 1118 319 1108 309 1108 308 1105 305 1104 305 1100 301 1099 301 1097 299 1096 299 1095 298 1094 298 1093 297 1092 297 1090 295 1089 295 1087 293 1086 293 1076 283 1076 282 1067 273 1067 272 1065 270 1065 269 1064 268 1064 267 1063 266 1063 265 1061 263 1061 262 1058 259 1058 258 1052 252 1052 251 1049 248 1049 247 1045 243 1044 243 1041 240 1040 240 1039 239 1038 239 1036 237 1035 237 1034 236 1033 236 1031 234 1030 234 1028 232 1026 232 1025 231 1024 231 1023 230 1023 221 "/></svg>