<svg width="1920" height="1080" xmlns="http://www.w3.org/2000/svg"><path d="M996 228 996 237 994 239 993 239 989 243 988 243 983 248 982 248 977 253 977 254 976 255 976 256 975 257 975 258 974 259 974 261 973 262 973 264 972 265 972 267 971 268 971 270 970 271 970 272 969 273 969 275 967 277 967 278 960 285 959 285 955 289 954 289 943 300 942 300 941 301 940 301 939 302 937 302 936 303 934 303 933 304 931 304 930 305 928 305 927 306 926 306 925 307 923 307 922 308 921 308 920 309 919 309 918 310 917 310 915 312 914 312 908 318 907 318 905 320 904 320 902 322 901 322 900 323 899 323 898 324 897 324 896 325 895 325 894 326 893 326 892 327 891 327 890 328 889 328 888 329 887 329 886 330 885 330 883 332 882 332 880 334 880 335 876 339 876 340 875 341 874 341 872 343 871 343 869 345 868 345 867 346 866 346 863 349 862 349 859 352 859 353 855 357 855 358 853 360 853 361 851 363 851 364 849 366 849 367 848 368 848 369 847 370 847 371 846 372 846 373 845 374 845 375 844 376 844 377 843 378 843 379 842 380 842 382 841 383 841 385 840 386 840 388 839 389 839 400 838 401 838 430 839 431 839 432 840 433 840 434 841 435 841 436 843 438 845 438 846 439 856 439 858 437 859 437 863 433 864 433 868 429 868 423 869 422 869 416 870 415 870 409 871 408 871 404 872 403 872 398 873 397 873 393 874 392 874 389 875 388 875 386 876 385 876 384 877 383 877 382 879 380 879 379 881 377 882 377 883 376 884 376 886 374 887 374 889 372 890 372 891 371 892 371 897 366 898 366 899 365 900 365 901 364 902 364 903 363 904 363 905 362 919 362 920 363 921 363 922 364 923 364 925 366 926 366 931 371 931 372 932 373 932 374 933 375 933 376 934 377 934 378 935 379 935 381 936 382 936 384 937 385 937 387 938 388 938 410 937 411 937 413 936 414 936 417 935 418 935 420 934 421 934 423 933 424 933 425 932 426 932 428 931 429 931 430 930 431 930 432 929 433 929 435 928 436 928 437 927 438 927 440 926 441 926 443 925 444 925 446 924 447 924 449 923 450 923 452 922 453 922 455 921 456 921 458 920 459 920 460 919 461 919 463 918 464 918 465 917 466 917 469 916 470 916 473 915 474 915 479 914 480 914 485 913 486 913 495 912 496 912 506 911 507 911 558 912 559 912 583 913 584 913 595 914 596 914 606 915 607 915 615 916 616 916 627 917 628 917 640 918 641 918 666 917 667 917 689 916 690 916 721 917 722 917 725 918 726 918 729 919 730 919 731 920 732 920 734 921 735 921 737 923 739 923 740 929 746 930 746 931 747 934 747 935 748 938 748 939 749 941 749 942 750 943 750 944 749 948 749 949 748 953 748 954 747 955 747 956 746 957 746 959 744 959 743 963 739 963 738 964 737 964 731 965 730 965 716 964 715 964 709 963 708 963 701 962 700 962 695 963 694 963 599 964 598 964 590 965 589 965 582 966 581 966 578 967 577 967 574 968 573 968 570 969 569 969 566 970 565 970 563 971 562 971 561 972 560 972 559 973 558 973 557 975 555 975 554 978 551 978 550 983 545 983 544 987 540 987 539 990 536 991 536 992 535 1005 535 1015 545 1015 546 1023 554 1023 555 1027 559 1027 560 1030 563 1030 565 1031 566 1031 568 1032 569 1032 573 1033 574 1033 577 1034 578 1034 583 1035 584 1035 590 1036 591 1036 597 1037 598 1037 609 1038 610 1038 620 1039 621 1039 629 1040 630 1040 636 1041 637 1041 643 1042 644 1042 652 1043 653 1043 661 1044 662 1044 670 1045 671 1045 679 1046 680 1046 685 1047 686 1047 691 1048 692 1048 698 1049 699 1049 707 1050 708 1050 713 1051 714 1051 718 1052 719 1052 720 1053 721 1053 722 1057 726 1058 726 1060 728 1061 728 1063 730 1064 730 1066 732 1068 732 1069 733 1071 733 1072 734 1073 734 1074 735 1076 735 1077 736 1078 736 1079 737 1093 737 1094 736 1094 734 1095 733 1095 725 1096 724 1096 717 1095 716 1095 714 1094 713 1094 711 1093 710 1093 708 1092 707 1092 705 1091 704 1091 702 1090 701 1090 699 1089 698 1089 696 1088 695 1088 693 1087 692 1087 688 1086 687 1086 683 1085 682 1085 671 1084 670 1084 649 1085 648 1085 626 1086 625 1086 567 1085 566 1085 554 1084 553 1084 544 1083 543 1083 537 1082 536 1082 531 1081 530 1081 526 1080 525 1080 524 1079 523 1079 521 1078 520 1078 519 1077 518 1077 516 1076 515 1076 513 1075 512 1075 510 1074 509 1074 506 1073 505 1073 500 1072 499 1072 495 1071 494 1071 489 1070 488 1070 485 1069 484 1069 482 1068 481 1068 480 1067 479 1067 478 1066 477 1066 476 1065 475 1065 474 1064 473 1064 472 1063 471 1063 469 1062 468 1062 465 1061 464 1061 461 1060 460 1060 457 1059 456 1059 453 1058 452 1058 449 1057 448 1057 443 1056 442 1056 438 1055 437 1055 435 1054 434 1054 431 1053 430 1053 423 1052 422 1052 412 1051 411 1051 410 1052 409 1052 407 1053 406 1053 404 1054 403 1054 401 1055 400 1055 398 1056 397 1056 394 1057 393 1057 391 1058 390 1058 388 1060 386 1060 385 1061 384 1061 383 1063 381 1063 380 1069 374 1070 374 1072 372 1072 371 1073 370 1074 370 1078 366 1080 366 1081 365 1092 365 1093 366 1094 366 1102 374 1103 374 1104 375 1105 375 1106 376 1108 376 1109 377 1111 377 1112 378 1114 378 1115 379 1117 379 1124 386 1124 387 1126 389 1126 391 1127 392 1127 393 1128 394 1128 396 1129 397 1129 398 1132 401 1132 402 1133 403 1133 404 1134 405 1134 407 1135 408 1135 413 1136 414 1136 428 1137 429 1137 435 1138 436 1138 441 1139 442 1139 448 1140 449 1140 450 1143 453 1144 453 1145 454 1146 454 1147 455 1148 455 1149 456 1151 456 1152 457 1155 457 1163 449 1163 427 1162 426 1162 420 1161 419 1161 414 1160 413 1160 408 1159 407 1159 405 1158 404 1158 401 1157 400 1157 398 1156 397 1156 395 1155 394 1155 392 1154 391 1154 390 1153 389 1153 388 1151 386 1151 385 1150 384 1150 383 1149 382 1149 381 1148 380 1148 378 1147 377 1147 375 1146 374 1146 371 1144 369 1144 368 1139 363 1138 363 1125 350 1125 349 1124 348 1123 348 1120 345 1119 345 1117 343 1116 343 1115 342 1114 342 1106 334 1106 333 1095 322 1094 322 1087 315 1087 314 1080 307 1079 307 1078 306 1077 306 1076 305 1075 305 1073 303 1072 303 1071 302 1070 302 1069 301 1068 301 1062 295 1062 294 1061 293 1061 291 1060 290 1060 289 1059 288 1059 287 1058 286 1058 285 1057 284 1057 283 1056 282 1056 281 1055 280 1055 279 1054 278 1054 276 1053 275 1053 273 1052 272 1052 270 1051 269 1051 266 1050 265 1050 263 1049 262 1049 259 1048 258 1048 256 1046 254 1046 253 1038 245 1037 245 1029 237 1029 228 "/></svg>