<svg width="1920" height="1080" xmlns="http://www.w3.org/2000/svg"><path d="M813 123 809 127 809 128 807 130 807 131 806 132 806 133 805 134 805 156 806 157 806 158 807 159 807 160 809 162 809 163 812 166 812 167 813 168 814 168 816 170 817 170 820 173 821 173 829 181 830 181 832 183 833 183 836 186 837 186 838 187 839 187 841 189 842 189 845 192 846 192 854 200 855 200 856 201 857 201 858 202 860 202 861 203 862 203 863 204 865 204 866 205 867 205 869 207 870 207 876 213 877 213 888 224 889 224 891 226 892 226 901 235 901 236 903 238 903 239 904 240 904 241 905 242 905 243 906 244 906 245 907 246 907 247 914 254 914 255 918 259 918 260 920 262 920 263 922 265 922 266 923 267 923 270 924 271 924 275 925 276 925 279 926 280 926 284 927 285 927 310 926 311 926 318 925 319 925 325 924 326 924 331 923 332 923 335 922 336 922 339 921 340 921 344 920 345 920 349 919 350 919 356 918 357 918 366 917 367 917 377 916 378 916 387 915 388 915 399 914 400 914 419 913 420 913 427 912 428 912 434 911 435 911 441 910 442 910 446 909 447 909 450 908 451 908 455 907 456 907 460 906 461 906 464 905 465 905 469 904 470 904 474 903 475 903 480 902 481 902 488 901 489 901 498 900 499 900 507 899 508 899 511 898 512 898 514 897 515 897 517 896 518 896 519 895 520 895 522 894 523 894 524 893 525 893 527 892 528 892 531 891 532 891 537 890 538 890 543 889 544 889 549 888 550 888 555 887 556 887 559 886 560 886 562 885 563 885 566 884 567 884 569 883 570 883 571 882 572 882 574 881 575 881 578 880 579 880 581 879 582 879 586 878 587 878 591 877 592 877 598 876 599 876 608 875 609 875 635 874 636 874 637 875 638 875 642 876 643 876 646 877 647 877 649 878 650 878 652 879 653 879 654 880 655 880 657 881 658 881 659 884 662 885 662 888 665 889 665 891 667 892 667 894 669 895 669 897 667 898 667 899 666 900 666 902 664 903 664 909 658 910 658 911 657 912 657 914 655 915 655 917 653 918 653 919 652 920 652 922 650 923 650 926 647 927 647 930 644 931 644 937 638 937 633 938 632 938 615 939 614 939 606 940 605 940 594 941 593 941 576 942 575 942 571 941 570 941 560 940 559 940 544 941 543 941 535 942 534 942 527 943 526 943 522 944 521 944 518 945 517 945 514 946 513 946 511 947 510 947 508 948 507 948 506 949 505 949 504 950 503 950 501 951 500 951 499 952 498 952 496 953 495 953 493 954 492 954 489 955 488 955 485 956 484 956 482 957 481 957 480 959 478 959 477 961 475 961 474 967 468 967 467 968 466 968 465 969 464 969 463 970 462 970 461 971 460 971 459 974 456 974 455 975 454 976 454 978 452 979 452 982 449 983 449 990 442 991 442 992 441 992 440 995 437 996 437 999 434 1000 434 1001 433 1002 433 1003 432 1006 432 1007 431 1013 431 1014 430 1048 430 1049 431 1054 431 1055 432 1058 432 1059 433 1060 433 1061 434 1062 434 1063 435 1064 435 1065 436 1066 436 1070 440 1071 440 1076 445 1077 445 1081 449 1082 449 1089 456 1089 457 1090 458 1090 459 1091 460 1091 461 1092 462 1092 464 1093 465 1093 466 1094 467 1094 469 1095 470 1095 471 1096 472 1096 473 1097 474 1097 475 1099 477 1099 478 1100 479 1100 480 1101 481 1101 482 1102 483 1102 485 1103 486 1103 493 1104 494 1104 500 1105 501 1105 520 1106 521 1106 538 1107 539 1107 546 1108 547 1108 552 1109 553 1109 554 1110 555 1110 556 1111 557 1111 558 1112 557 1112 556 1114 554 1114 553 1116 551 1116 550 1117 549 1118 549 1121 546 1122 546 1123 545 1124 545 1125 544 1125 543 1126 542 1126 541 1127 540 1127 538 1128 537 1128 535 1129 534 1129 532 1130 531 1130 528 1131 527 1131 523 1132 522 1132 518 1133 517 1133 513 1134 512 1134 508 1135 507 1135 501 1136 500 1136 492 1137 491 1137 484 1138 483 1138 477 1139 476 1139 468 1140 467 1140 455 1139 454 1139 441 1138 440 1138 436 1137 435 1137 431 1136 430 1136 425 1135 424 1135 419 1134 418 1134 415 1133 414 1133 412 1132 411 1132 408 1131 407 1131 404 1130 403 1130 400 1129 399 1129 397 1128 396 1128 395 1127 394 1127 393 1125 391 1125 390 1111 376 1111 375 1109 373 1108 373 1104 369 1103 369 1102 368 1101 368 1099 366 1097 366 1096 365 1095 365 1094 364 1092 364 1091 363 1089 363 1088 362 1087 362 1086 361 1084 361 1082 359 1081 359 1071 349 1070 349 1069 348 1068 348 1067 347 1065 347 1064 346 1062 346 1061 345 1060 345 1059 344 1057 344 1053 340 1053 339 1050 336 1050 335 1048 333 1048 332 1047 331 1047 330 1046 329 1046 327 1045 326 1045 324 1044 323 1044 322 1043 321 1043 320 1042 319 1042 317 1041 316 1041 314 1040 313 1040 311 1039 310 1039 309 1040 308 1040 307 1041 306 1041 304 1042 303 1042 302 1043 301 1043 300 1044 299 1044 298 1045 297 1045 296 1046 295 1046 294 1047 293 1047 292 1048 291 1048 289 1049 288 1049 286 1050 285 1050 284 1051 283 1051 282 1052 281 1052 280 1054 278 1054 277 1055 276 1055 275 1062 268 1062 267 1064 265 1064 264 1072 256 1073 256 1074 255 1074 254 1079 249 1079 248 1081 246 1081 245 1083 243 1083 242 1095 230 1095 229 1101 223 1101 218 1100 217 1100 214 1099 213 1099 211 1098 210 1098 207 1097 206 1097 203 1096 202 1096 199 1094 197 1094 196 1093 195 1093 194 1091 192 1091 191 1090 191 1089 190 1089 189 1088 189 1086 187 1085 187 1084 186 1083 186 1081 184 1080 184 1079 183 1078 183 1077 182 1076 182 1075 181 1074 181 1073 180 1072 180 1071 179 1055 179 1054 178 1052 178 1051 177 1048 177 1047 176 1043 176 1042 175 1041 175 1040 176 1019 176 1018 177 1015 177 1014 178 1013 178 1012 179 1011 179 1010 180 1009 180 1008 181 1006 181 1005 182 1004 182 1003 183 1000 183 999 184 997 184 996 185 993 185 992 186 989 186 988 187 986 187 985 188 983 188 982 189 980 189 979 190 977 190 976 191 966 191 965 192 944 192 943 191 932 191 931 190 925 190 924 189 920 189 919 188 916 188 915 187 913 187 912 186 910 186 909 185 908 185 907 184 906 184 898 176 897 176 895 174 894 174 893 173 892 173 891 172 890 172 889 171 888 171 887 170 885 170 884 169 883 169 882 168 881 168 873 160 873 159 872 158 872 157 871 156 871 155 870 154 870 153 869 152 869 151 867 149 867 148 866 148 861 143 860 143 848 131 847 131 844 128 843 128 842 127 841 127 840 126 832 126 831 125 822 125 821 124 815 124 814 123 "/></svg>