<svg width="1920" height="1080" xmlns="http://www.w3.org/2000/svg"><path d="M830 125 830 126 829 127 829 129 828 130 828 132 827 133 827 135 826 136 826 141 827 142 827 145 828 146 828 150 829 151 829 154 830 155 830 159 831 159 833 161 834 161 836 163 837 163 842 168 843 168 845 170 845 171 848 174 848 175 849 176 849 177 850 178 850 179 851 180 851 181 853 183 853 184 860 191 860 192 862 194 862 195 864 197 864 198 865 199 865 200 866 201 866 202 869 205 870 205 872 207 873 207 874 208 875 208 876 209 877 209 878 210 879 210 880 211 881 211 884 214 885 214 886 215 886 216 889 219 889 220 891 222 891 223 894 226 894 227 895 227 898 230 899 230 902 233 903 233 905 235 906 235 910 239 910 240 911 241 911 242 912 243 912 244 913 245 913 246 914 247 914 248 915 249 915 250 917 252 917 253 918 254 918 255 920 257 920 258 922 260 922 261 924 263 924 264 925 265 925 269 926 270 926 276 927 277 927 285 928 286 928 288 927 289 927 306 926 307 926 317 925 318 925 326 924 327 924 334 923 335 923 340 922 341 922 345 921 346 921 351 920 352 920 357 919 358 919 363 918 364 918 371 917 372 917 378 916 379 916 387 915 388 915 397 914 398 914 410 913 411 913 419 912 420 912 425 911 426 911 431 910 432 910 444 909 445 909 456 908 457 908 459 907 460 907 463 906 464 906 467 905 468 905 472 904 473 904 479 903 480 903 491 902 492 902 500 901 501 901 507 900 508 900 513 899 514 899 518 898 519 898 521 897 522 897 524 896 525 896 526 895 527 895 528 894 529 894 531 893 532 893 533 892 534 892 536 891 537 891 540 890 541 890 544 889 545 889 548 888 549 888 552 887 553 887 556 886 557 886 560 885 561 885 564 884 565 884 568 883 569 883 572 882 573 882 575 881 576 881 579 880 580 880 584 879 585 879 593 878 594 878 602 877 603 877 604 878 605 878 611 879 612 879 616 880 617 880 621 881 622 881 625 882 626 882 627 893 638 894 638 895 639 910 639 911 638 913 638 914 637 917 637 918 636 921 636 922 635 923 635 925 633 926 633 927 632 928 632 931 629 932 629 936 625 936 624 937 623 937 612 938 611 938 597 937 596 937 579 938 578 938 573 939 572 939 566 940 565 940 542 939 541 939 540 940 539 940 533 941 532 941 525 942 524 942 519 943 518 943 516 944 515 944 513 945 512 945 511 946 510 946 509 947 508 947 507 948 506 948 505 949 504 949 503 950 502 950 500 951 499 951 495 952 494 952 491 953 490 953 485 954 484 954 481 955 480 955 477 956 476 956 475 957 474 957 473 958 472 958 471 962 467 962 466 965 463 965 462 967 460 967 459 968 458 968 457 969 456 969 455 971 453 971 452 974 449 975 449 977 447 978 447 979 446 980 446 981 445 982 445 983 444 984 444 985 443 986 443 987 442 988 442 989 441 991 441 993 439 994 439 995 438 996 438 999 435 1000 435 1003 432 1004 432 1006 430 1007 430 1008 429 1009 429 1010 428 1011 428 1012 427 1018 427 1019 426 1046 426 1047 425 1051 425 1052 426 1054 426 1055 427 1057 427 1058 428 1060 428 1061 429 1062 429 1063 430 1064 430 1067 433 1067 434 1071 438 1071 439 1072 440 1073 440 1077 444 1078 444 1079 445 1080 445 1088 453 1088 454 1090 456 1090 458 1091 459 1091 460 1092 461 1092 462 1093 463 1093 464 1094 465 1094 466 1096 468 1096 469 1097 470 1097 471 1100 474 1100 475 1102 477 1102 478 1103 479 1103 480 1104 481 1104 484 1105 485 1105 488 1106 489 1106 492 1107 493 1107 496 1108 497 1108 504 1109 505 1109 512 1110 513 1110 523 1111 524 1111 536 1112 537 1112 545 1113 546 1113 551 1114 552 1114 555 1115 556 1115 558 1116 559 1116 561 1119 564 1120 564 1122 566 1123 566 1124 567 1125 567 1126 568 1127 568 1128 569 1129 569 1131 567 1132 567 1136 563 1136 562 1138 560 1138 559 1139 558 1139 557 1141 555 1141 554 1142 553 1142 552 1143 551 1143 549 1144 548 1144 546 1145 545 1145 543 1146 542 1146 534 1147 533 1147 514 1146 513 1146 506 1145 505 1145 499 1144 498 1144 495 1143 494 1143 491 1142 490 1142 487 1141 486 1141 485 1140 484 1140 481 1139 480 1139 478 1138 477 1138 449 1137 448 1137 437 1136 436 1136 429 1135 428 1135 421 1134 420 1134 415 1133 414 1133 410 1132 409 1132 407 1131 406 1131 403 1130 402 1130 400 1129 399 1129 398 1128 397 1128 396 1127 395 1127 393 1126 392 1126 391 1125 390 1125 389 1122 386 1122 385 1118 381 1117 381 1114 378 1113 378 1108 373 1108 372 1102 366 1101 366 1100 365 1099 365 1098 364 1097 364 1096 363 1095 363 1094 362 1093 362 1092 361 1090 361 1089 360 1088 360 1087 359 1085 359 1084 358 1083 358 1082 357 1081 357 1079 355 1078 355 1077 354 1075 354 1074 353 1072 353 1071 352 1069 352 1068 351 1066 351 1065 350 1064 350 1057 343 1057 342 1054 339 1053 339 1052 338 1052 337 1051 336 1050 336 1046 332 1045 332 1044 331 1044 330 1042 328 1042 327 1041 326 1041 323 1040 322 1040 319 1039 318 1039 313 1038 312 1038 306 1040 304 1040 303 1042 301 1042 300 1044 298 1044 297 1046 295 1046 294 1047 293 1047 292 1049 290 1049 289 1051 287 1051 285 1053 283 1053 282 1054 281 1054 280 1055 279 1055 278 1056 277 1056 276 1058 274 1058 273 1059 272 1059 271 1061 269 1061 268 1063 266 1063 265 1066 262 1066 261 1071 256 1072 256 1076 252 1077 252 1081 248 1082 248 1083 247 1083 246 1088 241 1088 240 1090 238 1091 238 1092 237 1093 237 1094 236 1095 236 1096 235 1097 235 1099 233 1100 233 1101 232 1102 232 1105 229 1106 229 1109 226 1110 226 1113 223 1113 220 1112 219 1112 218 1111 217 1111 214 1110 213 1110 210 1109 209 1109 206 1108 205 1108 202 1107 201 1107 198 1106 197 1106 195 1105 194 1105 192 1104 191 1104 190 1103 189 1103 188 1101 186 1100 186 1099 185 1098 185 1097 184 1096 184 1095 183 1092 183 1091 182 1090 182 1089 181 1087 181 1086 180 1085 180 1084 179 1082 179 1081 178 1078 178 1077 177 1076 177 1075 178 1071 178 1070 179 1067 179 1066 180 1063 180 1062 179 1059 179 1058 178 1054 178 1053 177 1042 177 1041 176 1034 176 1033 177 1024 177 1023 178 1021 178 1020 179 1018 179 1017 180 1016 180 1015 181 1013 181 1012 182 1011 182 1010 183 1008 183 1007 184 1006 184 1005 185 1004 185 1003 186 1001 186 1000 187 998 187 997 188 996 188 995 189 994 189 993 190 991 190 990 191 989 191 988 192 984 192 983 193 977 193 976 194 963 194 962 195 960 195 959 194 945 194 944 193 936 193 935 192 930 192 929 191 926 191 925 190 922 190 921 189 920 189 919 188 918 188 917 187 916 187 908 179 907 179 906 178 905 178 904 177 903 177 902 176 900 176 899 175 898 175 897 174 896 174 895 173 894 173 893 172 892 172 891 171 890 171 887 168 886 168 882 164 881 164 874 157 874 156 872 154 872 153 870 151 870 150 868 148 868 147 867 146 867 145 866 144 866 143 865 142 865 141 864 140 864 138 862 136 862 135 859 132 859 131 856 128 850 128 849 127 841 127 840 126 833 126 832 125 "/></svg>