<svg width="1920" height="1080" xmlns="http://www.w3.org/2000/svg"><path d="M838 168 837 169 837 170 836 171 836 172 835 173 835 181 837 183 838 183 844 189 844 190 847 193 847 194 848 195 848 196 849 197 849 198 850 199 850 201 851 202 851 204 852 205 854 205 855 206 857 206 858 207 861 207 862 208 864 208 865 209 866 209 873 216 874 216 878 220 879 220 880 221 881 221 882 222 883 222 884 223 885 223 886 224 887 224 890 227 891 227 895 231 895 232 899 236 899 237 903 241 903 242 907 246 907 247 909 249 909 250 910 251 910 252 911 253 911 254 912 255 912 256 914 258 914 259 917 262 917 263 920 266 920 267 922 269 922 271 923 272 923 273 924 274 924 281 925 282 925 294 926 295 926 308 925 309 925 328 924 329 924 337 923 338 923 344 922 345 922 349 921 350 921 353 920 354 920 356 919 357 919 360 918 361 918 364 917 365 917 370 916 371 916 383 915 384 915 396 914 397 914 407 913 408 913 430 912 431 912 446 911 447 911 454 910 455 910 462 909 463 909 467 908 468 908 470 907 471 907 473 906 474 906 476 905 477 905 479 904 480 904 483 903 484 903 487 902 488 902 492 901 493 901 497 900 498 900 502 899 503 899 508 898 509 898 516 897 517 897 523 896 524 896 528 895 529 895 533 894 534 894 536 893 537 893 539 892 540 892 541 891 542 891 544 890 545 890 548 889 549 889 552 888 553 888 556 887 557 887 566 886 567 886 575 885 576 885 584 884 585 884 590 883 591 883 595 882 596 882 599 881 600 881 603 880 604 880 608 879 609 879 613 878 614 878 619 877 620 877 625 876 626 876 663 877 664 877 674 878 675 878 677 881 680 882 680 885 683 886 683 889 686 890 686 892 688 893 687 894 687 896 685 897 685 899 683 900 683 902 681 903 681 904 680 905 680 907 678 907 677 910 674 910 658 911 657 911 650 919 642 920 642 921 641 922 641 924 639 925 639 926 638 927 638 928 637 929 637 931 635 932 635 939 628 939 625 940 624 940 617 941 616 941 607 942 606 942 579 943 578 943 574 944 573 944 571 945 570 945 567 946 566 946 564 947 563 947 561 948 560 948 557 949 556 949 531 950 530 950 527 951 526 951 523 952 522 952 518 953 517 953 514 954 513 954 509 955 508 955 506 956 505 956 504 957 503 957 501 959 499 959 498 960 497 960 496 961 495 961 494 962 493 962 491 963 490 963 488 964 487 964 485 965 484 965 482 966 481 966 480 967 479 967 478 968 477 968 476 969 475 969 474 970 473 970 472 973 469 973 468 975 466 975 465 976 464 976 463 977 462 977 461 978 460 978 459 980 457 980 456 988 448 989 448 995 442 995 441 997 439 997 438 1001 434 1003 434 1004 433 1006 433 1007 432 1010 432 1011 431 1016 431 1017 430 1032 430 1033 429 1042 429 1043 430 1045 430 1046 431 1048 431 1049 432 1050 432 1051 433 1052 433 1053 434 1054 434 1055 435 1056 435 1058 437 1059 437 1063 441 1064 441 1066 443 1067 443 1077 453 1077 454 1080 457 1080 458 1082 460 1082 461 1083 462 1083 463 1084 464 1084 466 1085 467 1085 469 1086 470 1086 472 1087 473 1087 476 1088 477 1088 480 1089 481 1089 485 1090 486 1090 512 1089 513 1089 521 1088 522 1088 530 1087 531 1087 538 1086 539 1086 547 1085 548 1085 555 1084 556 1084 559 1085 560 1085 567 1086 568 1086 574 1087 575 1087 577 1088 578 1088 580 1091 583 1092 583 1094 585 1095 585 1098 582 1098 581 1099 580 1099 579 1100 578 1100 577 1102 575 1102 574 1104 572 1104 571 1108 567 1108 566 1109 565 1109 564 1110 563 1110 562 1111 561 1111 560 1112 559 1112 557 1113 556 1113 553 1114 552 1114 549 1115 548 1115 545 1116 544 1116 540 1117 539 1117 536 1118 535 1118 533 1119 532 1119 530 1120 529 1120 528 1121 527 1121 526 1122 525 1122 524 1123 523 1123 521 1124 520 1124 518 1125 517 1125 514 1126 513 1126 511 1127 510 1127 506 1128 505 1128 502 1129 501 1129 499 1130 498 1130 496 1131 495 1131 492 1132 491 1132 490 1133 489 1133 487 1134 486 1134 484 1135 483 1135 480 1136 479 1136 476 1137 475 1137 472 1138 471 1138 468 1139 467 1139 461 1140 460 1140 444 1141 443 1141 438 1140 437 1140 429 1139 428 1139 422 1138 421 1138 416 1137 415 1137 414 1136 413 1136 412 1135 411 1135 410 1133 408 1133 407 1131 405 1131 404 1128 401 1128 400 1126 398 1126 397 1124 395 1124 394 1121 391 1121 390 1114 383 1113 383 1110 380 1109 380 1108 379 1106 379 1105 378 1104 378 1103 377 1102 377 1101 376 1100 376 1098 374 1097 374 1096 373 1095 373 1092 370 1091 370 1088 367 1087 367 1085 365 1084 365 1083 364 1082 364 1080 362 1079 362 1078 361 1077 361 1075 359 1074 359 1073 358 1072 358 1071 357 1070 357 1069 356 1068 356 1067 355 1066 355 1065 354 1063 354 1062 353 1061 353 1060 352 1059 352 1058 351 1057 351 1055 349 1054 349 1053 348 1053 347 1052 346 1052 345 1051 344 1051 342 1050 341 1050 339 1049 338 1049 336 1048 335 1048 333 1047 332 1047 330 1046 329 1046 326 1045 325 1045 317 1046 316 1046 310 1047 309 1047 304 1048 303 1048 298 1049 297 1049 296 1050 295 1050 293 1051 292 1051 291 1052 290 1052 288 1054 286 1054 285 1056 283 1056 282 1058 280 1058 279 1060 277 1060 276 1061 275 1061 274 1066 269 1066 268 1067 267 1068 267 1068 266 1070 264 1070 263 1073 260 1073 259 1074 258 1074 257 1075 256 1075 255 1076 254 1076 253 1077 252 1077 250 1078 249 1078 247 1079 246 1079 245 1080 244 1080 243 1081 242 1081 241 1082 240 1082 239 1084 237 1084 236 1085 235 1085 233 1086 232 1086 231 1087 230 1087 229 1088 228 1088 204 1087 203 1087 201 1086 200 1086 199 1085 198 1085 197 1084 196 1084 195 1082 193 1082 192 1077 187 1077 186 1071 180 1070 180 1069 179 1054 179 1053 178 1046 178 1045 177 1034 177 1033 178 1025 178 1024 179 1019 179 1018 180 1014 180 1013 181 1012 181 1011 182 1010 182 1009 183 1008 183 1007 184 1005 184 1004 185 1003 185 1002 186 1000 186 999 187 995 187 994 188 991 188 990 189 986 189 985 190 981 190 980 191 977 191 976 192 969 192 968 193 950 193 949 194 935 194 934 193 916 193 915 192 908 192 907 191 904 191 903 190 900 190 899 189 897 189 896 188 895 188 894 187 893 187 891 185 890 185 889 184 888 184 886 182 885 182 884 181 883 181 882 180 881 180 880 179 879 179 878 178 875 178 874 177 871 177 870 176 868 176 867 175 864 175 863 174 860 174 859 173 857 173 856 172 855 172 854 171 852 171 851 170 842 170 841 169 839 169 "/></svg>