<svg width="1920" height="1080" xmlns="http://www.w3.org/2000/svg"><path d="M1010 197 1009 198 1007 198 1006 199 1003 199 1002 200 1000 200 999 201 997 201 996 202 994 202 992 204 991 204 985 210 985 211 983 213 983 214 980 217 980 218 976 222 976 223 974 225 974 226 972 228 972 229 971 230 971 231 963 239 962 239 961 240 960 240 959 241 958 241 957 242 955 242 954 243 953 243 952 244 950 244 949 245 947 245 946 246 944 246 943 247 941 247 940 248 938 248 937 249 936 249 935 250 934 250 933 251 932 251 931 252 930 252 929 253 927 253 926 254 923 254 922 255 919 255 918 256 916 256 915 257 913 257 912 258 908 258 907 259 905 259 904 260 902 260 901 261 898 261 897 262 894 262 893 263 887 263 886 264 882 264 881 265 862 265 861 266 859 266 858 267 856 267 855 268 853 268 852 269 851 269 850 270 848 270 847 271 841 271 840 272 822 272 835 272 836 273 848 273 849 274 852 274 853 275 857 275 858 276 880 276 881 277 884 277 885 278 887 278 888 279 890 279 891 280 893 280 894 281 895 281 897 283 898 283 909 294 910 294 915 299 915 300 916 301 916 302 917 303 917 304 918 305 918 306 919 307 919 309 920 310 920 312 921 313 921 329 922 330 922 366 921 367 921 386 920 387 920 402 919 403 919 415 918 416 918 425 917 426 917 434 916 435 916 445 917 446 917 484 918 485 918 505 917 506 917 518 916 519 916 524 915 525 915 530 914 531 914 534 913 535 913 538 912 539 912 542 911 543 911 544 910 545 910 548 909 549 909 552 908 553 908 556 907 557 907 562 906 563 906 573 905 574 905 584 904 585 904 594 903 595 903 602 902 603 902 609 901 610 901 615 900 616 900 620 899 621 899 623 898 624 898 625 897 626 897 627 896 628 896 629 895 630 895 631 894 632 894 633 893 634 893 635 892 636 892 638 891 639 891 641 890 642 890 675 889 676 889 689 890 690 890 702 891 703 891 709 892 710 892 714 893 715 893 718 894 719 894 722 895 723 895 726 896 727 896 730 897 731 897 732 898 733 898 734 899 735 899 736 900 737 900 739 901 740 901 741 902 742 902 743 903 744 903 745 904 746 904 756 950 756 950 745 951 744 951 739 952 738 952 732 953 731 953 727 954 726 953 725 953 722 952 721 952 716 951 715 951 711 950 710 950 704 949 703 949 696 948 695 948 688 947 687 947 682 946 681 946 678 945 677 945 675 944 674 944 671 943 670 943 666 942 665 942 658 943 657 943 646 944 645 944 632 945 631 945 622 946 621 946 620 947 619 947 618 948 617 948 615 949 614 949 612 950 611 950 608 951 607 951 604 952 603 952 598 953 597 953 593 954 592 954 587 955 586 955 582 956 581 956 578 957 577 957 574 958 573 958 572 959 571 959 569 960 568 960 567 961 566 961 565 962 564 962 563 963 562 963 560 964 559 964 558 965 557 965 555 966 554 966 552 967 551 967 548 968 547 968 544 969 543 969 539 970 538 970 534 971 533 971 529 972 528 972 525 973 524 973 521 974 520 974 519 975 518 975 517 977 515 977 514 980 511 980 510 982 508 982 507 983 506 983 505 984 504 984 503 985 502 985 500 986 499 986 497 987 496 987 495 989 493 989 492 995 486 996 486 997 485 998 485 1000 483 1001 483 1002 482 1003 482 1011 474 1013 474 1014 473 1017 473 1018 472 1022 472 1023 471 1026 471 1027 470 1028 471 1029 471 1036 478 1036 479 1048 491 1048 492 1050 494 1050 495 1051 496 1051 498 1052 499 1052 504 1053 505 1053 511 1054 512 1054 519 1055 520 1055 526 1056 527 1056 531 1057 532 1057 535 1058 536 1058 539 1059 540 1059 541 1058 542 1058 557 1057 558 1057 568 1056 569 1056 576 1055 577 1055 586 1054 587 1054 596 1053 597 1053 602 1051 604 1051 605 1049 607 1049 608 1045 612 1045 613 1044 614 1044 616 1043 617 1043 619 1042 620 1042 629 1043 630 1043 633 1044 634 1044 638 1045 639 1045 640 1046 641 1046 643 1047 644 1047 646 1048 647 1048 648 1049 649 1049 650 1052 653 1053 653 1054 654 1055 654 1056 655 1058 655 1059 656 1061 656 1062 655 1064 655 1065 654 1066 654 1067 653 1069 653 1070 652 1072 652 1073 651 1075 651 1076 650 1077 650 1086 641 1086 640 1088 638 1088 637 1094 631 1094 630 1096 628 1096 627 1097 626 1097 624 1098 623 1098 619 1097 618 1097 612 1096 611 1096 606 1095 605 1095 593 1096 592 1096 564 1097 563 1097 559 1098 558 1098 556 1099 555 1099 553 1100 552 1100 550 1101 549 1101 547 1102 546 1102 543 1103 542 1103 539 1104 538 1104 534 1105 533 1105 530 1106 529 1106 527 1107 526 1107 524 1108 523 1108 521 1109 520 1109 515 1110 514 1110 505 1111 504 1111 497 1110 496 1110 494 1109 493 1109 490 1108 489 1108 486 1107 485 1107 482 1106 481 1106 476 1105 475 1105 470 1104 469 1104 464 1103 463 1103 458 1102 457 1102 455 1101 454 1101 452 1100 451 1100 450 1099 449 1099 447 1098 446 1098 445 1097 444 1097 443 1095 441 1095 440 1093 438 1093 437 1092 436 1092 435 1090 433 1090 432 1088 430 1088 429 1087 428 1087 427 1086 426 1086 425 1085 424 1085 423 1084 422 1084 421 1083 420 1083 419 1082 418 1082 417 1081 416 1081 415 1080 414 1080 413 1079 412 1079 411 1077 409 1077 408 1074 405 1074 404 1071 401 1071 400 1070 399 1070 398 1068 396 1068 385 1067 384 1067 372 1068 371 1068 369 1069 368 1069 364 1070 363 1070 360 1071 359 1071 357 1072 356 1072 351 1073 350 1073 336 1074 335 1074 332 1075 331 1075 330 1076 329 1076 328 1077 327 1078 327 1079 326 1080 326 1082 324 1084 324 1085 323 1086 323 1087 322 1088 322 1089 321 1090 321 1091 320 1092 320 1093 319 1097 319 1098 318 1106 318 1107 317 1110 317 1113 320 1114 320 1117 323 1118 323 1120 325 1121 325 1123 327 1124 327 1125 328 1126 328 1127 329 1128 328 1130 328 1131 327 1134 327 1135 326 1137 326 1138 325 1140 325 1141 324 1143 324 1145 322 1146 322 1153 315 1153 314 1155 312 1155 311 1160 306 1160 305 1161 304 1161 303 1162 302 1162 301 1163 300 1163 299 1164 298 1164 296 1165 295 1165 294 1166 293 1166 281 1167 280 1167 270 1166 269 1166 266 1165 265 1165 262 1164 261 1164 259 1163 258 1163 255 1162 254 1162 252 1160 250 1160 249 1159 248 1158 248 1156 246 1155 246 1154 245 1153 245 1151 243 1150 243 1149 242 1147 242 1146 241 1145 241 1144 240 1141 240 1140 239 1137 239 1136 238 1132 238 1131 237 1128 237 1127 236 1121 236 1120 235 1114 235 1113 234 1110 234 1109 233 1107 233 1106 232 1105 232 1104 231 1103 231 1102 230 1100 230 1099 229 1098 229 1097 228 1095 228 1094 227 1093 227 1092 226 1091 226 1090 225 1089 225 1088 224 1087 224 1086 223 1085 223 1084 222 1083 222 1082 221 1080 221 1079 220 1077 220 1076 219 1075 219 1074 218 1073 218 1071 216 1070 216 1069 215 1068 215 1066 213 1065 213 1060 208 1059 208 1057 206 1056 206 1055 205 1054 205 1052 203 1051 203 1050 202 1048 202 1047 201 1046 201 1045 200 1041 200 1040 199 1035 199 1034 198 1029 198 1028 197 "/></svg>