<svg width="1920" height="1080" xmlns="http://www.w3.org/2000/svg"><path d="M1030 190 1029 191 1024 191 1023 192 1020 192 1019 193 1017 193 1016 194 1014 194 1013 195 1012 195 1011 196 1010 196 1006 200 1005 200 1003 202 1002 202 1001 203 1000 203 999 204 998 204 997 205 996 205 995 206 994 206 992 208 991 208 990 209 989 209 988 210 987 210 985 212 984 212 982 214 980 214 979 215 978 215 977 216 976 216 975 217 974 217 973 218 972 218 971 219 970 219 969 220 967 220 966 221 962 221 961 222 958 222 957 223 953 223 952 224 949 224 948 225 943 225 942 226 937 226 936 227 928 227 927 228 921 228 920 229 915 229 914 230 909 230 908 231 899 231 898 232 891 232 890 233 884 233 883 234 879 234 878 235 874 235 873 236 870 236 869 237 867 237 866 238 851 238 850 239 849 239 851 241 854 241 855 242 866 242 869 245 870 245 873 248 874 248 876 250 877 250 879 252 880 252 881 253 882 253 883 254 884 254 885 255 886 255 887 256 888 256 889 257 891 257 892 258 893 258 894 259 895 259 912 276 912 277 914 279 914 280 916 282 916 283 917 284 917 285 920 288 920 289 922 291 922 292 924 294 924 295 925 296 925 297 926 298 926 299 927 300 927 303 928 304 928 345 927 346 927 349 926 350 926 353 925 354 925 356 924 357 924 359 923 360 923 363 922 364 922 368 921 369 921 373 920 374 920 379 919 380 919 389 918 390 918 412 917 413 917 491 916 492 916 499 915 500 915 506 914 507 914 511 913 512 913 514 912 515 912 516 911 517 911 518 910 519 910 520 909 521 909 523 908 524 908 525 907 526 907 528 906 529 906 532 905 533 905 538 904 539 904 545 903 546 903 552 902 553 902 560 901 561 901 567 900 568 900 573 899 574 899 577 898 578 898 580 897 581 897 582 896 583 896 585 895 586 895 587 894 588 894 590 893 591 893 593 892 594 892 600 891 601 891 610 890 611 890 624 889 625 889 641 888 642 888 664 887 665 887 710 888 711 888 723 889 724 889 727 890 728 890 731 891 732 891 735 892 736 892 738 893 739 893 741 894 742 894 752 935 752 935 742 936 741 936 740 937 739 937 738 938 737 938 736 939 735 939 734 940 733 940 732 941 731 941 730 942 729 942 728 943 727 943 726 944 725 944 723 945 722 945 718 946 717 946 709 947 708 947 697 946 696 946 692 945 691 945 685 944 684 944 650 945 649 945 627 946 626 946 606 947 605 947 594 948 593 948 587 949 586 949 582 950 581 950 576 951 575 951 573 952 572 952 571 953 570 953 569 954 568 954 567 955 566 955 565 956 564 956 563 957 562 957 560 958 559 958 557 959 556 959 553 960 552 960 549 961 548 961 545 962 544 962 541 963 540 963 538 964 537 964 535 965 534 965 532 966 531 966 530 967 529 967 528 968 527 968 526 969 525 969 524 970 523 970 521 971 520 971 519 972 518 972 516 973 515 973 512 974 511 974 509 975 508 975 506 976 505 976 503 977 502 977 501 978 500 978 498 979 497 979 496 980 495 980 494 982 492 982 491 984 489 984 488 986 486 986 485 987 484 987 483 989 481 989 480 991 478 991 477 993 475 993 474 995 472 995 471 996 470 996 469 1003 462 1004 462 1008 458 1009 458 1011 456 1029 456 1030 457 1031 457 1032 458 1034 458 1035 459 1037 459 1038 460 1039 460 1040 461 1041 461 1042 462 1043 462 1048 467 1048 468 1051 471 1051 472 1059 480 1059 481 1061 483 1061 484 1062 485 1062 486 1063 487 1063 489 1064 490 1064 493 1065 494 1065 499 1066 500 1066 506 1067 507 1067 532 1066 533 1066 539 1065 540 1065 546 1064 547 1064 553 1063 554 1063 558 1062 559 1062 562 1061 563 1061 566 1060 567 1060 569 1059 570 1059 571 1058 572 1058 574 1057 575 1057 576 1056 577 1056 578 1055 579 1055 580 1054 581 1054 582 1053 583 1053 584 1052 585 1052 587 1051 588 1051 589 1050 590 1050 592 1049 593 1049 595 1048 596 1048 605 1047 606 1047 610 1046 611 1046 613 1045 614 1045 617 1046 617 1048 619 1050 619 1051 620 1052 620 1053 621 1055 621 1056 622 1061 617 1062 617 1063 616 1063 615 1069 609 1070 609 1085 594 1085 593 1087 591 1087 590 1088 589 1088 588 1090 586 1090 585 1091 584 1091 583 1092 582 1092 581 1093 580 1093 579 1094 578 1094 577 1095 576 1095 574 1096 573 1096 572 1097 571 1097 570 1099 568 1099 567 1100 566 1100 565 1101 564 1101 563 1102 562 1102 561 1103 560 1103 558 1104 557 1104 555 1105 554 1105 552 1106 551 1106 547 1107 546 1107 544 1108 543 1108 540 1109 539 1109 537 1110 536 1110 533 1111 532 1111 531 1112 530 1112 529 1113 528 1113 527 1114 526 1114 525 1116 523 1116 522 1117 521 1117 519 1118 518 1118 516 1119 515 1119 513 1120 512 1120 508 1121 507 1121 503 1122 502 1122 499 1123 498 1123 494 1124 493 1124 485 1125 484 1125 473 1126 472 1126 466 1125 465 1125 451 1124 450 1124 446 1123 445 1123 442 1122 441 1122 438 1121 437 1121 434 1120 433 1120 430 1119 429 1119 427 1118 426 1118 425 1116 423 1116 422 1111 417 1110 417 1107 414 1107 413 1101 407 1101 406 1098 403 1097 403 1094 400 1093 400 1092 399 1091 399 1089 397 1088 397 1087 396 1086 396 1085 395 1084 395 1083 394 1082 394 1081 393 1080 393 1079 392 1078 392 1076 390 1075 390 1074 389 1073 389 1051 367 1051 366 1050 365 1050 358 1049 357 1049 336 1050 335 1050 323 1051 322 1051 319 1052 318 1052 315 1053 314 1053 312 1054 311 1054 309 1055 308 1055 306 1056 305 1056 304 1057 303 1057 302 1059 300 1059 299 1061 297 1061 296 1062 295 1062 294 1064 292 1064 291 1066 289 1066 288 1067 287 1067 286 1069 284 1069 283 1070 282 1070 281 1082 269 1082 268 1084 266 1085 266 1094 257 1094 256 1099 251 1100 251 1101 250 1106 250 1107 249 1111 249 1112 248 1115 248 1115 247 1116 246 1117 246 1120 243 1120 242 1123 239 1123 238 1124 237 1124 235 1125 234 1125 233 1126 232 1126 229 1127 228 1127 226 1128 225 1128 224 1129 223 1129 220 1130 219 1130 218 1129 217 1129 216 1125 212 1125 211 1122 208 1122 207 1117 202 1117 201 1114 198 1108 198 1107 197 1097 197 1096 196 1091 196 1090 195 1084 195 1083 194 1077 194 1076 193 1070 193 1069 192 1061 192 1060 191 1052 191 1051 190 "/></svg>