<svg width="1920" height="1080" xmlns="http://www.w3.org/2000/svg"><path d="M774 136 774 147 773 148 773 151 772 152 772 155 771 156 771 159 770 160 770 164 769 165 769 166 772 169 773 169 775 171 779 171 780 172 784 172 785 173 789 173 790 174 791 174 792 175 793 175 794 176 795 176 796 177 797 177 798 178 799 178 800 179 801 179 803 181 804 181 806 183 807 183 809 185 809 186 810 187 811 187 815 191 816 191 818 193 819 193 821 195 822 195 825 198 826 198 835 207 835 208 841 214 842 214 844 216 845 216 846 217 849 217 850 218 858 218 859 219 862 219 863 220 864 220 865 221 866 221 868 223 869 223 874 228 875 228 877 230 878 230 879 231 881 231 882 232 883 232 884 233 885 233 886 234 887 234 888 235 890 235 894 239 895 239 896 240 896 241 899 244 899 245 901 247 901 248 904 251 904 252 905 253 906 253 911 258 912 258 922 268 922 269 923 270 923 273 924 274 924 277 925 278 925 282 926 283 926 288 927 289 927 334 926 335 926 345 925 346 925 354 924 355 924 359 923 360 923 364 922 365 922 368 921 369 921 372 920 373 920 374 919 375 919 377 918 378 918 380 917 381 917 384 916 385 916 388 915 389 915 393 914 394 914 412 913 413 913 429 912 430 912 459 911 460 911 467 910 468 910 474 909 475 909 478 908 479 908 481 907 482 907 484 906 485 906 486 905 487 905 489 904 490 904 492 903 493 903 495 902 496 902 499 901 500 901 503 900 504 900 508 899 509 899 513 898 514 898 522 897 523 897 531 896 532 896 537 895 538 895 540 894 541 894 543 893 544 893 545 892 546 892 547 891 548 891 549 890 550 890 551 889 552 889 553 888 554 888 556 887 557 887 561 886 562 886 570 885 571 885 579 884 580 884 585 883 586 883 591 882 592 882 597 881 598 881 604 880 605 880 612 879 613 879 648 880 649 880 661 881 662 881 663 882 664 882 665 883 666 883 668 884 669 884 670 885 671 885 672 886 673 886 675 888 677 888 678 889 679 889 680 890 681 890 683 891 684 892 684 893 683 894 683 895 682 896 682 897 681 898 681 899 680 903 680 904 679 906 679 907 678 908 678 909 677 910 677 911 676 912 676 914 674 915 674 916 673 917 673 918 672 919 672 920 671 921 671 923 669 924 669 926 667 927 667 929 665 930 665 933 662 934 662 936 660 936 659 937 658 937 657 938 656 938 654 939 653 939 651 940 650 940 648 941 647 941 645 942 644 942 642 943 641 943 640 944 639 944 638 945 637 945 635 946 634 946 632 947 631 947 628 948 627 948 623 949 622 949 607 948 606 948 597 947 596 947 594 946 593 946 591 945 590 945 587 944 586 944 582 943 581 943 571 944 570 944 560 945 559 945 547 946 546 946 537 947 536 947 535 948 534 948 533 949 532 949 531 950 530 950 529 951 528 951 527 952 526 952 524 953 523 953 521 954 520 954 517 955 516 955 513 956 512 956 510 957 509 957 508 958 507 958 505 959 504 959 503 960 502 960 501 961 500 961 499 962 498 962 497 964 495 964 494 965 493 965 491 966 490 966 489 967 488 967 486 968 485 968 484 969 483 969 481 970 480 970 477 971 476 971 474 972 473 972 472 973 471 973 470 975 468 975 467 981 461 981 460 983 458 983 457 984 456 984 455 985 454 985 453 986 452 986 451 987 450 987 449 993 443 994 443 995 442 996 442 998 440 999 440 1002 437 1003 437 1007 433 1011 433 1012 434 1018 434 1019 435 1022 435 1023 436 1024 436 1025 437 1027 437 1028 438 1030 438 1031 439 1033 439 1034 440 1038 440 1039 441 1046 441 1047 442 1051 442 1052 443 1053 443 1054 444 1056 444 1058 446 1059 446 1060 447 1061 447 1063 449 1064 449 1067 452 1067 453 1069 455 1069 456 1070 457 1070 458 1071 459 1071 460 1072 461 1072 462 1074 464 1074 465 1075 466 1075 467 1077 469 1077 470 1079 472 1079 473 1081 475 1081 477 1082 478 1082 481 1083 482 1083 486 1084 487 1084 490 1085 491 1085 502 1086 503 1086 522 1085 523 1085 533 1084 534 1084 539 1083 540 1083 543 1082 544 1082 545 1080 547 1080 548 1079 549 1079 551 1078 552 1078 553 1077 554 1077 561 1078 562 1078 564 1079 565 1079 566 1080 567 1081 567 1083 565 1084 565 1085 564 1086 564 1087 563 1089 563 1090 562 1091 562 1092 561 1094 561 1095 560 1095 559 1097 557 1097 556 1098 555 1098 554 1099 553 1099 552 1100 551 1100 550 1104 546 1104 545 1105 544 1106 544 1108 542 1108 541 1110 539 1110 538 1111 537 1111 536 1112 535 1112 534 1113 533 1113 531 1114 530 1114 529 1115 528 1115 527 1116 526 1116 525 1117 524 1117 523 1118 522 1118 521 1119 520 1119 519 1120 518 1120 517 1121 516 1121 515 1122 514 1122 513 1124 511 1124 510 1125 509 1125 508 1126 507 1126 506 1127 505 1127 504 1128 503 1128 501 1129 500 1129 497 1130 496 1130 490 1131 489 1131 482 1132 481 1132 475 1133 474 1133 470 1134 469 1134 466 1135 465 1135 462 1136 461 1136 459 1137 458 1137 456 1138 455 1138 433 1137 432 1137 431 1136 430 1136 428 1135 427 1135 425 1134 424 1134 422 1133 421 1133 418 1132 417 1132 415 1131 414 1131 412 1130 411 1130 409 1129 408 1129 407 1127 405 1127 404 1125 402 1125 401 1113 389 1112 389 1110 387 1109 387 1108 386 1107 386 1106 385 1104 385 1103 384 1101 384 1100 383 1098 383 1097 382 1095 382 1094 381 1093 381 1092 380 1090 380 1089 379 1088 379 1087 378 1086 378 1084 376 1083 376 1080 373 1079 373 1072 366 1071 366 1069 364 1068 364 1067 363 1066 363 1065 362 1064 362 1061 359 1060 359 1057 356 1057 355 1054 352 1054 351 1053 350 1053 349 1052 348 1052 347 1050 345 1050 344 1047 341 1047 340 1046 339 1046 338 1045 337 1045 336 1044 335 1044 334 1043 333 1043 332 1042 331 1042 310 1043 309 1043 307 1044 306 1044 304 1045 303 1045 302 1046 301 1046 300 1047 299 1047 297 1048 296 1048 295 1050 293 1050 292 1051 291 1051 290 1052 289 1052 288 1054 286 1054 285 1058 281 1058 280 1075 263 1076 263 1079 260 1080 260 1089 251 1089 250 1091 248 1091 247 1092 246 1092 245 1095 242 1095 241 1098 238 1098 237 1100 235 1100 234 1101 233 1101 232 1102 231 1102 229 1103 228 1103 216 1104 215 1104 207 1103 206 1103 205 1102 204 1102 203 1096 197 1095 197 1082 184 1081 184 1080 183 1079 183 1078 182 1073 182 1072 181 1067 181 1066 180 1059 180 1058 179 1043 179 1042 180 1034 180 1033 181 1025 181 1024 182 1021 182 1020 183 1018 183 1016 185 1015 185 1014 186 1013 186 1010 189 1009 189 1008 190 1007 190 1006 191 1005 191 1004 192 1003 192 1002 193 1000 193 999 194 998 194 997 195 995 195 994 196 990 196 989 197 983 197 982 198 974 198 973 199 940 199 939 198 919 198 918 197 909 197 908 196 901 196 900 195 895 195 894 194 890 194 889 193 888 193 887 192 886 192 885 191 884 191 883 190 882 190 881 189 880 189 879 188 878 188 877 187 876 187 874 185 873 185 872 184 871 184 870 183 869 183 868 182 866 182 865 181 864 181 863 180 862 180 861 179 858 179 857 178 855 178 854 177 852 177 851 176 850 176 849 175 848 175 847 174 846 174 845 173 844 173 837 166 837 165 835 163 834 163 832 161 831 161 830 160 828 160 827 159 825 159 824 158 823 158 822 157 821 157 820 156 819 156 818 155 817 155 816 154 815 154 814 153 813 153 809 149 808 149 807 148 807 147 806 146 806 136 791 136 791 146 790 147 784 147 783 146 783 136 "/></svg>