<svg width="1920" height="1080" xmlns="http://www.w3.org/2000/svg"><path d="M840 118 840 119 836 123 836 124 835 125 835 126 834 127 834 128 833 129 833 145 832 146 832 150 833 151 833 153 834 154 834 155 835 156 835 158 836 159 836 160 837 161 837 162 838 163 838 164 839 165 839 166 841 168 841 169 848 176 849 176 853 180 854 180 856 182 857 182 860 185 861 185 874 198 874 199 879 204 879 205 883 209 883 210 889 216 890 216 892 218 893 218 899 224 899 225 901 227 901 228 902 229 902 230 903 231 903 232 904 233 904 234 906 236 906 237 914 245 914 246 916 248 916 249 917 250 917 251 918 252 918 253 919 254 919 256 920 257 920 259 921 260 921 262 922 263 922 264 923 265 923 267 924 268 924 270 925 271 925 295 924 296 924 302 923 303 923 307 922 308 922 312 921 313 921 317 920 318 920 323 919 324 919 330 918 331 918 339 917 340 917 352 916 353 916 364 915 365 915 375 914 376 914 396 913 397 913 404 912 405 912 411 911 412 911 421 910 422 910 432 909 433 909 438 908 439 908 442 907 443 907 447 906 448 906 452 905 453 905 460 904 461 904 470 903 471 903 483 902 484 902 497 901 498 901 504 900 505 900 510 899 511 899 515 898 516 898 519 897 520 897 521 896 522 896 523 895 524 895 525 894 526 894 527 893 528 893 530 892 531 892 532 891 533 891 535 890 536 890 540 889 541 889 545 888 546 888 549 887 550 887 553 886 554 886 557 885 558 885 560 884 561 884 562 883 563 883 565 882 566 882 567 881 568 881 569 880 570 880 571 879 572 879 574 878 575 878 577 877 578 877 582 878 583 878 597 879 598 879 600 880 601 880 603 882 605 882 606 894 618 909 618 911 616 912 616 915 613 916 613 919 610 920 610 929 601 929 600 931 598 931 596 932 595 932 593 933 592 933 590 934 589 934 586 935 585 935 581 936 580 936 570 937 569 937 555 938 554 938 545 939 544 939 535 940 534 940 526 941 525 941 517 942 516 942 511 943 510 943 506 944 505 944 501 945 500 945 497 946 496 946 495 947 494 947 493 949 491 949 490 950 489 950 488 951 487 951 486 952 485 952 483 953 482 953 480 954 479 954 477 955 476 955 474 956 473 956 471 957 470 957 469 958 468 958 467 959 466 959 465 962 462 962 461 965 458 965 457 966 456 966 455 968 453 968 452 975 445 976 445 977 444 978 444 979 443 981 443 983 441 984 441 985 440 986 440 987 439 988 439 990 437 991 437 994 434 995 434 996 433 997 433 998 432 999 432 1000 431 1001 431 1002 430 1011 430 1012 429 1020 429 1021 428 1028 428 1029 427 1054 427 1055 428 1058 428 1059 429 1060 429 1061 430 1062 430 1063 431 1064 431 1065 432 1066 432 1068 434 1069 434 1070 435 1070 436 1076 442 1077 442 1087 452 1087 453 1088 454 1088 455 1089 456 1089 458 1090 459 1090 460 1091 461 1091 463 1092 464 1092 465 1093 466 1093 467 1094 468 1094 469 1095 470 1095 471 1097 473 1097 474 1098 475 1098 476 1099 477 1099 479 1100 480 1100 482 1101 483 1101 485 1102 486 1102 489 1103 490 1103 492 1104 493 1104 497 1105 498 1105 511 1106 512 1106 518 1107 519 1107 520 1109 522 1109 523 1110 524 1111 524 1113 526 1114 526 1116 528 1117 528 1119 530 1120 530 1122 532 1123 532 1128 537 1129 537 1132 540 1133 540 1135 542 1136 542 1137 543 1141 543 1142 544 1147 544 1148 545 1152 545 1153 544 1156 544 1157 543 1160 543 1161 542 1163 542 1164 541 1165 541 1165 540 1168 537 1168 530 1169 529 1169 519 1170 518 1170 517 1169 516 1169 515 1168 514 1168 513 1167 512 1167 511 1166 510 1166 509 1164 507 1164 506 1162 504 1162 503 1160 501 1160 500 1159 499 1159 497 1158 496 1158 495 1157 494 1157 493 1156 492 1156 491 1154 489 1154 488 1153 487 1153 486 1151 484 1151 483 1149 481 1149 480 1148 479 1148 478 1147 477 1147 476 1146 475 1146 472 1145 471 1145 469 1144 468 1144 465 1143 464 1143 461 1142 460 1142 456 1141 455 1141 452 1140 451 1140 448 1139 447 1139 444 1138 443 1138 441 1137 440 1137 438 1136 437 1136 436 1135 435 1135 433 1134 432 1134 430 1133 429 1133 426 1132 425 1132 422 1131 421 1131 417 1130 416 1130 412 1129 411 1129 408 1128 407 1128 404 1127 403 1127 401 1126 400 1126 398 1125 397 1125 396 1124 395 1124 394 1123 393 1123 392 1122 391 1122 390 1121 389 1121 388 1120 387 1120 386 1119 385 1119 384 1118 383 1118 382 1116 380 1116 379 1115 378 1115 377 1114 376 1114 375 1108 369 1107 369 1106 368 1105 368 1103 366 1102 366 1101 365 1100 365 1099 364 1098 364 1097 363 1095 363 1093 361 1092 361 1091 360 1090 360 1088 358 1087 358 1081 352 1080 352 1078 350 1077 350 1075 348 1074 348 1073 347 1072 347 1071 346 1070 346 1069 345 1068 345 1067 344 1065 344 1064 343 1063 343 1062 342 1061 342 1060 341 1059 341 1058 340 1057 340 1055 338 1054 338 1050 334 1050 332 1049 331 1049 330 1048 329 1048 327 1047 326 1047 324 1046 323 1046 321 1045 320 1045 318 1044 317 1044 307 1045 306 1045 302 1046 301 1046 296 1047 295 1047 293 1048 292 1048 291 1049 290 1049 289 1051 287 1051 286 1079 258 1080 258 1085 253 1086 253 1087 252 1087 251 1091 247 1091 246 1095 242 1095 241 1097 239 1097 238 1098 237 1098 236 1099 235 1099 234 1100 233 1100 217 1099 216 1099 212 1096 209 1095 209 1093 207 1092 207 1090 205 1089 205 1088 204 1087 204 1086 203 1085 203 1083 201 1081 201 1080 200 1079 200 1078 199 1076 199 1075 198 1074 198 1073 197 1071 197 1070 196 1069 196 1064 191 1064 190 1061 187 1060 187 1057 184 1055 184 1054 183 1048 183 1047 182 1041 182 1040 181 1034 181 1033 180 1023 180 1022 181 1015 181 1014 182 1011 182 1010 183 1008 183 1007 184 1004 184 1003 185 1001 185 1000 186 999 186 998 187 996 187 995 188 993 188 992 189 991 189 990 190 989 190 988 191 987 191 985 193 984 193 982 195 981 195 980 196 979 196 978 197 977 197 976 198 961 198 960 197 953 197 952 196 948 196 947 195 944 195 943 194 941 194 940 193 939 193 938 192 936 192 935 191 934 191 933 190 932 190 931 189 930 189 929 188 927 188 926 187 925 187 924 186 922 186 921 185 920 185 919 184 917 184 916 183 915 183 913 181 912 181 911 180 910 180 908 178 907 178 904 175 904 174 901 171 901 170 898 167 897 167 894 164 892 164 891 163 890 163 889 162 888 162 885 159 884 159 879 154 879 153 878 152 878 151 877 150 877 148 876 147 876 145 875 144 875 141 874 140 874 137 873 136 873 133 872 132 872 130 871 129 871 128 870 127 870 126 869 125 869 124 868 123 868 122 866 122 865 121 859 121 858 120 854 120 853 119 846 119 845 118 "/></svg>