<svg width="1920" height="1080" xmlns="http://www.w3.org/2000/svg"><path d="M1016 196 1015 197 1010 197 1009 198 1004 198 1003 199 1002 199 1001 200 1000 200 999 201 998 201 997 202 996 202 995 203 994 203 992 205 991 205 987 209 987 210 976 221 975 221 973 223 972 223 969 226 968 226 964 230 963 230 961 232 959 232 958 233 957 233 956 234 954 234 953 235 951 235 950 236 947 236 946 237 943 237 942 238 938 238 937 239 933 239 932 240 928 240 927 241 923 241 922 242 919 242 918 243 916 243 915 244 912 244 911 245 909 245 908 246 907 246 906 247 904 247 903 248 902 248 901 249 900 249 902 251 902 252 903 253 903 254 904 255 904 257 905 258 905 260 906 261 906 263 907 264 907 267 908 268 908 270 911 273 911 274 913 276 913 277 915 279 915 280 916 281 916 282 917 283 917 284 918 285 918 286 919 287 919 288 920 289 920 290 922 292 922 293 923 294 923 296 924 297 924 299 925 300 925 302 926 303 926 306 927 307 927 320 928 321 928 359 927 360 927 372 926 373 926 377 925 378 925 381 924 382 924 385 923 386 923 389 922 390 922 393 921 394 921 398 920 399 920 404 919 405 919 411 918 412 918 418 917 419 917 426 916 427 916 447 917 448 917 462 916 463 916 477 917 478 917 502 916 503 916 517 915 518 915 531 914 532 914 538 913 539 913 543 912 544 912 548 911 549 911 552 910 553 910 555 909 556 909 558 908 559 908 560 907 561 907 562 906 563 906 565 905 566 905 568 904 569 904 572 903 573 903 578 902 579 902 587 901 588 901 596 900 597 900 604 899 605 899 612 898 613 898 616 897 617 897 620 896 621 896 622 895 623 895 624 894 625 894 627 893 628 893 629 892 630 892 632 891 633 891 639 890 640 890 652 889 653 889 667 888 668 888 704 889 705 889 719 890 720 890 729 891 730 891 747 949 747 949 723 950 722 950 692 949 691 949 685 948 684 948 676 947 675 947 672 946 671 946 667 945 666 945 661 944 660 944 613 945 612 945 609 946 608 946 606 947 605 947 604 948 603 948 601 949 600 949 599 950 598 950 596 951 595 951 593 952 592 952 590 953 589 953 587 954 586 954 583 955 582 955 579 956 578 956 574 957 573 957 569 958 568 958 565 959 564 959 562 960 561 960 559 961 558 961 556 962 555 962 554 963 553 963 552 964 551 964 550 965 549 965 547 966 546 966 545 967 544 967 542 968 541 968 539 969 538 969 535 970 534 970 531 971 530 971 528 972 527 972 525 973 524 973 523 974 522 974 521 975 520 975 519 976 518 976 517 978 515 978 514 979 513 979 512 980 511 980 509 981 508 981 507 982 506 982 504 983 503 983 502 984 501 984 499 985 498 985 497 986 496 986 494 987 493 987 492 988 491 988 490 1000 478 1000 477 1005 472 1006 472 1007 471 1009 471 1010 470 1012 470 1013 469 1015 469 1016 468 1019 468 1020 469 1021 469 1022 470 1023 470 1025 472 1026 472 1027 473 1028 473 1029 474 1030 474 1031 475 1032 475 1034 477 1035 477 1036 478 1037 478 1038 479 1039 479 1040 480 1041 480 1042 481 1043 481 1044 482 1045 482 1050 487 1050 488 1052 490 1052 491 1053 492 1053 494 1054 495 1054 498 1055 499 1055 501 1056 502 1056 504 1057 505 1057 507 1058 508 1058 510 1059 511 1059 512 1060 513 1060 519 1061 520 1061 526 1062 527 1062 540 1061 541 1061 545 1060 546 1060 551 1059 552 1059 556 1058 557 1058 559 1057 560 1057 563 1056 564 1056 567 1055 568 1055 571 1054 572 1054 577 1053 578 1053 583 1052 584 1052 589 1051 590 1051 593 1050 594 1050 596 1049 597 1049 600 1048 601 1048 603 1047 604 1047 605 1046 606 1046 608 1045 609 1045 611 1044 612 1044 613 1043 614 1043 623 1044 624 1044 636 1046 638 1047 637 1048 637 1049 636 1050 636 1051 635 1052 635 1053 634 1054 634 1055 633 1057 633 1058 632 1060 632 1061 631 1062 631 1063 630 1064 630 1065 629 1067 629 1068 628 1069 628 1070 627 1073 627 1075 625 1076 625 1078 623 1079 623 1081 621 1082 621 1084 619 1085 619 1090 614 1090 613 1091 612 1091 611 1093 609 1093 608 1094 607 1094 606 1096 604 1096 603 1099 600 1099 599 1101 597 1101 595 1102 594 1102 590 1103 589 1103 583 1104 582 1104 574 1105 573 1105 562 1106 561 1106 553 1107 552 1107 546 1108 545 1108 540 1109 539 1109 534 1110 533 1110 530 1111 529 1111 527 1112 526 1112 524 1113 523 1113 521 1114 520 1114 519 1115 518 1115 516 1116 515 1116 513 1117 512 1117 507 1118 506 1118 500 1119 499 1119 469 1118 468 1118 462 1117 461 1117 456 1116 455 1116 452 1115 451 1115 450 1114 449 1114 448 1113 447 1113 446 1112 445 1112 444 1111 443 1111 442 1110 441 1110 439 1109 438 1109 437 1108 436 1108 433 1107 432 1107 430 1106 429 1106 428 1105 427 1105 425 1104 424 1104 423 1103 422 1103 421 1100 418 1100 417 1098 415 1098 414 1096 412 1096 411 1095 410 1095 409 1094 408 1094 407 1093 406 1093 405 1084 396 1083 396 1078 391 1078 390 1077 389 1077 388 1075 386 1075 385 1070 380 1069 380 1060 371 1060 369 1061 368 1061 353 1062 352 1062 344 1063 343 1063 334 1064 333 1064 328 1065 327 1065 325 1066 324 1066 322 1067 321 1067 319 1068 318 1068 315 1069 314 1069 312 1070 311 1070 309 1071 308 1071 307 1072 306 1072 305 1077 300 1077 299 1081 295 1081 294 1084 291 1084 290 1087 287 1093 287 1094 288 1102 288 1103 289 1112 289 1113 290 1114 290 1116 292 1116 294 1117 295 1117 296 1118 297 1118 298 1119 299 1119 300 1120 301 1120 302 1121 303 1121 304 1122 305 1122 307 1124 309 1124 310 1127 313 1128 313 1129 314 1130 313 1136 313 1137 312 1142 312 1146 308 1146 307 1149 304 1149 303 1156 296 1156 294 1157 293 1157 291 1158 290 1158 280 1159 279 1159 248 1158 247 1158 245 1157 244 1157 241 1156 240 1156 238 1155 237 1155 236 1154 235 1154 234 1153 233 1153 231 1152 230 1152 229 1151 228 1151 227 1147 223 1146 223 1143 220 1142 220 1141 219 1139 219 1138 218 1137 218 1136 217 1134 217 1133 216 1131 216 1130 215 1129 215 1128 214 1116 214 1115 213 1106 213 1105 212 1083 212 1082 211 1079 211 1078 210 1075 210 1074 209 1072 209 1071 208 1070 208 1069 207 1068 207 1067 206 1066 206 1065 205 1063 205 1062 204 1060 204 1059 203 1057 203 1056 202 1052 202 1051 201 1047 201 1046 200 1043 200 1042 199 1040 199 1039 198 1036 198 1035 197 1032 197 1031 196 "/></svg>