<svg width="1920" height="1080" xmlns="http://www.w3.org/2000/svg"><path d="M1077 185 1076 186 1065 186 1064 187 1045 187 1044 188 1039 188 1038 189 1036 189 1035 190 1033 190 1032 191 1029 191 1028 192 1026 192 1025 193 1023 193 1022 194 1019 194 1018 195 1016 195 1015 196 1013 196 1012 197 1009 197 1008 198 1006 198 1005 199 1003 199 1002 200 1000 200 999 201 997 201 996 202 995 202 994 203 993 203 992 204 991 204 989 206 988 206 982 212 981 212 980 213 978 213 977 214 974 214 973 215 971 215 970 216 965 216 964 217 947 217 946 218 936 218 935 219 920 219 919 220 908 220 907 221 869 221 868 222 857 222 856 223 847 223 845 225 845 226 843 228 843 229 842 230 845 233 845 234 847 236 849 236 850 237 853 237 854 238 857 238 858 239 861 239 862 240 863 240 864 241 865 241 866 242 867 242 869 244 870 244 872 246 873 246 875 248 876 248 877 249 878 249 879 250 881 250 882 251 885 251 886 252 889 252 890 253 892 253 895 256 896 256 908 268 908 269 910 271 910 272 911 273 911 274 913 276 913 277 915 279 915 280 917 282 917 283 920 286 920 287 922 289 922 290 923 291 923 292 924 293 924 297 925 298 925 308 926 309 926 340 925 341 925 347 924 348 924 352 923 353 923 356 922 357 922 361 921 362 921 366 920 367 920 372 919 373 919 379 918 380 918 389 917 390 917 401 916 402 916 412 915 413 915 447 914 448 914 478 913 479 913 488 912 489 912 495 911 496 911 501 910 502 910 505 909 506 909 507 908 508 908 509 907 510 907 511 906 512 906 513 905 514 905 516 904 517 904 519 903 520 903 523 902 524 902 529 901 530 901 535 900 536 900 543 899 544 899 552 898 553 898 559 897 560 897 566 896 567 896 570 895 571 895 573 894 574 894 576 893 577 893 579 892 580 892 581 891 582 891 584 890 585 890 588 889 589 889 595 888 596 888 604 887 605 887 614 886 615 886 627 885 628 885 641 884 642 884 652 883 653 883 660 882 661 882 667 881 668 881 694 880 695 880 716 881 717 881 718 882 719 882 720 883 721 883 722 884 723 884 724 885 725 885 726 886 727 886 728 887 729 887 730 888 731 888 732 889 733 889 734 890 735 890 745 924 745 924 735 925 734 926 734 930 730 930 729 934 725 934 724 936 722 936 721 937 720 937 719 938 718 938 717 939 716 939 715 940 714 940 712 939 711 939 692 938 691 938 684 937 683 937 676 936 675 936 667 937 666 937 652 938 651 938 646 939 645 939 639 940 638 940 631 941 630 941 622 942 621 942 612 943 611 943 602 944 601 944 592 945 591 945 584 946 583 946 578 947 577 947 573 948 572 948 569 949 568 949 566 950 565 950 564 951 563 951 562 952 561 952 560 953 559 953 558 954 557 954 556 955 555 955 553 956 552 956 550 957 549 957 546 958 545 958 542 959 541 959 538 960 537 960 535 961 534 961 531 962 530 962 529 963 528 963 526 964 525 964 524 965 523 965 522 966 521 966 520 967 519 967 518 968 517 968 516 969 515 969 513 970 512 970 510 971 509 971 507 972 506 972 503 973 502 973 500 974 499 974 498 975 497 975 495 976 494 976 493 977 492 977 491 978 490 978 489 980 487 980 486 982 484 982 483 983 482 983 481 985 479 985 478 986 477 986 476 987 475 987 474 989 472 989 471 990 470 990 469 992 467 992 466 994 464 994 463 996 461 996 460 1010 446 1011 446 1012 445 1022 445 1023 444 1027 444 1028 445 1029 445 1030 446 1032 446 1033 447 1035 447 1036 448 1038 448 1039 449 1041 449 1042 450 1044 450 1045 451 1047 451 1048 452 1049 452 1050 453 1052 453 1053 454 1054 454 1055 455 1056 455 1058 457 1058 458 1060 460 1060 461 1062 463 1062 465 1063 466 1063 467 1064 468 1064 469 1065 470 1065 471 1066 472 1066 473 1067 474 1067 475 1068 476 1068 477 1069 478 1069 479 1071 481 1071 483 1072 484 1072 495 1073 496 1073 508 1072 509 1072 514 1071 515 1071 519 1070 520 1070 525 1069 526 1069 529 1068 530 1068 532 1067 533 1067 536 1066 537 1066 541 1065 542 1065 545 1064 546 1064 550 1063 551 1063 553 1062 554 1062 556 1061 557 1061 559 1060 560 1060 561 1059 562 1059 563 1058 564 1058 565 1057 566 1057 567 1055 569 1055 570 1052 573 1052 574 1049 577 1049 578 1046 581 1046 582 1042 586 1042 587 1041 588 1041 592 1040 593 1040 597 1039 598 1039 604 1038 605 1038 611 1039 612 1039 614 1041 616 1041 617 1056 617 1059 614 1060 614 1066 608 1066 607 1073 600 1073 599 1076 596 1076 595 1080 591 1080 590 1082 588 1082 587 1087 582 1087 581 1089 579 1089 578 1090 577 1090 576 1091 575 1091 574 1093 572 1093 571 1094 570 1094 569 1095 568 1095 567 1096 566 1096 565 1097 564 1097 563 1099 561 1099 560 1101 558 1101 557 1103 555 1103 554 1104 553 1104 551 1105 550 1105 549 1106 548 1106 546 1107 545 1107 542 1108 541 1108 539 1109 538 1109 536 1110 535 1110 533 1111 532 1111 531 1112 530 1112 529 1113 528 1113 527 1114 526 1114 525 1115 524 1115 523 1116 522 1116 521 1117 520 1117 519 1118 518 1118 517 1119 516 1119 515 1120 514 1120 512 1121 511 1121 509 1122 508 1122 505 1123 504 1123 501 1124 500 1124 498 1125 497 1125 495 1126 494 1126 492 1127 491 1127 490 1128 489 1128 488 1129 487 1129 486 1130 485 1130 484 1131 483 1131 479 1132 478 1132 472 1133 471 1133 463 1134 462 1134 440 1133 439 1133 437 1132 436 1132 434 1131 433 1131 431 1130 430 1130 429 1129 428 1129 427 1128 426 1128 425 1127 424 1127 422 1126 421 1126 419 1125 418 1125 417 1123 415 1123 414 1122 413 1122 412 1103 393 1102 393 1101 392 1100 392 1099 391 1098 391 1097 390 1094 390 1093 389 1091 389 1090 388 1088 388 1087 387 1085 387 1084 386 1082 386 1081 385 1079 385 1078 384 1077 384 1076 383 1074 383 1073 382 1072 382 1070 380 1069 380 1066 377 1066 376 1059 369 1058 369 1047 358 1047 357 1046 356 1046 348 1045 347 1045 337 1044 336 1044 335 1045 334 1045 330 1046 329 1046 323 1047 322 1047 316 1048 315 1048 312 1049 311 1049 309 1050 308 1050 306 1051 305 1051 303 1052 302 1052 301 1053 300 1053 298 1054 297 1054 296 1055 295 1055 294 1057 292 1057 291 1060 288 1060 287 1062 285 1062 284 1064 282 1064 281 1065 280 1065 279 1067 277 1067 276 1068 275 1068 274 1069 273 1069 272 1073 268 1073 267 1080 260 1080 259 1094 245 1095 245 1098 242 1099 242 1100 241 1118 241 1119 240 1121 240 1122 239 1124 239 1125 238 1126 238 1127 237 1128 237 1129 236 1130 236 1132 234 1133 234 1133 233 1136 230 1136 223 1137 222 1137 209 1136 208 1136 206 1134 204 1134 203 1133 202 1133 201 1131 199 1131 198 1122 189 1122 188 1121 188 1119 186 1118 186 1117 185 1103 185 1102 186 1098 186 1097 185 "/></svg>