<svg width="1920" height="1080" xmlns="http://www.w3.org/2000/svg"><path d="M1050 182 1049 183 1036 183 1035 184 1026 184 1025 185 1020 185 1019 186 1015 186 1014 187 1011 187 1010 188 1008 188 1007 189 1006 189 1005 190 1004 190 1003 191 1001 191 999 193 998 193 997 194 996 194 991 199 990 199 988 201 987 201 986 202 985 202 984 203 983 203 982 204 980 204 979 205 973 205 972 206 962 206 961 207 960 206 937 206 936 207 892 207 891 206 882 206 881 205 875 205 874 204 869 204 868 203 866 203 865 202 863 202 861 200 860 200 858 198 857 198 856 197 855 197 854 196 849 196 848 195 838 195 837 196 834 196 835 196 837 198 837 199 838 200 838 201 839 202 839 203 840 204 840 212 841 213 841 217 842 218 842 219 844 221 846 221 847 222 850 222 851 223 854 223 855 224 857 224 858 225 860 225 862 227 863 227 864 228 865 228 867 230 868 230 870 232 871 232 873 234 874 234 875 235 876 235 877 236 879 236 880 237 882 237 883 238 886 238 887 239 889 239 895 245 896 245 897 246 897 247 907 257 907 258 910 261 910 262 917 269 918 269 921 272 921 273 923 275 923 276 924 277 924 278 925 279 925 283 926 284 926 292 927 293 927 305 928 306 928 336 927 337 927 348 926 349 926 355 925 356 925 361 924 362 924 367 923 368 923 372 922 373 922 377 921 378 921 381 920 382 920 385 919 386 919 387 918 388 918 390 917 391 917 393 916 394 916 397 915 398 915 402 914 403 914 419 913 420 913 468 912 469 912 479 911 480 911 489 910 490 910 494 909 495 909 497 908 498 908 501 907 502 907 503 906 504 906 506 905 507 905 508 904 509 904 510 903 511 903 513 902 514 902 515 901 516 901 519 900 520 900 522 899 523 899 527 898 528 898 533 897 534 897 543 896 544 896 552 895 553 895 557 894 558 894 560 893 561 893 564 892 565 892 566 891 567 891 569 890 570 890 571 889 572 889 574 888 575 888 579 887 580 887 584 886 585 886 589 885 590 885 597 884 598 884 606 883 607 883 615 882 616 882 630 881 631 881 646 880 647 880 687 881 688 881 700 882 701 882 704 883 705 883 707 884 708 884 710 885 711 885 713 886 714 886 715 887 716 887 717 888 718 888 719 889 720 889 730 917 730 917 719 918 718 918 717 921 714 921 713 922 712 922 711 924 709 924 708 925 707 925 706 926 705 926 704 927 703 927 701 928 700 928 699 929 698 929 695 930 694 930 693 931 692 931 690 932 689 932 687 933 686 933 685 934 684 934 682 935 681 935 679 936 678 935 677 935 666 934 665 934 654 935 653 935 647 936 646 936 639 937 638 937 631 938 630 938 623 939 622 939 611 940 610 940 597 941 596 941 587 942 586 942 577 943 576 943 570 944 569 944 565 945 564 945 560 946 559 946 556 947 555 947 552 948 551 948 550 949 549 949 548 950 547 950 546 951 545 951 544 952 543 952 542 953 541 953 540 954 539 954 536 955 535 955 533 956 532 956 529 957 528 957 525 958 524 958 522 959 521 959 518 960 517 960 515 961 514 961 512 962 511 962 510 963 509 963 508 964 507 964 506 965 505 965 504 966 503 966 502 967 501 967 499 968 498 968 497 969 496 969 494 970 493 970 490 971 489 971 487 972 486 972 484 973 483 973 482 974 481 974 480 975 479 975 478 976 477 976 476 977 475 977 474 978 473 978 472 981 469 981 468 982 467 982 466 984 464 984 463 986 461 986 460 989 457 989 456 991 454 991 453 996 448 996 447 1005 438 1006 438 1008 436 1009 436 1010 435 1020 435 1021 434 1025 434 1026 435 1028 435 1029 436 1031 436 1032 437 1034 437 1035 438 1037 438 1038 439 1040 439 1041 440 1042 440 1043 441 1044 441 1046 443 1047 443 1051 447 1052 447 1055 450 1056 450 1061 455 1061 456 1067 462 1067 463 1069 465 1069 466 1071 468 1071 470 1072 471 1072 473 1073 474 1073 475 1074 476 1074 479 1075 480 1075 483 1076 484 1076 487 1077 488 1077 515 1076 516 1076 520 1075 521 1075 525 1074 526 1074 529 1073 530 1073 532 1072 533 1072 535 1071 536 1071 538 1070 539 1070 542 1069 543 1069 546 1068 547 1068 550 1067 551 1067 555 1066 556 1066 559 1065 560 1065 563 1064 564 1064 566 1063 567 1063 569 1062 570 1062 572 1061 573 1061 595 1062 595 1065 598 1066 598 1067 599 1069 599 1070 600 1072 600 1073 599 1074 599 1075 598 1077 598 1078 597 1079 597 1080 596 1081 596 1082 595 1083 595 1084 594 1085 594 1087 592 1087 590 1088 589 1088 588 1089 587 1089 586 1090 585 1090 583 1091 582 1091 581 1092 580 1092 578 1093 577 1093 575 1094 574 1094 572 1095 571 1095 570 1096 569 1096 568 1098 566 1098 565 1102 561 1102 560 1103 559 1103 558 1104 557 1104 556 1105 555 1105 554 1106 553 1106 550 1107 549 1107 546 1108 545 1108 543 1109 542 1109 539 1110 538 1110 536 1111 535 1111 533 1112 532 1112 530 1113 529 1113 528 1114 527 1114 526 1116 524 1116 523 1117 522 1117 521 1118 520 1118 519 1119 518 1119 517 1120 516 1120 515 1121 514 1121 512 1122 511 1122 509 1123 508 1123 505 1124 504 1124 502 1125 501 1125 499 1126 498 1126 496 1127 495 1127 493 1128 492 1128 490 1129 489 1129 487 1130 486 1130 485 1131 484 1131 483 1132 482 1132 481 1133 480 1133 479 1134 478 1134 476 1135 475 1135 473 1136 472 1136 469 1137 468 1137 451 1138 450 1138 447 1137 446 1137 439 1136 438 1136 432 1135 431 1135 427 1134 426 1134 425 1133 424 1133 423 1132 422 1132 421 1130 419 1130 418 1128 416 1128 415 1127 414 1127 413 1126 412 1126 411 1125 410 1125 409 1124 408 1124 406 1122 404 1122 403 1116 397 1115 397 1114 396 1113 396 1112 395 1111 395 1109 393 1108 393 1107 392 1106 392 1105 391 1104 391 1102 389 1101 389 1098 386 1097 386 1092 381 1091 381 1089 379 1088 379 1087 378 1086 378 1085 377 1084 377 1083 376 1081 376 1080 375 1079 375 1078 374 1076 374 1075 373 1074 373 1073 372 1071 372 1069 370 1068 370 1066 368 1065 368 1060 363 1060 362 1055 357 1054 357 1048 351 1048 350 1044 346 1044 345 1042 343 1042 341 1043 340 1043 331 1044 330 1044 321 1045 320 1045 318 1046 317 1046 314 1047 313 1047 310 1048 309 1048 306 1049 305 1049 302 1050 301 1050 300 1051 299 1051 297 1053 295 1053 294 1055 292 1055 291 1060 286 1060 285 1062 283 1062 282 1064 280 1064 279 1072 271 1073 271 1076 268 1077 268 1087 258 1087 257 1089 255 1089 254 1091 252 1091 251 1092 250 1092 249 1094 247 1094 246 1096 244 1096 243 1098 241 1098 240 1099 239 1099 238 1100 237 1100 234 1101 233 1101 231 1102 230 1102 229 1103 228 1103 227 1104 226 1104 224 1105 223 1105 222 1106 221 1106 219 1107 218 1107 214 1108 213 1108 206 1109 205 1109 199 1110 198 1110 196 1105 191 1104 191 1102 189 1101 189 1100 188 1099 188 1097 186 1096 186 1095 185 1093 185 1092 184 1091 184 1090 183 1087 183 1086 182 "/></svg>