<svg width="1920" height="1080" xmlns="http://www.w3.org/2000/svg"><path d="M828 127 828 138 827 139 827 143 826 144 826 149 825 150 825 151 826 152 826 158 827 159 827 165 828 166 828 169 829 170 829 172 830 173 830 175 832 177 832 178 833 179 833 180 834 181 834 182 837 185 838 185 840 187 841 187 843 189 844 189 846 191 847 191 855 199 855 200 856 200 860 204 861 204 865 208 866 208 875 217 876 217 878 219 879 219 880 220 881 220 883 222 884 222 885 223 886 223 892 229 892 230 897 235 898 235 901 238 902 238 907 243 907 244 909 246 909 247 918 256 918 257 920 259 920 260 921 261 921 262 922 263 922 266 923 267 923 269 924 270 924 271 925 272 925 274 926 275 926 276 927 277 927 289 926 290 926 298 925 299 925 306 924 307 924 319 923 320 923 334 922 335 922 346 921 347 921 355 920 356 920 366 919 367 919 375 918 376 918 382 917 383 917 388 916 389 916 396 915 397 915 405 914 406 914 411 913 412 913 415 912 416 912 420 911 421 912 422 912 433 913 434 913 441 914 442 914 449 915 450 915 478 914 479 914 487 913 488 913 489 912 490 912 492 911 493 911 495 910 496 910 498 909 499 909 503 908 504 908 509 907 510 907 516 906 517 906 524 905 525 905 540 904 541 904 548 905 549 905 550 908 553 908 554 911 557 912 557 913 558 915 558 916 557 926 557 931 552 931 551 933 549 933 548 934 547 934 546 935 545 935 544 937 542 937 541 938 540 938 539 940 537 940 535 941 534 941 533 942 532 942 530 943 529 943 526 944 525 944 521 945 520 945 516 946 515 946 510 947 509 947 505 948 504 948 500 949 499 949 495 950 494 950 490 951 489 951 486 952 485 952 482 953 481 953 478 954 477 954 474 955 473 955 470 956 469 956 464 957 463 957 457 958 456 958 452 959 451 959 449 960 448 960 445 961 444 961 442 962 441 962 438 963 437 963 436 970 429 971 429 975 425 976 425 980 421 988 421 989 422 995 422 996 423 998 423 999 424 1002 424 1003 425 1006 425 1007 426 1010 426 1011 427 1014 427 1015 428 1019 428 1020 429 1056 429 1057 430 1063 430 1064 431 1065 431 1066 432 1067 432 1068 433 1069 433 1070 434 1071 434 1074 437 1075 437 1076 438 1077 438 1081 442 1082 442 1086 446 1087 446 1101 460 1102 460 1104 462 1105 462 1111 468 1111 469 1115 473 1116 473 1118 475 1119 475 1121 477 1122 477 1125 480 1126 480 1129 483 1129 484 1132 487 1133 487 1135 489 1136 489 1138 491 1139 491 1141 493 1142 493 1143 494 1144 494 1146 496 1147 496 1148 497 1149 497 1150 498 1151 498 1155 502 1156 502 1157 503 1158 503 1159 504 1161 504 1162 503 1165 503 1166 502 1168 502 1169 501 1170 501 1171 500 1172 500 1172 499 1173 498 1173 496 1174 495 1174 491 1175 490 1175 486 1176 485 1175 484 1175 483 1174 482 1174 481 1173 480 1173 479 1172 478 1172 477 1170 475 1170 474 1169 473 1169 472 1168 471 1168 469 1167 468 1167 467 1165 465 1165 464 1163 462 1163 461 1154 452 1154 451 1150 447 1150 446 1143 439 1143 438 1141 436 1141 435 1139 433 1139 432 1138 431 1138 430 1136 428 1136 427 1134 425 1134 424 1131 421 1131 419 1130 418 1130 417 1129 416 1129 415 1128 414 1128 412 1127 411 1127 409 1126 408 1126 406 1125 405 1125 402 1124 401 1124 399 1123 398 1123 396 1122 395 1122 393 1121 392 1121 390 1120 389 1120 387 1119 386 1119 385 1118 384 1118 383 1116 381 1116 380 1114 378 1114 377 1113 376 1113 375 1112 374 1112 373 1110 371 1110 370 1105 365 1104 365 1103 364 1102 364 1099 361 1098 361 1094 357 1093 357 1091 355 1088 355 1087 354 1085 354 1084 353 1082 353 1081 352 1079 352 1078 351 1076 351 1075 350 1074 350 1073 349 1072 349 1071 348 1070 348 1069 347 1068 347 1067 346 1065 346 1064 345 1063 345 1061 343 1060 343 1054 337 1053 337 1044 328 1044 327 1043 326 1043 312 1044 311 1044 309 1050 303 1051 303 1057 297 1058 297 1060 295 1060 294 1062 292 1063 292 1064 291 1067 291 1068 290 1073 290 1074 289 1081 289 1082 290 1085 290 1086 291 1090 291 1091 292 1092 292 1094 294 1095 294 1096 295 1097 295 1099 297 1100 297 1102 299 1103 299 1104 300 1105 300 1113 308 1113 309 1118 314 1118 315 1121 315 1122 316 1125 316 1126 317 1129 317 1130 318 1134 318 1135 317 1138 317 1139 316 1142 316 1143 315 1145 315 1146 314 1146 313 1147 312 1147 311 1148 310 1148 307 1147 306 1147 296 1146 295 1146 293 1140 287 1140 286 1137 283 1137 282 1136 281 1136 280 1135 279 1135 278 1132 275 1131 275 1130 274 1129 274 1127 272 1126 272 1125 271 1124 271 1123 270 1122 270 1120 268 1119 268 1117 266 1116 266 1113 263 1113 262 1111 260 1110 260 1107 257 1106 257 1105 256 1104 256 1103 255 1102 255 1100 253 1099 253 1096 250 1095 250 1093 248 1093 247 1085 239 1085 238 1080 233 1080 232 1074 226 1073 226 1072 225 1071 225 1069 223 1068 223 1066 221 1065 221 1064 220 1063 220 1052 209 1051 209 1050 208 1049 208 1048 207 1043 207 1042 206 1037 206 1036 205 1013 205 1012 206 1004 206 1003 207 996 207 995 208 977 208 976 209 965 209 964 208 950 208 949 207 940 207 939 206 936 206 935 205 932 205 931 204 929 204 928 203 926 203 919 196 918 196 916 194 915 194 914 193 913 193 912 192 911 192 910 191 909 191 908 190 907 190 906 189 905 189 903 187 902 187 897 182 897 181 894 178 894 177 893 176 893 175 892 174 892 173 891 172 891 171 890 170 890 169 889 168 889 166 888 165 888 164 887 163 887 162 886 161 886 160 885 159 885 158 882 155 882 154 880 152 880 151 877 148 877 147 865 135 865 127 "/></svg>