<svg width="1920" height="1080" xmlns="http://www.w3.org/2000/svg"><path d="M820 150 820 157 821 158 821 171 823 173 823 174 825 176 825 177 826 178 827 178 837 188 838 188 840 190 841 190 845 194 846 194 850 198 850 199 855 204 855 205 857 207 857 208 859 210 859 211 860 212 860 213 861 214 861 215 863 217 864 217 867 220 868 220 870 222 871 222 873 224 874 224 880 230 881 230 884 233 885 233 887 235 888 235 890 237 891 237 892 238 893 238 895 240 896 240 902 246 903 246 905 248 906 248 913 255 913 256 914 257 914 258 915 259 915 260 917 262 917 263 918 264 918 265 922 269 922 270 923 271 923 272 924 273 924 276 925 277 925 281 926 282 926 346 925 347 925 355 924 356 924 364 923 365 923 373 922 374 922 376 921 377 921 379 920 380 920 382 919 383 919 385 918 386 918 391 917 392 917 400 916 401 916 410 915 411 915 432 916 433 916 443 917 444 917 464 918 465 918 477 917 478 917 483 916 484 916 490 915 491 915 499 914 500 914 509 913 510 913 525 912 526 912 531 913 532 913 533 914 534 914 535 915 536 915 537 920 542 926 542 927 541 933 541 934 540 935 540 939 536 939 535 941 533 941 532 942 531 942 530 943 529 943 528 945 526 945 525 947 523 947 522 948 521 948 520 949 519 949 518 950 517 950 514 951 513 951 508 952 507 952 502 953 501 953 497 954 496 954 492 955 491 955 488 956 487 956 482 957 481 957 477 958 476 958 470 959 469 959 459 960 458 960 456 961 455 961 454 962 453 962 451 963 450 963 448 964 447 964 444 965 443 965 439 966 438 966 434 967 433 967 430 968 429 968 428 970 426 970 425 974 421 977 421 978 420 986 420 987 419 988 419 989 420 995 420 996 421 1002 421 1003 422 1005 422 1006 423 1009 423 1010 424 1012 424 1013 425 1017 425 1018 426 1022 426 1023 427 1026 427 1027 428 1031 428 1032 427 1043 427 1044 426 1051 426 1052 425 1061 425 1062 426 1068 426 1074 432 1075 432 1078 435 1079 435 1081 437 1082 437 1088 443 1088 444 1094 450 1095 450 1103 458 1103 459 1109 465 1110 465 1112 467 1113 467 1117 471 1117 472 1122 477 1123 477 1124 478 1125 478 1126 479 1127 479 1128 480 1129 480 1131 482 1132 482 1134 484 1135 484 1136 485 1137 485 1139 487 1140 487 1142 489 1143 489 1144 490 1145 490 1146 491 1147 491 1148 492 1155 492 1156 491 1162 491 1166 487 1166 481 1167 480 1167 471 1166 470 1166 469 1165 468 1165 467 1164 466 1164 465 1163 464 1163 463 1162 462 1162 461 1160 459 1160 458 1158 456 1158 455 1157 454 1157 453 1156 452 1156 451 1154 449 1154 448 1153 447 1153 446 1140 433 1140 432 1138 430 1138 429 1131 422 1131 421 1129 419 1129 418 1128 417 1128 416 1127 415 1127 413 1126 412 1126 409 1125 408 1125 406 1124 405 1124 403 1123 402 1123 400 1122 399 1122 398 1121 397 1121 396 1120 395 1120 393 1119 392 1119 391 1118 390 1118 388 1117 387 1117 377 1116 376 1116 370 1117 369 1117 366 1118 365 1118 363 1119 362 1119 361 1120 360 1120 359 1123 356 1123 355 1126 352 1127 352 1129 350 1130 350 1132 348 1134 348 1138 344 1138 343 1139 342 1139 341 1140 340 1140 338 1141 337 1141 336 1142 335 1142 333 1143 332 1143 330 1144 329 1144 319 1143 318 1143 313 1142 312 1142 310 1141 309 1141 307 1140 306 1140 304 1139 303 1139 301 1137 299 1137 298 1136 297 1135 297 1132 294 1131 294 1126 289 1126 288 1124 286 1124 285 1122 283 1121 283 1120 282 1119 282 1117 280 1116 280 1114 278 1113 278 1091 256 1091 255 1088 252 1088 251 1086 249 1086 248 1084 246 1084 245 1078 239 1077 239 1070 232 1070 231 1065 226 1064 226 1062 224 1061 224 1058 221 1057 221 1056 220 1055 220 1053 218 1051 218 1049 216 1048 216 1047 215 1046 215 1044 213 1042 213 1041 212 1033 212 1032 211 1027 211 1026 212 1022 212 1021 213 1018 213 1017 214 1014 214 1013 215 1012 215 1011 216 1010 216 1009 217 1007 217 1006 218 1004 218 1003 219 1000 219 999 220 992 220 991 221 961 221 960 220 954 220 953 219 948 219 947 218 944 218 943 217 941 217 940 216 939 216 938 215 936 215 935 214 934 214 933 213 931 213 930 212 928 212 927 211 925 211 924 210 922 210 921 209 918 209 917 208 915 208 914 207 912 207 911 206 909 206 908 205 906 205 905 204 904 204 903 203 902 203 900 201 899 201 895 197 894 197 893 196 892 196 890 194 889 194 881 186 881 185 880 184 879 184 878 183 877 183 876 182 875 182 874 181 873 181 872 180 871 180 869 178 868 178 862 172 862 171 861 170 861 169 860 168 860 167 859 166 859 165 858 164 858 163 857 162 857 161 856 160 856 159 855 158 855 150 "/></svg>