<svg width="1920" height="1080" xmlns="http://www.w3.org/2000/svg"><path d="M1035 235 1034 236 1022 236 1021 237 1017 237 1016 238 1012 238 1011 239 1007 239 1006 240 1003 240 1002 241 1000 241 999 242 997 242 996 243 994 243 993 244 991 244 990 245 988 245 987 246 984 246 983 247 980 247 979 248 973 248 972 249 964 249 963 250 906 250 905 249 879 249 878 248 876 248 875 247 872 247 871 246 869 246 868 245 867 245 866 244 863 244 862 243 859 243 858 242 856 242 855 241 852 241 851 240 847 240 846 239 841 239 840 238 837 238 836 237 819 237 819 239 818 240 818 244 819 245 821 245 823 247 824 247 830 253 830 254 832 256 832 257 834 259 837 259 838 260 843 260 844 261 848 261 849 262 853 262 854 263 857 263 858 264 861 264 862 265 865 265 866 266 875 266 876 267 881 267 883 269 884 269 888 273 889 273 891 275 892 275 894 277 895 277 897 279 898 279 899 280 900 280 901 281 902 281 905 284 906 284 909 287 910 287 911 288 912 288 919 295 919 296 921 298 921 302 922 303 922 308 923 309 923 317 924 318 924 329 925 330 925 360 926 361 926 372 925 373 925 391 924 392 924 401 923 402 923 423 924 424 924 431 925 432 925 436 926 437 926 438 927 439 927 440 929 442 929 443 930 444 930 445 931 446 931 448 932 449 932 450 933 451 933 454 934 455 934 458 935 459 935 462 936 463 936 467 937 468 937 472 938 473 938 476 939 477 939 481 940 482 940 486 941 487 941 490 942 491 942 494 943 495 943 496 944 497 944 499 945 500 945 502 946 503 946 506 947 507 947 512 948 513 948 518 949 519 949 529 950 530 950 539 951 540 951 545 952 546 952 547 953 548 953 549 954 550 954 551 955 552 955 553 959 557 960 556 962 556 963 555 966 555 967 554 969 554 970 553 973 553 974 552 975 552 975 551 978 548 978 547 979 546 979 545 980 544 980 541 981 540 981 537 982 536 982 532 983 531 983 527 984 526 984 521 985 520 985 506 986 505 986 495 987 494 987 473 988 472 988 468 989 467 989 464 990 463 990 462 989 461 989 448 990 447 990 445 991 444 991 442 992 441 992 439 993 438 993 436 994 435 994 431 995 430 995 426 996 425 996 422 998 420 998 419 1001 416 1001 415 1006 410 1008 410 1009 409 1010 409 1011 408 1012 408 1013 407 1014 407 1015 406 1016 406 1020 402 1023 402 1024 403 1025 403 1026 404 1027 404 1031 408 1032 408 1033 409 1035 409 1036 410 1037 410 1038 411 1039 411 1043 415 1044 415 1047 418 1047 419 1055 427 1055 428 1057 430 1057 431 1058 432 1058 433 1059 434 1059 435 1062 438 1062 439 1072 449 1072 450 1074 452 1074 453 1076 455 1076 456 1077 457 1077 458 1078 459 1078 460 1079 461 1079 462 1080 463 1080 464 1087 471 1087 472 1089 474 1089 475 1090 476 1090 477 1092 479 1092 480 1094 482 1094 483 1102 491 1103 491 1106 494 1107 494 1109 496 1110 496 1112 498 1113 498 1114 499 1116 499 1117 500 1119 500 1120 501 1122 501 1123 502 1125 502 1126 503 1127 503 1128 504 1141 504 1142 503 1146 503 1147 502 1148 502 1149 501 1150 501 1151 500 1152 500 1153 499 1154 499 1155 498 1156 498 1157 497 1158 497 1159 496 1160 496 1163 493 1163 492 1165 490 1165 487 1166 486 1166 484 1167 483 1167 479 1168 478 1168 471 1167 470 1167 461 1166 460 1166 454 1165 453 1165 448 1164 447 1164 445 1163 444 1163 443 1162 442 1162 440 1161 439 1161 438 1160 437 1160 436 1158 434 1158 433 1157 432 1157 431 1156 430 1156 428 1155 427 1155 426 1154 425 1154 422 1153 421 1153 420 1152 419 1152 418 1150 416 1150 415 1149 414 1149 413 1148 412 1148 411 1147 410 1147 409 1145 407 1145 406 1141 402 1141 401 1139 399 1139 398 1138 397 1138 396 1137 395 1137 394 1136 393 1136 392 1134 390 1134 389 1133 388 1133 387 1132 386 1132 385 1131 384 1131 383 1124 376 1124 375 1120 371 1120 370 1118 368 1118 367 1117 366 1117 365 1116 364 1116 363 1114 361 1114 360 1112 358 1112 357 1111 356 1111 355 1110 354 1110 353 1109 352 1109 351 1108 350 1108 349 1107 348 1107 347 1106 346 1106 345 1105 344 1105 343 1104 342 1104 341 1103 340 1103 338 1102 337 1102 335 1101 334 1101 332 1100 331 1100 329 1099 328 1099 326 1096 323 1096 322 1095 321 1095 320 1093 318 1093 317 1092 316 1092 315 1091 314 1091 312 1090 311 1090 307 1089 306 1089 301 1088 300 1088 297 1087 296 1087 293 1086 292 1086 289 1085 288 1085 285 1084 284 1084 282 1083 281 1083 278 1082 277 1082 276 1081 275 1081 273 1080 272 1080 270 1079 269 1079 268 1078 267 1078 266 1077 265 1077 263 1076 262 1076 260 1075 259 1075 256 1074 255 1074 254 1073 253 1073 252 1072 251 1072 250 1071 249 1071 248 1070 247 1070 246 1069 245 1069 244 1068 244 1066 242 1065 242 1064 241 1063 241 1062 240 1060 240 1059 239 1058 239 1057 238 1055 238 1054 237 1050 237 1049 236 1039 236 1038 235 "/></svg>