<svg width="1920" height="1080" xmlns="http://www.w3.org/2000/svg"><path d="M744 228 738 234 738 235 737 236 737 237 736 238 736 241 735 242 735 244 734 245 734 247 733 248 736 251 736 252 743 259 743 260 744 261 745 261 746 262 750 262 751 263 755 263 756 264 762 264 763 265 769 265 770 266 776 266 777 267 781 267 782 268 785 268 786 269 789 269 790 270 792 270 793 271 798 271 799 272 804 272 805 273 808 273 809 274 810 274 811 275 812 275 813 276 815 276 816 277 818 277 819 278 821 278 822 279 825 279 826 280 837 280 838 281 844 281 845 282 848 282 849 283 852 283 853 284 855 284 856 285 869 285 870 286 875 286 876 287 877 287 878 288 879 288 880 289 881 289 882 290 884 290 885 291 886 291 887 292 889 292 890 293 891 293 892 294 894 294 895 295 896 295 897 296 898 296 899 297 900 297 902 299 903 299 906 302 907 302 908 303 908 304 913 309 913 310 914 311 914 312 915 313 915 314 916 315 916 318 917 319 917 323 918 324 918 327 919 328 919 332 920 333 920 340 921 341 921 344 922 345 922 346 923 347 923 349 924 350 924 351 925 352 925 355 926 356 926 368 927 369 927 378 928 379 928 382 927 383 927 387 926 388 926 391 925 392 925 394 924 395 924 398 923 399 923 401 922 402 922 405 921 406 921 409 920 410 920 413 919 414 919 417 918 418 918 433 919 434 919 438 920 439 920 442 921 443 921 445 922 446 922 448 925 451 925 452 927 454 927 455 928 456 928 457 929 458 929 459 930 460 930 462 931 463 931 465 932 466 932 469 933 470 933 472 934 473 934 474 935 475 935 476 936 477 936 478 938 480 938 481 941 484 941 485 943 487 943 489 944 490 944 491 945 492 945 494 946 495 946 496 947 497 947 499 948 500 948 502 949 503 949 505 950 506 950 508 951 509 951 511 952 512 952 514 953 515 953 518 954 519 954 520 955 521 955 523 956 524 956 525 957 526 957 527 958 528 958 534 959 535 959 540 960 541 960 542 959 543 959 551 958 552 958 555 959 555 961 557 962 557 964 559 965 559 966 560 967 560 968 561 969 561 970 562 971 562 972 561 973 561 975 559 976 559 986 549 987 549 987 548 988 547 988 546 989 545 989 544 990 543 990 542 991 541 991 528 992 527 992 500 991 499 991 492 990 491 990 484 989 483 989 476 988 475 988 470 987 469 987 465 986 464 986 460 987 459 987 458 988 457 988 455 989 454 989 453 990 452 990 449 991 448 991 445 992 444 992 441 993 440 993 438 994 437 994 436 998 432 999 432 1001 430 1002 430 1003 429 1012 429 1013 428 1023 428 1024 429 1030 429 1031 430 1036 430 1037 431 1038 431 1039 432 1040 432 1041 433 1042 433 1043 434 1044 434 1045 435 1046 435 1047 436 1048 436 1049 437 1050 437 1051 438 1052 438 1053 439 1054 439 1055 440 1056 440 1057 441 1058 441 1061 444 1062 444 1068 450 1069 450 1075 456 1075 457 1077 459 1077 460 1078 461 1078 462 1079 463 1079 465 1080 466 1080 468 1081 469 1081 470 1082 471 1082 472 1083 473 1083 474 1084 475 1084 476 1085 477 1085 478 1086 479 1086 480 1087 481 1087 483 1088 484 1088 486 1089 487 1089 489 1090 490 1090 491 1091 492 1091 493 1092 494 1092 496 1093 497 1093 498 1094 499 1094 501 1097 504 1097 505 1098 506 1099 506 1101 508 1102 508 1104 510 1105 510 1107 512 1108 512 1111 515 1112 515 1114 517 1115 517 1116 518 1121 518 1122 519 1129 519 1130 520 1136 520 1137 521 1142 521 1143 522 1153 522 1154 521 1157 521 1158 520 1161 520 1162 519 1172 519 1172 476 1164 476 1163 475 1163 473 1162 472 1162 471 1161 470 1161 468 1160 467 1160 466 1159 465 1159 463 1158 462 1158 460 1157 459 1157 458 1156 457 1156 455 1155 454 1155 452 1154 451 1154 450 1153 449 1153 446 1152 445 1152 440 1151 439 1151 435 1150 434 1150 433 1149 432 1149 431 1147 429 1147 428 1146 427 1146 426 1145 425 1145 424 1144 423 1144 422 1143 421 1143 420 1141 418 1141 417 1140 416 1140 415 1138 413 1138 412 1137 411 1137 410 1136 409 1136 408 1134 406 1134 405 1125 396 1125 395 1123 393 1123 392 1119 388 1119 387 1115 383 1114 383 1113 382 1113 381 1110 378 1110 377 1109 376 1109 375 1107 373 1107 372 1106 371 1106 370 1105 369 1105 368 1104 367 1104 366 1103 365 1103 363 1102 362 1102 361 1101 360 1101 359 1100 358 1100 357 1098 355 1098 350 1097 349 1097 342 1096 341 1096 340 1095 339 1095 338 1093 336 1093 334 1092 333 1092 332 1091 331 1091 330 1090 329 1090 325 1089 324 1089 317 1088 316 1088 312 1087 311 1087 308 1086 307 1086 303 1085 302 1085 299 1084 298 1084 296 1083 295 1083 293 1082 292 1082 291 1081 290 1081 288 1080 287 1080 285 1079 284 1079 282 1078 281 1078 279 1077 278 1077 275 1076 274 1076 272 1075 271 1075 269 1074 268 1074 266 1073 265 1073 263 1072 262 1072 261 1068 257 1067 257 1065 255 1064 255 1063 254 1062 254 1060 252 1059 252 1058 251 1057 251 1055 249 1054 249 1053 248 1051 248 1050 247 1043 247 1042 246 1025 246 1024 247 1016 247 1015 248 1012 248 1011 249 1009 249 1008 250 1005 250 1004 251 1001 251 1000 252 997 252 996 253 992 253 991 254 984 254 983 255 964 255 963 256 951 256 950 257 931 257 930 258 886 258 885 257 867 257 866 256 858 256 857 255 847 255 846 254 839 254 838 253 834 253 833 252 830 252 829 251 827 251 826 250 824 250 823 249 821 249 820 248 819 248 818 247 815 247 814 246 812 246 811 245 808 245 807 244 803 244 802 243 798 243 797 242 793 242 792 241 790 241 789 240 787 240 786 239 785 239 784 238 783 238 782 237 781 237 780 236 779 236 778 235 777 235 776 234 771 234 770 233 765 233 764 232 759 232 758 231 755 231 754 230 751 230 750 229 748 229 747 228 "/></svg>