<svg width="1920" height="1080" xmlns="http://www.w3.org/2000/svg"><path d="M851 118 850 119 849 119 848 120 847 120 846 121 845 121 844 122 843 122 842 123 841 123 840 124 839 124 838 125 838 126 837 127 837 129 836 130 836 132 835 133 835 136 834 137 835 138 835 155 836 156 836 157 837 158 837 159 838 160 838 161 840 163 841 163 850 172 850 173 854 177 855 177 859 181 860 181 870 191 870 192 871 193 871 194 874 197 874 198 876 200 876 201 880 205 880 206 882 208 882 209 884 211 884 212 887 215 888 215 891 218 892 218 895 221 895 222 898 225 898 226 899 227 899 228 900 229 900 230 901 231 901 232 902 233 902 234 911 243 911 244 913 246 913 247 914 248 914 249 915 250 915 251 916 252 916 253 917 254 917 255 919 257 919 258 920 259 920 260 921 261 921 262 922 263 922 264 923 265 923 266 924 267 924 279 925 280 925 291 924 292 924 303 923 304 923 311 922 312 922 317 921 318 921 323 920 324 920 329 919 330 919 334 918 335 918 340 917 341 917 346 916 347 916 353 915 354 915 362 914 363 914 380 913 381 913 396 912 397 912 432 911 433 911 466 910 467 910 476 909 477 909 479 908 480 908 482 907 483 907 484 906 485 906 486 905 487 905 488 904 489 904 490 903 491 903 493 902 494 902 497 901 498 901 500 900 501 900 505 899 506 899 509 898 510 898 514 897 515 897 518 896 519 896 521 895 522 895 524 894 525 894 526 893 527 893 528 892 529 892 530 891 531 891 532 890 533 890 535 889 536 889 538 888 539 888 542 887 543 887 546 886 547 886 551 885 552 885 558 884 559 884 565 883 566 883 570 884 571 884 577 885 578 885 583 886 584 886 586 887 587 887 588 892 593 894 593 895 594 897 594 898 595 902 595 903 596 909 596 910 595 914 595 915 594 918 594 919 593 920 593 921 592 922 592 923 591 924 591 929 586 929 583 930 582 930 579 931 578 931 575 932 574 932 569 933 568 933 562 934 561 934 553 935 552 935 546 936 545 936 541 937 540 937 534 938 533 938 527 939 526 939 521 940 520 940 515 941 514 941 511 942 510 942 508 943 507 943 505 944 504 944 503 945 502 945 501 946 500 946 498 947 497 947 495 948 494 948 492 949 491 949 487 950 486 950 482 951 481 951 476 952 475 952 471 953 470 953 468 954 467 954 465 955 464 955 463 956 462 956 461 957 460 957 459 958 458 958 457 960 455 960 454 962 452 962 451 968 445 969 445 971 443 972 443 973 442 974 442 976 440 977 440 978 439 979 439 981 437 982 437 985 434 987 434 988 433 992 433 993 432 996 432 997 431 1017 431 1018 430 1053 430 1054 431 1057 431 1058 432 1060 432 1061 433 1062 433 1063 434 1065 434 1066 435 1067 435 1069 437 1070 437 1071 438 1072 438 1073 439 1074 439 1075 440 1076 440 1077 441 1078 441 1086 449 1086 450 1089 453 1089 454 1090 455 1090 456 1092 458 1092 459 1095 462 1095 463 1097 465 1097 466 1098 467 1098 468 1100 470 1100 471 1101 472 1101 474 1102 475 1102 476 1103 477 1103 478 1104 479 1104 480 1107 483 1107 484 1110 487 1110 488 1112 490 1112 491 1114 493 1114 494 1116 496 1116 497 1123 504 1123 505 1125 507 1125 508 1127 510 1127 511 1129 513 1129 514 1133 518 1134 518 1135 519 1136 519 1138 521 1139 521 1140 522 1141 522 1142 523 1143 523 1144 524 1146 524 1147 525 1148 525 1149 526 1150 526 1152 528 1153 528 1155 530 1156 530 1157 531 1160 531 1161 530 1164 530 1165 529 1166 529 1167 528 1169 528 1170 527 1171 527 1172 526 1172 525 1173 524 1173 523 1174 522 1174 521 1175 520 1175 519 1176 518 1176 517 1177 516 1177 514 1178 513 1178 510 1177 509 1177 506 1176 505 1176 503 1175 502 1175 500 1174 499 1174 498 1173 497 1173 495 1172 494 1172 493 1171 492 1171 491 1169 489 1169 488 1167 486 1167 485 1166 484 1166 483 1164 481 1164 480 1163 479 1163 478 1162 477 1162 476 1161 475 1161 474 1147 460 1147 459 1145 457 1145 456 1143 454 1143 453 1142 452 1142 451 1141 450 1141 449 1140 448 1140 447 1139 446 1139 445 1138 444 1138 443 1137 442 1137 440 1136 439 1136 437 1135 436 1135 433 1134 432 1134 429 1133 428 1133 426 1132 425 1132 424 1131 423 1131 421 1130 420 1130 419 1129 418 1129 416 1128 415 1128 413 1127 412 1127 409 1126 408 1126 405 1125 404 1125 401 1124 400 1124 397 1123 396 1123 394 1122 393 1122 392 1121 391 1121 390 1120 389 1120 388 1118 386 1118 385 1116 383 1116 382 1114 380 1114 379 1113 378 1113 377 1110 374 1110 373 1107 370 1106 370 1104 368 1103 368 1099 364 1098 364 1096 362 1096 361 1095 361 1092 358 1091 358 1090 357 1088 357 1087 356 1085 356 1084 355 1083 355 1082 354 1080 354 1079 353 1078 353 1077 352 1076 352 1075 351 1074 351 1073 350 1072 350 1070 348 1069 348 1068 347 1067 347 1064 344 1063 344 1055 336 1054 336 1045 327 1045 326 1043 324 1043 319 1042 318 1042 311 1041 310 1041 304 1042 303 1042 302 1043 301 1043 300 1044 299 1044 298 1045 297 1045 296 1046 295 1046 294 1047 293 1047 292 1048 291 1048 290 1050 288 1050 287 1052 285 1052 284 1054 282 1054 281 1060 275 1060 274 1064 270 1065 270 1069 266 1069 265 1078 256 1079 256 1080 255 1081 255 1082 254 1083 254 1085 252 1086 252 1087 251 1088 251 1090 249 1091 249 1095 245 1095 244 1096 243 1096 242 1097 241 1097 239 1098 238 1098 235 1099 234 1099 230 1097 228 1097 227 1091 221 1090 221 1083 214 1082 214 1079 211 1078 211 1077 210 1076 210 1075 209 1074 209 1072 207 1071 207 1070 206 1068 206 1067 205 1066 205 1065 204 1064 204 1063 203 1062 203 1061 202 1060 202 1058 200 1057 200 1055 198 1054 198 1051 195 1047 195 1046 194 1042 194 1041 193 1038 193 1037 192 1035 192 1034 191 1033 191 1032 190 1030 190 1029 189 1027 189 1026 188 1023 188 1022 189 1019 189 1018 190 1015 190 1014 191 1012 191 1011 192 1010 192 1009 193 1007 193 1006 194 1005 194 1004 195 1003 195 1002 196 1000 196 999 197 997 197 996 198 995 198 994 199 991 199 990 200 988 200 987 201 984 201 983 202 978 202 977 203 965 203 964 202 957 202 956 201 952 201 951 200 946 200 945 199 943 199 942 198 940 198 939 197 938 197 937 196 935 196 934 195 933 195 932 194 931 194 929 192 928 192 926 190 925 190 924 189 923 189 921 187 920 187 919 186 917 186 916 185 915 185 913 183 912 183 910 181 909 181 907 179 906 179 905 178 905 177 897 169 896 169 893 166 892 166 891 165 889 165 888 164 887 164 886 163 885 163 884 162 883 162 877 156 877 155 876 154 876 153 875 152 875 150 874 149 874 147 873 146 873 142 872 141 872 137 871 136 871 134 870 133 870 131 869 130 869 128 868 127 868 126 867 125 867 123 866 122 866 121 865 120 865 119 857 119 856 118 "/></svg>