<svg width="1920" height="1080" xmlns="http://www.w3.org/2000/svg"><path d="M1026 258 1025 259 1017 259 1016 260 1011 260 1010 261 1006 261 1005 262 1002 262 1001 263 998 263 997 264 995 264 994 265 992 265 991 266 989 266 988 267 986 267 985 268 983 268 982 269 980 269 979 270 976 270 975 271 973 271 972 272 969 272 968 273 964 273 963 274 959 274 958 275 955 275 954 276 952 276 951 277 949 277 948 278 947 278 946 279 945 279 944 280 943 280 942 281 941 281 940 282 938 282 937 283 935 283 934 284 930 284 929 285 924 285 923 286 917 286 916 287 904 287 903 288 889 288 888 289 869 289 868 288 861 288 860 289 842 289 841 288 791 288 790 289 783 289 782 290 776 290 775 291 768 291 767 292 762 292 761 293 760 293 757 296 756 296 754 298 753 298 752 299 751 299 750 300 749 300 748 301 747 301 746 302 745 302 740 307 740 321 745 326 747 326 748 325 756 325 757 324 769 324 770 323 780 323 781 322 789 322 790 321 796 321 797 320 816 320 817 321 829 321 830 322 867 322 868 321 876 321 877 320 884 320 885 321 888 321 889 322 892 322 893 323 897 323 898 324 900 324 901 325 903 325 904 326 905 326 906 327 907 327 909 329 910 329 912 331 913 331 918 336 918 338 919 339 919 342 920 343 920 346 921 347 921 351 922 352 922 371 921 372 921 377 920 378 920 381 921 382 921 391 922 392 922 395 921 396 921 401 920 402 920 405 919 406 919 409 918 410 918 412 917 413 917 415 916 416 916 418 915 419 915 421 914 422 914 431 913 432 913 452 914 453 914 456 915 457 915 460 916 461 916 463 917 464 917 466 918 467 918 469 919 470 919 473 920 474 920 477 921 478 921 481 922 482 922 484 923 485 923 488 924 489 924 493 925 494 925 498 926 499 926 502 927 503 927 506 928 507 928 510 929 511 929 512 930 513 930 514 931 515 931 516 934 519 934 520 937 523 937 524 938 525 938 527 939 528 939 529 940 530 940 532 941 533 941 535 942 536 942 538 943 539 943 540 944 541 944 543 945 544 945 545 946 546 946 547 948 549 948 550 949 551 949 552 952 555 952 556 954 558 954 559 956 561 956 562 957 563 957 564 958 565 958 567 959 568 959 574 960 575 960 582 961 583 961 591 962 592 962 608 963 609 963 613 964 614 964 617 965 618 965 620 966 621 966 623 968 625 971 625 972 626 975 626 976 627 980 627 981 628 988 628 989 627 992 627 993 626 995 626 996 625 998 625 999 624 1001 624 1002 623 1003 623 1010 616 1010 615 1012 613 1012 612 1013 611 1013 610 1014 609 1013 608 1013 601 1012 600 1012 594 1011 593 1011 590 1010 589 1010 585 1009 584 1009 580 1008 579 1008 576 1007 575 1007 573 1006 572 1006 570 1005 569 1005 567 1003 565 1003 564 997 558 997 557 996 556 996 555 995 554 995 553 994 552 994 548 993 547 993 542 992 541 992 536 991 535 991 533 990 532 990 530 989 529 989 527 988 526 988 524 987 523 987 521 986 520 986 517 985 516 985 514 984 513 984 511 983 510 983 494 984 493 984 490 985 489 985 487 986 486 986 482 987 481 987 479 988 478 988 475 989 474 989 471 990 470 990 467 991 466 991 464 993 462 993 461 994 460 994 459 996 457 996 456 1001 451 1001 450 1003 448 1004 448 1005 447 1006 447 1008 445 1009 445 1010 444 1011 444 1013 442 1014 442 1015 441 1016 441 1017 440 1018 440 1019 439 1028 439 1029 438 1038 438 1039 439 1040 439 1041 440 1042 440 1043 441 1044 441 1046 443 1047 443 1063 459 1063 460 1066 463 1066 464 1067 465 1067 466 1068 467 1068 469 1069 470 1069 471 1070 472 1070 474 1071 475 1071 476 1072 477 1072 478 1073 479 1073 480 1074 481 1074 482 1075 483 1075 485 1076 486 1076 487 1077 488 1077 490 1078 491 1078 493 1079 494 1079 503 1080 504 1080 515 1081 516 1081 529 1082 530 1082 538 1083 539 1083 542 1084 543 1084 547 1085 548 1085 551 1086 552 1086 563 1087 564 1087 568 1088 569 1088 570 1089 571 1089 572 1090 573 1090 575 1091 576 1091 577 1092 578 1092 579 1093 580 1093 581 1094 582 1094 583 1105 594 1107 594 1108 593 1113 593 1114 592 1117 592 1118 591 1121 591 1124 588 1124 587 1125 586 1125 585 1126 584 1126 583 1127 582 1127 581 1128 580 1128 578 1129 577 1129 575 1130 574 1130 572 1131 571 1131 569 1132 568 1132 566 1133 565 1133 564 1134 563 1134 562 1135 561 1135 560 1137 558 1137 557 1139 555 1140 555 1141 554 1146 554 1147 553 1155 553 1156 552 1158 552 1162 548 1162 547 1166 543 1166 542 1168 540 1168 539 1169 538 1169 531 1168 530 1168 521 1167 520 1167 517 1166 516 1166 512 1165 511 1165 507 1164 506 1164 503 1163 502 1163 498 1162 497 1162 494 1161 493 1161 491 1160 490 1160 489 1159 488 1159 487 1158 486 1158 485 1156 483 1156 482 1153 479 1153 478 1152 477 1152 476 1150 474 1150 473 1149 472 1149 470 1148 469 1148 468 1147 467 1147 465 1146 464 1146 463 1145 462 1145 460 1144 459 1144 458 1143 457 1143 456 1142 455 1142 454 1141 453 1141 452 1140 451 1140 450 1138 448 1138 447 1136 445 1136 444 1135 443 1135 442 1134 441 1134 440 1133 439 1133 438 1132 437 1132 435 1131 434 1131 433 1130 432 1130 430 1129 429 1129 427 1128 426 1128 424 1127 423 1127 422 1126 421 1126 420 1125 419 1125 418 1123 416 1123 415 1120 412 1120 411 1118 409 1118 408 1117 407 1117 406 1116 405 1116 403 1115 402 1115 401 1114 400 1114 398 1113 397 1113 395 1112 394 1112 391 1111 390 1111 388 1110 387 1110 386 1109 385 1109 383 1108 382 1108 381 1107 380 1107 378 1106 377 1106 375 1105 374 1105 372 1104 371 1104 370 1103 369 1103 367 1102 366 1102 365 1101 364 1101 363 1100 362 1100 361 1099 360 1099 358 1098 357 1098 356 1097 355 1097 354 1096 353 1096 352 1095 351 1095 349 1094 348 1094 342 1093 341 1093 336 1092 335 1092 334 1091 333 1091 332 1089 330 1089 329 1087 327 1087 326 1085 324 1085 323 1084 322 1084 319 1085 318 1085 313 1086 312 1086 306 1085 305 1085 302 1084 301 1084 299 1083 298 1083 295 1082 294 1082 277 1080 275 1080 274 1079 273 1079 272 1077 270 1077 269 1075 267 1075 266 1073 264 1072 264 1070 262 1068 262 1067 261 1065 261 1064 260 1061 260 1060 259 1057 259 1056 258 "/></svg>