<svg width="1920" height="1080" xmlns="http://www.w3.org/2000/svg"><path d="M832 125 832 140 831 141 831 151 832 152 832 155 833 156 833 160 834 161 834 164 835 165 835 167 836 168 836 170 837 171 837 172 838 173 838 174 839 175 839 176 841 178 841 179 842 180 842 181 844 183 844 184 847 187 848 187 858 197 858 198 863 203 864 203 869 208 870 208 880 218 881 218 883 220 884 220 885 221 886 221 887 222 888 222 889 223 890 223 898 231 898 232 912 246 912 247 913 248 913 249 915 251 915 252 917 254 917 255 921 259 921 260 922 261 922 262 923 263 923 264 924 265 924 272 925 273 925 280 926 281 925 282 925 297 924 298 924 308 923 309 923 319 922 320 922 329 921 330 921 339 920 340 920 347 919 348 919 352 918 353 918 355 917 356 917 359 916 360 916 364 915 365 915 374 914 375 914 383 913 384 913 392 912 393 912 413 911 414 911 447 912 448 912 469 911 470 911 478 910 479 910 491 909 492 909 496 908 497 908 499 907 500 907 501 906 502 906 503 905 504 905 505 903 507 903 508 902 509 902 510 901 511 901 512 900 513 900 514 899 515 899 517 898 518 898 520 897 521 897 523 896 524 896 526 895 527 895 529 894 530 894 534 893 535 893 538 892 539 892 541 891 542 891 544 890 545 890 561 892 563 892 564 894 566 894 567 898 571 898 572 902 576 903 576 904 577 905 576 906 576 907 575 909 575 910 574 912 574 913 573 915 573 916 572 917 572 922 567 922 566 924 564 924 563 925 562 925 561 926 560 926 558 927 557 927 555 928 554 928 553 929 552 929 551 930 550 930 548 931 547 931 546 932 545 932 542 933 541 933 538 934 537 934 533 935 532 935 528 936 527 936 524 937 523 937 521 938 520 938 518 939 517 939 514 940 513 940 511 941 510 941 509 942 508 942 506 943 505 943 504 944 503 944 502 945 501 945 500 946 499 946 497 947 496 947 493 948 492 948 489 949 488 949 484 950 483 950 479 951 478 951 473 952 472 952 468 953 467 953 464 954 463 954 461 955 460 955 459 956 458 956 456 958 454 958 453 959 452 959 451 960 450 960 449 961 448 961 447 962 446 962 445 970 437 971 437 972 436 973 436 974 435 975 435 976 434 978 434 979 433 980 433 981 432 982 432 983 431 999 431 1000 432 1007 432 1008 433 1039 433 1040 432 1051 432 1052 433 1056 433 1057 434 1060 434 1061 435 1064 435 1065 436 1067 436 1068 437 1069 437 1070 438 1072 438 1073 439 1074 439 1075 440 1076 440 1083 447 1083 448 1090 455 1091 455 1097 461 1097 462 1101 466 1101 467 1102 467 1106 471 1107 471 1119 483 1120 483 1123 486 1124 486 1127 489 1128 489 1132 493 1133 493 1139 499 1140 499 1141 500 1142 500 1143 501 1144 501 1145 502 1146 502 1147 503 1148 503 1149 504 1150 504 1152 506 1153 506 1158 511 1160 511 1161 512 1164 512 1165 513 1167 513 1168 514 1172 514 1174 512 1174 511 1175 510 1175 509 1176 508 1176 506 1177 505 1177 503 1178 502 1178 499 1179 498 1179 493 1178 492 1178 490 1177 489 1177 487 1176 486 1176 485 1175 484 1175 482 1174 481 1174 480 1173 479 1173 478 1172 477 1172 476 1168 472 1168 471 1165 468 1165 467 1163 465 1163 464 1162 463 1162 462 1158 458 1157 458 1155 456 1154 456 1143 445 1143 444 1141 442 1141 441 1139 439 1139 438 1138 437 1138 436 1137 435 1137 434 1136 433 1136 432 1135 431 1135 429 1134 428 1134 427 1133 426 1133 425 1132 424 1132 423 1131 422 1131 421 1130 420 1130 419 1129 418 1129 417 1128 416 1128 415 1127 414 1127 412 1126 411 1126 409 1125 408 1125 406 1124 405 1124 403 1123 402 1123 399 1122 398 1122 396 1121 395 1121 394 1120 393 1120 392 1119 391 1119 390 1116 387 1116 386 1114 384 1114 383 1112 381 1112 380 1111 379 1111 378 1109 376 1109 375 1105 371 1104 371 1102 369 1101 369 1092 360 1091 360 1090 359 1089 359 1088 358 1087 358 1086 357 1084 357 1083 356 1082 356 1081 355 1080 355 1079 354 1078 354 1076 352 1075 352 1067 344 1066 344 1064 342 1063 342 1062 341 1061 341 1060 340 1059 340 1057 338 1056 338 1055 337 1054 337 1052 335 1051 335 1046 330 1046 329 1044 327 1044 326 1043 325 1043 324 1042 323 1042 322 1041 321 1041 320 1039 318 1039 317 1038 316 1038 315 1037 314 1037 308 1038 307 1038 298 1039 297 1039 296 1041 294 1041 293 1047 287 1048 287 1051 284 1052 284 1054 282 1055 282 1057 280 1058 280 1061 277 1062 277 1063 276 1064 276 1065 275 1066 275 1067 274 1069 274 1070 273 1072 273 1073 272 1076 272 1077 271 1112 271 1113 270 1117 270 1118 269 1118 268 1119 267 1119 264 1112 257 1112 256 1111 255 1111 254 1110 253 1110 251 1109 250 1109 248 1106 245 1106 244 1104 242 1103 242 1094 233 1094 232 1093 231 1092 231 1090 229 1089 229 1088 228 1087 228 1086 227 1085 227 1084 226 1083 226 1082 225 1081 225 1080 224 1079 224 1077 222 1076 222 1074 220 1073 220 1063 210 1062 210 1060 208 1059 208 1058 207 1057 207 1055 205 1054 205 1053 204 1052 204 1051 203 1048 203 1047 202 1042 202 1041 201 1030 201 1029 202 1023 202 1022 203 1018 203 1017 204 1013 204 1012 205 1008 205 1007 206 1003 206 1002 207 997 207 996 208 985 208 984 209 983 209 982 208 979 208 978 209 977 208 960 208 959 207 952 207 951 206 945 206 944 205 942 205 941 204 939 204 938 203 937 203 936 202 935 202 934 201 933 201 932 200 931 200 928 197 927 197 925 195 924 195 923 194 922 194 921 193 920 193 919 192 917 192 916 191 914 191 913 190 912 190 910 188 909 188 908 187 907 187 900 180 900 179 897 176 897 175 896 174 896 173 894 171 894 170 893 169 893 168 892 167 892 165 890 163 890 162 885 157 885 156 883 154 883 153 881 151 881 150 880 149 880 148 878 146 878 145 875 142 875 141 873 139 873 138 872 137 872 136 871 135 871 134 870 133 870 125 "/></svg>