<svg width="1920" height="1080" xmlns="http://www.w3.org/2000/svg"><path d="M829 199 827 201 826 201 824 203 824 204 823 205 823 207 822 208 822 211 821 212 825 216 825 217 826 218 826 219 828 221 828 222 829 223 829 224 832 227 832 228 839 235 839 236 843 240 844 240 845 241 846 241 847 242 848 242 849 243 851 243 852 244 854 244 855 245 856 245 857 246 859 246 860 247 861 247 863 249 864 249 867 252 868 252 869 253 870 253 871 254 872 254 873 255 874 255 875 256 878 256 879 257 882 257 883 258 886 258 887 259 889 259 890 260 891 260 902 271 903 271 908 276 908 277 910 279 910 280 913 283 913 284 919 290 919 291 920 292 920 295 921 296 921 298 922 299 922 302 923 303 923 307 924 308 924 313 925 314 925 326 926 327 926 352 927 353 927 356 926 357 926 366 925 367 925 383 924 384 924 387 923 388 923 391 922 392 922 400 921 401 921 409 920 410 920 416 919 417 919 420 920 421 920 423 921 424 921 427 922 428 922 431 923 432 923 435 924 436 924 438 925 439 925 442 926 443 926 446 927 447 927 451 928 452 928 456 929 457 929 462 930 463 930 467 931 468 931 482 930 483 930 492 929 493 929 516 930 517 930 523 932 525 932 526 933 526 934 527 935 527 937 529 938 529 939 530 940 530 941 531 942 531 943 532 944 532 945 533 946 533 947 532 948 532 950 530 951 530 962 519 962 518 963 517 963 516 964 515 964 514 965 513 965 511 966 510 966 504 967 503 967 496 968 495 968 489 969 488 969 481 970 480 970 471 971 470 971 465 972 464 972 459 973 458 973 455 974 454 974 452 975 451 975 448 976 447 976 443 977 442 977 437 978 436 978 432 979 431 979 429 980 428 980 426 981 425 981 424 982 423 982 421 983 420 983 419 984 418 984 416 985 415 985 413 986 412 986 411 987 410 987 408 989 406 990 406 991 407 995 407 996 408 1000 408 1001 409 1003 409 1013 419 1014 419 1015 420 1017 420 1018 421 1019 421 1020 422 1022 422 1023 423 1025 423 1026 424 1028 424 1029 425 1032 425 1033 426 1036 426 1037 427 1039 427 1040 428 1042 428 1043 429 1045 429 1047 431 1048 431 1049 432 1050 432 1052 434 1053 434 1054 435 1055 435 1057 437 1058 437 1059 438 1060 438 1063 441 1064 441 1068 445 1069 445 1071 447 1072 447 1073 448 1074 448 1075 449 1076 449 1077 450 1078 450 1079 451 1080 451 1083 454 1084 454 1087 457 1088 457 1090 459 1091 459 1093 461 1094 461 1096 463 1097 463 1098 464 1099 464 1100 465 1101 465 1102 466 1103 466 1105 468 1106 468 1110 472 1111 472 1113 474 1114 474 1115 475 1116 475 1117 476 1119 476 1120 477 1121 477 1122 478 1123 478 1124 479 1126 479 1127 480 1128 480 1130 482 1131 482 1132 483 1133 483 1134 484 1136 484 1137 485 1138 485 1139 486 1141 486 1142 487 1150 487 1151 486 1155 486 1156 485 1158 485 1160 483 1160 480 1161 479 1161 474 1162 473 1162 471 1161 470 1161 469 1160 468 1160 467 1159 466 1159 465 1156 462 1156 461 1155 460 1155 459 1154 458 1154 457 1153 456 1153 455 1152 454 1152 453 1150 451 1150 450 1146 446 1146 445 1142 441 1142 440 1128 426 1127 426 1124 423 1123 423 1121 421 1120 421 1118 419 1118 418 1117 417 1117 416 1116 415 1116 413 1115 412 1115 410 1114 409 1114 407 1113 406 1113 405 1112 404 1112 402 1111 401 1111 400 1110 399 1110 397 1109 396 1109 395 1108 394 1108 390 1107 389 1107 385 1106 384 1106 383 1105 382 1105 374 1106 373 1106 370 1107 369 1107 366 1108 365 1108 363 1109 362 1109 360 1110 359 1111 359 1111 358 1114 355 1115 355 1115 354 1116 353 1116 351 1117 350 1117 339 1116 338 1116 337 1113 334 1113 333 1112 332 1112 330 1111 329 1111 328 1107 324 1107 323 1105 321 1105 319 1104 318 1104 317 1103 316 1103 315 1102 314 1102 313 1101 312 1101 310 1100 309 1100 308 1099 307 1099 305 1098 304 1098 302 1097 301 1097 299 1096 298 1096 295 1095 294 1095 289 1094 288 1094 287 1093 286 1093 285 1092 284 1092 283 1091 282 1091 280 1090 279 1090 278 1089 277 1089 275 1088 274 1088 272 1087 271 1087 268 1086 267 1086 264 1085 263 1085 262 1083 260 1083 259 1082 258 1082 257 1081 256 1081 255 1080 254 1080 253 1079 252 1079 250 1078 249 1078 248 1077 247 1077 246 1076 245 1076 244 1074 242 1074 241 1071 238 1070 238 1067 235 1066 235 1063 232 1062 232 1060 230 1058 230 1057 229 1056 229 1055 228 1053 228 1052 227 1051 227 1050 226 1049 226 1048 225 1046 225 1045 224 1030 224 1029 225 1025 225 1024 226 1022 226 1021 227 1018 227 1017 228 1015 228 1014 229 1013 229 1012 230 1010 230 1009 231 1007 231 1006 232 1004 232 1003 233 1001 233 1000 234 999 234 998 235 997 235 996 236 995 236 994 237 993 237 992 238 991 238 990 239 983 239 982 240 967 240 966 239 955 239 954 238 947 238 946 237 941 237 940 236 934 236 933 235 929 235 928 234 923 234 922 233 915 233 914 232 908 232 907 231 902 231 901 230 898 230 897 229 894 229 893 228 891 228 890 227 889 227 888 226 887 226 886 225 885 225 883 223 882 223 881 222 880 222 879 221 878 221 876 219 875 219 874 218 873 218 864 209 863 209 861 207 857 207 856 206 852 206 851 205 848 205 847 204 844 204 843 203 840 203 839 202 838 202 837 201 836 201 835 200 834 200 833 199 "/></svg>