<svg width="1920" height="1080" xmlns="http://www.w3.org/2000/svg"><path d="M1036 245 1035 246 1030 246 1029 247 1025 247 1024 248 1021 248 1020 249 1018 249 1017 250 1016 250 1015 251 1013 251 1012 252 1010 252 1009 253 1007 253 1006 254 1003 254 1002 255 998 255 997 256 993 256 992 257 987 257 986 258 982 258 981 259 977 259 976 260 969 260 968 261 957 261 956 262 953 262 952 263 949 263 948 264 946 264 945 265 943 265 942 266 937 266 936 267 929 267 928 268 920 268 919 269 910 269 909 270 879 270 878 269 854 269 853 268 850 268 849 267 846 267 845 266 843 266 842 265 839 265 838 264 832 264 831 263 824 263 823 262 811 262 810 261 805 261 804 262 803 261 802 262 790 262 789 261 760 261 759 262 755 262 754 263 750 263 749 264 751 264 752 265 755 265 756 266 758 266 759 267 763 267 764 268 768 268 769 269 773 269 774 270 780 270 781 271 789 271 790 272 793 272 798 277 801 277 802 278 805 278 806 279 811 279 812 280 820 280 821 281 827 281 828 282 835 282 836 283 841 283 842 284 854 284 855 285 859 285 860 286 861 286 863 288 864 288 866 290 867 290 868 291 869 291 870 292 871 292 872 293 873 293 874 294 878 294 879 295 886 295 887 296 892 296 893 297 894 297 895 298 896 298 897 299 898 299 901 302 902 302 911 311 911 312 914 315 914 316 915 317 915 318 916 319 916 321 917 322 917 324 918 325 918 327 919 328 919 330 920 331 920 335 919 336 919 348 920 349 920 365 919 366 919 380 918 381 918 398 917 399 917 411 916 412 917 413 917 433 918 434 918 442 919 443 919 446 920 447 920 450 921 451 921 454 922 455 922 457 923 458 923 459 924 460 924 461 925 462 925 464 927 466 927 467 928 468 928 469 929 470 929 471 930 472 930 474 931 475 931 477 932 478 932 480 933 481 933 484 934 485 934 487 935 488 935 490 936 491 936 493 938 495 938 496 944 502 944 503 946 505 946 506 947 507 947 508 948 509 948 510 949 511 949 513 950 514 950 515 951 516 951 518 952 519 952 521 953 522 953 523 954 524 954 525 955 526 955 527 957 529 957 530 960 533 960 535 961 536 961 537 962 538 962 540 963 541 963 543 964 544 964 547 965 548 965 559 966 560 966 567 967 568 967 573 973 579 974 579 975 580 991 580 993 578 994 578 998 574 998 573 999 572 999 566 1000 565 1000 543 999 542 999 536 998 535 998 528 997 527 997 519 996 518 996 515 995 514 995 512 994 511 994 508 993 507 993 505 992 504 992 502 991 501 991 499 990 498 990 496 989 495 989 494 988 493 988 482 987 481 987 477 988 476 988 465 989 464 989 459 990 458 990 454 991 453 991 452 992 451 992 450 998 444 998 443 1006 435 1007 435 1008 434 1011 434 1012 433 1017 433 1018 432 1027 432 1028 433 1031 433 1032 434 1034 434 1035 435 1038 435 1039 436 1040 436 1041 437 1042 437 1044 439 1045 439 1047 441 1048 441 1049 442 1050 442 1051 443 1052 443 1054 445 1055 445 1056 446 1057 446 1059 448 1060 448 1064 452 1064 453 1065 454 1065 456 1066 457 1066 459 1067 460 1067 462 1068 463 1068 465 1069 466 1069 467 1070 468 1070 469 1071 470 1071 472 1072 473 1072 474 1074 476 1074 477 1075 478 1075 479 1076 480 1076 481 1077 482 1077 484 1078 485 1078 487 1079 488 1079 491 1080 492 1080 495 1081 496 1081 501 1082 502 1082 506 1083 507 1083 512 1084 513 1084 517 1085 518 1085 521 1087 523 1087 524 1088 525 1088 526 1090 528 1090 529 1091 530 1092 530 1096 534 1097 534 1098 535 1099 535 1101 537 1102 537 1104 539 1105 539 1106 540 1115 540 1116 541 1146 541 1147 542 1162 542 1163 541 1170 541 1171 540 1173 540 1177 536 1177 535 1178 534 1178 532 1179 531 1179 518 1178 517 1178 515 1177 514 1177 512 1176 511 1176 509 1175 508 1175 507 1174 506 1174 505 1173 504 1173 503 1172 502 1172 501 1169 498 1169 497 1168 496 1168 495 1167 494 1167 493 1166 492 1166 490 1165 489 1165 487 1164 486 1164 484 1163 483 1163 480 1162 479 1162 476 1161 475 1161 473 1160 472 1160 469 1159 468 1159 466 1158 465 1158 462 1157 461 1157 458 1156 457 1156 454 1155 453 1155 452 1154 451 1154 450 1152 448 1152 447 1151 446 1151 445 1150 444 1150 443 1149 442 1149 440 1148 439 1148 438 1147 437 1147 436 1146 435 1146 434 1145 433 1145 432 1144 431 1144 430 1142 428 1142 427 1141 426 1141 425 1135 419 1135 418 1132 415 1132 414 1131 413 1131 412 1129 410 1129 409 1126 406 1126 405 1118 397 1118 396 1117 395 1117 394 1115 392 1115 391 1114 390 1114 389 1113 388 1113 387 1112 386 1112 385 1111 384 1111 383 1110 382 1110 381 1109 380 1109 379 1108 378 1108 377 1107 376 1107 375 1105 373 1105 372 1104 371 1104 370 1103 369 1103 366 1102 365 1102 363 1101 362 1101 360 1100 359 1100 357 1099 356 1099 354 1098 353 1098 351 1097 350 1097 349 1096 348 1096 346 1095 345 1095 341 1094 340 1094 332 1093 331 1093 330 1092 329 1092 328 1090 326 1090 325 1087 322 1087 321 1086 320 1086 319 1085 318 1085 313 1084 312 1084 303 1083 302 1083 297 1082 296 1082 284 1081 283 1081 275 1080 274 1080 272 1079 271 1079 269 1078 268 1078 267 1077 266 1077 265 1076 264 1076 263 1065 252 1064 252 1061 249 1060 249 1059 248 1058 248 1057 247 1053 247 1052 246 1046 246 1045 245 "/></svg>