<svg width="1920" height="1080" xmlns="http://www.w3.org/2000/svg"><path d="M1036 254 1035 255 1031 255 1030 256 1026 256 1025 257 1022 257 1021 258 1019 258 1018 259 1017 259 1016 260 1014 260 1013 261 1012 261 1011 262 1009 262 1008 263 1007 263 1006 264 1004 264 1003 265 1000 265 999 266 997 266 996 267 992 267 991 268 987 268 986 269 981 269 980 270 976 270 975 271 967 271 966 272 955 272 954 273 950 273 949 274 946 274 945 275 942 275 941 276 939 276 938 277 936 277 935 278 932 278 931 279 928 279 927 280 923 280 922 281 916 281 915 282 909 282 908 283 898 283 897 284 877 284 876 283 867 283 866 284 849 284 848 283 842 283 841 282 829 282 828 281 827 282 826 281 820 281 819 280 817 280 816 279 813 279 812 278 811 278 810 277 808 277 807 276 776 276 775 275 752 275 751 276 750 276 749 277 748 277 746 279 745 279 742 282 741 282 739 284 731 284 731 295 741 295 742 296 745 296 746 297 749 297 750 298 754 298 755 299 756 298 757 298 758 297 760 297 761 296 762 296 763 295 765 295 766 294 768 294 769 293 771 293 772 292 793 292 794 293 820 293 821 294 827 294 828 295 834 295 835 296 840 296 841 297 853 297 854 298 857 298 859 300 860 300 864 304 866 304 867 305 868 305 869 306 871 306 872 307 881 307 882 308 890 308 891 309 894 309 895 310 897 310 898 311 900 311 901 312 902 312 903 313 905 313 906 314 907 314 910 317 911 317 912 318 912 319 915 322 915 323 917 325 917 326 919 328 919 329 920 330 920 331 921 332 921 333 922 334 922 336 923 337 923 339 924 340 924 343 925 344 925 348 924 349 924 353 923 354 923 357 922 358 922 375 921 376 921 377 920 378 920 380 919 381 919 384 918 385 918 388 917 389 917 396 916 397 916 406 915 407 915 419 914 420 914 439 915 440 915 456 916 457 916 461 917 462 917 466 918 467 918 470 919 471 919 473 920 474 920 475 921 476 921 477 922 478 922 479 923 480 923 481 924 482 924 483 925 484 925 485 926 486 926 487 927 488 927 490 928 491 928 492 929 493 929 495 930 496 930 499 931 500 931 502 932 503 932 506 933 507 933 508 934 509 934 511 935 512 935 513 945 523 945 524 947 526 947 527 948 528 948 529 949 530 949 532 950 533 950 534 951 535 951 536 953 538 953 539 954 540 954 541 956 543 956 544 957 545 957 546 959 548 959 549 960 550 960 551 961 552 961 554 962 555 962 559 963 560 963 564 964 565 964 583 965 584 965 589 966 590 966 595 967 596 967 597 968 598 969 598 971 600 972 600 973 601 978 601 979 602 986 602 987 603 990 603 991 602 993 602 994 601 996 601 997 600 998 600 999 599 1001 599 1002 598 1003 598 1004 597 1005 597 1006 596 1006 595 1008 593 1008 592 1009 591 1009 589 1010 588 1010 587 1011 586 1011 571 1010 570 1010 567 1009 566 1009 564 1008 563 1008 561 1007 560 1007 558 1006 557 1006 556 1005 555 1005 554 1004 553 1004 552 1003 551 1003 550 1002 549 1002 548 1001 547 1001 545 1000 544 1000 542 999 541 999 539 998 538 998 536 997 535 997 533 996 532 996 528 995 527 995 524 994 523 994 521 993 520 993 518 992 517 992 515 991 514 991 512 990 511 990 510 989 509 989 508 988 507 988 506 987 505 987 504 986 503 986 501 985 500 985 493 984 492 984 482 985 481 985 472 986 471 986 470 987 469 987 468 988 467 988 466 990 464 990 463 991 462 991 461 992 460 992 459 993 458 993 457 994 456 994 455 995 454 995 453 996 452 996 451 997 450 997 449 998 448 998 447 999 446 999 445 1006 438 1008 438 1009 437 1011 437 1012 436 1013 436 1014 435 1016 435 1017 434 1019 434 1020 433 1021 433 1022 432 1026 432 1027 433 1039 433 1040 434 1041 434 1043 436 1044 436 1047 439 1048 439 1053 444 1053 445 1058 450 1058 451 1060 453 1060 454 1061 455 1061 456 1062 457 1062 458 1063 459 1063 460 1065 462 1065 463 1066 464 1066 465 1067 466 1067 467 1068 468 1068 469 1069 470 1069 471 1070 472 1070 474 1071 475 1071 477 1072 478 1072 479 1073 480 1073 481 1074 482 1074 483 1075 484 1075 487 1076 488 1076 490 1077 491 1077 494 1078 495 1078 514 1079 515 1079 532 1080 533 1080 542 1081 543 1081 545 1082 546 1082 548 1083 549 1083 550 1084 551 1084 552 1085 553 1085 554 1086 555 1086 556 1090 560 1092 560 1093 561 1095 561 1096 562 1097 562 1098 563 1100 563 1101 564 1102 564 1103 565 1105 565 1106 566 1107 565 1110 565 1111 564 1114 564 1115 563 1118 563 1119 562 1121 562 1122 561 1123 561 1124 560 1126 560 1127 559 1129 559 1130 558 1132 558 1133 557 1135 557 1136 556 1138 556 1139 555 1140 556 1150 556 1151 557 1152 556 1153 557 1156 557 1157 556 1158 556 1159 555 1160 555 1162 553 1163 553 1167 549 1168 549 1170 547 1171 547 1173 545 1173 544 1175 542 1175 526 1174 525 1174 523 1173 522 1173 520 1172 519 1172 518 1171 517 1171 515 1170 514 1170 513 1168 511 1168 510 1167 509 1167 508 1166 507 1166 506 1165 505 1165 503 1164 502 1164 499 1163 498 1163 495 1162 494 1162 492 1161 491 1161 488 1160 487 1160 484 1159 483 1159 479 1158 478 1158 476 1157 475 1157 472 1156 471 1156 470 1154 468 1154 467 1152 465 1152 464 1151 463 1151 462 1150 461 1150 459 1149 458 1149 457 1148 456 1148 454 1147 453 1147 452 1146 451 1146 449 1145 448 1145 446 1144 445 1144 444 1143 443 1143 442 1142 441 1142 440 1140 438 1140 437 1135 432 1135 431 1134 430 1134 429 1133 428 1133 427 1131 425 1131 424 1130 423 1130 422 1129 421 1129 419 1128 418 1128 417 1127 416 1127 415 1125 413 1125 412 1122 409 1122 408 1118 404 1118 403 1117 402 1117 401 1116 400 1116 399 1115 398 1115 396 1114 395 1114 393 1113 392 1113 390 1112 389 1112 387 1111 386 1111 384 1110 383 1110 380 1109 379 1109 377 1108 376 1108 374 1107 373 1107 370 1106 369 1106 365 1105 364 1105 362 1104 361 1104 358 1103 357 1103 351 1102 350 1102 345 1101 344 1101 343 1100 342 1100 341 1099 340 1099 339 1098 338 1098 337 1097 336 1097 335 1096 334 1096 333 1095 332 1095 330 1094 329 1094 324 1093 323 1093 318 1092 317 1092 316 1091 315 1091 314 1090 313 1090 312 1088 310 1088 309 1087 308 1087 307 1086 306 1086 304 1085 303 1085 290 1084 289 1084 288 1083 287 1083 285 1082 284 1082 282 1081 281 1081 279 1080 278 1080 277 1079 276 1079 275 1078 274 1078 273 1077 272 1077 271 1076 270 1076 269 1074 267 1074 266 1072 264 1072 263 1071 263 1069 261 1068 261 1067 260 1066 260 1064 258 1063 258 1062 257 1060 257 1059 256 1058 256 1057 255 1052 255 1051 254 "/></svg>