<svg width="1920" height="1080" xmlns="http://www.w3.org/2000/svg"><path d="M1046 262 1045 263 1034 263 1033 264 1027 264 1026 265 1021 265 1020 266 1017 266 1016 267 1014 267 1013 268 1011 268 1010 269 1008 269 1007 270 1006 270 1005 271 1004 271 1003 272 1002 272 1001 273 1000 273 999 274 997 274 996 275 995 275 994 276 993 276 992 277 989 277 988 276 983 276 982 275 978 275 977 274 974 274 973 275 968 275 967 276 961 276 960 277 956 277 955 278 951 278 950 279 946 279 945 280 943 280 942 281 941 281 940 282 939 282 938 283 937 283 936 284 935 284 933 286 932 286 931 287 930 287 929 288 928 288 927 289 926 289 925 290 923 290 922 291 919 291 918 292 916 292 915 293 911 293 910 294 904 294 903 295 899 295 898 296 893 296 892 297 889 297 888 298 885 298 884 299 881 299 880 300 877 300 876 301 872 301 871 302 868 302 867 303 863 303 862 304 859 304 858 305 855 305 854 306 850 306 849 307 838 307 837 308 831 308 830 309 826 309 825 310 822 310 821 311 818 311 817 312 813 312 812 313 808 313 807 314 804 314 803 315 801 315 800 316 798 316 797 317 796 317 795 318 793 318 792 319 790 319 789 320 787 320 786 321 780 321 779 322 773 322 772 323 768 323 767 324 766 324 765 325 764 325 763 326 762 326 761 327 760 327 759 328 758 328 757 329 756 329 754 331 754 332 753 333 753 334 752 335 752 336 751 337 751 338 750 339 750 340 749 341 749 342 748 343 748 344 747 345 747 346 748 347 748 348 749 349 749 350 750 351 750 352 752 354 752 355 754 357 754 358 760 352 761 352 763 350 764 350 765 349 766 349 767 348 769 348 770 347 777 347 778 346 786 346 787 345 788 345 789 344 790 344 791 343 792 343 793 342 795 342 796 341 798 341 799 340 812 340 813 339 828 339 829 338 843 338 844 337 857 337 858 336 867 336 868 335 875 335 876 334 883 334 884 333 891 333 892 332 899 332 900 333 904 333 905 334 908 334 909 335 912 335 916 339 916 340 918 342 918 343 919 344 919 345 920 346 920 355 921 356 921 374 920 375 920 417 919 418 919 432 918 433 918 440 919 441 919 454 920 455 920 468 921 469 921 474 922 475 922 479 923 480 923 484 924 485 924 488 925 489 925 492 926 493 926 495 927 496 927 498 928 499 928 500 929 501 929 502 930 503 930 505 931 506 931 508 932 509 932 512 933 513 933 516 934 517 934 522 935 523 935 527 936 528 936 532 937 533 937 537 938 538 938 541 939 542 939 545 940 546 940 549 941 550 941 552 942 553 942 555 943 556 943 558 944 559 944 560 946 562 946 563 947 564 947 566 948 567 948 568 949 569 949 572 950 573 950 576 951 577 951 582 952 583 952 587 953 588 953 598 954 599 954 623 953 624 953 629 952 630 952 634 951 635 951 637 950 638 950 639 949 640 949 641 948 642 948 643 947 644 947 645 945 647 945 648 944 649 944 652 946 654 946 655 952 661 953 661 954 662 955 662 956 663 957 663 958 664 959 664 960 665 960 672 960 665 961 664 975 664 978 661 979 661 981 659 982 659 984 657 985 657 987 655 988 655 990 653 991 653 994 650 994 649 995 648 995 647 996 646 996 645 997 644 997 643 998 642 998 640 999 639 999 637 1000 636 1000 604 999 603 999 590 998 589 998 584 997 583 997 578 996 577 996 573 995 572 995 570 994 569 994 566 993 565 993 563 992 562 992 560 991 559 991 558 990 557 990 556 989 555 989 554 988 553 988 552 987 551 987 550 986 549 986 547 985 546 985 542 984 541 984 529 983 528 983 515 982 514 982 512 983 511 983 500 984 499 984 492 985 491 985 484 986 483 986 481 987 480 987 479 994 472 995 472 1000 467 1001 467 1005 463 1006 463 1007 462 1009 462 1010 461 1014 461 1015 460 1019 460 1020 459 1024 459 1025 460 1028 460 1029 461 1032 461 1033 462 1035 462 1036 463 1037 463 1039 465 1040 465 1041 466 1041 467 1048 474 1048 475 1050 477 1050 478 1052 480 1052 481 1054 483 1054 484 1056 486 1056 487 1057 488 1057 489 1058 490 1058 491 1059 492 1059 493 1060 494 1060 495 1061 496 1061 498 1062 499 1062 500 1063 501 1063 502 1064 503 1064 504 1065 505 1065 506 1066 507 1066 509 1067 510 1067 511 1068 512 1068 514 1069 515 1069 517 1070 518 1070 520 1072 522 1072 523 1073 524 1073 525 1074 526 1074 527 1075 528 1075 529 1076 530 1076 531 1077 532 1077 534 1078 535 1078 537 1079 538 1079 541 1080 542 1080 546 1081 547 1081 551 1082 552 1082 557 1083 558 1083 561 1084 562 1084 566 1085 567 1085 570 1086 571 1086 573 1087 574 1087 576 1088 577 1088 578 1089 579 1089 581 1090 582 1090 585 1091 586 1091 589 1092 590 1092 591 1093 592 1093 594 1094 595 1094 597 1095 598 1095 599 1096 600 1096 602 1097 603 1097 604 1099 606 1099 607 1102 610 1103 610 1104 611 1105 611 1107 613 1108 613 1110 615 1111 615 1117 621 1120 621 1121 620 1123 620 1124 619 1126 619 1129 616 1129 615 1131 613 1131 610 1132 609 1132 605 1133 604 1133 603 1132 602 1132 591 1131 590 1131 567 1132 566 1132 559 1137 554 1138 554 1139 553 1140 553 1141 552 1142 552 1143 551 1144 551 1145 550 1148 550 1150 548 1150 547 1152 545 1152 544 1153 543 1153 534 1154 533 1154 526 1153 525 1153 520 1152 519 1152 516 1151 515 1151 512 1150 511 1150 510 1149 509 1149 508 1141 500 1141 499 1138 496 1138 495 1137 494 1137 493 1136 492 1136 491 1135 490 1135 489 1134 488 1134 486 1133 485 1133 483 1126 476 1126 475 1124 473 1124 472 1122 470 1122 469 1121 468 1121 467 1120 466 1120 464 1119 463 1119 460 1118 459 1118 456 1117 455 1117 452 1116 451 1116 450 1113 447 1113 446 1112 445 1112 444 1111 443 1111 442 1110 441 1110 440 1109 439 1109 438 1108 437 1108 436 1107 435 1107 434 1106 433 1106 431 1105 430 1105 428 1104 427 1104 426 1103 425 1103 423 1102 422 1102 420 1100 418 1100 417 1098 415 1098 414 1097 413 1097 412 1096 411 1096 410 1095 409 1095 408 1094 407 1094 401 1093 400 1093 393 1092 392 1092 386 1091 385 1091 380 1090 379 1090 375 1089 374 1089 371 1088 370 1088 366 1087 365 1087 355 1086 354 1086 333 1087 332 1087 327 1086 326 1086 311 1085 310 1085 307 1084 306 1084 302 1083 301 1083 295 1082 294 1082 289 1081 288 1081 284 1080 283 1080 282 1079 281 1079 280 1078 279 1078 277 1077 276 1077 275 1076 274 1076 273 1075 272 1075 270 1071 266 1070 266 1069 265 1066 265 1065 264 1062 264 1061 263 1057 263 1056 262 "/></svg>