<svg width="1920" height="1080" xmlns="http://www.w3.org/2000/svg"><path d="M1037 306 1036 307 1028 307 1027 308 1023 308 1022 309 1020 309 1019 310 1016 310 1015 311 1014 311 1012 313 1011 313 1009 315 1008 315 1006 317 1005 317 1004 318 1003 318 1002 319 1001 319 998 322 997 322 990 329 989 329 987 331 986 331 985 332 984 332 983 333 982 333 981 334 980 334 979 335 978 335 977 336 976 336 975 337 974 337 973 338 972 338 971 339 970 339 969 340 968 340 966 342 965 342 963 344 962 344 959 347 958 347 957 348 956 348 955 349 954 349 953 350 952 350 951 351 949 351 948 352 946 352 945 353 943 353 942 354 939 354 938 355 937 355 936 356 935 356 933 358 932 358 930 360 929 360 924 365 923 365 922 366 921 366 919 368 918 368 917 369 916 369 915 370 914 370 913 371 912 371 911 372 910 372 909 373 908 373 907 374 906 374 904 376 903 376 891 388 890 388 888 390 887 390 884 393 883 393 875 401 874 401 871 404 870 404 863 411 863 412 858 417 858 418 854 422 853 422 847 428 847 429 846 430 846 431 845 432 845 434 844 435 844 436 843 437 843 439 842 440 842 441 841 442 841 444 840 445 840 447 839 448 839 449 838 450 838 451 837 452 837 453 836 454 836 455 835 456 835 457 834 458 834 460 833 461 833 472 834 473 834 480 837 483 840 483 841 484 844 484 845 485 849 485 850 484 851 484 854 481 855 481 856 480 856 479 863 472 863 471 866 468 866 467 868 465 868 464 869 463 869 462 870 461 870 460 871 459 871 458 872 457 872 456 874 454 874 453 879 448 879 447 887 439 888 439 889 438 890 438 891 437 893 437 894 436 895 436 896 435 898 435 899 434 902 434 903 433 908 433 909 432 914 432 917 435 918 435 925 442 925 443 927 445 927 446 928 447 928 449 929 450 929 453 930 454 930 456 931 457 931 461 932 462 932 468 933 469 933 477 934 478 934 481 933 482 933 489 932 490 932 497 931 498 931 508 930 509 930 533 931 534 931 546 932 547 932 555 933 556 933 563 934 564 934 572 935 573 935 580 936 581 936 592 937 593 937 601 938 602 938 607 939 608 939 612 940 613 940 621 941 622 941 631 942 632 942 668 941 669 941 673 940 674 940 677 939 678 939 680 938 681 938 683 937 684 937 686 936 687 936 689 935 690 935 691 934 692 934 694 933 695 933 696 932 697 932 698 931 699 931 701 930 702 930 705 929 706 929 709 928 710 928 712 927 713 927 715 926 716 926 717 929 720 929 721 930 722 931 722 933 724 934 724 935 725 936 725 937 726 938 726 939 727 940 726 955 726 956 725 959 725 960 724 964 724 966 722 967 722 971 718 971 717 972 716 972 715 973 714 973 713 974 712 974 711 975 710 975 709 976 708 976 707 977 706 977 705 978 704 978 703 979 702 979 700 980 699 980 697 981 696 981 692 982 691 982 687 983 686 983 675 984 674 984 639 985 638 985 614 986 613 986 607 987 606 987 601 988 600 988 594 989 593 989 586 990 585 990 581 991 580 991 578 992 577 992 575 993 574 993 572 994 571 994 569 995 568 995 566 996 565 996 563 997 562 997 559 998 558 998 557 999 556 999 554 1000 553 1000 551 1001 550 1001 549 1002 548 1002 546 1003 545 1011 545 1012 546 1016 546 1018 548 1018 549 1031 562 1031 563 1032 564 1032 565 1033 566 1033 567 1034 568 1034 570 1035 571 1035 572 1036 573 1036 574 1037 575 1037 577 1038 578 1038 579 1039 580 1039 581 1040 582 1040 584 1041 585 1041 586 1043 588 1043 589 1044 590 1044 591 1045 592 1045 594 1046 595 1046 597 1047 598 1047 601 1048 602 1048 605 1049 606 1049 608 1050 609 1050 611 1051 612 1051 614 1052 615 1052 617 1053 618 1053 620 1054 621 1054 622 1055 623 1055 624 1056 625 1056 626 1057 627 1057 628 1058 629 1058 631 1059 632 1059 635 1060 636 1060 639 1061 640 1061 643 1062 644 1062 647 1063 648 1063 652 1064 653 1064 656 1065 657 1065 660 1066 661 1066 663 1067 664 1067 666 1068 667 1068 669 1069 670 1069 672 1070 673 1070 676 1071 677 1071 680 1072 681 1072 685 1073 686 1073 690 1074 691 1074 696 1075 697 1075 703 1076 704 1076 712 1077 713 1077 717 1078 718 1078 720 1079 721 1079 722 1080 723 1080 724 1089 733 1090 733 1092 735 1107 735 1108 734 1109 734 1110 733 1111 733 1114 730 1115 730 1117 728 1118 728 1121 725 1121 724 1123 722 1123 721 1124 720 1124 719 1125 718 1125 712 1124 711 1124 707 1123 706 1123 702 1122 701 1122 698 1120 696 1120 695 1119 694 1119 693 1117 691 1117 690 1116 689 1116 688 1115 687 1115 686 1114 685 1114 683 1113 682 1113 679 1112 678 1112 675 1111 674 1111 671 1110 670 1110 667 1109 666 1109 662 1108 661 1108 659 1107 658 1107 655 1106 654 1106 652 1105 651 1105 649 1104 648 1104 646 1103 645 1103 643 1102 642 1102 639 1101 638 1101 635 1100 634 1100 630 1099 629 1099 624 1098 623 1098 620 1097 619 1097 615 1096 614 1096 613 1095 612 1095 610 1093 608 1093 607 1092 606 1092 605 1091 604 1091 603 1090 602 1090 600 1089 599 1089 597 1088 596 1088 591 1087 590 1087 585 1086 584 1086 579 1085 578 1085 575 1084 574 1084 570 1083 569 1083 567 1082 566 1082 564 1081 563 1081 561 1080 560 1080 559 1079 558 1079 557 1078 556 1078 555 1077 554 1077 552 1076 551 1076 549 1075 548 1075 544 1074 543 1074 539 1073 538 1073 533 1072 532 1072 528 1071 527 1071 522 1070 521 1070 517 1069 516 1069 513 1068 512 1068 511 1067 510 1067 508 1066 507 1066 506 1065 505 1065 504 1064 503 1064 502 1063 501 1063 499 1062 498 1062 496 1061 495 1061 494 1060 493 1060 491 1059 490 1059 489 1057 487 1057 486 1056 485 1056 484 1052 480 1052 472 1051 471 1051 458 1052 457 1052 452 1053 451 1053 446 1060 439 1061 439 1064 436 1065 436 1067 434 1070 434 1071 433 1077 433 1078 432 1080 432 1081 433 1082 433 1083 434 1084 434 1085 435 1086 435 1087 436 1088 436 1089 437 1090 437 1091 438 1092 438 1096 442 1096 443 1097 444 1097 445 1098 446 1098 448 1099 449 1099 450 1100 451 1100 452 1101 453 1101 454 1102 455 1102 457 1103 458 1103 459 1104 460 1104 461 1106 463 1106 464 1109 467 1109 468 1111 470 1111 471 1112 472 1112 473 1113 474 1113 475 1114 476 1114 477 1115 478 1115 480 1116 481 1116 484 1117 485 1117 488 1118 489 1118 491 1119 492 1119 494 1120 495 1120 497 1121 498 1121 500 1122 501 1122 503 1123 504 1123 506 1124 507 1124 511 1125 512 1125 517 1126 518 1126 522 1127 523 1127 527 1128 528 1128 531 1129 532 1129 534 1130 535 1130 536 1131 537 1131 538 1132 539 1132 540 1133 541 1133 542 1134 543 1134 544 1135 545 1135 546 1136 547 1136 548 1137 549 1137 550 1140 553 1140 554 1144 558 1145 558 1146 559 1147 559 1148 560 1149 560 1151 562 1152 562 1155 565 1156 565 1157 566 1161 562 1161 561 1163 559 1163 558 1164 557 1164 556 1165 555 1165 554 1166 553 1166 551 1167 550 1167 549 1168 548 1168 547 1167 546 1167 543 1166 542 1166 538 1165 537 1165 532 1164 531 1164 529 1163 528 1163 526 1162 525 1162 524 1161 523 1161 521 1159 519 1159 518 1158 517 1158 516 1157 515 1157 514 1156 513 1156 512 1155 511 1155 510 1154 509 1154 507 1153 506 1153 504 1152 503 1152 501 1151 500 1151 496 1150 495 1150 491 1149 490 1149 487 1148 486 1148 483 1147 482 1147 479 1146 478 1146 477 1145 476 1145 475 1144 474 1144 473 1143 472 1143 471 1141 469 1141 467 1140 466 1140 465 1139 464 1139 461 1138 460 1138 458 1137 457 1137 454 1136 453 1136 450 1135 449 1135 447 1134 446 1134 444 1133 443 1133 442 1131 440 1131 439 1129 437 1129 436 1128 435 1128 434 1127 433 1127 431 1126 430 1126 428 1125 427 1125 426 1124 425 1124 424 1123 423 1123 422 1122 421 1122 420 1120 418 1120 417 1116 413 1116 412 1114 410 1114 409 1111 406 1111 405 1105 399 1105 398 1103 396 1103 395 1102 394 1102 393 1101 392 1101 391 1100 390 1100 389 1099 388 1099 386 1098 385 1098 384 1097 383 1097 382 1096 381 1096 380 1095 379 1095 378 1094 377 1094 376 1093 375 1093 374 1092 373 1092 372 1091 371 1091 369 1090 368 1090 366 1089 365 1089 363 1088 362 1088 360 1087 359 1087 357 1086 356 1086 354 1085 353 1085 351 1084 350 1084 348 1083 347 1083 346 1082 345 1082 343 1081 342 1081 340 1080 339 1080 337 1079 336 1079 335 1078 334 1078 333 1077 332 1077 331 1076 330 1076 329 1075 328 1075 327 1074 326 1074 325 1073 324 1073 323 1071 321 1071 320 1069 318 1069 317 1065 313 1064 313 1061 310 1060 310 1058 308 1057 308 1056 307 1055 307 1054 306 "/></svg>