<svg width="1920" height="1080" xmlns="http://www.w3.org/2000/svg"><path d="M1043 272 1042 273 1040 273 1039 274 1036 274 1035 275 1032 275 1031 276 1028 276 1027 277 1026 277 1025 278 1024 278 1023 279 1022 279 1021 280 1019 280 1018 281 1017 281 1016 282 1015 282 1014 283 1013 283 1012 284 1011 284 1010 285 1008 285 1006 287 1005 287 1004 288 1003 288 1001 290 1000 290 999 291 997 291 996 292 981 292 980 293 976 293 975 294 969 294 968 295 965 295 964 296 962 296 961 297 959 297 958 298 957 298 956 299 954 299 953 300 952 300 947 305 946 305 944 307 943 307 942 308 941 308 940 309 939 309 938 310 937 310 936 311 935 311 934 312 933 312 932 313 931 313 930 314 929 314 928 315 927 315 926 316 925 316 924 317 923 317 921 319 920 319 917 322 916 322 914 324 913 324 912 325 911 325 909 327 907 327 906 328 904 328 903 329 901 329 900 330 897 330 896 331 894 331 893 332 889 332 888 333 882 333 881 334 876 334 875 335 873 335 872 336 871 336 869 338 868 338 867 339 866 339 865 340 864 340 863 341 861 341 860 342 857 342 856 343 853 343 852 344 847 344 846 345 843 345 842 346 840 346 839 347 838 347 837 348 836 348 835 349 834 349 833 350 832 350 831 351 830 351 829 352 828 352 826 354 825 354 823 356 822 356 820 358 819 358 818 359 817 359 816 360 814 360 813 361 812 361 811 362 810 362 809 363 807 363 806 364 805 364 804 365 803 365 802 366 801 366 800 367 799 367 795 371 795 372 792 375 792 376 789 379 789 380 784 385 784 386 783 387 783 388 782 389 782 391 781 392 781 394 780 395 780 397 779 398 779 399 778 400 778 405 779 406 779 408 780 409 780 410 781 411 781 412 782 413 782 414 784 416 794 416 795 417 799 417 799 416 802 413 802 412 805 409 805 408 807 406 807 405 809 403 809 402 813 398 814 398 815 397 818 397 819 396 822 396 823 395 828 395 829 394 831 394 832 393 833 393 834 392 835 392 836 391 837 391 839 389 840 389 842 387 843 387 846 384 847 384 848 383 849 383 850 382 852 382 853 381 854 381 855 380 857 380 858 379 861 379 862 378 864 378 865 377 868 377 869 376 872 376 873 375 876 375 877 374 881 374 882 373 886 373 887 372 894 372 895 373 897 373 898 374 900 374 901 375 902 375 903 376 904 376 905 377 906 377 907 378 907 379 908 380 908 381 910 383 910 385 911 386 911 387 912 388 912 390 913 391 913 393 914 394 914 396 915 397 915 400 916 401 916 426 915 427 915 481 916 482 916 490 917 491 917 497 918 498 918 502 919 503 919 505 920 506 920 507 921 508 921 510 922 511 922 512 923 513 923 515 924 516 924 518 925 519 925 523 926 524 926 528 927 529 927 534 928 535 928 543 929 544 929 552 930 553 930 558 931 559 931 563 932 564 932 568 933 569 933 573 934 574 934 578 935 579 935 583 936 584 936 587 937 588 937 592 938 593 938 597 939 598 939 603 940 604 940 610 941 611 941 663 940 664 940 673 939 674 939 680 938 681 938 685 937 686 937 688 936 689 936 691 935 692 935 694 934 695 934 697 933 698 933 700 932 701 932 702 933 703 933 705 934 706 934 707 935 708 935 709 939 713 940 713 943 716 944 716 946 718 946 726 960 726 960 718 961 717 964 717 965 716 967 716 968 715 969 715 971 713 972 713 973 712 974 712 976 710 977 710 978 709 979 709 981 707 982 707 984 705 984 704 986 702 986 701 987 700 987 697 988 696 988 694 989 693 989 689 990 688 990 672 991 671 991 668 990 667 990 656 989 655 989 630 988 629 988 598 987 597 987 587 986 586 986 581 987 580 987 562 986 561 986 549 987 548 987 541 988 540 988 532 989 531 989 522 990 521 990 517 991 516 991 513 992 512 992 510 993 509 993 508 994 507 994 506 995 505 995 504 996 503 996 502 1002 496 1003 496 1005 494 1006 494 1007 493 1008 493 1010 491 1014 491 1016 493 1017 493 1019 495 1020 495 1022 497 1023 497 1024 498 1025 498 1028 501 1029 501 1030 502 1030 503 1034 507 1034 508 1037 511 1037 512 1040 515 1040 516 1042 518 1042 519 1044 521 1044 522 1045 523 1045 524 1046 525 1046 526 1047 527 1047 528 1048 529 1048 531 1049 532 1049 534 1050 535 1050 538 1051 539 1051 542 1052 543 1052 546 1053 547 1053 550 1054 551 1054 554 1055 555 1055 559 1056 560 1056 563 1057 564 1057 566 1058 567 1058 569 1061 572 1061 573 1062 574 1062 575 1063 576 1063 577 1064 578 1064 579 1065 580 1065 582 1066 583 1066 584 1067 585 1067 588 1068 589 1068 591 1069 592 1069 594 1070 595 1070 596 1071 597 1071 598 1072 599 1072 600 1073 601 1073 602 1077 606 1077 607 1079 609 1079 610 1080 611 1080 612 1081 613 1081 614 1082 615 1082 616 1083 617 1083 619 1084 620 1084 622 1085 623 1085 624 1086 625 1086 626 1088 628 1088 629 1089 630 1089 631 1091 633 1091 634 1092 635 1092 642 1093 643 1093 653 1094 654 1094 657 1095 658 1095 660 1096 661 1096 663 1097 664 1097 666 1098 667 1098 668 1099 669 1099 670 1105 676 1106 676 1107 677 1109 677 1110 678 1111 678 1112 679 1114 679 1115 680 1117 680 1118 681 1121 681 1122 680 1124 680 1125 679 1128 679 1129 678 1131 678 1132 677 1134 677 1140 671 1140 670 1141 669 1141 658 1140 657 1140 650 1139 649 1139 647 1138 646 1138 644 1137 643 1137 642 1136 641 1136 640 1135 639 1135 638 1134 637 1134 636 1133 635 1133 634 1132 633 1132 632 1131 631 1131 630 1130 629 1130 628 1129 627 1129 626 1128 625 1128 623 1127 622 1127 620 1126 619 1126 617 1125 616 1125 613 1124 612 1124 609 1123 608 1123 605 1122 604 1122 599 1121 598 1121 590 1120 589 1120 579 1121 578 1121 568 1122 567 1122 563 1123 562 1123 561 1124 560 1124 559 1125 558 1126 558 1127 557 1128 557 1129 556 1131 556 1132 555 1135 555 1138 552 1138 550 1139 549 1139 542 1140 541 1140 528 1139 527 1139 519 1138 518 1138 511 1137 510 1137 502 1136 501 1136 496 1135 495 1135 491 1134 490 1134 487 1133 486 1133 485 1134 484 1134 467 1132 465 1132 464 1131 463 1131 461 1130 460 1130 458 1129 457 1129 453 1128 452 1128 449 1127 448 1127 444 1126 443 1126 439 1125 438 1125 435 1124 434 1124 432 1123 431 1123 429 1122 428 1122 426 1121 425 1121 423 1120 422 1120 421 1119 420 1119 419 1118 418 1118 417 1116 415 1116 414 1115 413 1115 412 1114 411 1114 409 1113 408 1113 406 1112 405 1112 403 1111 402 1111 400 1110 399 1110 398 1109 397 1109 396 1108 395 1108 393 1107 392 1107 391 1106 390 1106 389 1105 388 1105 387 1104 386 1104 384 1103 383 1103 380 1102 379 1102 377 1101 376 1101 374 1100 373 1100 370 1099 369 1099 368 1098 367 1098 366 1097 365 1097 363 1096 362 1096 360 1095 359 1095 357 1094 356 1094 354 1093 353 1093 340 1092 339 1092 335 1091 334 1091 333 1090 332 1090 331 1089 330 1089 329 1086 326 1086 325 1084 323 1084 322 1082 320 1082 317 1081 316 1081 311 1080 310 1080 304 1079 303 1079 299 1078 298 1078 294 1077 293 1077 287 1076 286 1076 285 1072 281 1071 281 1069 279 1068 279 1066 277 1065 277 1064 276 1063 276 1062 275 1061 275 1059 273 1047 273 1046 272 "/></svg>