<svg width="1920" height="1080" xmlns="http://www.w3.org/2000/svg"><path d="M1030 300 1029 301 1027 301 1026 302 1025 302 1024 303 1022 303 1021 304 1020 304 1019 305 1017 305 1016 306 1014 306 1013 307 1012 307 1011 308 1009 308 1008 309 1006 309 1005 310 1004 310 1003 311 1002 311 1001 312 999 312 998 313 997 313 996 314 995 314 994 315 993 315 992 316 991 316 990 317 989 317 988 318 987 318 985 320 984 320 983 321 982 321 981 322 980 322 979 323 977 323 976 324 975 324 974 325 972 325 971 326 969 326 968 327 966 327 965 328 963 328 962 329 960 329 959 330 957 330 956 331 954 331 953 332 952 332 951 333 950 333 949 334 948 334 945 337 944 337 941 340 940 340 939 341 938 341 937 342 936 342 935 343 934 343 933 344 932 344 931 345 929 345 928 346 926 346 925 347 924 347 923 348 922 348 921 349 920 349 919 350 918 350 916 352 915 352 911 356 910 356 908 358 907 358 905 360 904 360 903 361 902 361 901 362 900 362 899 363 897 363 896 364 894 364 893 365 891 365 890 366 888 366 887 367 886 367 885 368 884 368 879 373 879 374 876 377 875 377 873 379 872 379 871 380 870 380 869 381 868 381 867 382 866 382 865 383 864 383 863 384 862 384 861 385 860 385 855 390 855 391 843 403 843 404 841 406 841 407 840 408 840 409 838 411 838 412 832 418 832 419 830 421 830 422 829 423 829 426 828 427 828 430 827 431 827 433 826 434 826 437 825 438 825 447 826 448 826 455 827 456 827 457 829 459 830 459 832 461 833 461 834 460 836 460 837 459 838 459 839 458 841 458 842 457 843 457 844 456 845 456 850 451 851 451 858 444 859 444 862 441 862 440 864 438 864 437 873 428 874 428 876 426 877 426 883 420 884 420 886 418 888 418 889 417 892 417 893 416 895 416 896 415 902 415 903 416 905 416 906 417 909 417 910 418 912 418 915 421 915 422 916 423 916 424 917 425 917 426 918 427 918 429 919 430 919 432 920 433 920 435 921 436 921 438 922 439 922 458 923 459 923 480 922 481 922 488 921 489 921 512 922 513 922 519 923 520 923 525 924 526 924 529 925 530 925 532 926 533 926 535 927 536 927 538 928 539 928 542 929 543 929 548 930 549 930 553 931 554 931 560 932 561 932 570 933 571 933 581 934 582 934 590 935 591 935 603 936 604 936 616 937 617 937 622 938 623 938 627 939 628 939 634 940 635 940 644 941 645 941 647 940 648 940 656 939 657 939 664 938 665 938 669 937 670 937 675 936 676 936 681 935 682 935 685 934 686 934 688 933 689 933 692 932 693 932 696 931 697 931 700 930 701 930 705 929 706 929 709 928 710 928 712 927 713 927 718 928 719 928 720 930 722 930 723 933 726 934 726 936 728 937 728 938 729 943 729 944 728 952 728 953 727 954 727 955 726 956 726 957 725 958 725 959 724 960 724 961 723 962 723 963 722 964 722 970 716 970 715 971 714 971 713 972 712 972 710 973 709 973 708 974 707 974 705 975 704 975 703 976 702 976 701 977 700 977 698 978 697 978 693 979 692 979 687 980 686 980 680 981 679 981 671 982 670 982 656 981 655 981 642 982 641 982 633 983 632 983 609 984 608 984 577 985 576 985 570 986 569 986 564 987 563 987 559 988 558 988 556 989 555 989 553 990 552 990 551 991 550 991 549 992 548 992 547 993 546 993 545 994 544 994 543 995 542 995 541 997 539 997 538 999 536 999 535 1005 529 1006 529 1007 530 1009 530 1010 531 1012 531 1013 532 1015 532 1016 533 1018 533 1024 539 1024 540 1026 542 1026 543 1027 544 1027 545 1028 546 1028 547 1030 549 1030 550 1033 553 1033 554 1034 555 1034 556 1035 557 1035 558 1036 559 1036 561 1037 562 1037 563 1038 564 1038 566 1039 567 1039 569 1040 570 1040 571 1041 572 1041 574 1042 575 1042 576 1043 577 1043 579 1044 580 1044 581 1045 582 1045 584 1046 585 1046 586 1047 587 1047 590 1048 591 1048 593 1049 594 1049 597 1050 598 1050 600 1051 601 1051 603 1052 604 1052 607 1053 608 1053 611 1054 612 1054 614 1055 615 1055 616 1056 617 1056 618 1057 619 1057 620 1060 623 1060 624 1062 626 1062 627 1063 628 1063 629 1064 630 1064 632 1065 633 1065 635 1066 636 1066 637 1067 638 1067 639 1068 640 1068 641 1069 642 1069 643 1070 644 1070 645 1071 646 1071 647 1072 648 1072 649 1073 650 1073 652 1074 653 1074 654 1075 655 1075 658 1076 659 1076 661 1077 662 1077 667 1078 668 1078 674 1079 675 1079 682 1080 683 1080 690 1081 691 1081 696 1082 697 1082 703 1083 704 1083 710 1084 711 1084 715 1085 716 1085 717 1089 721 1089 722 1098 731 1111 731 1112 730 1113 730 1114 729 1115 729 1116 728 1117 728 1119 726 1120 726 1121 725 1122 725 1127 720 1127 719 1128 718 1128 717 1129 716 1129 714 1128 713 1128 710 1127 709 1127 705 1126 704 1126 701 1125 700 1125 698 1124 697 1124 696 1122 694 1122 693 1121 692 1121 691 1120 690 1120 689 1119 688 1119 686 1118 685 1118 683 1117 682 1117 678 1116 677 1116 673 1115 672 1115 668 1114 667 1114 664 1113 663 1113 660 1112 659 1112 657 1111 656 1111 655 1110 654 1110 652 1109 651 1109 650 1108 649 1108 646 1107 645 1107 642 1106 641 1106 637 1105 636 1105 631 1104 630 1104 622 1103 621 1103 613 1102 612 1102 607 1101 606 1101 603 1100 602 1100 599 1099 598 1099 595 1098 594 1098 593 1097 592 1097 591 1095 589 1095 587 1094 586 1094 585 1093 584 1093 583 1092 582 1092 580 1091 579 1091 576 1090 575 1090 573 1089 572 1089 570 1088 569 1088 568 1087 567 1087 566 1086 565 1086 564 1085 563 1085 562 1084 561 1084 560 1083 559 1083 558 1082 557 1082 555 1081 554 1081 553 1080 552 1080 550 1079 549 1079 546 1078 545 1078 543 1077 542 1077 539 1076 538 1076 536 1075 535 1075 532 1074 531 1074 529 1073 528 1073 526 1072 525 1072 524 1070 522 1070 521 1069 520 1069 519 1068 518 1068 516 1067 515 1067 513 1066 512 1066 510 1065 509 1065 502 1064 501 1064 494 1063 493 1063 489 1062 488 1062 486 1061 485 1061 482 1060 481 1060 480 1059 479 1059 477 1058 476 1058 475 1057 474 1057 471 1056 470 1056 468 1055 467 1055 465 1054 464 1054 461 1053 460 1053 439 1055 437 1055 436 1061 430 1062 430 1063 429 1064 429 1065 428 1066 428 1067 427 1068 427 1069 426 1070 426 1071 425 1072 426 1073 426 1074 427 1075 427 1076 428 1077 428 1078 429 1079 429 1080 430 1081 430 1082 431 1083 431 1084 432 1085 432 1088 435 1088 436 1090 438 1090 439 1092 441 1092 442 1095 445 1095 446 1102 453 1102 454 1104 456 1104 457 1105 458 1105 459 1107 461 1107 462 1108 463 1108 464 1110 466 1110 467 1112 469 1112 470 1113 471 1113 472 1114 473 1114 475 1115 476 1115 480 1116 481 1116 484 1117 485 1117 490 1118 491 1118 495 1119 496 1119 502 1120 503 1120 509 1121 510 1121 514 1122 515 1122 519 1123 520 1123 523 1124 524 1124 527 1125 528 1125 530 1126 531 1126 532 1127 533 1127 536 1128 537 1128 539 1129 540 1129 542 1130 543 1130 544 1131 545 1131 546 1132 547 1132 548 1133 549 1133 550 1136 553 1136 554 1137 555 1138 555 1141 558 1142 558 1145 561 1146 561 1147 562 1148 562 1149 563 1151 563 1152 562 1153 562 1155 560 1155 559 1157 557 1157 556 1158 555 1158 554 1160 552 1160 551 1161 550 1161 549 1162 548 1162 547 1163 546 1163 545 1164 544 1170 544 1170 541 1164 541 1163 540 1163 537 1162 536 1162 531 1161 530 1161 526 1160 525 1160 524 1159 523 1159 521 1158 520 1158 519 1157 518 1157 516 1156 515 1156 513 1155 512 1155 511 1154 510 1154 507 1153 506 1153 505 1152 504 1152 502 1151 501 1151 500 1149 498 1149 497 1148 496 1148 494 1147 493 1147 492 1146 491 1146 488 1145 487 1145 485 1144 484 1144 480 1143 479 1143 476 1142 475 1142 472 1141 471 1141 468 1140 467 1140 464 1139 463 1139 460 1138 459 1138 457 1137 456 1137 455 1135 453 1135 452 1134 451 1134 450 1133 449 1133 448 1132 447 1132 446 1131 445 1131 443 1130 442 1130 440 1129 439 1129 437 1128 436 1128 435 1127 434 1127 432 1126 431 1126 430 1125 429 1125 428 1124 427 1124 425 1123 424 1123 423 1121 421 1121 420 1120 419 1120 418 1119 417 1119 416 1118 415 1118 414 1117 413 1117 412 1116 411 1116 410 1115 409 1115 407 1114 406 1114 405 1113 404 1113 403 1112 402 1112 401 1110 399 1110 398 1106 394 1106 393 1104 391 1104 390 1103 389 1103 388 1102 387 1102 386 1101 385 1101 384 1100 383 1100 382 1099 381 1099 380 1097 378 1097 377 1096 376 1096 375 1094 373 1094 372 1093 371 1093 369 1092 368 1092 365 1091 364 1091 360 1090 359 1090 356 1089 355 1089 353 1088 352 1088 351 1086 349 1086 348 1082 344 1082 343 1080 341 1080 340 1079 339 1079 338 1078 337 1078 336 1077 335 1077 332 1076 331 1076 330 1075 329 1075 327 1074 326 1074 324 1073 323 1073 321 1072 320 1072 319 1065 312 1064 312 1059 307 1058 307 1057 306 1056 306 1055 305 1054 305 1052 303 1050 303 1049 302 1048 302 1047 301 1045 301 1044 300 "/></svg>