<svg width="1920" height="1080" xmlns="http://www.w3.org/2000/svg"><path d="M1025 328 1024 329 1020 329 1019 330 1016 330 1015 331 1014 331 1011 334 1010 334 1007 337 1006 337 1005 338 1004 338 997 345 997 346 995 348 995 349 993 351 993 352 990 355 989 355 976 368 975 368 973 370 972 370 970 372 969 372 968 373 967 373 966 374 964 374 963 375 962 375 961 376 960 376 959 377 958 377 956 379 955 379 954 380 953 380 950 383 949 383 947 385 946 385 945 386 944 386 943 387 942 387 941 388 940 388 939 389 938 389 937 390 936 390 935 391 934 391 933 392 932 392 931 393 929 393 923 399 923 400 917 406 916 406 914 408 913 408 897 424 896 424 889 431 889 432 888 433 888 434 887 435 887 436 885 438 885 439 881 443 881 444 878 447 878 449 877 450 877 451 876 452 876 454 875 455 875 457 874 458 874 459 873 460 873 462 872 463 872 465 871 466 871 468 870 469 870 470 869 471 869 472 868 473 868 474 867 475 867 477 866 478 866 481 865 482 865 489 864 490 864 498 863 499 863 508 862 509 862 516 863 517 863 527 864 528 864 530 868 534 870 534 871 535 872 535 873 536 875 536 876 537 878 537 879 538 880 538 881 537 882 537 884 535 885 535 891 529 891 527 892 526 892 524 893 523 893 520 894 519 894 516 895 515 895 506 894 505 894 497 893 496 894 495 894 492 895 491 895 488 896 487 896 484 897 483 897 480 898 479 898 477 899 476 899 474 900 473 900 472 901 471 901 470 902 469 902 468 903 467 903 466 905 464 905 463 906 462 907 462 909 460 910 460 912 458 913 458 914 457 916 457 917 456 918 456 919 457 929 457 930 458 931 458 932 459 933 459 934 460 935 460 937 462 938 462 939 463 939 464 942 467 942 468 943 469 943 471 944 472 944 473 945 474 945 477 946 478 946 483 947 484 947 490 948 491 948 498 947 499 947 501 946 502 946 504 945 505 945 507 944 508 944 509 943 510 943 511 942 512 942 514 941 515 941 517 940 518 940 520 939 521 939 524 938 525 938 528 937 529 937 555 938 556 938 569 939 570 939 582 940 583 940 607 941 608 941 613 940 614 940 651 939 652 939 678 938 679 938 682 937 683 937 686 936 687 936 689 935 690 935 692 934 693 934 694 933 695 933 696 931 698 931 699 928 702 927 702 925 704 925 705 923 707 923 710 922 711 922 722 921 723 922 724 922 725 923 726 924 726 928 730 930 730 931 731 939 731 940 732 942 732 943 731 946 731 947 730 949 730 950 729 953 729 954 728 955 728 956 727 957 727 959 725 960 725 963 722 964 722 971 715 971 714 972 713 972 712 974 710 974 709 975 708 975 706 976 705 976 704 977 703 977 702 978 701 978 700 979 699 979 698 980 697 980 695 981 694 981 692 982 691 982 681 983 680 983 663 984 662 984 643 985 642 985 622 986 621 986 615 987 614 987 609 988 608 988 604 989 603 989 600 990 599 990 597 991 596 991 594 992 593 992 592 993 591 993 589 994 588 994 586 995 585 995 584 996 583 996 581 997 580 997 579 998 578 998 576 999 575 999 572 1000 571 1000 569 1001 568 1001 566 1002 565 1002 564 1004 562 1005 562 1006 563 1009 563 1010 564 1014 564 1015 565 1016 565 1017 566 1017 567 1018 568 1018 569 1019 570 1019 571 1020 572 1020 573 1021 574 1021 576 1022 577 1022 579 1024 581 1024 582 1026 584 1026 585 1030 589 1030 590 1031 591 1031 592 1032 593 1032 594 1033 595 1033 599 1034 600 1034 603 1035 604 1035 608 1036 609 1036 612 1037 613 1037 615 1038 616 1038 617 1039 618 1039 619 1040 620 1040 621 1041 622 1041 623 1042 624 1042 625 1043 626 1043 627 1044 628 1044 630 1045 631 1045 633 1046 634 1046 637 1047 638 1047 642 1048 643 1048 645 1049 646 1049 647 1050 648 1050 649 1051 650 1051 651 1052 652 1052 653 1054 655 1054 656 1056 658 1056 663 1057 664 1057 674 1058 675 1058 681 1059 682 1059 687 1060 688 1060 694 1061 695 1061 699 1062 700 1062 704 1063 705 1063 708 1064 709 1064 711 1065 712 1065 714 1066 715 1066 717 1067 718 1067 720 1068 721 1068 724 1069 725 1069 726 1071 728 1071 729 1072 730 1072 731 1074 733 1074 734 1075 735 1075 736 1077 738 1077 739 1080 742 1081 742 1084 745 1085 745 1088 748 1089 748 1090 749 1094 749 1095 748 1103 748 1104 747 1106 747 1107 746 1109 746 1110 745 1112 745 1113 744 1114 744 1115 743 1116 743 1116 742 1120 738 1120 737 1121 736 1121 735 1122 734 1122 733 1123 732 1123 731 1124 730 1124 729 1125 728 1125 726 1126 725 1126 723 1125 722 1125 721 1123 719 1123 718 1121 716 1121 715 1120 714 1120 713 1119 712 1119 711 1118 710 1118 709 1117 708 1117 707 1109 699 1109 698 1107 696 1107 695 1106 694 1106 693 1105 692 1105 691 1104 690 1104 689 1102 687 1102 686 1100 684 1100 683 1099 682 1099 681 1098 680 1098 678 1097 677 1097 675 1096 674 1096 670 1095 669 1095 665 1094 664 1094 661 1093 660 1093 657 1092 656 1092 654 1091 653 1091 651 1090 650 1090 648 1089 647 1089 646 1088 645 1088 642 1087 641 1087 636 1086 635 1086 627 1085 626 1085 620 1084 619 1084 612 1083 611 1083 601 1082 600 1082 593 1081 592 1081 588 1080 587 1080 585 1079 584 1079 581 1078 580 1078 579 1077 578 1077 576 1076 575 1076 572 1075 571 1075 568 1074 567 1074 563 1073 562 1073 558 1072 557 1072 552 1071 551 1071 546 1070 545 1070 541 1069 540 1069 537 1068 536 1068 534 1067 533 1067 531 1066 530 1066 528 1065 527 1065 526 1064 525 1064 523 1063 522 1063 520 1062 519 1062 517 1061 516 1061 512 1060 511 1060 508 1059 507 1059 503 1058 502 1058 498 1057 497 1057 481 1056 480 1056 478 1057 477 1057 462 1059 460 1059 459 1060 458 1060 457 1062 455 1062 454 1067 449 1068 449 1071 446 1072 446 1073 445 1074 445 1075 444 1076 444 1077 443 1080 443 1081 444 1084 444 1085 445 1088 445 1089 446 1090 446 1095 451 1096 451 1100 455 1101 455 1103 457 1104 457 1108 461 1108 462 1111 465 1111 466 1117 472 1117 473 1118 474 1118 475 1119 476 1119 477 1120 478 1120 480 1121 481 1121 483 1122 484 1122 486 1123 487 1123 488 1124 489 1124 491 1125 492 1125 493 1126 494 1126 495 1127 496 1127 497 1128 498 1128 499 1129 500 1129 501 1131 503 1131 505 1132 506 1132 507 1133 508 1133 510 1134 511 1134 513 1135 514 1135 516 1136 517 1136 518 1137 519 1137 520 1138 521 1138 522 1139 523 1139 524 1140 525 1140 526 1141 527 1141 528 1143 530 1143 531 1144 532 1144 533 1145 534 1145 536 1146 537 1146 538 1147 539 1147 540 1148 541 1148 542 1149 543 1149 545 1151 547 1151 548 1153 550 1153 551 1155 553 1155 554 1157 556 1157 557 1158 558 1158 560 1159 561 1159 562 1160 563 1160 564 1161 565 1161 566 1163 568 1163 569 1165 571 1166 571 1167 572 1168 572 1170 574 1171 574 1174 577 1175 577 1177 579 1186 570 1186 569 1189 566 1195 566 1195 552 1190 552 1188 550 1188 547 1187 546 1187 544 1186 543 1186 541 1185 540 1185 539 1184 538 1184 537 1183 536 1183 534 1182 533 1182 531 1181 530 1181 528 1180 527 1180 526 1179 525 1179 524 1178 523 1178 522 1176 520 1176 519 1174 517 1174 516 1173 515 1173 514 1172 513 1172 511 1171 510 1171 508 1170 507 1170 505 1169 504 1169 502 1168 501 1168 500 1167 499 1167 497 1166 496 1166 495 1162 491 1162 490 1159 487 1159 486 1157 484 1157 483 1156 482 1156 481 1155 480 1155 479 1154 478 1154 477 1153 476 1153 475 1152 474 1152 473 1150 471 1150 470 1149 469 1149 468 1148 467 1148 466 1147 465 1147 464 1146 463 1146 462 1145 461 1145 459 1144 458 1144 457 1143 456 1143 455 1142 454 1142 453 1140 451 1140 450 1139 449 1139 448 1136 445 1136 444 1135 443 1135 442 1133 440 1133 439 1131 437 1131 436 1129 434 1129 433 1127 431 1127 430 1124 427 1124 426 1122 424 1122 423 1120 421 1120 420 1118 418 1118 417 1116 415 1116 414 1099 397 1099 396 1095 392 1095 391 1089 385 1089 384 1088 383 1088 382 1086 380 1086 379 1085 378 1085 377 1084 376 1084 375 1082 373 1082 372 1080 370 1080 369 1077 366 1077 365 1076 364 1076 363 1075 362 1075 361 1074 360 1074 359 1073 358 1073 357 1072 356 1072 355 1071 354 1071 353 1070 352 1070 351 1069 350 1069 349 1068 348 1068 347 1066 345 1066 344 1065 343 1064 343 1060 339 1059 339 1055 335 1054 335 1052 333 1051 333 1050 332 1049 332 1048 331 1047 331 1046 330 1045 330 1044 329 1042 329 1041 328 "/></svg>