<svg width="1920" height="1080" xmlns="http://www.w3.org/2000/svg"><path d="M1018 343 1017 344 1014 344 1013 345 1011 345 1010 346 1008 346 1006 348 1005 348 1003 350 1002 350 1000 352 999 352 998 353 997 353 995 355 995 356 992 359 992 360 990 362 990 363 983 370 982 370 968 384 967 384 962 389 961 389 959 391 958 391 957 392 956 392 954 394 953 394 951 396 950 396 949 397 948 397 947 398 946 398 943 401 942 401 941 402 940 402 939 403 938 403 936 405 935 405 933 407 932 407 930 409 930 410 915 425 915 426 906 435 906 436 903 439 903 440 901 442 901 443 900 444 900 445 896 449 896 450 894 452 894 453 893 454 893 455 892 456 892 457 891 458 891 459 890 460 890 461 889 462 889 463 887 465 887 466 885 468 885 469 884 470 884 471 883 472 883 474 882 475 882 478 881 479 881 483 880 484 880 488 879 489 879 493 878 494 878 497 877 498 877 501 876 502 876 504 875 505 875 506 874 507 874 508 873 509 873 510 872 511 872 514 871 515 871 517 870 518 870 525 869 526 869 550 870 551 870 553 871 554 871 555 873 557 873 558 874 558 875 559 876 559 877 560 879 560 880 561 881 561 882 562 883 562 884 563 886 563 888 561 889 561 891 559 892 559 894 557 895 557 900 552 900 539 901 538 901 529 902 528 902 505 903 504 903 501 904 500 904 498 905 497 905 495 906 494 906 493 907 492 907 490 909 488 909 487 911 485 911 484 919 476 920 476 922 474 923 474 924 473 935 473 936 474 937 474 948 485 948 486 949 487 949 488 950 489 950 493 951 494 951 498 952 499 952 503 953 504 953 505 952 506 952 508 951 509 951 512 950 513 950 515 949 516 949 517 948 518 948 520 947 521 947 523 946 524 946 526 945 527 945 530 944 531 944 533 943 534 943 543 942 544 942 562 943 563 943 638 942 639 942 661 941 662 941 680 940 681 940 683 939 684 939 686 938 687 938 689 937 690 937 691 936 692 936 693 935 694 935 695 933 697 933 698 931 700 931 701 928 704 928 705 924 709 924 718 923 719 923 725 924 726 925 726 927 728 929 728 930 729 931 729 932 730 934 730 935 731 946 731 947 730 949 730 950 729 952 729 953 728 954 728 955 727 956 727 957 726 958 726 959 725 960 725 966 719 967 719 969 717 970 717 974 713 974 712 975 711 975 710 976 709 976 707 977 706 977 703 978 702 978 698 979 697 979 691 980 690 980 682 981 681 981 666 982 665 982 658 983 657 983 654 984 653 984 650 985 649 985 645 986 644 986 639 987 638 987 633 988 632 988 624 989 623 989 616 990 615 990 608 991 607 991 599 992 598 992 594 993 593 993 590 994 589 994 586 995 585 995 583 996 582 996 581 997 580 997 579 998 578 998 577 999 576 999 575 1000 574 1000 573 1001 572 1001 571 1002 570 1002 569 1003 568 1003 567 1005 565 1005 564 1009 560 1015 566 1015 567 1023 575 1023 576 1024 577 1024 578 1025 579 1025 580 1026 581 1026 583 1027 584 1027 585 1028 586 1028 587 1030 589 1030 590 1036 596 1036 597 1037 598 1037 599 1038 600 1038 603 1039 604 1039 607 1040 608 1040 611 1041 612 1041 615 1042 616 1042 618 1043 619 1043 620 1044 621 1044 622 1045 623 1045 624 1047 626 1047 627 1048 628 1048 629 1049 630 1049 631 1050 632 1050 635 1051 636 1051 638 1052 639 1052 643 1053 644 1053 647 1054 648 1054 650 1055 651 1055 652 1056 653 1056 654 1058 656 1058 657 1060 659 1060 660 1062 662 1062 668 1063 669 1063 677 1064 678 1064 684 1065 685 1065 692 1066 693 1066 697 1067 698 1067 701 1068 702 1068 704 1069 705 1069 707 1070 708 1070 710 1071 711 1071 712 1072 713 1072 715 1073 716 1073 718 1074 719 1074 721 1075 722 1075 725 1076 726 1076 727 1077 728 1077 729 1079 731 1079 732 1081 734 1081 735 1084 738 1085 738 1086 739 1087 739 1088 740 1089 740 1091 742 1092 742 1093 743 1094 743 1095 744 1097 744 1098 743 1101 743 1102 742 1105 742 1106 741 1108 741 1109 740 1110 740 1112 738 1114 738 1116 736 1117 736 1118 735 1119 735 1126 728 1126 727 1128 725 1127 724 1127 723 1126 722 1126 720 1125 719 1125 717 1124 716 1124 714 1123 713 1123 711 1122 710 1122 709 1114 701 1114 700 1112 698 1112 697 1111 696 1111 695 1110 694 1110 693 1108 691 1108 690 1106 688 1106 687 1104 685 1104 683 1103 682 1103 681 1102 680 1102 677 1101 676 1101 672 1100 671 1100 668 1099 667 1099 664 1098 663 1098 661 1097 660 1097 658 1096 657 1096 656 1095 655 1095 654 1094 653 1094 651 1093 650 1093 648 1092 647 1092 643 1091 642 1091 636 1090 635 1090 629 1089 628 1089 621 1088 620 1088 614 1087 613 1087 608 1086 607 1086 603 1085 602 1085 600 1084 599 1084 597 1083 596 1083 595 1082 594 1082 593 1081 592 1081 590 1080 589 1080 587 1079 586 1079 583 1078 582 1078 576 1077 575 1077 569 1076 568 1076 564 1075 563 1075 560 1074 559 1074 556 1073 555 1073 553 1072 552 1072 550 1071 549 1071 547 1070 546 1070 544 1069 543 1069 541 1068 540 1068 537 1067 536 1067 533 1066 532 1066 528 1065 527 1065 523 1064 522 1064 518 1063 517 1063 515 1062 514 1062 512 1061 511 1061 509 1060 508 1060 507 1059 506 1059 501 1058 500 1058 492 1057 491 1057 472 1059 470 1059 469 1062 466 1062 465 1064 463 1064 462 1066 460 1066 459 1069 456 1069 455 1070 454 1071 454 1072 453 1074 453 1075 452 1077 452 1078 451 1080 451 1081 450 1086 450 1087 451 1091 451 1092 452 1095 452 1105 462 1106 462 1108 464 1109 464 1116 471 1116 472 1118 474 1118 475 1121 478 1121 479 1123 481 1123 482 1124 483 1124 484 1125 485 1125 486 1126 487 1126 489 1127 490 1127 492 1128 493 1128 494 1129 495 1129 496 1130 497 1130 498 1132 500 1132 501 1134 503 1134 504 1135 505 1135 506 1136 507 1136 508 1137 509 1137 510 1138 511 1138 513 1139 514 1139 516 1140 517 1140 519 1141 520 1141 522 1142 523 1142 524 1143 525 1143 526 1146 529 1146 530 1148 532 1148 533 1149 534 1149 535 1150 536 1150 537 1151 538 1151 539 1152 540 1152 541 1153 542 1153 543 1154 544 1154 545 1156 547 1156 548 1158 550 1158 551 1160 553 1160 554 1162 556 1162 557 1163 558 1163 559 1164 560 1164 561 1165 562 1165 563 1166 564 1166 566 1167 567 1167 568 1169 570 1169 571 1170 572 1171 572 1173 574 1174 574 1176 576 1177 576 1178 577 1179 577 1181 579 1184 579 1185 578 1186 578 1187 577 1188 577 1189 576 1190 576 1191 575 1192 575 1193 574 1200 574 1200 549 1194 549 1193 548 1193 547 1192 546 1192 545 1191 544 1191 543 1190 542 1190 541 1189 540 1189 539 1188 538 1188 536 1187 535 1187 534 1186 533 1186 531 1185 530 1185 529 1183 527 1183 526 1181 524 1181 523 1180 522 1180 521 1179 520 1179 519 1178 518 1178 516 1177 515 1177 514 1176 513 1176 511 1175 510 1175 507 1174 506 1174 504 1173 503 1173 502 1170 499 1170 498 1165 493 1165 492 1163 490 1163 489 1162 488 1162 486 1161 485 1161 484 1160 483 1160 482 1158 480 1158 479 1155 476 1155 475 1154 474 1154 473 1153 472 1153 471 1152 470 1152 469 1151 468 1151 467 1150 466 1150 465 1149 464 1149 463 1148 462 1148 461 1147 460 1147 459 1146 458 1146 457 1142 453 1142 452 1139 449 1139 448 1137 446 1137 445 1135 443 1135 442 1133 440 1133 439 1127 433 1127 432 1125 430 1125 429 1123 427 1123 426 1121 424 1121 423 1120 422 1119 422 1116 419 1115 419 1106 410 1106 409 1092 395 1092 394 1090 392 1090 391 1078 379 1078 378 1076 376 1076 375 1065 364 1065 363 1063 361 1063 360 1058 355 1057 355 1055 353 1054 353 1050 349 1049 349 1046 346 1043 346 1042 345 1039 345 1038 344 1035 344 1034 343 "/></svg>