<svg width="1920" height="1080" xmlns="http://www.w3.org/2000/svg"><path d="M1044 278 1043 279 1033 279 1032 280 1031 280 1030 281 1028 281 1027 282 1025 282 1024 283 1022 283 1021 284 1019 284 1018 285 1017 285 1016 286 1015 286 1014 287 1012 287 1011 288 1010 288 1009 289 1008 289 1006 291 1005 291 1004 292 1002 292 1000 294 999 294 998 295 997 295 996 296 994 296 993 297 992 297 991 298 990 298 989 299 988 299 987 300 985 300 984 301 983 301 982 302 980 302 979 303 978 303 977 304 976 304 975 305 974 305 973 306 972 306 970 308 969 308 967 310 966 310 965 311 964 311 963 312 962 312 961 313 960 313 959 314 957 314 956 315 955 315 954 316 953 316 952 317 950 317 949 318 947 318 946 319 945 319 944 320 943 320 942 321 941 321 939 323 938 323 934 327 933 327 931 329 930 329 929 330 928 330 926 332 925 332 924 333 922 333 921 334 920 334 919 335 917 335 916 336 914 336 913 337 912 337 911 338 910 338 909 339 908 339 907 340 906 340 905 341 904 341 903 342 902 342 901 343 900 343 898 345 897 345 896 346 895 346 894 347 892 347 891 348 889 348 888 349 887 349 886 350 885 350 884 351 882 351 881 352 880 352 879 353 877 353 876 354 874 354 873 355 871 355 870 356 869 356 868 357 867 357 866 358 865 358 864 359 863 359 862 360 861 360 856 365 855 365 852 368 851 368 850 369 849 369 848 370 847 370 845 372 844 372 842 374 841 374 832 383 831 383 826 388 826 389 822 393 822 394 819 397 819 398 812 405 812 406 809 409 809 410 807 412 807 414 806 415 806 416 805 417 805 419 804 420 804 421 803 422 803 423 802 424 802 425 801 426 801 427 800 428 800 429 804 433 805 433 806 434 807 434 808 435 810 435 811 436 814 436 815 437 820 437 821 436 822 436 823 435 825 435 826 434 827 434 828 433 829 433 830 432 831 432 832 431 833 431 835 429 836 429 836 428 837 427 838 427 842 423 843 423 845 421 846 421 847 420 848 420 849 419 850 419 852 417 853 417 856 414 857 414 861 410 862 410 865 407 866 407 867 406 868 406 869 405 870 405 871 404 872 404 873 403 875 403 876 402 877 402 878 401 879 401 880 400 881 400 882 399 883 399 885 397 886 397 889 394 890 394 891 393 897 393 898 392 905 392 906 393 906 394 909 397 909 398 911 400 911 401 913 403 913 404 915 406 915 407 917 409 917 410 918 411 918 412 919 413 919 414 920 415 920 417 921 418 921 421 922 422 922 425 923 426 923 462 924 463 924 464 923 465 923 477 922 478 922 483 923 484 923 495 924 496 924 508 925 509 925 519 926 520 926 529 927 530 927 540 928 541 928 548 929 549 929 555 930 556 930 561 931 562 931 567 932 568 932 572 933 573 933 577 934 578 934 582 935 583 935 589 936 590 936 597 937 598 937 610 938 611 938 654 937 655 937 667 936 668 936 679 935 680 935 688 934 689 934 690 933 691 933 693 932 694 932 696 931 697 931 699 930 700 930 703 929 704 929 708 928 709 928 713 927 714 927 717 926 718 926 720 925 721 926 722 926 723 932 729 934 729 935 730 943 730 944 731 949 731 950 730 955 730 956 729 961 729 962 728 963 728 964 727 965 727 967 725 968 725 973 720 973 719 975 717 975 716 976 715 976 714 977 713 977 712 978 711 978 710 979 709 979 708 980 707 980 685 981 684 981 677 982 676 982 660 983 659 983 647 982 646 982 631 983 630 983 567 984 566 984 552 985 551 985 547 986 546 986 543 987 542 987 541 988 540 988 538 989 537 989 536 990 535 990 534 991 533 991 532 992 531 992 530 994 528 994 527 995 526 995 525 997 523 997 522 999 520 999 519 1003 515 1003 514 1005 512 1006 513 1008 513 1009 514 1011 514 1012 515 1014 515 1015 516 1017 516 1018 517 1019 517 1020 518 1021 518 1036 533 1036 534 1038 536 1038 537 1039 538 1039 539 1040 540 1040 541 1041 542 1041 543 1042 544 1042 545 1043 546 1043 548 1044 549 1044 550 1045 551 1045 552 1046 553 1046 554 1047 555 1047 556 1049 558 1049 559 1051 561 1051 562 1052 563 1052 564 1053 565 1053 567 1054 568 1054 571 1055 572 1055 575 1056 576 1056 579 1057 580 1057 583 1058 584 1058 585 1059 586 1059 588 1060 589 1060 590 1062 592 1062 593 1063 594 1063 595 1065 597 1065 598 1066 599 1066 600 1067 601 1067 603 1068 604 1068 607 1069 608 1069 611 1070 612 1070 616 1071 617 1071 620 1072 621 1072 622 1073 623 1073 625 1074 626 1074 627 1075 628 1075 629 1077 631 1077 632 1079 634 1079 635 1080 636 1080 637 1081 638 1081 640 1082 641 1082 643 1083 644 1083 646 1084 647 1084 649 1085 650 1085 652 1086 653 1086 672 1087 673 1087 678 1088 679 1088 684 1089 685 1089 689 1090 690 1090 693 1091 694 1091 697 1092 698 1092 699 1093 700 1093 701 1095 703 1095 704 1098 707 1099 707 1101 709 1102 709 1103 710 1104 710 1105 711 1119 711 1120 710 1122 710 1124 708 1125 708 1126 707 1127 707 1131 703 1131 702 1132 701 1132 700 1134 698 1134 696 1135 695 1135 693 1136 692 1136 690 1137 689 1137 686 1136 685 1136 684 1134 682 1134 681 1133 680 1133 679 1131 677 1131 675 1130 674 1130 673 1129 672 1129 670 1128 669 1128 668 1127 667 1127 665 1126 664 1126 663 1125 662 1125 660 1124 659 1124 658 1123 657 1123 655 1122 654 1122 652 1121 651 1121 649 1120 648 1120 646 1119 645 1119 643 1118 642 1118 639 1117 638 1117 635 1116 634 1116 629 1115 628 1115 622 1114 621 1114 615 1113 614 1113 608 1112 607 1112 601 1111 600 1111 595 1110 594 1110 589 1109 588 1109 586 1108 585 1108 582 1107 581 1107 580 1106 579 1106 578 1105 577 1105 575 1104 574 1104 572 1103 571 1103 568 1102 567 1102 565 1101 564 1101 563 1100 562 1100 561 1099 560 1099 559 1098 558 1098 557 1097 556 1097 555 1096 554 1096 553 1095 552 1095 551 1094 550 1094 549 1092 547 1092 546 1090 544 1090 543 1089 542 1089 541 1088 540 1088 539 1087 538 1087 537 1086 536 1086 534 1085 533 1085 531 1084 530 1084 527 1083 526 1083 525 1082 524 1082 522 1081 521 1081 519 1080 518 1080 517 1079 516 1079 514 1078 513 1078 510 1077 509 1077 507 1076 506 1076 504 1075 503 1075 501 1074 500 1074 499 1073 498 1073 496 1072 495 1072 494 1071 493 1071 491 1070 490 1070 488 1069 487 1069 485 1068 484 1068 482 1067 481 1067 480 1066 479 1066 478 1061 473 1061 472 1058 469 1058 468 1057 467 1057 466 1056 465 1056 464 1055 463 1055 455 1054 454 1054 442 1055 441 1055 438 1056 437 1056 434 1057 433 1057 431 1058 430 1058 429 1062 425 1064 425 1065 426 1068 426 1069 427 1072 427 1073 428 1076 428 1078 430 1079 430 1084 435 1085 435 1087 437 1088 437 1089 438 1090 438 1098 446 1098 447 1100 449 1100 450 1102 452 1102 453 1104 455 1104 456 1106 458 1106 459 1107 460 1107 461 1108 462 1108 463 1109 464 1109 466 1110 467 1110 470 1111 471 1111 474 1112 475 1112 479 1113 480 1113 485 1114 486 1114 491 1115 492 1115 496 1116 497 1116 501 1117 502 1117 505 1118 506 1118 508 1119 509 1119 512 1120 513 1120 517 1121 518 1121 534 1122 535 1122 538 1123 539 1123 543 1124 544 1124 547 1125 548 1125 549 1126 550 1126 551 1130 555 1131 555 1133 557 1134 557 1135 558 1136 557 1137 557 1138 556 1140 556 1141 555 1143 555 1144 554 1147 554 1148 553 1149 553 1150 552 1150 551 1151 550 1151 548 1152 547 1152 542 1153 541 1153 535 1154 534 1154 531 1153 530 1153 522 1152 521 1152 515 1151 514 1151 512 1150 511 1150 510 1149 509 1149 508 1146 505 1146 504 1145 503 1145 502 1143 500 1143 498 1142 497 1142 493 1141 492 1141 485 1140 484 1140 478 1139 477 1139 471 1138 470 1138 466 1137 465 1137 461 1136 460 1136 456 1135 455 1135 453 1134 452 1134 449 1133 448 1133 447 1132 446 1132 445 1131 444 1131 443 1129 441 1129 440 1128 439 1128 437 1127 436 1127 435 1126 434 1126 432 1125 431 1125 429 1124 428 1124 426 1123 425 1123 423 1122 422 1122 421 1121 420 1121 418 1120 417 1120 416 1119 415 1119 414 1118 413 1118 412 1117 411 1117 410 1116 409 1116 408 1115 407 1115 406 1114 405 1114 404 1113 403 1113 402 1112 401 1112 400 1111 399 1111 398 1110 397 1110 396 1109 395 1109 393 1108 392 1108 391 1107 390 1107 388 1106 387 1106 386 1104 384 1104 383 1102 381 1102 380 1101 379 1101 378 1100 377 1100 376 1099 375 1099 374 1098 373 1098 372 1097 371 1097 369 1096 368 1096 367 1095 366 1095 365 1094 364 1094 363 1093 362 1093 360 1092 359 1092 356 1091 355 1091 353 1090 352 1090 350 1089 349 1089 346 1088 345 1088 342 1087 341 1087 340 1086 339 1086 338 1085 337 1085 335 1084 334 1084 333 1083 332 1083 330 1082 329 1082 328 1081 327 1081 325 1080 324 1080 318 1079 317 1079 311 1078 310 1078 306 1077 305 1077 303 1076 302 1076 301 1075 300 1075 298 1074 297 1074 296 1073 295 1073 293 1072 292 1072 291 1068 287 1068 286 1064 282 1063 282 1062 281 1060 281 1059 280 1056 280 1055 279 1051 279 1050 278 "/></svg>