<svg width="1920" height="1080" xmlns="http://www.w3.org/2000/svg"><path d="M1048 267 1047 268 1040 268 1039 269 1036 269 1035 270 1032 270 1031 271 1029 271 1028 272 1027 272 1026 273 1025 273 1024 274 1022 274 1021 275 1020 275 1019 276 1018 276 1017 277 1014 277 1013 278 1006 278 1005 279 1001 279 1000 280 998 280 997 281 995 281 994 282 991 282 990 283 989 282 985 282 984 281 979 281 978 280 975 280 974 281 969 281 968 282 964 282 963 283 961 283 960 284 959 284 958 285 957 285 956 286 954 286 953 287 952 287 951 288 950 288 948 290 947 290 945 292 944 292 943 293 942 293 941 294 940 294 939 295 937 295 936 296 935 296 934 297 933 297 932 298 931 298 930 299 929 299 928 300 927 300 926 301 925 301 921 305 920 305 917 308 916 308 914 310 913 310 912 311 910 311 909 312 908 312 907 313 904 313 903 314 901 314 900 315 892 315 891 316 886 316 885 317 884 317 883 318 882 318 881 319 880 319 879 320 878 320 875 323 871 323 870 324 861 324 859 326 858 326 857 327 856 327 855 328 854 328 853 329 851 329 850 330 849 330 848 331 847 331 846 332 844 332 843 333 842 333 841 334 840 334 839 335 838 335 838 336 839 337 840 337 841 338 842 338 843 339 845 339 846 340 847 340 848 341 851 341 852 342 855 342 856 343 860 343 861 344 863 344 864 343 878 343 879 342 896 342 897 341 900 341 901 342 903 342 904 343 906 343 907 344 908 344 909 345 910 345 911 346 912 346 915 349 915 350 916 351 916 353 917 354 917 360 918 361 918 371 919 372 919 395 918 396 918 423 917 424 917 459 918 460 918 471 919 472 919 485 920 486 920 493 921 494 921 501 922 502 922 505 923 506 923 509 924 510 924 512 925 513 925 515 926 516 926 517 927 518 927 520 928 521 928 522 929 523 929 526 930 527 930 530 931 531 931 535 932 536 932 542 933 543 933 549 934 550 934 554 935 555 935 559 936 560 936 563 937 564 937 567 938 568 938 570 939 571 939 573 940 574 940 576 941 577 941 580 942 581 942 585 943 586 943 589 944 590 944 594 945 595 945 599 946 600 946 607 947 608 947 614 948 615 948 626 949 627 949 639 950 640 950 653 949 654 949 657 948 658 948 661 947 662 947 665 946 666 946 670 945 671 945 674 944 675 944 677 943 678 943 679 940 682 940 683 941 684 942 684 945 687 946 687 947 688 948 688 949 689 950 689 951 690 955 690 956 689 963 689 964 688 966 688 967 687 969 687 970 686 971 686 972 685 973 685 974 684 975 684 976 683 977 683 985 675 986 675 991 670 991 669 993 667 993 663 994 662 994 648 995 647 995 616 994 615 994 611 993 610 993 607 992 606 992 604 991 603 991 600 990 599 990 596 989 595 989 591 988 590 988 586 987 585 987 582 986 581 986 579 985 578 985 575 984 574 984 570 983 569 983 560 982 559 982 545 981 544 981 516 982 515 982 508 983 507 983 500 984 499 984 497 985 496 985 494 986 493 986 492 987 491 987 489 989 487 989 486 992 483 992 482 999 475 1000 475 1002 473 1007 473 1008 474 1012 474 1013 475 1016 475 1017 476 1019 476 1020 477 1021 477 1022 478 1023 478 1024 479 1025 479 1027 481 1028 481 1032 485 1033 485 1037 489 1038 489 1041 492 1042 492 1045 495 1045 496 1048 499 1048 500 1049 501 1049 502 1050 503 1050 505 1051 506 1051 508 1052 509 1052 511 1053 512 1053 514 1054 515 1054 517 1055 518 1055 519 1056 520 1056 521 1057 522 1057 523 1058 524 1058 525 1059 526 1059 528 1060 529 1060 532 1061 533 1061 536 1062 537 1062 543 1063 544 1063 548 1064 549 1064 552 1065 553 1065 554 1066 555 1066 556 1068 558 1068 559 1070 561 1070 562 1071 563 1071 564 1072 565 1072 566 1073 567 1073 568 1074 569 1074 571 1075 572 1075 574 1076 575 1076 576 1077 577 1077 579 1078 580 1078 582 1079 583 1079 584 1081 586 1081 587 1084 590 1084 591 1085 592 1085 593 1086 594 1086 595 1087 596 1087 597 1088 598 1088 600 1089 601 1089 603 1090 604 1090 606 1091 607 1091 608 1092 609 1092 611 1093 612 1093 613 1095 615 1095 617 1096 618 1096 626 1097 627 1097 633 1098 634 1098 636 1099 637 1099 638 1100 639 1100 640 1101 641 1101 642 1102 643 1102 644 1104 646 1104 647 1106 649 1106 650 1107 651 1108 651 1112 655 1113 655 1114 656 1115 656 1117 658 1127 658 1128 657 1132 657 1133 656 1134 656 1140 650 1140 633 1139 632 1139 631 1138 630 1138 628 1137 627 1137 625 1136 624 1136 622 1135 621 1135 619 1134 618 1134 616 1133 615 1133 613 1132 612 1132 610 1131 609 1131 608 1130 607 1130 606 1129 605 1129 604 1128 603 1128 602 1127 601 1127 599 1126 598 1126 594 1125 593 1125 589 1124 588 1124 584 1123 583 1124 582 1124 578 1125 577 1125 575 1128 572 1129 572 1130 571 1131 571 1134 568 1135 568 1138 565 1139 565 1140 564 1141 564 1142 563 1143 563 1155 551 1155 550 1156 549 1156 548 1157 547 1163 547 1163 511 1157 511 1156 510 1156 509 1154 507 1154 506 1152 504 1152 503 1151 502 1151 501 1150 500 1150 499 1149 498 1149 497 1148 496 1148 495 1146 493 1146 492 1145 491 1145 490 1141 486 1141 485 1140 484 1140 483 1139 482 1139 481 1138 480 1138 479 1137 478 1137 476 1136 475 1136 473 1135 472 1135 469 1134 468 1134 465 1133 464 1133 460 1132 459 1132 456 1131 455 1131 452 1130 451 1130 450 1128 448 1128 447 1127 446 1127 444 1126 443 1126 441 1125 440 1125 438 1124 437 1124 434 1123 433 1123 430 1122 429 1122 426 1121 425 1121 423 1120 422 1120 419 1119 418 1119 416 1118 415 1118 414 1117 413 1117 412 1116 411 1116 410 1115 409 1115 408 1114 407 1114 406 1113 405 1113 403 1112 402 1112 399 1111 398 1111 395 1110 394 1110 391 1109 390 1109 387 1108 386 1108 384 1106 382 1106 381 1100 375 1100 374 1098 372 1098 371 1096 369 1096 367 1095 366 1095 364 1094 363 1094 360 1093 359 1093 358 1092 357 1092 355 1091 354 1091 352 1090 351 1090 349 1089 348 1089 346 1088 345 1088 344 1087 343 1087 342 1086 341 1086 340 1085 339 1085 338 1083 336 1083 334 1084 333 1084 329 1085 328 1085 322 1086 321 1086 318 1085 317 1085 313 1084 312 1084 308 1083 307 1083 302 1082 301 1082 298 1081 297 1081 294 1080 293 1080 290 1079 289 1079 287 1078 286 1078 285 1077 284 1077 283 1075 281 1075 280 1071 276 1071 275 1068 272 1067 272 1066 271 1065 271 1064 270 1063 270 1062 269 1060 269 1059 268 1057 268 1056 267 "/></svg>