<svg width="1920" height="1080" xmlns="http://www.w3.org/2000/svg"><path d="M1026 312 1025 313 1022 313 1021 314 1019 314 1018 315 1016 315 1015 316 1013 316 1012 317 1011 317 1010 318 1009 318 1008 319 1007 319 1006 320 1005 320 1003 322 1002 322 1001 323 1001 324 998 327 998 328 997 329 997 330 994 333 993 333 987 339 986 339 985 340 985 341 976 350 975 350 973 352 972 352 971 353 970 353 969 354 968 354 967 355 966 355 965 356 963 356 962 357 961 357 960 358 959 358 958 359 957 359 956 360 955 360 954 361 953 361 949 365 948 365 945 368 944 368 943 369 942 369 941 370 940 370 939 371 938 371 937 372 935 372 934 373 933 373 932 374 931 374 930 375 929 375 928 376 927 376 926 377 925 377 914 388 913 388 898 403 897 403 896 404 895 404 893 406 892 406 891 407 889 407 882 414 882 415 881 416 881 417 872 426 872 427 870 429 870 430 868 432 868 433 867 434 867 435 865 437 865 438 862 441 862 442 861 443 861 444 860 445 860 446 859 447 859 449 858 450 858 453 857 454 857 458 856 459 856 462 855 463 855 471 854 472 854 480 853 481 853 487 852 488 852 492 851 493 851 502 852 503 852 504 853 505 853 507 854 508 854 510 855 511 855 513 856 514 856 516 860 520 861 520 863 522 864 521 865 521 867 519 868 519 872 515 872 514 873 513 873 512 875 510 875 509 876 508 876 507 877 506 877 504 878 503 878 502 879 501 879 497 880 496 880 481 881 480 881 475 882 474 882 469 883 468 883 465 884 464 884 462 885 461 885 460 886 459 886 458 887 457 887 456 890 453 890 452 893 449 893 448 899 442 900 442 901 441 902 441 903 440 905 440 906 439 909 439 910 438 913 438 914 437 926 437 930 441 930 442 932 444 932 445 933 446 933 448 934 449 934 457 935 458 935 465 936 466 936 478 937 479 937 482 936 483 936 486 935 487 935 491 934 492 934 496 933 497 933 504 932 505 932 514 931 515 931 529 930 530 930 536 931 537 931 552 932 553 932 562 933 563 933 576 934 577 934 588 935 589 935 597 936 598 936 615 937 616 937 624 938 625 938 631 939 632 939 641 938 642 938 656 937 657 937 667 936 668 936 673 935 674 935 679 934 680 934 685 933 686 933 688 932 689 932 691 931 692 931 694 930 695 930 697 929 698 929 699 928 700 928 701 927 702 927 704 926 705 926 707 925 708 925 710 924 711 924 712 923 713 923 715 922 716 922 717 921 718 921 719 922 720 922 721 923 722 923 724 924 725 924 726 926 728 926 729 928 729 929 730 934 730 935 731 940 731 941 730 946 730 947 729 952 729 953 728 954 728 955 727 956 727 957 726 958 726 959 725 960 725 961 724 962 724 963 723 964 723 967 720 967 719 968 718 968 717 969 716 969 715 970 714 970 713 971 712 971 711 972 710 972 709 973 708 973 707 974 706 974 705 975 704 975 703 976 702 976 700 977 699 977 694 978 693 978 686 979 685 979 680 980 679 980 672 981 671 981 659 980 658 980 648 981 647 981 639 982 638 982 617 983 616 983 609 984 608 984 601 985 600 985 592 986 591 986 584 987 583 987 581 988 580 988 578 990 576 990 575 991 574 991 573 992 572 992 571 993 570 993 569 994 568 994 566 995 565 995 563 996 562 996 561 997 560 997 559 998 558 998 557 999 556 999 555 1001 553 1001 552 1002 551 1011 560 1012 560 1017 565 1017 566 1018 567 1018 568 1019 569 1019 570 1020 571 1020 572 1021 573 1021 574 1022 575 1022 576 1023 577 1023 578 1025 580 1025 582 1026 583 1026 584 1028 586 1028 587 1030 589 1030 590 1031 591 1031 593 1032 594 1032 595 1033 596 1033 598 1034 599 1034 601 1035 602 1035 603 1037 605 1037 606 1039 608 1039 609 1043 613 1043 614 1044 615 1044 616 1045 617 1045 619 1046 620 1046 624 1047 625 1047 628 1048 629 1048 632 1049 633 1049 635 1050 636 1050 637 1051 638 1051 640 1053 642 1053 643 1054 644 1054 645 1055 646 1055 647 1056 648 1056 649 1057 650 1057 654 1058 655 1058 662 1059 663 1059 670 1060 671 1060 677 1061 678 1061 683 1062 684 1062 687 1063 688 1063 691 1064 692 1064 694 1065 695 1065 697 1066 698 1066 700 1067 701 1067 703 1068 704 1068 707 1069 708 1069 712 1070 713 1070 717 1071 718 1071 719 1072 720 1072 721 1073 722 1073 723 1075 725 1075 726 1080 731 1081 731 1088 738 1089 738 1091 740 1104 740 1105 739 1106 739 1107 738 1108 738 1109 737 1110 737 1112 735 1113 735 1118 730 1118 729 1120 727 1120 726 1121 725 1121 724 1122 723 1122 721 1123 720 1123 717 1122 716 1122 715 1121 714 1121 713 1119 711 1119 710 1118 709 1118 708 1117 707 1117 706 1116 705 1116 704 1115 703 1115 702 1114 701 1114 700 1113 699 1113 698 1112 697 1112 696 1111 695 1111 694 1110 693 1110 692 1109 691 1109 690 1108 689 1108 687 1107 686 1107 684 1106 683 1106 682 1105 681 1105 680 1104 679 1104 678 1103 677 1103 676 1102 675 1102 674 1101 673 1101 672 1100 671 1100 669 1099 668 1099 663 1098 662 1098 655 1097 654 1097 646 1096 645 1096 637 1095 636 1095 630 1094 629 1094 624 1093 623 1093 619 1092 618 1092 616 1091 615 1091 614 1090 613 1090 611 1089 610 1089 609 1088 608 1088 606 1087 605 1087 603 1086 602 1086 599 1085 598 1085 594 1084 593 1084 589 1083 588 1083 584 1082 583 1082 580 1081 579 1081 578 1080 577 1080 575 1079 574 1079 573 1078 572 1078 571 1077 570 1077 569 1076 568 1076 565 1075 564 1075 560 1074 559 1074 553 1073 552 1073 547 1072 546 1072 542 1071 541 1071 538 1070 537 1070 533 1069 532 1069 531 1068 530 1068 528 1066 526 1066 525 1064 523 1064 522 1062 520 1062 519 1060 517 1060 515 1059 514 1059 510 1058 509 1058 507 1057 506 1057 503 1056 502 1056 499 1055 498 1055 495 1054 494 1054 491 1053 490 1053 488 1052 487 1052 484 1051 483 1051 481 1052 480 1052 479 1053 478 1053 476 1055 474 1055 472 1056 471 1056 470 1057 469 1057 468 1058 467 1058 466 1059 465 1059 463 1060 462 1060 461 1062 459 1062 458 1063 457 1063 456 1066 453 1067 453 1068 452 1070 452 1071 451 1072 451 1073 450 1075 450 1076 449 1081 449 1082 450 1085 450 1086 451 1089 451 1090 452 1092 452 1093 453 1094 453 1095 454 1096 454 1097 455 1098 455 1100 457 1101 457 1102 458 1103 458 1105 460 1105 461 1107 463 1107 464 1108 465 1108 467 1109 468 1109 469 1110 470 1110 472 1111 473 1111 474 1112 475 1112 476 1113 477 1113 479 1114 480 1114 481 1115 482 1115 483 1117 485 1117 486 1118 487 1118 488 1120 490 1120 492 1121 493 1121 494 1122 495 1122 497 1123 498 1123 500 1124 501 1124 502 1125 503 1125 505 1126 506 1126 507 1127 508 1127 509 1129 511 1129 512 1131 514 1131 516 1132 517 1132 519 1133 520 1133 522 1134 523 1134 526 1135 527 1135 530 1136 531 1136 534 1137 535 1137 537 1138 538 1138 540 1139 541 1139 543 1140 544 1140 545 1141 546 1141 547 1142 548 1142 549 1143 550 1143 551 1144 552 1144 553 1145 554 1145 555 1146 556 1146 557 1147 558 1147 559 1148 560 1148 561 1149 562 1149 563 1150 564 1150 565 1151 566 1151 567 1154 570 1156 570 1157 571 1159 571 1160 572 1163 572 1164 573 1168 573 1170 571 1171 571 1175 567 1175 563 1176 562 1176 551 1177 550 1176 549 1176 546 1175 545 1175 542 1174 541 1174 537 1173 536 1173 532 1172 531 1172 529 1171 528 1171 527 1170 526 1170 524 1169 523 1169 522 1167 520 1167 519 1165 517 1165 516 1164 515 1164 514 1163 513 1163 511 1162 510 1162 508 1161 507 1161 505 1160 504 1160 501 1159 500 1159 497 1158 496 1158 494 1157 493 1157 492 1156 491 1156 490 1155 489 1155 488 1154 487 1154 486 1152 484 1152 483 1151 482 1151 481 1150 480 1150 479 1149 478 1149 477 1148 476 1148 474 1147 473 1147 472 1146 471 1146 469 1145 468 1145 467 1144 466 1144 464 1143 463 1143 462 1142 461 1142 460 1140 458 1140 457 1138 455 1138 454 1137 453 1137 452 1136 451 1136 449 1135 448 1135 446 1134 445 1134 443 1133 442 1133 441 1132 440 1132 439 1131 438 1131 437 1130 436 1130 435 1129 434 1129 433 1128 432 1128 431 1125 428 1125 427 1122 424 1122 423 1119 420 1119 419 1117 417 1117 416 1115 414 1115 413 1112 410 1112 409 1110 407 1110 406 1108 404 1108 403 1106 401 1106 400 1105 399 1105 398 1102 395 1102 394 1098 390 1098 389 1096 387 1096 386 1095 385 1095 384 1094 383 1094 382 1093 381 1093 380 1092 379 1092 378 1091 377 1091 376 1090 375 1090 374 1088 372 1088 371 1087 370 1087 369 1086 368 1086 367 1085 366 1085 364 1084 363 1084 362 1081 359 1081 358 1074 351 1074 350 1072 348 1072 347 1071 346 1071 345 1070 344 1070 343 1069 342 1069 341 1068 340 1068 339 1067 338 1067 337 1066 336 1066 335 1063 332 1063 331 1061 329 1061 328 1057 324 1057 323 1053 319 1052 319 1051 318 1050 318 1049 317 1048 317 1047 316 1046 316 1045 315 1043 315 1042 314 1041 314 1040 313 1033 313 1032 312 "/></svg>